<svg id="bfe4f8c1-9ce2-41d8-b070-e097b5bf369f" data-name="Layer 1" xmlns="http://www.w3.org/2000/svg" xmlns:xlink="http://www.w3.org/1999/xlink" viewBox="0 0 500 580"><defs><style>.eece5ca2-c30c-4cd1-b5d3-58153587e0f0{opacity:0.15;fill:url(#bdb5a656-76ff-420c-930b-dec636c665c8);}.bde66961-25de-4ebc-acf7-6534d8adef61{fill:#c3ddd1;}.e8a540cb-a3c9-4217-938c-8592e38ccf34{opacity:0.25;}.e309c02b-a012-4659-9feb-56b6aaf019b9{fill:#339e6d;}.b5ab7da9-25b9-4104-8a75-da7a83af6b4d{fill:#3dba85;}.ae1ee869-52bd-48a6-b7b0-4a02636a82c5,.b89d722b-6c73-430f-9fac-2d305ebd33c4,.b9ee277d-c9f4-4ee6-a55f-617c35cae6a2{fill:#fff;}.a9583284-6384-49c5-8058-69f7e84e6f05,.ae1ee869-52bd-48a6-b7b0-4a02636a82c5{opacity:0.55;}.a71e34a8-78d3-477b-88b4-2eb056c9e124,.fab588ad-8fc2-4a73-85ab-d7cd59851a72,.ff5e8412-b91b-42d0-9e57-7a2e55638f11{fill:none;stroke-miterlimit:10;}.ff5e8412-b91b-42d0-9e57-7a2e55638f11{stroke:#fff;stroke-width:1.36px;}.a1dc9ed2-fcba-4da8-8dca-46c463303b2a{fill:#2f9365;}.abbf3440-4cc7-470c-8e72-7a7872fd2477{fill:url(#b43bd232-9f1a-4fbb-814e-204b5f09f009);}.b3dd8f96-0a3a-4f42-a35b-2a38bcbf4d0e{fill:url(#a3949ee8-01f0-4215-b725-5ec9f66617eb);}.e65b5290-c5fd-407f-b81a-c1a2a66e3e71{fill:#59ce99;}.a71e34a8-78d3-477b-88b4-2eb056c9e124{stroke-width:1.43px;stroke:url(#e62a0c35-c2a6-4f7d-95d1-983ac0cb6a6f);}.f65c8df1-e43b-4b2a-9b7a-8265f408c279{fill:#fbe5b8;}.af32c1f4-de2c-4a00-8508-8e4bfaf192a7{fill:#5f0c39;}.b0398f6b-c06f-4a29-9c96-65b86a0be057{fill:url(#a024939e-e5f5-41e3-8a96-547678407c89);}.af089196-f279-4072-834f-e8ce20ae64ed{opacity:0.33;}.fab588ad-8fc2-4a73-85ab-d7cd59851a72{stroke:#2f9365;stroke-width:0.87px;}.b9ee277d-c9f4-4ee6-a55f-617c35cae6a2{opacity:0.49;}</style><linearGradient id="bdb5a656-76ff-420c-930b-dec636c665c8" x1="-5.58" y1="290" x2="786.53" y2="290" gradientUnits="userSpaceOnUse"><stop offset="0.26" stop-color="#3dba85"/><stop offset="1" stop-color="#3dda85"/></linearGradient><linearGradient id="b43bd232-9f1a-4fbb-814e-204b5f09f009" x1="215.25" y1="462.55" x2="230.8" y2="462.55" xlink:href="#bdb5a656-76ff-420c-930b-dec636c665c8"/><linearGradient id="a3949ee8-01f0-4215-b725-5ec9f66617eb" x1="205.47" y1="413.53" x2="236.57" y2="413.53" xlink:href="#bdb5a656-76ff-420c-930b-dec636c665c8"/><linearGradient id="e62a0c35-c2a6-4f7d-95d1-983ac0cb6a6f" x1="284.71" y1="396.96" x2="365.95" y2="396.96" xlink:href="#bdb5a656-76ff-420c-930b-dec636c665c8"/><linearGradient id="a024939e-e5f5-41e3-8a96-547678407c89" x1="402.16" y1="246.07" x2="462.67" y2="181.45" gradientUnits="userSpaceOnUse"><stop offset="0" stop-color="#fff" stop-opacity="0"/><stop offset="1" stop-color="#fff"/></linearGradient></defs><title>Use-Case, Insight Cards</title><rect class="eece5ca2-c30c-4cd1-b5d3-58153587e0f0" x="7.39" y="4.24" width="485.21" height="571.53" rx="12.54"/><rect class="bde66961-25de-4ebc-acf7-6534d8adef61" x="48.96" y="121.73" width="235.74" height="94.01" rx="9.4"/><g class="e8a540cb-a3c9-4217-938c-8592e38ccf34"><rect class="e309c02b-a012-4659-9feb-56b6aaf019b9" x="39.1" y="108.12" width="47.37" height="47.37" rx="7.38"/><polygon class="e309c02b-a012-4659-9feb-56b6aaf019b9" points="64.32 155.49 75.34 169.32 75.34 155.49 64.32 155.49"/></g><rect class="b5ab7da9-25b9-4104-8a75-da7a83af6b4d" x="34.8" y="103.83" width="47.37" height="47.37" rx="7.38"/><polygon class="b5ab7da9-25b9-4104-8a75-da7a83af6b4d" points="60.02 151.19 71.05 165.02 71.05 151.19 60.02 151.19"/><rect class="b5ab7da9-25b9-4104-8a75-da7a83af6b4d" x="118.2" y="140.53" width="26.48" height="6.51" rx="3.25"/><rect class="b5ab7da9-25b9-4104-8a75-da7a83af6b4d" x="149.75" y="140.53" width="17.08" height="6.51" rx="3.25"/><circle class="b5ab7da9-25b9-4104-8a75-da7a83af6b4d" cx="102.54" cy="143.78" r="8.08"/><circle class="e309c02b-a012-4659-9feb-56b6aaf019b9" cx="45.47" cy="118.65" r="5.79"/><circle class="ae1ee869-52bd-48a6-b7b0-4a02636a82c5" cx="62.14" cy="118.65" r="5.79"/><circle class="ae1ee869-52bd-48a6-b7b0-4a02636a82c5" cx="62.14" cy="134.74" r="5.79"/><circle class="ae1ee869-52bd-48a6-b7b0-4a02636a82c5" cx="45.47" cy="134.74" r="5.79"/><g class="a9583284-6384-49c5-8058-69f7e84e6f05"><circle class="b89d722b-6c73-430f-9fac-2d305ebd33c4" cx="100.14" cy="201.81" r="4.59"/><circle class="b89d722b-6c73-430f-9fac-2d305ebd33c4" cx="119.14" cy="201.81" r="4.59"/><circle class="b89d722b-6c73-430f-9fac-2d305ebd33c4" cx="138.14" cy="201.81" r="4.59"/></g><rect class="b5ab7da9-25b9-4104-8a75-da7a83af6b4d" x="95.19" y="164.81" width="37" height="3.31" rx="1.66"/><rect class="b5ab7da9-25b9-4104-8a75-da7a83af6b4d" x="95.19" y="172.88" width="66.77" height="3.31" rx="1.66"/><rect class="b5ab7da9-25b9-4104-8a75-da7a83af6b4d" x="169.31" y="172.88" width="23.98" height="3.31" rx="1.66"/><rect class="b5ab7da9-25b9-4104-8a75-da7a83af6b4d" x="95.19" y="180.96" width="82.08" height="3.31" rx="1.66"/><rect class="b5ab7da9-25b9-4104-8a75-da7a83af6b4d" x="145.62" y="164.81" width="58.54" height="3.31" rx="1.66"/><rect class="b5ab7da9-25b9-4104-8a75-da7a83af6b4d" x="211.79" y="164.81" width="36.99" height="3.31" rx="1.66"/><rect class="b5ab7da9-25b9-4104-8a75-da7a83af6b4d" x="206.58" y="56.36" width="48.75" height="47.12" rx="4.84"/><path class="ff5e8412-b91b-42d0-9e57-7a2e55638f11" d="M244.26,78.44V89.93a3.88,3.88,0,0,1-3.87,3.87H220.76a3.87,3.87,0,0,1-3.87-3.87V70.3a3.87,3.87,0,0,1,3.87-3.87h11.62"/><path class="ff5e8412-b91b-42d0-9e57-7a2e55638f11" d="M238.38,61.43h0a3.87,3.87,0,0,1,3.87,3.87V85.55a0,0,0,0,1,0,0h-7.73a0,0,0,0,1,0,0V65.3a3.87,3.87,0,0,1,3.87-3.87Z" transform="translate(121.79 -147.04) rotate(45)"/><line class="ff5e8412-b91b-42d0-9e57-7a2e55638f11" x1="239.05" y1="67.36" x2="244.52" y2="72.83"/><polygon class="ff5e8412-b91b-42d0-9e57-7a2e55638f11" points="225.31 81.1 230.78 86.56 222.85 89.02 225.31 81.1"/><rect class="b5ab7da9-25b9-4104-8a75-da7a83af6b4d" x="270.08" y="56.36" width="48.75" height="47.12" rx="4.84"/><line class="ff5e8412-b91b-42d0-9e57-7a2e55638f11" x1="277.98" y1="66.43" x2="304.88" y2="66.43"/><line class="ff5e8412-b91b-42d0-9e57-7a2e55638f11" x1="277.98" y1="72.83" x2="304.88" y2="72.83"/><line class="ff5e8412-b91b-42d0-9e57-7a2e55638f11" x1="277.98" y1="80.11" x2="304.88" y2="80.11"/><path class="ff5e8412-b91b-42d0-9e57-7a2e55638f11" d="M278.77,86.29A14,14,0,0,0,303,88.66a14.53,14.53,0,0,0,1.06-1.77"/><polygon class="b5ab7da9-25b9-4104-8a75-da7a83af6b4d" points="127.62 79.84 127.34 91.92 196.75 50.48 128.17 57.22 128.54 65.46 155.62 64.1 127.62 79.84"/><polygon class="a1dc9ed2-fcba-4da8-8dca-46c463303b2a" points="128.54 65.46 140.84 72.41 155.62 64.1 128.54 65.46"/><polygon class="a1dc9ed2-fcba-4da8-8dca-46c463303b2a" points="148.12 79.51 153.08 81.7 196.75 50.48 148.12 79.51"/><polygon class="b5ab7da9-25b9-4104-8a75-da7a83af6b4d" points="95.17 75.39 95.06 79.96 121.3 64.29 95.37 66.84 95.51 69.96 105.75 69.44 95.17 75.39"/><polygon class="a1dc9ed2-fcba-4da8-8dca-46c463303b2a" points="95.51 69.96 100.16 72.58 105.75 69.44 95.51 69.96"/><polygon class="a1dc9ed2-fcba-4da8-8dca-46c463303b2a" points="102.92 75.27 104.79 76.1 121.3 64.29 102.92 75.27"/><polygon class="b5ab7da9-25b9-4104-8a75-da7a83af6b4d" points="376.44 554.71 252.28 554.71 261.46 456.69 313.74 456.69 331.38 477.6 385.62 477.6 376.44 554.71"/><polygon class="a1dc9ed2-fcba-4da8-8dca-46c463303b2a" points="252.28 554.71 235.62 496.55 257.67 496.55 252.28 554.71"/><path class="b5ab7da9-25b9-4104-8a75-da7a83af6b4d" d="M227.54,540c0,6.33-3.68,13.42-10.91,13.42s-10.88-7.09-10.88-13.42c0-6.13,4.37-11.53,4.67-19.55l2.86,2.22-2.85-4.18h0c-.15-8.4-1.89-19.68-1.89-25.85,0-6.46,4.05-11.9,8.09-11.9s8,5.26,8.11,11.59L220,499.27l4.62-3.58c-.4,6.74-1.8,16.65-1.8,23.95C222.85,528.13,227.54,533.69,227.54,540Z"/><rect class="a1dc9ed2-fcba-4da8-8dca-46c463303b2a" x="216.08" y="513.98" width="1.14" height="53.26"/><path class="b5ab7da9-25b9-4104-8a75-da7a83af6b4d" d="M211,548.15c0,4.53-2.63,9.61-7.81,9.61s-7.79-5.08-7.79-9.61,3.13-8.26,3.34-14l2,1.59-2-3h0c-.11-6-1.35-14.1-1.35-18.52,0-4.63,2.89-8.52,5.79-8.52s5.72,3.77,5.81,8.3l-3.37,5,3.3-2.56c-.29,4.83-1.28,11.92-1.28,17.15C207.68,539.62,211,543.61,211,548.15Z"/><rect class="a1dc9ed2-fcba-4da8-8dca-46c463303b2a" x="202.82" y="529.49" width="0.82" height="37.75"/><circle class="abbf3440-4cc7-470c-8e72-7a7872fd2477" cx="220.27" cy="462.55" r="4.76"/><circle class="a1dc9ed2-fcba-4da8-8dca-46c463303b2a" cx="200.11" cy="439.86" r="7.65"/><circle class="b3dd8f96-0a3a-4f42-a35b-2a38bcbf4d0e" cx="215.51" cy="413.53" r="9.53"/><path class="bde66961-25de-4ebc-acf7-6534d8adef61" d="M206,342.28v62.88a4.71,4.71,0,0,1-4.72,4.71H103.17a4.71,4.71,0,0,1-4.71-4.71V359.09h25.31V337.55h77.51A4.74,4.74,0,0,1,206,342.28Z"/><path class="a1dc9ed2-fcba-4da8-8dca-46c463303b2a" d="M127.55,331.47v29.15a2.39,2.39,0,0,1-2.37,2.41H78.36A2.39,2.39,0,0,1,76,360.62V331.47a2.28,2.28,0,0,1,.35-1.26l20.25,12.61-8.13,6.42,1.17,1.48,8.66-6.85,3.48,2.18,3.36-2.13,9.19,7.6,1.19-1.45-8.7-7.21L127.05,330A2.3,2.3,0,0,1,127.55,331.47Z"/><path class="a1dc9ed2-fcba-4da8-8dca-46c463303b2a" d="M126.52,328.35l-24.76,15.5-24.88-15.3a2.3,2.3,0,0,1,2-1.11h45.81A2.33,2.33,0,0,1,126.52,328.35Z"/><rect class="a1dc9ed2-fcba-4da8-8dca-46c463303b2a" x="133.05" y="346.52" width="61.32" height="4.24"/><rect class="a1dc9ed2-fcba-4da8-8dca-46c463303b2a" x="133.05" y="356.58" width="61.32" height="4.24"/><rect class="a1dc9ed2-fcba-4da8-8dca-46c463303b2a" x="133.05" y="366.65" width="61.32" height="4.24"/><rect class="ae1ee869-52bd-48a6-b7b0-4a02636a82c5" x="121.1" y="382.21" width="29.24" height="18.87"/><polygon class="a1dc9ed2-fcba-4da8-8dca-46c463303b2a" points="199.7 392.91 199.7 419.96 137.13 419.96 137.13 401.09 150.34 401.09 150.34 392.91 199.7 392.91"/><circle class="ae1ee869-52bd-48a6-b7b0-4a02636a82c5" cx="188.78" cy="383.08" r="3.46"/><circle class="ae1ee869-52bd-48a6-b7b0-4a02636a82c5" cx="199.7" cy="383.08" r="3.46"/><circle class="bde66961-25de-4ebc-acf7-6534d8adef61" cx="210.63" cy="383.08" r="3.46"/><path class="b5ab7da9-25b9-4104-8a75-da7a83af6b4d" d="M441.23,547.3c0,1.28-8.27,2.32-18.47,2.32s-18.47-1-18.47-2.32,8.27-2.33,18.47-2.33S441.23,546,441.23,547.3Z"/><path class="b5ab7da9-25b9-4104-8a75-da7a83af6b4d" d="M433.89,503.31a17.71,17.71,0,0,1-9.39,3.27,16.13,16.13,0,0,1-4-.21,18,18,0,0,1-7.46-3.14l-1.61-1.18A18.13,18.13,0,0,1,409,499.9a17.81,17.81,0,0,1-4.9-12.91c.46-13.81,1.06-27.81,1.86-41.61l5.67,1.12,3.23.64c-.25-.13-1.49-.7-3.17-1.45s-3.62-1.65-5.6-2.52c2.11-36,5.5-70.49,11.08-96.67a5.33,5.33,0,0,1,10.49.33c.48,3.19.95,6.64,1.41,10.3,1.51,11.75,3,25.75,4.42,40.87-4.75,2-11.31,5.07-11.72,5.25l12-2.38c.41,4.3.79,8.67,1.2,13.12.06.68.12,1.38.17,2.08,2.08,23.31,4.11,48.19,6.2,71.07A17.84,17.84,0,0,1,433.89,503.31Z"/><polygon class="a1dc9ed2-fcba-4da8-8dca-46c463303b2a" points="421.04 547.81 427.6 547.81 425.81 506.47 421.04 506.45 421.04 547.81"/><polygon class="e65b5290-c5fd-407f-b81a-c1a2a66e3e71" points="419.74 547.81 426.29 547.81 421.73 442.61 419.74 547.81"/><path class="b5ab7da9-25b9-4104-8a75-da7a83af6b4d" d="M478.4,547.3c0,1.28-8.27,2.32-18.47,2.32s-18.47-1-18.47-2.32,8.27-2.33,18.47-2.33S478.4,546,478.4,547.3Z"/><path class="b5ab7da9-25b9-4104-8a75-da7a83af6b4d" d="M471.06,503.31a17.74,17.74,0,0,1-9.39,3.27,16.21,16.21,0,0,1-4-.21,17.93,17.93,0,0,1-7.45-3.14l-1.61-1.18a18.84,18.84,0,0,1-2.48-2.15,17.9,17.9,0,0,1-4.9-12.91c.47-13.81,1.07-27.81,1.86-41.61l5.67,1.12,3.24.64c-.25-.13-1.49-.7-3.18-1.45s-3.62-1.65-5.59-2.52c2.11-36,5.5-70.49,11.07-96.67,1.24-5.81,9.6-5.54,10.5.33.48,3.19.94,6.64,1.41,10.3,1.51,11.75,3,25.75,4.41,40.87-4.74,2-11.3,5.07-11.71,5.25l12-2.38c.41,4.3.8,8.67,1.2,13.12.06.68.12,1.38.18,2.08,2.07,23.31,4.1,48.19,6.2,71.07A17.84,17.84,0,0,1,471.06,503.31Z"/><polyline class="a1dc9ed2-fcba-4da8-8dca-46c463303b2a" points="462.97 506.47 458.21 506.45 458.21 547.81 464.77 547.81"/><polygon class="e65b5290-c5fd-407f-b81a-c1a2a66e3e71" points="456.9 547.81 463.46 547.81 458.9 442.61 456.9 547.81"/><path class="b5ab7da9-25b9-4104-8a75-da7a83af6b4d" d="M333.33,60.57V99.65a3.91,3.91,0,0,0,3.91,3.91h40.39a3.91,3.91,0,0,0,3.91-3.91V60.57a3.91,3.91,0,0,0-3.91-3.91H337.24A3.91,3.91,0,0,0,333.33,60.57ZM377.47,94.5,366,83l-5.31,5.32L349.59,77.24,337,89.79V61.3h40.43Z"/><circle class="b5ab7da9-25b9-4104-8a75-da7a83af6b4d" cx="358.56" cy="71.59" r="4.51"/><rect class="a1dc9ed2-fcba-4da8-8dca-46c463303b2a" x="337.04" y="92.7" width="24.02" height="2.53"/><rect class="a1dc9ed2-fcba-4da8-8dca-46c463303b2a" x="337.04" y="97.98" width="28.56" height="2.53"/><polyline class="a71e34a8-78d3-477b-88b4-2eb056c9e124" points="347.18 383.57 347.18 391.42 362.03 391.42 306.28 391.42 320.57 391.42 320.57 409.63 365.95 409.63 284.71 409.63"/><polygon class="b5ab7da9-25b9-4104-8a75-da7a83af6b4d" points="309.24 192.65 273.83 192.65 273.83 163.54 289.18 163.54 293.11 169.05 309.24 169.05 309.24 192.65"/><polygon class="bde66961-25de-4ebc-acf7-6534d8adef61" points="357.44 192.65 322.03 192.65 322.03 163.54 337.37 163.54 341.31 169.05 357.44 169.05 357.44 192.65"/><path class="b5ab7da9-25b9-4104-8a75-da7a83af6b4d" d="M168.22,255.91v.33H99.72a5.46,5.46,0,0,1,5.45-5.91h57.59A5.46,5.46,0,0,1,168.22,255.91Z"/><polygon class="a1dc9ed2-fcba-4da8-8dca-46c463303b2a" points="154.38 259.45 154.91 265.36 100.47 265.36 99.98 259.45 154.38 259.45"/><polygon class="bde66961-25de-4ebc-acf7-6534d8adef61" points="163.92 269.58 164.45 275.5 101.3 275.5 100.81 269.58 163.92 269.58"/><path class="bde66961-25de-4ebc-acf7-6534d8adef61" d="M132.41,279v.56a5.46,5.46,0,0,1-5.46,5.35H107.11a5.47,5.47,0,0,1-5.45-5l-.07-.89Z"/><path class="bde66961-25de-4ebc-acf7-6534d8adef61" d="M257.11,255.91v.33h-68.5a5.46,5.46,0,0,1,5.45-5.91h57.59A5.46,5.46,0,0,1,257.11,255.91Z"/><polygon class="bde66961-25de-4ebc-acf7-6534d8adef61" points="243.27 259.45 243.8 265.36 189.36 265.36 188.87 259.45 243.27 259.45"/><polygon class="b5ab7da9-25b9-4104-8a75-da7a83af6b4d" points="252.81 269.58 253.34 275.5 190.19 275.5 189.71 269.58 252.81 269.58"/><path class="bde66961-25de-4ebc-acf7-6534d8adef61" d="M221.3,279v.56a5.46,5.46,0,0,1-5.46,5.35H196a5.47,5.47,0,0,1-5.45-5l-.07-.89Z"/><path class="bde66961-25de-4ebc-acf7-6534d8adef61" d="M346,255.91v.33H277.5a5.46,5.46,0,0,1,5.45-5.91h57.59A5.46,5.46,0,0,1,346,255.91Z"/><polygon class="b5ab7da9-25b9-4104-8a75-da7a83af6b4d" points="332.16 259.45 332.69 265.36 278.25 265.36 277.76 259.45 332.16 259.45"/><polygon class="b5ab7da9-25b9-4104-8a75-da7a83af6b4d" points="341.7 269.58 342.23 275.5 279.08 275.5 278.6 269.58 341.7 269.58"/><path class="bde66961-25de-4ebc-acf7-6534d8adef61" d="M310.19,279v.56a5.46,5.46,0,0,1-5.46,5.35H284.89a5.47,5.47,0,0,1-5.45-5l-.07-.89Z"/><path class="b5ab7da9-25b9-4104-8a75-da7a83af6b4d" d="M103.61,409.86c-1.46,1.48-3,2.88-4.57,4.21a71.77,71.77,0,0,1-9.19,6.52c-.43.25-.86.5-1.28.76-2.53.64-5.21,1.25-8.06,1.81l-1.17.22-1.43.26-.45.07H77.4c-2,.34-4,.63-5.79.87l-1.39.09-1.71.08-2.26.13-16.2.92a44.27,44.27,0,0,0-1.1-5.26,4.29,4.29,0,0,1,2.38-5.09l1.06-.46.19-.07c.27-.12.54-.23.83-.33l.25-.1c.4-.13.81-.28,1.25-.39.27-.09.57-.17.87-.24s.73-.18,1.13-.25a35.78,35.78,0,0,1,4.67-.54c.62,0,1.28,0,2,0,.52,0,1.06,0,1.62,0h.26a2.75,2.75,0,0,1,.4,0c.24,0,.5,0,.76,0,2.9.07,6.43.28,10.77.71l9.39.9.39.05c3.48-2.07,7.14-4.39,10.88-7l.87-.63a4.7,4.7,0,0,0,4.33,2.83Z"/><path class="a1dc9ed2-fcba-4da8-8dca-46c463303b2a" d="M64.11,393.09c.07.87,2.33,2.08,3.07,2.66a51.6,51.6,0,0,0,5.54,3.73A20.05,20.05,0,0,0,80.63,402c1.72.22,3.63.89,5.37.77-1.67-.12-3.27,1.49-5,1.28,2.28,1.25,3.21,4.67,4.11,6.87a68.68,68.68,0,0,0,3.49,7.28c-1.51-.53-2.78-1.46-4.22-2.11s-2.48.57-3.92,1c-3.57,1.13-8.45,0-11.39-2.11-2.28-1.65-4.66-1.46-7.24-1a10,10,0,0,1-3.49,0,11.17,11.17,0,0,1-8.52-7.75,25.71,25.71,0,0,1-1.07-7,10.06,10.06,0,0,1,.1-3.24,6.17,6.17,0,0,1,1.43-2.21Z"/><polygon class="bde66961-25de-4ebc-acf7-6534d8adef61" points="55.79 414.28 61.56 413.74 61.69 411.33 62.16 402.44 55.92 404.63 55.88 408.1 55.79 414.28"/><path class="bde66961-25de-4ebc-acf7-6534d8adef61" d="M57.79,408.1c.81,2,2,3.33,3.41,3.33a2,2,0,0,0,.63-.1l.33-8.89-4.34,2.18Z"/><path class="f65c8df1-e43b-4b2a-9b7a-8265f408c279" d="M64.42,412.1h0A0,0,0,0,1,64.42,412.1Z"/><path class="b5ab7da9-25b9-4104-8a75-da7a83af6b4d" d="M48.58,424.58c.82,2.4,1.41,4.88,3,6.9l1.62,2c.64.82,1.27,1.64,1.87,2.48.48.66.92,1.31,1.36,2,1.39,2.16,2.86,4.77,2.89,7.41a7.41,7.41,0,0,1-.33,2.19l17.27,1.64v0c-.33-5.94-.57-11.89-.81-17.79,0-.1,0-.2,0-.29a9.39,9.39,0,0,1-.07-1.19,5.84,5.84,0,0,0,2.36-4.67c-.13-3.18-2.69-4.68-5-6.49,0,0,0,0-.06-.05-.56-.45-1.12-.9-1.68-1.33q-3.17-2.49-6.36-4.91a3.36,3.36,0,0,0-2.77-.52c-.22,0-.48.05-.71.08a47.34,47.34,0,0,0-6.49,1l-1,.29a8.13,8.13,0,0,0-1.41.49,4.34,4.34,0,0,0-1,.6C48.06,416.88,47.34,420.88,48.58,424.58Z"/><path class="bde66961-25de-4ebc-acf7-6534d8adef61" d="M64.45,472.56a.83.83,0,0,1,0,.92c-1.51,2.71-1.72,9.41-1.06,16.21a73.11,73.11,0,0,0,1.6,9.88c.79,3.31,1.8,6,2.93,7.5a.64.64,0,0,1,0,.85c-2.32,2.27-2.85,6.26-3.24,9.31a90.54,90.54,0,0,0-.52,14q.11,4.08.39,8.15a46.06,46.06,0,0,0,1,8.47,2.67,2.67,0,0,0,1.11,1.79.72.72,0,0,0,.68,0,.81.81,0,0,0,.26-.29,12.81,12.81,0,0,1,1.51-2.13c1-.93.77-1.58,1-2.73.14-.83.3-1.66.45-2.49l1.62-9L75,516.9l.05-.24a96.43,96.43,0,0,0,1.5-15.07c0-.33,0-.67,0-1l.22-19.79a175.66,175.66,0,0,0,.13-21.28c0-.57-.06-1.13-.1-1.7l-.27-4.27c-.09-1.43-.18-2.87-.25-4.3v0L59,447.58a10.07,10.07,0,0,1-1.22,2.62,5.19,5.19,0,0,1-.39.61c-1,1.47-2.47,3.69-3.45,5.2l-1.05,1.64S63,459.71,64.35,473.14C64.42,472.77,64.45,472.56,64.45,472.56Z"/><path class="bde66961-25de-4ebc-acf7-6534d8adef61" d="M53.45,488.84a74.12,74.12,0,0,0-.81,10c0,3.41.31,6.3,1,8a.64.64,0,0,1-.24.81c-2.79,1.65-4.26,5.4-5.37,8.26a91,91,0,0,0-3.85,13.45q-.87,4-1.57,8a46.46,46.46,0,0,0-1.1,8.45,2.7,2.7,0,0,0,.65,2,.73.73,0,0,0,.65.21.91.91,0,0,0,.33-.22,12.27,12.27,0,0,1,2-1.71c1.15-.67,1.12-1.36,1.59-2.42.33-.78.68-1.55,1-2.32l3.73-8.38L58.14,518l.1-.23a96.05,96.05,0,0,0,5.07-14.27c.09-.32.18-.65.26-1l4.94-19.17Z"/><path class="bde66961-25de-4ebc-acf7-6534d8adef61" d="M65.62,392.87a17.19,17.19,0,0,1,.59,3.37,1.93,1.93,0,0,0,.6,1.36l1.89,1.69a.57.57,0,0,1,.11.71,2.16,2.16,0,0,1-1,.95,11.5,11.5,0,0,1-1.4,5.16,3.42,3.42,0,0,1-2,1.47c-8.67,2.53-13-1.13-14.23-9.86a7.63,7.63,0,0,1,1.29-5.45c1.74-2.5,5.33-6.36,10-4.4A7.4,7.4,0,0,1,65.62,392.87Z"/><path class="a1dc9ed2-fcba-4da8-8dca-46c463303b2a" d="M62.84,396.93a.23.23,0,0,0,.17-.1,1.37,1.37,0,0,1,1.85-.56.21.21,0,1,0,.2-.37,1.77,1.77,0,0,0-2.42.7.22.22,0,0,0,.07.3A.31.31,0,0,0,62.84,396.93Z"/><path class="a1dc9ed2-fcba-4da8-8dca-46c463303b2a" d="M50.77,389.2c2.19-3.05,5.87-4,9.45-3.67,1.51.14,4.31,1.08,5.4,2.35,3.71,4.33-.7,5.66-1.58,5.89A7.5,7.5,0,0,0,63,391.88,32,32,0,0,0,60.87,396a13.73,13.73,0,0,0-.33,3.62c-1.09-.66-1.5-1.92-3-1.62a2.92,2.92,0,0,0-2.3,2.2c-.42,2.2,2,5.34,4.3,3.9.31.84.25,3.33-.43,3.91-.93.78-3.69.16-4.69-.35a12.36,12.36,0,0,1-3.94-3.78C47.25,399,48.53,392.3,50.77,389.2Z"/><path class="a1dc9ed2-fcba-4da8-8dca-46c463303b2a" d="M51.05,497.09,61,498.85l4.05.72,11.48,2c0-.33,0-.67,0-1l.22-19.79a175.66,175.66,0,0,0,.13-21.28c0-.57-.06-1.13-.1-1.7l-.27-4.27c-.09-1.43-.18-2.87-.25-4.3v0L59,447.58a10.24,10.24,0,0,1-1.2,2.6l0,0a5.19,5.19,0,0,1-.39.61c-1,1.47-2.47,3.69-3.44,5.19h0C48.31,462.16,49.78,479.79,51.05,497.09Z"/><path class="af32c1f4-de2c-4a00-8508-8e4bfaf192a7" d="M58,414.07a9.94,9.94,0,0,0,4.37.25c.28-.05.4.37.12.42a10.36,10.36,0,0,1-4.6-.25A.22.22,0,0,1,58,414.07Z"/><path class="b5ab7da9-25b9-4104-8a75-da7a83af6b4d" d="M65,414.35a3,3,0,0,0,1-2.7c-.23-1.54-1.5-1.43-2.8-1.46-2.76-.07-5.1-1.67-7.77-1.81-2.14-.12-1.17,1.27-2,2.47s-3.72,1.29-1.62,2.93,5.57,1.35,8.11,1.34c1.7,0,3.77.64,5.42.34a1.74,1.74,0,0,0,1.48-1.52c.08-.94-.6-1.18-1.07-1.89Z"/><path class="bde66961-25de-4ebc-acf7-6534d8adef61" d="M57.13,414.55c16.15,10.14,28.48,10.7,28.48,10.7l.09,5.43s-10.91,1.21-26.85-10.61c-1.47-1.09-5.38-4.2-5.27-6.23Z"/><path class="bde66961-25de-4ebc-acf7-6534d8adef61" d="M58.65,414.13c18.2,5.7,30.27,3.1,30.27,3.1l1.47,5.23s-10.25,4-28.67-3.42c-1.7-.68-6.27-2.69-6.68-4.69Z"/><path class="a1dc9ed2-fcba-4da8-8dca-46c463303b2a" d="M67.24,541.1a42.12,42.12,0,0,1-4.18-.62c.12,3.22.33,6.12.51,8a65.64,65.64,0,0,1,.27,10.86,13.41,13.41,0,0,0-.09,2.74l4.09.39,1-1.29.8,1.49,6.51.14a55.58,55.58,0,0,0,6.59-.14,10.14,10.14,0,0,1,.48-1.69l-5.85-.93a16.74,16.74,0,0,1-2.69-3.46,20,20,0,0,1-2.34-9.28,28.74,28.74,0,0,1,.18-6A35.68,35.68,0,0,1,67.24,541.1Z"/><path class="a1dc9ed2-fcba-4da8-8dca-46c463303b2a" d="M44.29,540.05a41.51,41.51,0,0,1-3.9-1.61c-.67,3.15-1.17,6-1.45,7.88a67.38,67.38,0,0,1-2.37,10.6,13.13,13.13,0,0,0-.76,2.64l3.88,1.37,1.27-1,.48,1.89,6,2.12a51.59,51.59,0,0,0,6.11,1.87,11.63,11.63,0,0,1,.87-1.52l-4.93-3.39a16.26,16.26,0,0,1-1.77-4,20,20,0,0,1,0-9.58,29.84,29.84,0,0,1,1.63-5.79A34.43,34.43,0,0,1,44.29,540.05Z"/><path class="bde66961-25de-4ebc-acf7-6534d8adef61" d="M106.3,419c-.72.21-1.55-.83-1.89-1.57a3.35,3.35,0,0,1,0-2.67c.45-1.06,1.17-1,2.1-2.29s1-2.4,1.31-2.4.56.83.56,1.55c0,1.38-.83,1.68-1,3.17s.31,1.44,0,2.66C107.15,418,106.94,419,106.3,419Z"/><path class="bde66961-25de-4ebc-acf7-6534d8adef61" d="M112,414.14a10.61,10.61,0,0,1-2.66,3.7,9.19,9.19,0,0,1-3,1.5c-.31.09-.64.17-1,.23-.48-.07-.7-.85-.8-1.72a11,11,0,0,1,0-1.7c0-.45,0-.73,0-.73l.37-1a33,33,0,0,0,3-1.41,5.42,5.42,0,0,0,1.79-1.26c.56-1,.46-1.84.9-1.93h.06s.07,0,.09,0c.37.22.3,1.75.55,1.93s.59,0,.63.53A4.3,4.3,0,0,1,112,414.14Z"/><path class="b5ab7da9-25b9-4104-8a75-da7a83af6b4d" d="M49.25,426a48.47,48.47,0,0,0-1.09-5.27,4.28,4.28,0,0,1,2.36-5.09l1.25-.53c4-1.6,9.71,9.47,25.62,11l9.77.94c3.49-2.06,7.15-4.38,10.89-7,2.14-1.51,4.15-3,6.08-4.53l2.55,3.48A69,69,0,0,1,99,426.48a71.8,71.8,0,0,1-10.45,7.28c-2.55.63-5.22,1.24-8.07,1.8s-6.11,1.07-8.91,1.43Z"/><path class="a1dc9ed2-fcba-4da8-8dca-46c463303b2a" d="M57.93,432.63A33.37,33.37,0,0,0,75,436.54c.24,0,.21.58,0,.59a33.49,33.49,0,0,1-17.2-3.93C57.58,433.09,57.71,432.52,57.93,432.63Z"/><path class="b89d722b-6c73-430f-9fac-2d305ebd33c4" d="M66.49,403.57l-3.09.26S65.35,407.61,66.49,403.57Z"/><path class="a1dc9ed2-fcba-4da8-8dca-46c463303b2a" d="M470.94,162.35h0a17.71,17.71,0,0,1,17.71,17.71v22.67a0,0,0,0,1,0,0H453.22a0,0,0,0,1,0,0V180.06a17.71,17.71,0,0,1,17.71-17.71Z" transform="translate(346.59 -306.99) rotate(54.56)"/><path class="b5ab7da9-25b9-4104-8a75-da7a83af6b4d" d="M479.23,170.74l-27.53,19.6-4.29-6,15.8-11.25A17.71,17.71,0,0,1,479.23,170.74Z"/><path class="a1dc9ed2-fcba-4da8-8dca-46c463303b2a" d="M472.29,203.32a5.52,5.52,0,1,0,9-6.41Z"/><path class="a1dc9ed2-fcba-4da8-8dca-46c463303b2a" d="M433.24,192.78H470a7,7,0,0,1,7,7v0a0,0,0,0,1,0,0h-50.8a0,0,0,0,1,0,0v0A7,7,0,0,1,433.24,192.78Z" transform="translate(349.67 -285.48) rotate(54.56)"/><polygon class="a1dc9ed2-fcba-4da8-8dca-46c463303b2a" points="492.59 221.38 492.59 223.26 479.52 204.9 476.34 200.43 474.58 197.95 475.48 197.32 477.23 199.79 480.41 204.25 492.59 221.38"/><polygon class="b0398f6b-c06f-4a29-9c96-65b86a0be057" points="459.89 213.95 438.98 299.22 365.59 192.65 437.54 182.54 459.89 213.95"/><path class="bde66961-25de-4ebc-acf7-6534d8adef61" d="M63.52,290a3.59,3.59,0,0,1,.9-2.48,3.39,3.39,0,0,1,2.65-1,3.46,3.46,0,0,1,2.67,1,3.6,3.6,0,0,1,.91,2.48,3.25,3.25,0,0,1-3.58,3.42,3.41,3.41,0,0,1-2.65-1A3.46,3.46,0,0,1,63.52,290Zm6.09-10.37H64.17l-.42-34h6.31Z"/><g class="af089196-f279-4072-834f-e8ce20ae64ed"><polygon class="b89d722b-6c73-430f-9fac-2d305ebd33c4" points="265.35 505.3 287.23 505.35 287.5 502.31 265.62 502.25 265.35 505.3"/><polygon class="b89d722b-6c73-430f-9fac-2d305ebd33c4" points="269.27 510.57 278.47 510.6 278.74 507.56 269.54 507.53 269.27 510.57"/><polygon class="b89d722b-6c73-430f-9fac-2d305ebd33c4" points="268.84 515.42 282.65 515.46 282.92 512.41 269.11 512.38 268.84 515.42"/><polygon class="b89d722b-6c73-430f-9fac-2d305ebd33c4" points="276.51 520.3 285.71 520.32 285.98 517.28 276.78 517.26 276.51 520.3"/><polygon class="b89d722b-6c73-430f-9fac-2d305ebd33c4" points="289.54 525.19 303.44 525.22 303.71 522.18 289.81 522.14 289.54 525.19"/><polygon class="b89d722b-6c73-430f-9fac-2d305ebd33c4" points="305.51 525.23 317.1 525.25 317.37 522.21 305.78 522.18 305.51 525.23"/><polygon class="b89d722b-6c73-430f-9fac-2d305ebd33c4" points="275.89 525.15 279.79 525.16 280.06 522.12 276.16 522.11 275.89 525.15"/><polygon class="b89d722b-6c73-430f-9fac-2d305ebd33c4" points="267.34 529.99 272.45 530 272.72 526.96 267.61 526.95 267.34 529.99"/><polygon class="b89d722b-6c73-430f-9fac-2d305ebd33c4" points="274.76 530.01 288.84 530.04 289.1 527 275.03 526.97 274.76 530.01"/><polygon class="b89d722b-6c73-430f-9fac-2d305ebd33c4" points="266.91 534.85 273.22 534.86 273.48 531.82 267.18 531.8 266.91 534.85"/><polygon class="b89d722b-6c73-430f-9fac-2d305ebd33c4" points="276.01 534.87 281.37 534.88 281.64 531.84 276.28 531.83 276.01 534.87"/><polygon class="b89d722b-6c73-430f-9fac-2d305ebd33c4" points="266.48 539.7 271.6 539.71 271.87 536.67 266.75 536.66 266.48 539.7"/><polygon class="b89d722b-6c73-430f-9fac-2d305ebd33c4" points="274.48 539.72 287.98 539.75 288.25 536.71 274.74 536.68 274.48 539.72"/><polygon class="b89d722b-6c73-430f-9fac-2d305ebd33c4" points="266.05 544.56 271.17 544.57 271.44 541.53 266.32 541.52 266.05 544.56"/><polygon class="b89d722b-6c73-430f-9fac-2d305ebd33c4" points="273.11 544.58 278.22 544.59 278.49 541.55 273.38 541.53 273.11 544.58"/><polygon class="b89d722b-6c73-430f-9fac-2d305ebd33c4" points="279.86 544.59 284.98 544.61 285.24 541.56 280.13 541.55 279.86 544.59"/><polygon class="b89d722b-6c73-430f-9fac-2d305ebd33c4" points="286.98 544.61 298.04 544.64 298.31 541.6 287.25 541.57 286.98 544.61"/><polygon class="b89d722b-6c73-430f-9fac-2d305ebd33c4" points="299.55 544.64 306.94 544.66 307.2 541.62 299.81 541.6 299.55 544.64"/><polygon class="b89d722b-6c73-430f-9fac-2d305ebd33c4" points="281.08 510.6 292.8 510.63 293.07 507.59 281.35 507.56 281.08 510.6"/><polygon class="b89d722b-6c73-430f-9fac-2d305ebd33c4" points="294.93 510.64 308.43 510.67 308.7 507.63 295.19 507.6 294.93 510.64"/><polygon class="b89d722b-6c73-430f-9fac-2d305ebd33c4" points="310.58 510.68 326.17 510.72 326.44 507.67 310.85 507.63 310.58 510.68"/><polygon class="b89d722b-6c73-430f-9fac-2d305ebd33c4" points="328.62 510.72 335.99 510.74 336.26 507.7 328.88 507.68 328.62 510.72"/><polygon class="b89d722b-6c73-430f-9fac-2d305ebd33c4" points="289.9 505.36 299.3 505.38 299.57 502.34 290.17 502.31 289.9 505.36"/><polygon class="b89d722b-6c73-430f-9fac-2d305ebd33c4" points="301.25 505.38 306.77 505.4 307.04 502.36 301.52 502.34 301.25 505.38"/><polygon class="b89d722b-6c73-430f-9fac-2d305ebd33c4" points="281.77 525.17 287.28 525.18 287.55 522.14 282.03 522.13 281.77 525.17"/><polygon class="b89d722b-6c73-430f-9fac-2d305ebd33c4" points="284.7 515.46 290.22 515.48 290.49 512.43 284.97 512.42 284.7 515.46"/><polygon class="b89d722b-6c73-430f-9fac-2d305ebd33c4" points="287.61 520.33 293.13 520.34 293.4 517.3 287.88 517.28 287.61 520.33"/><polygon class="b89d722b-6c73-430f-9fac-2d305ebd33c4" points="308.89 505.4 311.65 505.41 311.92 502.37 309.16 502.36 308.89 505.4"/><polygon class="b89d722b-6c73-430f-9fac-2d305ebd33c4" points="313.42 505.41 320.57 505.43 320.84 502.39 313.69 502.37 313.42 505.41"/><polygon class="b89d722b-6c73-430f-9fac-2d305ebd33c4" points="322.7 505.44 330.59 505.46 330.86 502.42 322.97 502.4 322.7 505.44"/></g><rect class="bde66961-25de-4ebc-acf7-6534d8adef61" x="278.44" y="304.35" width="49.94" height="66.36"/><rect class="b5ab7da9-25b9-4104-8a75-da7a83af6b4d" x="310.13" y="311.65" width="14.82" height="6.38" rx="3.19"/><circle class="a1dc9ed2-fcba-4da8-8dca-46c463303b2a" cx="294.34" cy="324.19" r="11.63"/><path class="b5ab7da9-25b9-4104-8a75-da7a83af6b4d" d="M294.34,324.19l11.33-2.63a11.24,11.24,0,0,0-1.16-3,11.41,11.41,0,0,0-1.94-2.58Z"/><rect class="ae1ee869-52bd-48a6-b7b0-4a02636a82c5" x="282.71" y="339.81" width="42.24" height="2.28" rx="1.14"/><rect class="ae1ee869-52bd-48a6-b7b0-4a02636a82c5" x="282.71" y="345.51" width="42.24" height="2.28" rx="1.14"/><rect class="ae1ee869-52bd-48a6-b7b0-4a02636a82c5" x="282.71" y="351.21" width="30.33" height="2.28" rx="1.14"/><path class="fab588ad-8fc2-4a73-85ab-d7cd59851a72" d="M308.92,366a2,2,0,0,0,2.69-2.59.42.42,0,0,0-.19-.24c-.25-.12-.47.21-.52.47a2.51,2.51,0,0,0,4,2.42.94.94,0,0,1,.42-.24c.55-.09.67.81,1.16,1.07a6.23,6.23,0,0,0,.92-1.5,3.21,3.21,0,0,0,2.16-.71,2.42,2.42,0,0,1,2.2-.43"/><rect class="bde66961-25de-4ebc-acf7-6534d8adef61" x="337.01" y="304.35" width="49.94" height="66.36"/><rect class="bde66961-25de-4ebc-acf7-6534d8adef61" x="394.53" y="285.14" width="28.92" height="38.43"/><rect class="b5ab7da9-25b9-4104-8a75-da7a83af6b4d" x="368.7" y="311.65" width="14.82" height="6.38" rx="3.19"/><circle class="a1dc9ed2-fcba-4da8-8dca-46c463303b2a" cx="352.91" cy="324.19" r="11.63"/><path class="b5ab7da9-25b9-4104-8a75-da7a83af6b4d" d="M352.91,324.19l11.33-2.63a11.24,11.24,0,0,0-1.16-3,11.71,11.71,0,0,0-1.94-2.58Z"/><rect class="ae1ee869-52bd-48a6-b7b0-4a02636a82c5" x="341.28" y="339.81" width="42.24" height="2.28" rx="1.14"/><rect class="ae1ee869-52bd-48a6-b7b0-4a02636a82c5" x="341.28" y="345.51" width="42.24" height="2.28" rx="1.14"/><rect class="ae1ee869-52bd-48a6-b7b0-4a02636a82c5" x="341.28" y="351.21" width="30.33" height="2.28" rx="1.14"/><path class="fab588ad-8fc2-4a73-85ab-d7cd59851a72" d="M367.49,366a2,2,0,0,0,2.69-2.59.42.42,0,0,0-.19-.24c-.25-.12-.47.21-.52.47a2.51,2.51,0,0,0,4,2.42.94.94,0,0,1,.42-.24c.55-.09.67.81,1.16,1.07a6.57,6.57,0,0,0,.92-1.5,3.21,3.21,0,0,0,2.16-.71,2.42,2.42,0,0,1,2.2-.43"/><circle class="b9ee277d-c9f4-4ee6-a55f-617c35cae6a2" cx="453.05" cy="31.39" r="10.27"/><circle class="b9ee277d-c9f4-4ee6-a55f-617c35cae6a2" cx="415.26" cy="31.39" r="10.27"/><circle class="b9ee277d-c9f4-4ee6-a55f-617c35cae6a2" cx="377.47" cy="31.39" r="10.27"/></svg>