<svg id="a44fe955-8c7f-4e71-80a6-856b5c573d37" data-name="Layer 1" xmlns="http://www.w3.org/2000/svg" viewBox="0 0 50 50"><defs><style>.e0c6ea9d-ea43-4b8a-abaf-07e93394feb9{fill:#4784df;}.e42a5567-dd5b-428f-81b3-6d17cc613ea6{fill:#3dba85;}.a1541afe-4b7e-41f0-9809-1eb6b7e7d152{fill:#f13624;}</style></defs><title>Find Us Across The Globe Icon</title><circle class="e0c6ea9d-ea43-4b8a-abaf-07e93394feb9" cx="28.52" cy="29.36" r="19.48"/><path class="e42a5567-dd5b-428f-81b3-6d17cc613ea6" d="M29.33,19.55c.15.58.28.72,1.15,1.23-.68.74-1.33,1.48-2,2.17a4.26,4.26,0,0,0-1.37,2.78,15.19,15.19,0,0,1-.17,1.64,3,3,0,0,0,.4,2,6.29,6.29,0,0,0,2.38,2.42,2.34,2.34,0,0,0,2.07.23c.58-.19,1.15-.41,1.73-.61s.64-.1,1,.35c1,1.22,1.11,2.82,1.8,4.17a2,2,0,0,1-.11,1.45,3.14,3.14,0,0,0-.08,2.39c.38,1,.67,2.09,1,3.13a1,1,0,0,0,1.45.66,4.7,4.7,0,0,0,1.09-.67A11.12,11.12,0,0,0,42.17,40c.58-1,1.13-2,1.68-2.95a2.81,2.81,0,0,0,.33-1.86,2.53,2.53,0,0,1,.33-1.77,24.6,24.6,0,0,1,1.42-2.08,1.89,1.89,0,0,0,.25-2.25,2.72,2.72,0,0,1-.19-.47c-.1-.28-.06-.48.28-.59a1.59,1.59,0,0,0,1.07-1.16c.1-.31.18-.63.27-.94h.09A19.48,19.48,0,0,0,37,11.9l-2.58,1.27A1.25,1.25,0,0,0,33.75,15c.14.31.08.47-.15.74a2.2,2.2,0,0,1-1.86.65A2.47,2.47,0,0,0,29.33,19.55Zm9.17.95a1.21,1.21,0,0,0,1.14.6c.51,0,1,.09,1.55.14a1.39,1.39,0,0,1,.35.09c.36.14.74.28.67.79s-.4.6-.91.59c-.15,0-.3-.05-.45-.06a15,15,0,0,0-2-.19,1.32,1.32,0,0,1-1.48-.94c-.06-.14-.13-.28-.22-.5A1.16,1.16,0,0,0,38.5,20.5ZM33.93,19a.67.67,0,0,1,.91-.08c.65.36,1.32.69,1.95,1.09.15.09.18.38.22.6-1.31-1.13-2.7-.63-4.23-.32C33.22,19.82,33.57,19.41,33.93,19ZM19.61,46.62a2,2,0,0,1-1-2.38A6.31,6.31,0,0,0,19.08,42a1.44,1.44,0,0,1,1.07-1.31,1.41,1.41,0,0,0,1-1.77,2.81,2.81,0,0,1,.45-2.14,2.35,2.35,0,0,0,.27-.63,1.28,1.28,0,0,0-.64-1.63c-.75-.38-1.53-.69-2.3-1l-1-.44a1.22,1.22,0,0,1-.63-.72,2.63,2.63,0,0,0-.84-1.05,23.22,23.22,0,0,1-2.7-2,2,2,0,0,0-2.25-.45.59.59,0,0,1-.81-.29,4.43,4.43,0,0,1-.92-3,1.14,1.14,0,0,1,.55-.91c.31-.2.59-.44.91-.62A4.11,4.11,0,0,0,13,21.83a4.73,4.73,0,0,1,3-2.48c.38-.13.62-.29.68-.69,0-.06,0-.11,0-.17.19-.91.19-.92,1-.39a.72.72,0,0,0,.85.07c.4-.24.83-.52.79-1A6.19,6.19,0,0,0,19,15.67c-.34-1-.29-1.17.63-1.68a2,2,0,0,0,.34-.23.49.49,0,0,0-.11-.81l-.77-.37v-.19a19.46,19.46,0,0,0-10,17v.28a3.57,3.57,0,0,1,.11-.63c.39.87,1.1,1.46,1,2.51a7.65,7.65,0,0,0,2.09,5.92,3.47,3.47,0,0,1,.89,2.19c.06.65.2,1.29.29,1.89a4.15,4.15,0,0,1-.61-.59,19.5,19.5,0,0,0,6.75,5.74m2.57-34.8c-.13.39-.28.78-.39,1.19a4.11,4.11,0,0,0-.17,1,.57.57,0,0,0,.8.59,3.94,3.94,0,0,0,.94-.47c.43-.26.84-.56,1.26-.83a4.3,4.3,0,0,1,2.19-.58,4.34,4.34,0,0,0,3.22-1.61c.29-.35.6-.67,1-1.09a20.72,20.72,0,0,0-2.5-.16,19.36,19.36,0,0,0-9.4,2.42l3-.59ZM11.77,39.31A25.29,25.29,0,0,1,9.3,32.38,19.21,19.21,0,0,0,11.77,39.31Z"/><path class="a1541afe-4b7e-41f0-9809-1eb6b7e7d152" d="M11.77.68a9.44,9.44,0,0,0-9.45,9.43c0,2.82.58,5.87,3,10.59a87.91,87.91,0,0,0,6.49,10,87.91,87.91,0,0,0,6.49-10c2.38-4.72,3-7.77,3-10.59A9.44,9.44,0,0,0,11.77.68Zm0,14.92a5.44,5.44,0,1,1,5.43-5.44A5.44,5.44,0,0,1,11.77,15.6Z"/></svg>