<svg id="Layer_1" data-name="Layer 1" xmlns="http://www.w3.org/2000/svg" viewBox="0 0 138 120"><defs><style>.cls-1{fill:#4285f3;}.cls-2{fill:#fabb06;}.cls-3{fill:#e94436;}.cls-4{fill:#34a853;}</style></defs><path class="cls-1" d="M101.64,20.71A45.88,45.88,0,0,1,115.16,40,22,22,0,0,0,121,48.73c10.86,10.27,14.5,23.05,10.2,37.33s-14.4,22.76-29.07,25.7a16.84,16.84,0,0,1-3.16.38H68V89.74c.61,0,1.23-.07,1.86-.07H96a14.19,14.19,0,0,0,14.25-13.3,14,14,0,0,0-12.8-14.8c-1.19-.11-1.32-.59-1.29-1.55A28.7,28.7,0,0,0,85.75,36.68Z"/><path class="cls-2" d="M17.74,104.78A34.68,34.68,0,0,1,3.48,80.66c-1.86-14.48,3.37-26.14,15-35,.22-.17.43-.35.65-.54s.69-.37,1-.58c8.4-5.33,17.5-6.7,27.18-4.94A37.16,37.16,0,0,1,67.72,51.75c1,1.17,1.2,1.87-.06,3.06-4.61,4.41-9.08,8.94-13.54,13.5-1.07,1.1-1.49,1.44-2.47-.19a13.85,13.85,0,0,0-17-5.71,14,14,0,0,0-8.75,15.64c.86,4.81,3.73,8.12,8,10.37-.5.53-1,1.07-1.5,1.59Z"/><path class="cls-3" d="M47.33,39.62c-9.68-1.76-18.79-.39-27.18,4.94-.34.21-.69.39-1,.58a46.46,46.46,0,0,1,9.22-18.25,50.72,50.72,0,0,1,71.86-7.54c.53.43,1,.93,1.49,1.36L85.81,36.64C79.64,32,72.75,29.73,65,30.61A26.59,26.59,0,0,0,47.33,39.62Z"/><path class="cls-4" d="M17.74,104.78,32.42,90c.51-.52,1-1.06,1.5-1.59a21.08,21.08,0,0,0,7.88,1.25c8.71,0,17.43,0,26.13,0v22.4c-10.27,0-20.53.25-30.73-.06A32.69,32.69,0,0,1,17.74,104.78Z"/></svg>