<?xml version="1.0" encoding="UTF-8" standalone="no"?>
<svg
   xmlns:dc="http://purl.org/dc/elements/1.1/"
   xmlns:cc="http://creativecommons.org/ns#"
   xmlns:rdf="http://www.w3.org/1999/02/22-rdf-syntax-ns#"
   xmlns:svg="http://www.w3.org/2000/svg"
   xmlns="http://www.w3.org/2000/svg"
   xmlns:sodipodi="http://sodipodi.sourceforge.net/DTD/sodipodi-0.dtd"
   xmlns:inkscape="http://www.inkscape.org/namespaces/inkscape"
   id="svg"
   version="1.1"
   width="400"
   height="219.2746113989637"
   viewBox="0, 0, 400,219.2746113989637"
   sodipodi:docname="image2vector.svg"
   inkscape:version="0.92.4 (5da689c313, 2019-01-14)">
  <metadata
     id="metadata10">
    <rdf:RDF>
      <cc:Work
         rdf:about="">
        <dc:format>image/svg+xml</dc:format>
        <dc:type
           rdf:resource="http://purl.org/dc/dcmitype/StillImage" />
      </cc:Work>
    </rdf:RDF>
  </metadata>
  <defs
     id="defs8" />
  <sodipodi:namedview
     pagecolor="#ffffff"
     bordercolor="#666666"
     borderopacity="1"
     objecttolerance="10"
     gridtolerance="10"
     guidetolerance="10"
     inkscape:pageopacity="0"
     inkscape:pageshadow="2"
     inkscape:window-width="1366"
     inkscape:window-height="705"
     id="namedview6"
     showgrid="false"
     inkscape:zoom="0.8925"
     inkscape:cx="324.11111"
     inkscape:cy="80.659046"
     inkscape:window-x="-8"
     inkscape:window-y="-8"
     inkscape:window-maximized="1"
     inkscape:current-layer="svg" />
  <g
     id="svgg"
     transform="matrix(3.3221289,0,0,2.619632,-307.0028,-114.28571)">
    <path
       id="path0"
       d="m 78.163,77.56 c -1.8,2.615 -3.865,5.611 -4.588,6.658 -4.192,6.066 -5.212,7.565 -5.293,7.775 -0.085,0.222 0.501,0.57 4.635,2.748 0.965,0.509 2.149,1.147 2.631,1.419 0.483,0.271 2.044,1.105 3.469,1.852 l 2.592,1.359 1.355,-0.701 c 0.746,-0.385 1.85,-0.97 2.453,-1.3 0.603,-0.329 2.576,-1.365 4.386,-2.302 4.399,-2.278 5.592,-2.958 5.592,-3.188 0,-0.106 -0.625,-1.061 -1.389,-2.122 C 87.135,80.216 83.345,74.928 82.689,73.967 81.622,72.405 81.824,72.244 78.163,77.56 m 141.629,5.475 c -0.2,0.084 -0.274,0.89 -0.274,2.948 v 2.833 h -0.782 c -1.304,0 -1.631,0.303 -1.631,1.516 0,1.236 0.233,1.495 1.428,1.592 l 0.875,0.072 0.126,6.469 c 0.137,7.053 0.197,7.392 1.463,8.293 1.45,1.033 3.527,1.116 5.881,0.235 1.492,-0.558 1.514,-0.6 1.054,-2.057 -0.407,-1.293 -0.655,-1.428 -1.616,-0.879 -0.677,0.387 -2.396,0.411 -2.883,0.04 -0.309,-0.235 -0.649,-9.61 -0.432,-11.937 0.018,-0.194 0.527,-0.274 1.736,-0.274 2.014,0 2.237,-0.155 2.237,-1.552 0,-1.334 -0.224,-1.485 -2.313,-1.563 l -1.744,-0.065 -0.11,-2.851 -0.11,-2.851 -1.315,-0.042 c -0.724,-0.023 -1.44,0.01 -1.59,0.073 m 120.34,5.328 c -1.141,0.23 -2.764,1.007 -3.678,1.76 -1.133,0.934 -1.332,0.865 -1.41,-0.485 l -0.066,-1.151 h -1.425 -1.426 l -0.056,6.908 c -0.031,3.799 0.018,7.944 0.11,9.21 l 0.165,2.303 0.97,0.069 c 0.533,0.038 1.199,0.012 1.48,-0.059 l 0.511,-0.128 v -5.452 c 0,-6.725 0.445,-7.953 3.423,-9.44 4.54,-2.268 5.771,-0.381 5.786,8.87 0.01,6.365 -0.077,6.074 1.776,5.987 l 1.405,-0.066 0.07,-5.812 c 0.131,-11.067 -1.505,-13.75 -7.635,-12.514 m -26.578,0.288 c -0.191,0.151 -0.561,0.867 -0.824,1.59 -0.263,0.724 -1.074,2.846 -1.802,4.715 -0.729,1.87 -1.565,4.041 -1.858,4.825 -1.374,3.674 -0.905,4.118 -4.512,-4.277 l -2.921,-6.798 -1.51,-0.065 c -0.83,-0.037 -1.588,0.013 -1.684,0.109 -0.143,0.143 1.068,3.113 2.752,6.754 0.168,0.362 0.994,2.237 1.836,4.167 0.842,1.93 1.836,4.184 2.21,5.01 0.857,1.891 0.856,1.922 -0.188,4.343 -1.033,2.396 -1.035,2.398 -2.75,2.464 l -0.658,0.025 v 1.426 1.425 l 1.498,0.065 c 1.754,0.077 3.08,-0.532 3.838,-1.763 0.717,-1.162 9.51,-23.64 9.38,-23.979 -0.153,-0.397 -2.316,-0.425 -2.807,-0.036 m -66.186,0.353 c -1.447,0.47 -3.894,1.784 -4.046,2.173 -0.107,0.272 0.645,1.929 0.964,2.127 0.089,0.055 1.041,-0.345 2.116,-0.888 3.819,-1.931 6.864,-1.311 7.856,1.599 0.706,2.072 0.449,2.639 -1.018,2.243 -3.593,-0.968 -8.56,0.314 -10.107,2.608 -3.955,5.87 4.246,11.513 10.525,7.24 0.942,-0.641 1.386,-0.776 1.386,-0.421 0,0.993 2.018,1.993 3.153,1.562 0.776,-0.295 0.882,-2.681 0.136,-3.08 -0.417,-0.224 -0.438,-0.461 -0.441,-4.887 -0.003,-5.828 -0.297,-6.998 -2.231,-8.863 -1.724,-1.664 -5.527,-2.311 -8.293,-1.413 m 27.997,-0.261 c -0.282,0.282 -0.169,17.945 0.117,18.231 0.332,0.331 2.73,0.347 2.932,0.019 0.083,-0.135 0.133,-2.643 0.11,-5.576 -0.056,-7.269 0.646,-8.625 4.976,-9.609 l 1.259,-0.286 v -1.408 -1.408 l -1.243,0.041 c -1.336,0.045 -2.577,0.559 -3.942,1.633 -1.015,0.798 -1.065,0.791 -1.065,-0.153 0,-1.362 -0.284,-1.631 -1.726,-1.631 -0.699,0 -1.337,0.066 -1.418,0.147 m -82.943,0.397 c -9.169,2.897 -8.62,16.356 0.756,18.538 3.418,0.796 7.973,-1.048 9.335,-3.778 0.519,-1.042 0.429,-1.211 -0.847,-1.582 -1.614,-0.469 -1.61,-0.47 -2.562,0.612 -4.634,5.265 -12.476,-1.4 -9.252,-7.864 1.804,-3.618 7.282,-4.268 9.352,-1.109 0.429,0.655 0.783,0.688 2.199,0.205 1.355,-0.462 1.415,-0.702 0.488,-1.98 -2.02,-2.786 -6.115,-4.102 -9.469,-3.042 m -33.806,0.324 c -5.82,2.119 -8.02,9.335 -4.459,14.626 4.397,6.534 14.409,4.569 16.236,-3.187 1.712,-7.263 -5.094,-13.874 -11.777,-11.439 m 5.371,3.207 c 3.798,1.892 4.508,7.952 1.265,10.799 -4.926,4.325 -11.653,-1.545 -8.905,-7.771 1.395,-3.161 4.725,-4.481 7.64,-3.028 m -67.276,5.372 c -1.996,1.056 -7.753,4.049 -12.797,6.653 l -2.379,1.228 -1.787,-0.963 c -0.983,-0.529 -2.577,-1.381 -3.542,-1.892 -0.965,-0.511 -2.248,-1.199 -2.851,-1.53 -3.81,-2.088 -8.465,-4.402 -8.64,-4.294 -0.113,0.07 -1.028,1.328 -2.033,2.796 -1.005,1.468 -2.073,3.022 -2.375,3.453 -0.302,0.431 -1.331,1.918 -2.288,3.305 -0.957,1.387 -2.423,3.484 -3.257,4.662 -1.819,2.566 -1.852,2.432 0.948,3.873 1.235,0.635 2.578,1.342 2.985,1.57 0.407,0.229 1.8,0.973 3.095,1.653 1.295,0.68 2.947,1.556 3.671,1.948 0.723,0.392 2.203,1.181 3.289,1.753 3.64,1.919 6.132,3.241 7.237,3.841 0.603,0.328 2.108,1.12 3.344,1.761 l 2.248,1.166 2.248,-1.166 c 1.236,-0.641 2.741,-1.436 3.344,-1.767 1.754,-0.962 4.12,-2.207 8.114,-4.27 2.051,-1.059 3.827,-1.997 3.947,-2.084 0.121,-0.087 1.799,-0.975 3.729,-1.974 8.769,-4.539 8.201,-4.18 7.709,-4.87 -0.198,-0.278 -0.83,-1.16 -1.403,-1.961 -0.574,-0.8 -1.733,-2.429 -2.575,-3.618 -0.843,-1.189 -1.978,-2.768 -2.522,-3.507 -0.545,-0.74 -1.681,-2.309 -2.525,-3.488 -1.79,-2.499 -2.505,-3.393 -2.706,-3.385 -0.08,0.003 -1.083,0.501 -2.228,1.107 m 157.132,0.881 c 1.207,0.577 1.069,2.889 -0.251,4.209 -3.472,3.473 -10.132,1.03 -7.768,-2.848 0.997,-1.634 5.755,-2.442 8.019,-1.361 m -99.977,18.856 c -0.743,0.585 -1.071,1.195 -1.222,2.276 -0.098,0.697 -0.23,0.893 -0.67,0.997 -0.349,0.082 -0.549,0.282 -0.549,0.548 0,0.266 0.2,0.466 0.549,0.548 l 0.548,0.129 0.06,3.993 c 0.044,2.978 0.128,3.991 0.329,3.989 0.737,-0.009 0.806,-0.344 0.867,-4.173 l 0.06,-3.828 1.096,-0.11 c 1.656,-0.165 1.615,-0.957 -0.055,-1.053 -1.143,-0.066 -1.151,-0.071 -1.151,-0.79 0,-1.139 0.896,-1.97 1.968,-1.826 1.247,0.167 1.765,-0.444 0.763,-0.901 -0.856,-0.39 -1.95,-0.305 -2.593,0.201 m 166.244,-0.098 c -0.237,0.238 -0.182,1.354 0.075,1.513 0.381,0.235 0.894,-0.371 0.824,-0.973 -0.064,-0.545 -0.582,-0.856 -0.899,-0.54 m 34.651,-0.001 c -0.086,0.085 -0.156,1.175 -0.156,2.421 0,2.344 -0.193,2.762 -0.889,1.923 -2.15,-2.591 -6.564,-0.148 -6.564,3.633 0,3.897 4.476,6.193 6.885,3.531 0.549,-0.606 0.788,-0.582 0.788,0.08 0,0.608 0.65,1.067 1.207,0.853 0.265,-0.101 0.316,-0.264 0.191,-0.602 -0.094,-0.255 -0.226,-3.029 -0.292,-6.165 -0.116,-5.527 -0.133,-5.703 -0.567,-5.766 -0.246,-0.035 -0.518,0.006 -0.603,0.092 m -242.48,1.75 c -1.026,0.551 -2.999,1.599 -4.386,2.327 -1.387,0.729 -3.213,1.694 -4.057,2.145 -2.077,1.11 -4.896,2.608 -7.018,3.729 -0.965,0.509 -2.84,1.5 -4.166,2.202 -5.038,2.664 -8.381,4.417 -9.703,5.089 l -1.369,0.696 -1.153,-0.585 c -0.634,-0.322 -2.14,-1.116 -3.346,-1.765 -2.22,-1.194 -7.445,-3.987 -10.855,-5.803 -1.025,-0.546 -2.456,-1.311 -3.18,-1.701 -0.723,-0.39 -2.105,-1.13 -3.07,-1.645 -0.965,-0.515 -2.346,-1.255 -3.07,-1.644 -3.94,-2.116 -6.869,-3.616 -7.058,-3.616 -0.118,0 -1.311,1.603 -2.653,3.563 -1.341,1.96 -3.271,4.747 -4.288,6.192 l -1.849,2.629 0.687,0.465 c 0.378,0.256 2.76,1.724 5.292,3.262 2.533,1.539 4.978,3.036 5.433,3.328 0.821,0.525 13.633,8.32 18.69,11.37 1.448,0.873 3.717,2.256 5.044,3.074 1.327,0.818 2.758,1.681 3.18,1.919 0.422,0.238 1.029,0.619 1.35,0.846 0.637,0.453 1.081,0.52 1.402,0.214 0.115,-0.109 0.554,-0.393 0.976,-0.63 0.605,-0.341 8.79,-5.095 12.171,-7.07 0.362,-0.211 2.78,-1.612 5.373,-3.113 4.574,-2.647 7.381,-4.272 13.432,-7.776 1.598,-0.925 4.337,-2.508 6.085,-3.519 1.749,-1.01 3.295,-1.955 3.435,-2.1 0.265,-0.275 0.249,-0.299 -6.318,-9.42 -1.455,-2.02 -2.758,-3.671 -2.896,-3.669 -0.138,0.002 -1.09,0.455 -2.115,1.006 m 52.678,1.882 c -0.448,0.448 -0.371,8.644 0.083,8.818 0.643,0.247 0.747,-0.101 0.747,-2.48 0,-3.312 0.945,-5.283 2.532,-5.283 0.589,0 1.073,-0.53 0.899,-0.984 -0.255,-0.665 -2.266,0.147 -2.791,1.128 -0.341,0.638 -0.585,0.435 -0.679,-0.565 -0.076,-0.816 -0.372,-1.053 -0.791,-0.634 m 13.862,0.452 c -2.328,1.576 -2.733,4.935 -0.86,7.146 1.467,1.733 4.625,1.827 6.414,0.192 1.182,-1.081 0.215,-1.505 -1.082,-0.474 -1.976,1.571 -5.343,0.105 -5.436,-2.368 -0.003,-0.09 1.724,-0.165 3.838,-0.165 4.346,0 4.298,0.021 3.832,-1.643 -0.841,-3.003 -4.232,-4.362 -6.706,-2.688 m 17.496,-0.246 c -4.113,2.036 -2.653,8.742 1.911,8.778 1.686,0.013 3.746,-1.04 3.746,-1.915 0,-0.485 -0.704,-0.563 -1.02,-0.113 -1.166,1.666 -4.202,1.398 -5.341,-0.471 -0.999,-1.638 -0.911,-1.684 3.345,-1.751 l 3.783,-0.06 -0.045,-0.967 c -0.139,-2.988 -3.59,-4.881 -6.379,-3.501 m 25.394,-0.025 c 0,0.243 0.09,0.613 0.2,0.823 0.111,0.209 0.347,0.726 0.525,1.148 0.413,0.975 0.983,2.275 1.987,4.523 0.941,2.106 0.952,2.261 0.26,3.748 -0.384,0.824 -0.69,1.183 -1.095,1.285 -0.9,0.226 -0.755,0.97 0.19,0.97 1.112,0 1.319,-0.277 2.893,-3.871 0.167,-0.38 0.303,-0.76 0.303,-0.844 0,-0.084 0.139,-0.464 0.31,-0.844 2.299,-5.121 3.012,-7.631 2.066,-7.268 -0.303,0.117 -3.034,6.713 -3.034,7.328 0,0.837 -0.658,-0.267 -1.891,-3.173 -0.765,-1.804 -1.508,-3.502 -1.651,-3.773 -0.33,-0.625 -1.063,-0.661 -1.063,-0.052 m 18.293,0.271 c -3.755,2.54 -2.13,8.498 2.319,8.498 2.628,0 4.432,-1.822 4.453,-4.495 0.028,-3.762 -3.79,-6.019 -6.772,-4.003 m 15.844,-0.566 c -0.368,0.368 -0.142,6.531 0.273,7.445 0.939,2.066 3.533,2.239 5.535,0.368 l 0.581,-0.543 0.146,0.662 c 0.175,0.799 0.641,1.231 1.126,1.044 0.272,-0.104 0.317,-0.279 0.189,-0.737 -0.093,-0.33 -0.228,-2.327 -0.3,-4.438 -0.124,-3.648 -0.152,-3.838 -0.569,-3.838 -0.412,0 -0.445,0.183 -0.549,2.961 -0.134,3.614 -0.516,4.382 -2.505,5.038 -2.111,0.697 -2.757,-0.344 -2.757,-4.438 0,-3.344 -0.337,-4.357 -1.17,-3.524 m 17.288,0.332 c -0.369,1.499 -0.006,8.623 0.439,8.623 0.41,0 0.445,-0.184 0.549,-2.851 0.065,-1.687 0.223,-3.049 0.386,-3.336 0.39,-0.683 1.651,-1.599 2.203,-1.599 0.491,0 1.031,-0.737 0.806,-1.101 -0.328,-0.53 -1.931,0.165 -2.889,1.251 l -0.48,0.545 -0.069,-0.948 c -0.078,-1.088 -0.723,-1.486 -0.945,-0.584 m 24.06,-0.218 c -0.539,0.539 -0.36,8.671 0.194,8.848 0.739,0.234 0.82,-0.061 0.895,-3.239 l 0.07,-3.012 0.795,-0.795 c 1.169,-1.167 2.509,-1.294 3.332,-0.315 0.58,0.689 0.588,0.743 0.588,3.956 0,3.061 0.027,3.267 0.437,3.397 0.785,0.249 0.879,-0.058 0.879,-2.874 0,-4.308 1.926,-6.469 4.1,-4.601 l 0.615,0.529 0.07,3.408 c 0.072,3.516 0.343,4.31 1.182,3.471 0.395,-0.396 0.115,-6.814 -0.338,-7.742 -0.842,-1.724 -3.392,-1.779 -4.955,-0.106 -0.635,0.68 -1.034,0.724 -1.22,0.136 -0.467,-1.47 -2.723,-1.748 -4.498,-0.554 -1.376,0.926 -1.273,0.921 -1.357,0.072 -0.075,-0.766 -0.379,-0.989 -0.789,-0.579 m 22.864,0.004 c -0.38,0.991 0.014,8.837 0.444,8.837 0.64,0 0.693,-8.937 0.055,-9.06 -0.212,-0.04 -0.436,0.06 -0.499,0.223 m 10.74,0.016 c -0.376,0.98 0.024,8.821 0.45,8.821 0.412,0 0.445,-0.183 0.548,-2.961 0.123,-3.326 0.388,-3.999 1.838,-4.688 2.537,-1.204 3.425,-0.053 3.425,4.434 0,3.124 0.054,3.324 0.896,3.324 0.336,0 0.249,-6.916 -0.098,-7.747 -0.799,-1.912 -4.527,-1.877 -5.721,0.054 -0.262,0.425 -0.559,0.02 -0.559,-0.763 0,-0.762 -0.542,-1.092 -0.779,-0.474 m -147.958,1.034 c 0.823,0.502 1.586,1.638 1.587,2.365 l 0.001,0.499 -3.235,-0.061 c -3.097,-0.058 -3.231,-0.079 -3.16,-0.499 0.374,-2.219 2.934,-3.446 4.807,-2.304 m 17.105,0 c 0.821,0.501 1.586,1.638 1.587,2.359 0.001,0.489 -0.027,0.493 -3.179,0.493 -3.151,0 -3.18,-0.004 -3.179,-0.493 0.002,-1.334 1.664,-2.795 3.179,-2.795 0.49,0 1.193,0.193 1.592,0.436 m 43.95,0.139 c 1.74,0.875 2.245,3.859 0.929,5.485 -2.006,2.478 -5.589,1.072 -5.618,-2.204 -0.026,-2.84 2.314,-4.477 4.689,-3.281 m 108.842,-0.115 c 3.554,1.67 1.934,7.804 -1.786,6.766 -3.063,-0.856 -3.521,-5.358 -0.689,-6.761 1.163,-0.575 1.263,-0.575 2.475,-0.005"
       inkscape:connector-curvature="0"
       style="fill:#080808;fill-rule:evenodd;stroke:none" />
    <path
       id="path1"
       d="M 0,109.649 V 219.298 H 200 400 V 109.649 0 H 200 0 V 109.649 M 82.689,73.967 c 0.656,0.961 4.446,6.249 11.317,15.791 0.764,1.061 1.389,2.016 1.389,2.122 0,0.23 -1.193,0.91 -5.592,3.188 -1.81,0.937 -3.783,1.973 -4.386,2.302 -0.603,0.33 -1.707,0.915 -2.453,1.3 l -1.355,0.701 -2.592,-1.359 c -1.425,-0.747 -2.986,-1.581 -3.469,-1.852 -0.482,-0.272 -1.666,-0.91 -2.631,-1.419 -4.134,-2.178 -4.72,-2.526 -4.635,-2.748 0.081,-0.21 1.101,-1.709 5.293,-7.775 0.723,-1.047 2.788,-4.043 4.588,-6.658 3.661,-5.316 3.459,-5.155 4.526,-3.593 m 140.118,11.888 0.11,2.851 1.744,0.065 c 2.089,0.078 2.313,0.229 2.313,1.563 0,1.397 -0.223,1.552 -2.237,1.552 -1.209,0 -1.718,0.08 -1.736,0.274 -0.217,2.327 0.123,11.702 0.432,11.937 0.487,0.371 2.206,0.347 2.883,-0.04 0.961,-0.549 1.209,-0.414 1.616,0.879 0.46,1.457 0.438,1.499 -1.054,2.057 -2.354,0.881 -4.431,0.798 -5.881,-0.235 -1.266,-0.901 -1.326,-1.24 -1.463,-8.293 l -0.126,-6.469 -0.875,-0.072 c -2.255,-0.183 -2.065,-3.108 0.203,-3.108 h 0.782 v -2.833 c 0,-3.214 -0.081,-3.083 1.864,-3.021 l 1.315,0.042 0.11,2.851 m 121.624,2.721 c 2.841,1.291 3.44,3.499 3.336,12.301 l -0.07,5.812 -1.405,0.066 c -1.853,0.087 -1.766,0.378 -1.776,-5.987 -0.015,-9.251 -1.246,-11.138 -5.786,-8.87 -2.978,1.487 -3.423,2.715 -3.423,9.44 v 5.452 l -0.511,0.128 c -0.281,0.071 -0.947,0.097 -1.48,0.059 l -0.97,-0.069 -0.165,-2.303 c -0.092,-1.266 -0.141,-5.411 -0.11,-9.21 l 0.056,-6.908 h 1.426 1.425 l 0.066,1.151 c 0.078,1.35 0.277,1.419 1.41,0.485 2.143,-1.766 5.892,-2.493 7.977,-1.547 m -28.07,0.111 c 0.13,0.339 -8.663,22.817 -9.38,23.979 -0.758,1.231 -2.084,1.84 -3.838,1.763 l -1.498,-0.065 v -1.425 -1.426 l 0.658,-0.025 c 1.715,-0.066 1.717,-0.068 2.75,-2.464 1.044,-2.421 1.045,-2.452 0.188,-4.343 -0.374,-0.826 -1.368,-3.08 -2.21,-5.01 -0.842,-1.93 -1.668,-3.805 -1.836,-4.167 -1.684,-3.641 -2.895,-6.611 -2.752,-6.754 0.096,-0.096 0.854,-0.146 1.684,-0.109 l 1.51,0.065 2.921,6.798 c 3.607,8.395 3.138,7.951 4.512,4.277 0.293,-0.784 1.129,-2.955 1.858,-4.825 0.728,-1.869 1.539,-3.991 1.802,-4.715 0.263,-0.723 0.633,-1.439 0.824,-1.59 0.491,-0.389 2.654,-0.361 2.807,0.036 m -62.523,0.536 c 3.292,1.478 4.051,3.361 4.054,10.057 0.003,4.426 0.024,4.663 0.441,4.887 0.746,0.399 0.64,2.785 -0.136,3.08 -1.135,0.431 -3.153,-0.569 -3.153,-1.562 0,-0.355 -0.444,-0.22 -1.386,0.421 -6.279,4.273 -14.48,-1.37 -10.525,-7.24 1.547,-2.294 6.514,-3.576 10.107,-2.608 1.467,0.396 1.724,-0.171 1.018,-2.243 -0.992,-2.91 -4.037,-3.53 -7.856,-1.599 -2.191,1.108 -2.11,1.11 -2.733,-0.087 -0.588,-1.127 -0.508,-1.281 1.127,-2.181 3.002,-1.652 6.602,-2.021 9.042,-0.925 m 24.444,-0.202 c 0.125,0.233 0.227,0.776 0.227,1.206 0,0.944 0.05,0.951 1.065,0.153 1.365,-1.074 2.606,-1.588 3.942,-1.633 l 1.243,-0.041 v 1.408 1.408 l -1.259,0.286 c -4.33,0.984 -5.032,2.34 -4.976,9.609 0.023,2.933 -0.027,5.441 -0.11,5.576 -0.202,0.328 -2.6,0.312 -2.932,-0.019 -0.286,-0.286 -0.399,-17.949 -0.117,-18.231 0.37,-0.37 2.688,-0.149 2.917,0.278 m -80.227,0.317 c 1.724,0.609 2.787,1.397 3.836,2.844 0.927,1.278 0.867,1.518 -0.488,1.98 -1.416,0.483 -1.77,0.45 -2.199,-0.205 -2.07,-3.159 -7.548,-2.509 -9.352,1.109 -3.224,6.464 4.618,13.129 9.252,7.864 0.952,-1.082 0.948,-1.081 2.562,-0.612 1.276,0.371 1.366,0.54 0.847,1.582 -2.302,4.614 -10.16,5.255 -14.006,1.143 -6.823,-7.294 0.28,-18.976 9.548,-15.705 m -32.666,0.537 c 8.106,4.118 6.466,16.49 -2.393,18.045 -6.501,1.141 -11.991,-5.274 -10.247,-11.973 1.451,-5.57 7.709,-8.577 12.64,-6.072 m -6.069,2.648 c -5.776,2.684 -4.075,12.419 2.166,12.393 5.187,-0.022 7.722,-6.479 4.269,-10.875 -1.383,-1.759 -4.389,-2.469 -6.435,-1.518 m -59.723,5.031 c 0.282,0.343 1.203,1.588 2.048,2.767 0.844,1.179 1.98,2.748 2.525,3.488 0.544,0.739 1.679,2.318 2.522,3.507 0.842,1.189 2.001,2.818 2.575,3.618 0.573,0.801 1.205,1.683 1.403,1.961 0.492,0.69 1.06,0.331 -7.709,4.87 -1.93,0.999 -3.608,1.887 -3.729,1.974 -0.12,0.087 -1.896,1.025 -3.947,2.084 -3.994,2.063 -6.36,3.308 -8.114,4.27 -0.603,0.331 -2.108,1.126 -3.344,1.767 l -2.248,1.166 -2.248,-1.166 c -1.236,-0.641 -2.741,-1.433 -3.344,-1.761 -1.105,-0.6 -3.597,-1.922 -7.237,-3.841 -1.086,-0.572 -2.566,-1.361 -3.289,-1.753 -0.724,-0.392 -2.376,-1.268 -3.671,-1.948 -1.295,-0.68 -2.688,-1.424 -3.095,-1.653 -0.407,-0.228 -1.75,-0.935 -2.985,-1.57 -2.8,-1.441 -2.767,-1.307 -0.948,-3.873 0.834,-1.178 2.3,-3.275 3.257,-4.662 0.957,-1.387 1.986,-2.874 2.288,-3.305 0.302,-0.431 1.37,-1.985 2.375,-3.453 1.005,-1.468 1.92,-2.726 2.033,-2.796 0.175,-0.108 4.83,2.206 8.64,4.294 0.603,0.331 1.886,1.019 2.851,1.53 0.965,0.511 2.559,1.363 3.542,1.892 l 1.787,0.963 2.379,-1.228 c 5.044,-2.604 10.801,-5.597 12.797,-6.653 2.466,-1.304 2.246,-1.267 2.886,-0.489 m 148.758,1.102 c -3.206,0.847 -4.011,3.895 -1.482,5.614 1.635,1.111 5.049,0.533 6.719,-1.137 1.32,-1.32 1.458,-3.632 0.251,-4.209 -0.743,-0.354 -4.471,-0.536 -5.488,-0.268 m -91.896,18.923 c 1.002,0.457 0.484,1.068 -0.763,0.901 -1.072,-0.144 -1.968,0.687 -1.968,1.826 0,0.719 0.008,0.724 1.151,0.79 1.67,0.096 1.711,0.888 0.055,1.053 l -1.096,0.11 -0.06,3.828 c -0.061,3.829 -0.13,4.164 -0.867,4.173 -0.201,0.002 -0.285,-1.011 -0.329,-3.989 l -0.06,-3.993 -0.548,-0.129 c -0.349,-0.082 -0.549,-0.282 -0.549,-0.548 0,-0.266 0.2,-0.466 0.549,-0.548 0.44,-0.104 0.572,-0.3 0.67,-0.997 0.305,-2.181 2.021,-3.295 3.815,-2.477 m 164.55,0.643 c 0.07,0.602 -0.443,1.208 -0.824,0.973 -0.257,-0.159 -0.312,-1.275 -0.075,-1.513 0.317,-0.316 0.835,-0.005 0.899,0.54 m 34.922,5.133 c 0.066,3.136 0.198,5.91 0.292,6.165 0.125,0.338 0.074,0.501 -0.191,0.602 -0.557,0.214 -1.207,-0.245 -1.207,-0.853 0,-0.662 -0.239,-0.686 -0.788,-0.08 -2.409,2.662 -6.885,0.366 -6.885,-3.531 0,-3.781 4.414,-6.224 6.564,-3.633 0.696,0.839 0.889,0.421 0.889,-1.923 0,-2.415 0.06,-2.613 0.759,-2.513 0.434,0.063 0.451,0.239 0.567,5.766 m -238.639,-1.261 c 6.567,9.121 6.583,9.145 6.318,9.42 -0.14,0.145 -1.686,1.09 -3.435,2.1 -1.748,1.011 -4.487,2.594 -6.085,3.519 -6.051,3.504 -8.858,5.129 -13.432,7.776 -2.593,1.501 -5.011,2.902 -5.373,3.113 -3.381,1.975 -11.566,6.729 -12.171,7.07 -0.422,0.237 -0.861,0.521 -0.976,0.63 -0.321,0.306 -0.765,0.239 -1.402,-0.214 -0.321,-0.227 -0.928,-0.608 -1.35,-0.846 -0.422,-0.238 -1.853,-1.101 -3.18,-1.919 -1.327,-0.818 -3.596,-2.201 -5.044,-3.074 -5.057,-3.05 -17.869,-10.845 -18.69,-11.37 -0.455,-0.292 -2.9,-1.789 -5.433,-3.328 -2.532,-1.538 -4.914,-3.006 -5.292,-3.262 l -0.687,-0.465 1.849,-2.629 c 1.017,-1.445 2.947,-4.232 4.288,-6.192 1.342,-1.96 2.535,-3.563 2.653,-3.563 0.189,0 3.118,1.5 7.058,3.616 0.724,0.389 2.105,1.129 3.07,1.644 0.965,0.515 2.347,1.255 3.07,1.645 0.724,0.39 2.155,1.155 3.18,1.701 3.41,1.816 8.635,4.609 10.855,5.803 1.206,0.649 2.712,1.443 3.346,1.765 l 1.153,0.585 1.369,-0.696 c 1.322,-0.672 4.665,-2.425 9.703,-5.089 1.326,-0.702 3.201,-1.693 4.166,-2.202 2.122,-1.121 4.941,-2.619 7.018,-3.729 0.844,-0.451 2.67,-1.416 4.057,-2.145 1.387,-0.728 3.36,-1.776 4.386,-2.327 1.025,-0.551 1.977,-1.004 2.115,-1.006 0.138,-0.002 1.441,1.649 2.896,3.669 m 48.458,-0.147 c 0.094,1 0.338,1.203 0.679,0.565 0.525,-0.981 2.536,-1.793 2.791,-1.128 0.174,0.454 -0.31,0.984 -0.899,0.984 -1.587,0 -2.532,1.971 -2.532,5.283 0,2.379 -0.104,2.727 -0.747,2.48 -0.454,-0.174 -0.531,-8.37 -0.083,-8.818 0.419,-0.419 0.715,-0.182 0.791,0.634 m 17.205,-0.572 c 1.025,0.428 2.235,1.877 2.572,3.078 0.466,1.664 0.514,1.643 -3.832,1.643 -2.114,0 -3.841,0.075 -3.838,0.165 0.093,2.473 3.46,3.939 5.436,2.368 1.297,-1.031 2.264,-0.607 1.082,0.474 -1.789,1.635 -4.947,1.541 -6.414,-0.192 -3.182,-3.757 0.553,-9.392 4.994,-7.536 m 17.484,0.194 c 1.247,0.637 2.194,2.084 2.257,3.451 l 0.045,0.967 -3.783,0.06 c -4.256,0.067 -4.344,0.113 -3.345,1.751 1.139,1.869 4.175,2.137 5.341,0.471 0.316,-0.45 1.02,-0.372 1.02,0.113 0,1.61 -3.954,2.475 -5.898,1.289 -4.956,-3.023 -0.801,-10.74 4.363,-8.102 m 22.335,-0.023 c 0.143,0.271 0.886,1.969 1.651,3.773 1.233,2.906 1.891,4.01 1.891,3.173 0,-0.615 2.731,-7.211 3.034,-7.328 0.946,-0.363 0.233,2.147 -2.066,7.268 -0.171,0.38 -0.31,0.76 -0.31,0.844 0,0.084 -0.136,0.464 -0.303,0.844 -1.574,3.594 -1.781,3.871 -2.893,3.871 -0.945,0 -1.09,-0.744 -0.19,-0.97 0.405,-0.102 0.711,-0.461 1.095,-1.285 0.692,-1.487 0.681,-1.642 -0.26,-3.748 -1.004,-2.248 -1.574,-3.548 -1.987,-4.523 -0.178,-0.422 -0.414,-0.939 -0.525,-1.148 -0.11,-0.21 -0.2,-0.58 -0.2,-0.823 0,-0.609 0.733,-0.573 1.063,0.052 m 21.478,-0.076 c 4.324,2.218 2.882,8.793 -1.929,8.793 -2.573,0 -4.393,-1.934 -4.378,-4.653 0.018,-3.344 3.457,-5.602 6.307,-4.14 m 12.502,-0.154 c 0.181,0.18 0.264,1.254 0.264,3.407 0,4.094 0.646,5.135 2.757,4.438 1.989,-0.656 2.371,-1.424 2.505,-5.038 0.104,-2.778 0.137,-2.961 0.549,-2.961 0.417,0 0.445,0.19 0.569,3.838 0.072,2.111 0.207,4.108 0.3,4.438 0.128,0.458 0.083,0.633 -0.189,0.737 -0.485,0.187 -0.951,-0.245 -1.126,-1.044 l -0.146,-0.662 -0.581,0.543 c -2.002,1.871 -4.596,1.698 -5.535,-0.368 -0.415,-0.914 -0.641,-7.077 -0.273,-7.445 0.225,-0.225 0.615,-0.174 0.906,0.117 m 17.327,0.799 0.069,0.948 0.48,-0.545 c 0.958,-1.086 2.561,-1.781 2.889,-1.251 0.225,0.364 -0.315,1.101 -0.806,1.101 -0.552,0 -1.813,0.916 -2.203,1.599 -0.163,0.287 -0.321,1.649 -0.386,3.336 -0.104,2.667 -0.139,2.851 -0.549,2.851 -0.445,0 -0.808,-7.124 -0.439,-8.623 0.222,-0.902 0.867,-0.504 0.945,0.584 m 23.904,-0.223 c 0.084,0.849 -0.019,0.854 1.357,-0.072 1.775,-1.194 4.031,-0.916 4.498,0.554 0.186,0.588 0.585,0.544 1.22,-0.136 1.563,-1.673 4.113,-1.618 4.955,0.106 0.453,0.928 0.733,7.346 0.338,7.742 -0.839,0.839 -1.11,0.045 -1.182,-3.471 l -0.07,-3.408 -0.615,-0.529 c -2.174,-1.868 -4.1,0.293 -4.1,4.601 0,2.816 -0.094,3.123 -0.879,2.874 -0.41,-0.13 -0.437,-0.336 -0.437,-3.397 0,-3.213 -0.008,-3.267 -0.588,-3.956 -0.823,-0.979 -2.163,-0.852 -3.332,0.315 l -0.795,0.795 -0.07,3.012 c -0.075,3.178 -0.156,3.473 -0.895,3.239 -0.554,-0.177 -0.733,-8.309 -0.194,-8.848 0.41,-0.41 0.714,-0.187 0.789,0.579 m 22.958,3.769 c 0,4.346 -0.014,4.493 -0.439,4.493 -0.421,0 -0.441,-0.167 -0.498,-4.27 -0.064,-4.605 -0.03,-4.902 0.553,-4.79 0.351,0.068 0.384,0.46 0.384,4.567 m 10.636,-3.854 c 0,0.783 0.297,1.188 0.559,0.763 1.194,-1.931 4.922,-1.966 5.721,-0.054 0.347,0.831 0.434,7.747 0.098,7.747 -0.842,0 -0.896,-0.2 -0.896,-3.324 0,-4.487 -0.888,-5.638 -3.425,-4.434 -1.45,0.689 -1.715,1.362 -1.838,4.688 -0.103,2.778 -0.136,2.961 -0.548,2.961 -0.426,0 -0.826,-7.841 -0.45,-8.821 0.237,-0.618 0.779,-0.288 0.779,0.474 m -152.022,0.606 c -0.781,0.452 -1.364,1.317 -1.522,2.258 -0.071,0.42 0.063,0.441 3.16,0.499 l 3.235,0.061 -0.001,-0.499 c -0.003,-2.096 -2.889,-3.469 -4.872,-2.319 m 17.206,-0.046 c -0.82,0.501 -1.586,1.638 -1.587,2.359 -10e-4,0.489 0.028,0.493 3.179,0.493 3.152,0 3.18,-0.004 3.179,-0.493 -0.002,-1.334 -1.663,-2.795 -3.179,-2.795 -0.489,0 -1.193,0.193 -1.592,0.436 m 44.794,-0.167 c -2.98,1.016 -3.211,5.385 -0.36,6.78 1.281,0.627 2.615,0.264 3.629,-0.989 2.054,-2.538 -0.345,-6.789 -3.269,-5.791 m 108.707,0.196 c -2.832,1.403 -2.374,5.905 0.689,6.761 3.72,1.038 5.34,-5.096 1.786,-6.766 -1.212,-0.57 -1.312,-0.57 -2.475,0.005"
       inkscape:connector-curvature="0"
       style="fill:#fbfbfb;fill-rule:evenodd;stroke:none" />
  </g>
</svg>
