<svg id="acf5f485-21d2-4329-80c7-739808da36c2" data-name="Layer 1" xmlns="http://www.w3.org/2000/svg" xmlns:xlink="http://www.w3.org/1999/xlink" viewBox="0 0 500 580"><defs><style>.a9570e82-7816-45cb-92f1-951e3715cc13,.ad86c112-e81b-4f3f-8ba2-69f9d3848b89,.ae5acb8b-8dcc-47f6-81c8-b46821f832f7,.b0dd1968-f32f-494d-aec8-f441d771c9d9,.b890f4f2-d1a7-4efa-ae6a-808a779ab41c,.b9c64a10-0a5c-4af2-a13b-569320b41935,.bfc3da3e-9528-43b2-a2ba-94f60cdab40d,.e2273e55-ddce-4066-84d7-fb3295a88dda,.f433a5af-60bf-4c0e-aa8a-6ca1acd06c0b,.f78a5eb7-3418-4dca-89c7-8fc844a15bc9{fill:none;}.a4910f26-d849-449f-b2fe-7ba680f8bbee{fill:#5c4f9e;}.a240d643-5848-4829-981f-eea779b22102{fill:#cabfef;}.e746e157-6abe-429d-93b3-a3241877fafc{fill:#a69dd6;}.a367d7d5-a80f-4e9d-bd8e-2d3d1a2c844d,.acfbb5b8-8a68-4c80-b209-6c735bcbebda,.ad0bbaec-5be6-41f9-a5ed-bcac16dd5425,.e663fe60-de40-4cac-a41e-d40a16865d0b{fill:#fff;}.acfbb5b8-8a68-4c80-b209-6c735bcbebda{opacity:0.55;}.a5cdb676-3d10-4d0d-9dbf-8a3d1dd4de6c,.e1e217ba-0a00-40b0-b0cc-01548e53de2f,.f585cfb5-8908-4a60-bdd4-70d8b7a4dbe3{fill:#8b71d3;}.ad86c112-e81b-4f3f-8ba2-69f9d3848b89{stroke:#433d7c;}.ad86c112-e81b-4f3f-8ba2-69f9d3848b89,.b890f4f2-d1a7-4efa-ae6a-808a779ab41c{stroke-linejoin:round;stroke-width:0.54px;}.b890f4f2-d1a7-4efa-ae6a-808a779ab41c{stroke:#266646;}.b952d86d-f887-42f2-bcc3-436e98751455{fill:#4c4499;}.f11a86e3-d01a-4238-9a19-21dfacb73d4a{fill:#a9a1d3;}.b9c64a10-0a5c-4af2-a13b-569320b41935{stroke:#4b4e54;stroke-width:0.42px;}.a9570e82-7816-45cb-92f1-951e3715cc13,.b0dd1968-f32f-494d-aec8-f441d771c9d9,.b9c64a10-0a5c-4af2-a13b-569320b41935,.bfc3da3e-9528-43b2-a2ba-94f60cdab40d,.f433a5af-60bf-4c0e-aa8a-6ca1acd06c0b,.f78a5eb7-3418-4dca-89c7-8fc844a15bc9{stroke-miterlimit:10;}.e1e217ba-0a00-40b0-b0cc-01548e53de2f,.f83028e2-d843-4f24-8a49-34faa565cf04{opacity:0.15;}.b0dd1968-f32f-494d-aec8-f441d771c9d9,.f78a5eb7-3418-4dca-89c7-8fc844a15bc9{stroke:#8b71d3;}.b0dd1968-f32f-494d-aec8-f441d771c9d9,.e2273e55-ddce-4066-84d7-fb3295a88dda,.f433a5af-60bf-4c0e-aa8a-6ca1acd06c0b,.f78a5eb7-3418-4dca-89c7-8fc844a15bc9{stroke-width:1.45px;}.f78a5eb7-3418-4dca-89c7-8fc844a15bc9{stroke-dasharray:2.23 2.23;}.ad0bbaec-5be6-41f9-a5ed-bcac16dd5425{opacity:0.33;}.e3a5bdcb-b345-47a7-8c4c-15cdc8b4720f{opacity:0.57;}.b40aeb1f-8599-429d-99b5-9529541f61ab{fill:#f2f2f2;}.b08491db-63f5-4e73-849a-c791952de606{fill:#e6e6e6;}.a9cf9f42-3b63-401c-a366-1db617ffe2f5{fill:#d0caef;}.f6b50ccd-0e2a-4934-9e62-ebd709a7b0e7{fill:#7663ba;}.aecb66ae-4d8c-46bf-bae8-1e43f89391d1{opacity:0.5;}.bfc3da3e-9528-43b2-a2ba-94f60cdab40d,.e2273e55-ddce-4066-84d7-fb3295a88dda,.f433a5af-60bf-4c0e-aa8a-6ca1acd06c0b{stroke:#fff;}.bfc3da3e-9528-43b2-a2ba-94f60cdab40d{stroke-linecap:round;stroke-width:0.75px;}.bdc75f5a-04cd-4994-a068-d5140b923506{clip-path:url(#f1cb23dd-44d3-4985-a733-c204310f00e5);}.a9570e82-7816-45cb-92f1-951e3715cc13{stroke:#5c4f9e;stroke-width:0.87px;}.e663fe60-de40-4cac-a41e-d40a16865d0b{opacity:0.49;isolation:isolate;}.a5cdb676-3d10-4d0d-9dbf-8a3d1dd4de6c{opacity:0.53;}.a8e88c54-7943-48c5-8677-cd35e3cbf8d5{opacity:0.05;}.a50fe224-f0fa-43b2-95d2-3160299b6134{opacity:0.25;}.a7744c38-be34-4594-b762-24bef78cfecf{opacity:0.88;}.f2683a98-6005-4f68-8e17-2ac5da385551{opacity:0.45;}.f2b7892b-5101-4f74-b200-936494b922ec{fill:url(#f29b5fa6-675f-48aa-8b3f-dee9d8885e82);}</style><clipPath id="f1cb23dd-44d3-4985-a733-c204310f00e5"><path class="ae5acb8b-8dcc-47f6-81c8-b46821f832f7" d="M407.53,488.36c-32.76,3.93-58.82,36.67-59.69,58.29H467.22C467.22,515.88,443.77,484,407.53,488.36Z"/></clipPath><linearGradient id="f29b5fa6-675f-48aa-8b3f-dee9d8885e82" x1="-705.35" y1="125.37" x2="-705.35" y2="54.42" gradientTransform="translate(1137.56 286.45) rotate(14.2)" gradientUnits="userSpaceOnUse"><stop offset="0" stop-color="#fff" stop-opacity="0"/><stop offset="1" stop-color="#fff"/></linearGradient></defs><title>Use-Case, Insight Cards</title><path class="a4910f26-d849-449f-b2fe-7ba680f8bbee" d="M294.25,422V546.09h-101a12.53,12.53,0,0,1-12.53-12.53V422Z"/><polygon class="a240d643-5848-4829-981f-eea779b22102" points="303.07 385.55 303.07 513.66 198.64 513.66 198.64 406.77 219.86 385.55 303.07 385.55"/><polygon class="e746e157-6abe-429d-93b3-a3241877fafc" points="198.64 406.77 219.86 385.55 219.86 406.77 198.64 406.77"/><rect class="acfbb5b8-8a68-4c80-b209-6c735bcbebda" x="214.41" y="418.51" width="53.84" height="4.18"/><rect class="acfbb5b8-8a68-4c80-b209-6c735bcbebda" x="187.49" y="434.42" width="88.66" height="4.18"/><rect class="acfbb5b8-8a68-4c80-b209-6c735bcbebda" x="187.49" y="450.34" width="53.84" height="4.18"/><rect class="acfbb5b8-8a68-4c80-b209-6c735bcbebda" x="187.49" y="466.25" width="53.84" height="4.18"/><rect class="acfbb5b8-8a68-4c80-b209-6c735bcbebda" x="187.49" y="482.17" width="53.84" height="4.18"/><rect class="acfbb5b8-8a68-4c80-b209-6c735bcbebda" x="187.49" y="498.08" width="53.84" height="4.18"/><path class="f585cfb5-8908-4a60-bdd4-70d8b7a4dbe3" d="M319.31,444.28v86.15a15.66,15.66,0,0,1-15.66,15.66H193.22a12.53,12.53,0,0,0,12.53-12.53V434.07H240.4l7,10.21Z"/><path class="a240d643-5848-4829-981f-eea779b22102" d="M65.49,472.47S67.21,489.9,67.42,504,70,541.84,70,541.84l6.35.9,4.79-1a303.25,303.25,0,0,1-1.63-37c.51-19-3.06-44.64-3.06-44.64"/><path class="a4910f26-d849-449f-b2fe-7ba680f8bbee" d="M93.48,547.1a3.11,3.11,0,0,0-1-1.79L82,540.5c-5.86,2.2-13.32.2-13.32.2l-1.55,7.88a.47.47,0,0,0,.46.49l25.62.55C93.76,549.64,93.49,547.12,93.48,547.1Z"/><path class="ad86c112-e81b-4f3f-8ba2-69f9d3848b89" d="M84.2,541a12.58,12.58,0,0,0-1.55,2.46"/><path class="ad86c112-e81b-4f3f-8ba2-69f9d3848b89" d="M85.51,541.84a10.71,10.71,0,0,0-1.28,2.09"/><path class="ad86c112-e81b-4f3f-8ba2-69f9d3848b89" d="M86.61,542.45a15.19,15.19,0,0,0-1.19,1.91"/><line class="ad86c112-e81b-4f3f-8ba2-69f9d3848b89" x1="67.23" y1="547.35" x2="93.48" y2="547.92"/><path class="b890f4f2-d1a7-4efa-ae6a-808a779ab41c" d="M68.07,543.49s6.16.3,6.59,4"/><path class="ad86c112-e81b-4f3f-8ba2-69f9d3848b89" d="M90.21,544.33a19.74,19.74,0,0,0-2.13,3.47"/><path class="a240d643-5848-4829-981f-eea779b22102" d="M48.88,472.05s3.16,17.26,2.59,31.36.25,38.79.25,38.79l6.45.37,4.84-.73a300.55,300.55,0,0,1,.44-37"/><path class="b952d86d-f887-42f2-bcc3-436e98751455" d="M75.82,546.68a3.19,3.19,0,0,0-1.13-1.75l-10.57-4.42c-5.78,2.41-13.3.7-13.3.7l-1.26,7.93a.47.47,0,0,0,.48.47l25.63-.4C76.18,549.2,75.82,546.7,75.82,546.68Z"/><path class="ad86c112-e81b-4f3f-8ba2-69f9d3848b89" d="M66.4,540.94A12.32,12.32,0,0,0,65,543.45"/><path class="ad86c112-e81b-4f3f-8ba2-69f9d3848b89" d="M67.74,541.72a11.09,11.09,0,0,0-1.2,2.13"/><path class="ad86c112-e81b-4f3f-8ba2-69f9d3848b89" d="M68.86,542.29a17,17,0,0,0-1.12,2"/><line class="ad86c112-e81b-4f3f-8ba2-69f9d3848b89" x1="49.68" y1="547.91" x2="75.93" y2="547.49"/><path class="ad86c112-e81b-4f3f-8ba2-69f9d3848b89" d="M50.37,544s6.17.06,6.74,3.77"/><path class="ad86c112-e81b-4f3f-8ba2-69f9d3848b89" d="M72.53,544a19.59,19.59,0,0,0-2,3.55"/><path class="a4910f26-d849-449f-b2fe-7ba680f8bbee" d="M90.3,403.47l-7.43,7.79a60.58,60.58,0,0,1-10-7.27c-2.22-2.32-4.51-16.43-1.58-16.1C76.09,391.07,90.3,403.47,90.3,403.47Z"/><path class="f585cfb5-8908-4a60-bdd4-70d8b7a4dbe3" d="M53.52,399.89s-.29,16.9.44,26.67a69.56,69.56,0,0,0,20.93,2.65l.28-18c5.14-7.31.63-16.78.63-16.78l-6.36-8.94L63.07,385l-3.07.86a9.12,9.12,0,0,0-6.63,9Z"/><path class="a4910f26-d849-449f-b2fe-7ba680f8bbee" d="M52.8,404.65c1.2-1.11-2.72-3-3.17-6a40.31,40.31,0,0,1-.51-10c.67-3.75,1.68-7.69,5-9.35,2.57-1.28,1.3-8.41,2.09-11a10.22,10.22,0,0,1,1.69-3.13c2.64-3.31,6.61-4.21,10.78-3.45,2.58.47,2.62.16,5,1.26.93.44,1.3,1.74,2,2.48a8.19,8.19,0,0,1,1.59,2.61"/><path class="f585cfb5-8908-4a60-bdd4-70d8b7a4dbe3" d="M74.05,380.28c-.82-.35-3,1.12-3.86,1.51a53.4,53.4,0,0,0-6,3.24c-2.52,1.6-4.76,2.72-6.7,5a19.36,19.36,0,0,0-4,13.79"/><path class="a240d643-5848-4829-981f-eea779b22102" d="M66.47,390.8l.37,0a3.23,3.23,0,0,0,3.56-2.22h0l1.82-8.91L64,380.83l-.53,3.5L63,387.44C62.74,389.1,64.36,390.67,66.47,390.8Z"/><path class="f11a86e3-d01a-4238-9a19-21dfacb73d4a" d="M65.89,384.66c.75,2.19,2.13,3.72,3.87,3.95a2,2,0,0,0,.64,0l1.82-8.91-5.81,1.46Z"/><path class="a240d643-5848-4829-981f-eea779b22102" d="M76.2,370.39a17.36,17.36,0,0,1,.14,3.49,1.9,1.9,0,0,0,.42,1.45l1.68,2a.56.56,0,0,1,0,.73,2.19,2.19,0,0,1-1.18.82,11.64,11.64,0,0,1-2.12,5A3.46,3.46,0,0,1,73,385.08c-9.11,1.37-12.95-2.91-13-11.91A7.8,7.8,0,0,1,62,367.84c2.11-2.28,6.26-5.69,10.67-3.08A7.55,7.55,0,0,1,76.2,370.39Z"/><path class="a4910f26-d849-449f-b2fe-7ba680f8bbee" d="M61.7,364.64c2.64-2.78,6.48-3.25,10.06-2.41,1.5.35,4.2,1.69,5.13,3.12,3.16,4.88-1.48,5.62-2.4,5.73a7.39,7.39,0,0,0-.82-2.05A35.29,35.29,0,0,0,71,372.9a13.82,13.82,0,0,0-.82,3.61c-1-.81-1.26-2.14-2.86-2.06a3,3,0,0,0-2.63,1.92c-.72,2.16,1.24,5.66,3.81,4.53.2.89-.2,3.4-1,3.88-1,.66-3.75-.34-4.68-1a12.5,12.5,0,0,1-3.47-4.36C56.8,374,59,367.47,61.7,364.64Z"/><path class="a4910f26-d849-449f-b2fe-7ba680f8bbee" d="M78.91,457.57s3,56.47,3.74,80.77l-14.91.81L65,506.91l-1.24-49.47Z"/><path class="a4910f26-d849-449f-b2fe-7ba680f8bbee" d="M78.91,457.57c-5,1.35-10.62-.28-15.2-.13-.11,17.42.65,65.4-.93,81.85l-14.9-1.1,1.34-32.33-1.09-26.2a84.41,84.41,0,0,1-.25-12.72c.47-5.61.38-12.88,1.11-19.56a91,91,0,0,1,5.1-20.82h21.1A288.1,288.1,0,0,1,78.91,457.57Z"/><line class="b9c64a10-0a5c-4af2-a13b-569320b41935" x1="49.68" y1="536.11" x2="61.95" y2="537.18"/><rect class="a240d643-5848-4829-981f-eea779b22102" x="82.65" y="370.86" width="74.24" height="92.54"/><rect class="e1e217ba-0a00-40b0-b0cc-01548e53de2f" x="7.46" y="4.32" width="485.07" height="571.36" rx="12.53"/><path class="f585cfb5-8908-4a60-bdd4-70d8b7a4dbe3" d="M332,234.56l0,.25H279.15a4.64,4.64,0,0,1,4.57-4.55h44.39A3.83,3.83,0,0,1,332,234.56Z"/><polygon class="a4910f26-d849-449f-b2fe-7ba680f8bbee" points="321.08 237.29 321.11 241.84 279.15 241.84 279.15 237.29 321.08 237.29"/><polygon class="a240d643-5848-4829-981f-eea779b22102" points="327.79 245.09 327.82 249.65 279.15 249.65 279.15 245.09 327.79 245.09"/><path class="a240d643-5848-4829-981f-eea779b22102" d="M302.91,252.35l0,.43a4.66,4.66,0,0,1-4.55,4.12H283a3.82,3.82,0,0,1-3.89-3.87v-.68Z"/><path class="a240d643-5848-4829-981f-eea779b22102" d="M330.83,307.58l0,.25H278a4.65,4.65,0,0,1,4.57-4.56H327A3.83,3.83,0,0,1,330.83,307.58Z"/><polygon class="a240d643-5848-4829-981f-eea779b22102" points="319.94 310.3 319.98 314.86 278.01 314.86 278.01 310.3 319.94 310.3"/><polygon class="f585cfb5-8908-4a60-bdd4-70d8b7a4dbe3" points="326.65 318.11 326.69 322.67 278.02 322.67 278.01 318.11 326.65 318.11"/><path class="a240d643-5848-4829-981f-eea779b22102" d="M301.78,325.36l0,.44a4.66,4.66,0,0,1-4.55,4.12H281.9a3.82,3.82,0,0,1-3.88-3.87v-.69Z"/><path class="a240d643-5848-4829-981f-eea779b22102" d="M332.42,270.36l0,.25H279.6a4.65,4.65,0,0,1,4.57-4.56h44.39A3.84,3.84,0,0,1,332.42,270.36Z"/><polygon class="f585cfb5-8908-4a60-bdd4-70d8b7a4dbe3" points="321.53 273.08 321.56 277.64 279.6 277.64 279.6 273.08 321.53 273.08"/><polygon class="f585cfb5-8908-4a60-bdd4-70d8b7a4dbe3" points="328.24 280.89 328.27 285.45 279.61 285.45 279.6 280.89 328.24 280.89"/><path class="a240d643-5848-4829-981f-eea779b22102" d="M303.36,288.15l0,.43a4.66,4.66,0,0,1-4.55,4.12H283.49a3.81,3.81,0,0,1-3.88-3.87v-.68Z"/><path class="e1e217ba-0a00-40b0-b0cc-01548e53de2f" d="M38.73,327.46C61,315.69,57.57,317.6,71.57,310.19s31.16-10.79,47.2-7.78c20.1,3.77,35.91,16.59,52.72,26.81,4.19,2.54,8.58,5,13.52,6.13,9.47,2.21,19.75-.69,27.68-5.66s13.95-11.84,19.87-18.59,11.21-21.37,19.22-26.26c-8,4.89-13.29,5.77-19.22,12.51s-11.94,13.6-19.87,18.58-18.21,7.88-27.68,5.67c-4.94-1.15-9.33-3.6-13.52-6.14-16.81-10.22-32.62-23-52.72-26.8-16-3-33.21.37-47.2,7.78S46.61,315,38.73,327.46Z"/><g class="f83028e2-d843-4f24-8a49-34faa565cf04"><path class="f585cfb5-8908-4a60-bdd4-70d8b7a4dbe3" d="M38.73,288.27A39.79,39.79,0,0,1,45.35,287a48.44,48.44,0,0,1,6.82-.22,51.81,51.81,0,0,1,6.81.66c2.26.33,4.5.8,6.72,1.31a132.78,132.78,0,0,1,13,3.94c4.25,1.47,8.44,3,12.6,4.64,16.62,6.4,32.87,13.13,49.71,16.6a91.23,91.23,0,0,0,12.56,1.9,57.74,57.74,0,0,0,12.34-.22c8.17-1,16.23-4,24.4-7.27,4.09-1.65,8.23-3.37,12.48-4.93,1.06-.39,2.13-.77,3.21-1.13s2.16-.74,3.27-1.06a47.38,47.38,0,0,1,6.86-1.54,30,30,0,0,1,7.15-.18,21.39,21.39,0,0,1,6.89,1.92c2.1,1,4,2.12,6,3.11a20.77,20.77,0,0,0,6.2,2.21,19.43,19.43,0,0,1-6.71-.9c-2.18-.64-4.27-1.44-6.35-2a20.24,20.24,0,0,0-6.14-.73,25.58,25.58,0,0,0-6.09,1.05A71.72,71.72,0,0,0,205.18,309c-3.93,1.92-7.85,4-11.87,6a135.05,135.05,0,0,1-12.51,5.57,69.18,69.18,0,0,1-13.62,3.76,63.92,63.92,0,0,1-14.27.66,98.26,98.26,0,0,1-13.82-2A160.94,160.94,0,0,1,113,315c-8.41-3.33-16.53-7.13-24.55-10.95l-12-5.7c-4-1.88-8-3.68-12.05-5.24C56.25,289.9,47.7,287.74,38.73,288.27Z"/></g><g class="f83028e2-d843-4f24-8a49-34faa565cf04"><path class="f585cfb5-8908-4a60-bdd4-70d8b7a4dbe3" d="M41.45,268.57a59.37,59.37,0,0,1,12.61-2,92.49,92.49,0,0,1,12.89.14,98.66,98.66,0,0,1,25.27,5.76l3,1.17,1.53.59,1.48.68c2,.92,4,1.81,5.9,2.81l5.72,3.17c1.87,1.07,3.63,2.18,5.44,3.27l10.72,6.57c1.78,1.1,3.53,2.12,5.3,3.18s3.52,2,5.25,2.77l1.3.64c.43.2.85.34,1.28.52a16.92,16.92,0,0,0,2.52.89L143,299a9,9,0,0,0,1.23.2l1.22.18h1.23c3.29,0,7-1,10.75-2.32l2.85-1,2.88-1.13,5.81-2.32c.94-.39,2-.76,3.05-1.14l3.12-1.12c2.1-.69,4.25-1.19,6.36-1.79a92.28,92.28,0,0,1,25.91-2.12A102.66,102.66,0,0,1,220.12,288a77.4,77.4,0,0,1,12.32,3.29q-3.15-.36-6.3-.5t-6.28-.21a122.7,122.7,0,0,0-12.45.45,107.3,107.3,0,0,0-24,4.62c-1.88.7-3.8,1.3-5.65,2.08L175,298.92c-.92.4-1.82.77-2.79,1.25-1.92.9-3.81,1.82-5.78,2.68l-2.95,1.3-3,1.24c-1,.44-2.09.79-3.15,1.16l-1.61.54-1.71.45-1.71.44c-.58.15-1.21.21-1.82.31l-1.84.27c-.62.06-1.27.05-1.9.07s-1.28,0-1.92,0l-1.91-.23a19.1,19.1,0,0,1-1.89-.3l-1.8-.48a23.54,23.54,0,0,1-3.44-1.16c-.55-.22-1.13-.42-1.65-.66l-1.54-.74c-2.1-1-3.94-2.1-5.88-3.17s-3.72-2.22-5.49-3.38c-3.58-2.31-7.11-4.61-10.61-6.94-1.74-1.15-3.5-2.37-5.23-3.47l-5.15-3.24c-3.53-2-7.08-4-10.79-5.68a118.17,118.17,0,0,0-23.17-8A98.51,98.51,0,0,0,41.45,268.57Z"/></g><circle class="f585cfb5-8908-4a60-bdd4-70d8b7a4dbe3" cx="82.79" cy="229.7" r="6.47"/><circle class="f585cfb5-8908-4a60-bdd4-70d8b7a4dbe3" cx="146.99" cy="251.26" r="6.47"/><circle class="f585cfb5-8908-4a60-bdd4-70d8b7a4dbe3" cx="205.7" cy="224.81" r="6.47"/><line class="f78a5eb7-3418-4dca-89c7-8fc844a15bc9" x1="205.7" y1="280.81" x2="205.7" y2="238.43"/><line class="f78a5eb7-3418-4dca-89c7-8fc844a15bc9" x1="146.99" y1="291.97" x2="146.99" y2="262.65"/><line class="f78a5eb7-3418-4dca-89c7-8fc844a15bc9" x1="82.79" y1="263.78" x2="82.79" y2="238.43"/><polygon class="ad0bbaec-5be6-41f9-a5ed-bcac16dd5425" points="122.09 392.24 131.6 386.68 136.44 378.05 141.59 386.99 150.53 392.24 141.74 397.35 136.44 408.06 131.05 397.25 122.09 392.24"/><polygon class="ad0bbaec-5be6-41f9-a5ed-bcac16dd5425" points="88.18 392.24 97.69 386.68 102.53 378.05 107.68 386.99 116.61 392.24 107.83 397.35 102.53 408.06 97.14 397.25 88.18 392.24"/><g class="e3a5bdcb-b345-47a7-8c4c-15cdc8b4720f"><rect class="b40aeb1f-8599-429d-99b5-9529541f61ab" x="143.7" y="417.7" width="8.02" height="3.08"/><rect class="b40aeb1f-8599-429d-99b5-9529541f61ab" x="136.64" y="427.52" width="9.06" height="3.08"/><rect class="b40aeb1f-8599-429d-99b5-9529541f61ab" x="120.81" y="432.44" width="12.12" height="3.08"/><rect class="b40aeb1f-8599-429d-99b5-9529541f61ab" x="108.91" y="432.44" width="10.1" height="3.08"/><rect class="b40aeb1f-8599-429d-99b5-9529541f61ab" x="141.43" y="432.44" width="4.28" height="3.08"/><rect class="b40aeb1f-8599-429d-99b5-9529541f61ab" x="147.46" y="437.35" width="4.46" height="3.08"/><rect class="b40aeb1f-8599-429d-99b5-9529541f61ab" x="133.17" y="437.35" width="12.27" height="3.08"/><rect class="b08491db-63f5-4e73-849a-c791952de606" x="146.42" y="442.27" width="5.5" height="3.08"/><rect class="b40aeb1f-8599-429d-99b5-9529541f61ab" x="139.31" y="442.27" width="4.67" height="3.08"/><rect class="b40aeb1f-8599-429d-99b5-9529541f61ab" x="128.85" y="442.27" width="7.8" height="3.08"/><rect class="b40aeb1f-8599-429d-99b5-9529541f61ab" x="118.55" y="442.27" width="7.8" height="3.08"/><rect class="b40aeb1f-8599-429d-99b5-9529541f61ab" x="147.46" y="447.19" width="4.46" height="3.08"/><rect class="b40aeb1f-8599-429d-99b5-9529541f61ab" x="133.17" y="447.19" width="11.77" height="3.08"/><rect class="b40aeb1f-8599-429d-99b5-9529541f61ab" x="147.46" y="452.1" width="4.46" height="3.08"/><rect class="b40aeb1f-8599-429d-99b5-9529541f61ab" x="135.42" y="452.1" width="4.46" height="3.08"/><rect class="b40aeb1f-8599-429d-99b5-9529541f61ab" x="124.03" y="452.1" width="9.64" height="3.08"/><rect class="b40aeb1f-8599-429d-99b5-9529541f61ab" x="116.27" y="452.1" width="6.44" height="3.08"/><rect class="b40aeb1f-8599-429d-99b5-9529541f61ab" x="131.21" y="417.7" width="10.22" height="3.08"/><rect class="b40aeb1f-8599-429d-99b5-9529541f61ab" x="117.58" y="417.7" width="11.77" height="3.08"/><rect class="b40aeb1f-8599-429d-99b5-9529541f61ab" x="102.12" y="417.7" width="13.59" height="3.08"/><rect class="b08491db-63f5-4e73-849a-c791952de606" x="93.56" y="417.7" width="6.43" height="3.08"/><rect class="b40aeb1f-8599-429d-99b5-9529541f61ab" x="119.43" y="412.36" width="4.81" height="3.08"/><rect class="b40aeb1f-8599-429d-99b5-9529541f61ab" x="134.9" y="432.44" width="4.81" height="3.08"/><rect class="b40aeb1f-8599-429d-99b5-9529541f61ab" x="133.09" y="422.6" width="4.81" height="3.08"/><rect class="b40aeb1f-8599-429d-99b5-9529541f61ab" x="130.18" y="427.52" width="4.81" height="3.08"/><rect class="b40aeb1f-8599-429d-99b5-9529541f61ab" x="115.18" y="412.36" width="2.4" height="3.08"/><rect class="b08491db-63f5-4e73-849a-c791952de606" x="98.67" y="412.36" width="6.88" height="3.08"/><rect class="b40aeb1f-8599-429d-99b5-9529541f61ab" x="124.19" y="422.4" width="3.54" height="4.23" transform="translate(251.91 849.04) rotate(-180)"/><rect class="b40aeb1f-8599-429d-99b5-9529541f61ab" x="117.92" y="422.4" width="3.54" height="4.23" transform="translate(239.38 849.04) rotate(-180)"/></g><path class="a9cf9f42-3b63-401c-a366-1db617ffe2f5" d="M91.41,424.54c2.21.07,10.93,1.3,11.16.91s-2-.86-1.76-1.14,3.75.2,3.87-.25c.18-.61-3.43-.92-3.43-.92s4,.14,4-.43c0-.41-3-.66-4.17-.9,1.28.1,3.36,0,3.34-.39s-2.06-.64-3.63-.89c1,.07,2.8.09,2.81-.3s-6-1.65-11.5-2.12"/><path class="a9cf9f42-3b63-401c-a366-1db617ffe2f5" d="M65.63,395.79c3.3,4.91,5.62,12.95,14,17.21s12.45,5.11,12.45,5.11l-.65,6.43S77,422.21,71,417.87a37.77,37.77,0,0,1-12.66-14.59"/><path class="f6b50ccd-0e2a-4934-9e62-ebd709a7b0e7" d="M71.91,405.37l-9.24,5.51a23.25,23.25,0,0,1-8.45-7.79c-2.63-3.55,1.24-10.93,3.69-13.57,1.9-2,5.54,1.66,6.78,3.47C68.5,397.35,71.91,405.37,71.91,405.37Z"/><g class="aecb66ae-4d8c-46bf-bae8-1e43f89391d1"><path class="f585cfb5-8908-4a60-bdd4-70d8b7a4dbe3" d="M418.28,501.28c1.49-9.37,2.71-18.84,2.38-28.33s-2.42-20.84-7.35-29.18c-2.84-4.81-13-16.17-15-3.85-1,6.1,1.5,11.78,3.28,17.47,1.7,5.45,4.18,10.74,5.63,16.26,2.32,8.81,3.79,17.83,6.41,26.57"/></g><g class="aecb66ae-4d8c-46bf-bae8-1e43f89391d1"><path class="f585cfb5-8908-4a60-bdd4-70d8b7a4dbe3" d="M413.31,506.13c-2.45-11.76-5.29-23.44-10.18-34.05-4.08-8.84-9.85-17.66-17.53-24-5.18-4.28-20.53-14.77-26.16-6.34-4.55,6.81,1.85,15.09,6.31,20.07,6.39,7.12,13.81,13.22,20,20.53,7.2,8.44,13.37,17.7,20.93,25.85"/></g><g class="aecb66ae-4d8c-46bf-bae8-1e43f89391d1"><path class="f585cfb5-8908-4a60-bdd4-70d8b7a4dbe3" d="M394.77,499.78a109.38,109.38,0,0,0-21.93-20.5c-2.77-2-16.91-11.55-16.87-2.2,0,6.41,7.69,10.09,12.42,12.58,9.74,5.12,20.28,8.8,29.35,15"/></g><path class="bfc3da3e-9528-43b2-a2ba-94f60cdab40d" d="M360.47,478.76s19.51,8.68,39.95,29.11"/><path class="bfc3da3e-9528-43b2-a2ba-94f60cdab40d" d="M369.29,448.47s22.7,12.3,43.3,62.71"/><path class="bfc3da3e-9528-43b2-a2ba-94f60cdab40d" d="M403.67,442.71s13.12,18.5,13.12,65.51"/><path class="a367d7d5-a80f-4e9d-bd8e-2d3d1a2c844d" d="M407.53,488.36c-32.76,3.93-58.82,36.67-59.69,58.29H467.22C467.22,515.88,443.77,484,407.53,488.36Z"/><path class="f585cfb5-8908-4a60-bdd4-70d8b7a4dbe3" d="M407.53,488.36c-32.76,3.93-58.82,36.67-59.69,58.29H467.22C467.22,515.88,443.77,484,407.53,488.36Z"/><g class="bdc75f5a-04cd-4994-a068-d5140b923506"><line class="bfc3da3e-9528-43b2-a2ba-94f60cdab40d" x1="414.84" y1="483.71" x2="410.49" y2="552.08"/><line class="bfc3da3e-9528-43b2-a2ba-94f60cdab40d" x1="412.66" y1="517.31" x2="390.47" y2="490.46"/><line class="bfc3da3e-9528-43b2-a2ba-94f60cdab40d" x1="426.34" y1="550.5" x2="454.89" y2="501.38"/><line class="bfc3da3e-9528-43b2-a2ba-94f60cdab40d" x1="433.2" y1="488.89" x2="437.1" y2="531.98"/><line class="bfc3da3e-9528-43b2-a2ba-94f60cdab40d" x1="435.73" y1="553.85" x2="465.66" y2="528.87"/><line class="bfc3da3e-9528-43b2-a2ba-94f60cdab40d" x1="454.54" y1="538.15" x2="467.47" y2="536.48"/><line class="bfc3da3e-9528-43b2-a2ba-94f60cdab40d" x1="413.29" y1="508.12" x2="427.84" y2="483.71"/><line class="bfc3da3e-9528-43b2-a2ba-94f60cdab40d" x1="374.51" y1="494.08" x2="408.37" y2="549"/><line class="bfc3da3e-9528-43b2-a2ba-94f60cdab40d" x1="361.21" y1="508.22" x2="397.01" y2="530.57"/><line class="bfc3da3e-9528-43b2-a2ba-94f60cdab40d" x1="354.09" y1="520.31" x2="388.19" y2="550.5"/><line class="bfc3da3e-9528-43b2-a2ba-94f60cdab40d" x1="347.84" y1="533.51" x2="373.3" y2="537.32"/></g><rect class="a240d643-5848-4829-981f-eea779b22102" x="360.64" y="325.96" width="49.92" height="66.34"/><rect class="a240d643-5848-4829-981f-eea779b22102" x="432.2" y="301.18" width="28.91" height="38.42"/><rect class="f585cfb5-8908-4a60-bdd4-70d8b7a4dbe3" x="392.32" y="333.25" width="14.82" height="6.38" rx="3.19"/><circle class="a4910f26-d849-449f-b2fe-7ba680f8bbee" cx="376.54" cy="345.79" r="11.63"/><path class="f585cfb5-8908-4a60-bdd4-70d8b7a4dbe3" d="M376.54,345.79l11.32-2.63a11.24,11.24,0,0,0-1.16-3,11.63,11.63,0,0,0-1.94-2.58Z"/><rect class="acfbb5b8-8a68-4c80-b209-6c735bcbebda" x="364.91" y="361.41" width="42.23" height="2.28" rx="1.14"/><rect class="acfbb5b8-8a68-4c80-b209-6c735bcbebda" x="364.91" y="367.11" width="42.23" height="2.28" rx="1.14"/><rect class="acfbb5b8-8a68-4c80-b209-6c735bcbebda" x="364.91" y="372.8" width="30.32" height="2.28" rx="1.14"/><path class="a9570e82-7816-45cb-92f1-951e3715cc13" d="M391.11,387.59a2,2,0,0,0,2.25-.35,2.06,2.06,0,0,0,.44-2.24.5.5,0,0,0-.19-.24c-.25-.11-.47.21-.52.48a2.51,2.51,0,0,0,4,2.42,1.07,1.07,0,0,1,.42-.25c.55-.08.67.82,1.16,1.08a6.86,6.86,0,0,0,.92-1.51,3.17,3.17,0,0,0,2.16-.7,2.37,2.37,0,0,1,2.19-.43"/><circle id="fe66b920-6349-4b92-bc60-f32de576d260" data-name="Oval" class="e663fe60-de40-4cac-a41e-d40a16865d0b" cx="444.86" cy="31.3" r="10.3"/><circle id="ebd01d4a-38c0-485a-a5b5-12abfaa31adc" data-name="Oval" class="e663fe60-de40-4cac-a41e-d40a16865d0b" cx="407" cy="31.3" r="10.3"/><circle id="b8cf801b-8383-465f-991f-8836cb7fe619" data-name="Oval" class="e663fe60-de40-4cac-a41e-d40a16865d0b" cx="369.29" cy="31.3" r="10.3"/><polygon class="f585cfb5-8908-4a60-bdd4-70d8b7a4dbe3" points="420.53 297.88 385.13 297.88 385.13 268.77 400.47 268.77 404.4 274.28 420.53 274.28 420.53 297.88"/><polygon class="a240d643-5848-4829-981f-eea779b22102" points="446.15 261.5 427.84 261.5 427.84 246.44 435.77 246.44 437.81 249.29 446.15 249.29 446.15 261.5"/><polygon class="e1e217ba-0a00-40b0-b0cc-01548e53de2f" points="92.32 202.72 59.3 183.04 59.3 145.46 92.32 165.15 92.32 202.72"/><polygon class="a240d643-5848-4829-981f-eea779b22102" points="125.35 183.04 92.32 202.72 92.32 165.15 125.35 145.46 125.35 183.04"/><polygon class="a5cdb676-3d10-4d0d-9dbf-8a3d1dd4de6c" points="125.35 145.37 92.31 165.15 59.3 145.37 92.31 125.62 125.35 145.37"/><rect class="a240d643-5848-4829-981f-eea779b22102" x="129.32" y="145.38" width="100.73" height="6.52"/><rect class="a5cdb676-3d10-4d0d-9dbf-8a3d1dd4de6c" x="129.32" y="168.72" width="110.59" height="6.52"/><rect class="a240d643-5848-4829-981f-eea779b22102" x="129.32" y="156.38" width="72.21" height="6.52"/><g class="a8e88c54-7943-48c5-8677-cd35e3cbf8d5"><rect x="334.85" y="158.35" width="62.58" height="62.58" rx="9.75"/><polygon points="368.17 220.93 382.74 239.2 382.74 220.93 368.17 220.93"/></g><rect class="f585cfb5-8908-4a60-bdd4-70d8b7a4dbe3" x="329.17" y="152.67" width="62.58" height="62.58" rx="9.75"/><polygon class="a4910f26-d849-449f-b2fe-7ba680f8bbee" points="362.5 215.26 377.07 233.53 377.07 215.26 362.5 215.26"/><rect class="a240d643-5848-4829-981f-eea779b22102" x="335.47" y="164.88" width="37.85" height="6.92"/><rect class="acfbb5b8-8a68-4c80-b209-6c735bcbebda" x="335.47" y="177.05" width="27.02" height="4.54"/><rect class="acfbb5b8-8a68-4c80-b209-6c735bcbebda" x="335.47" y="185.1" width="27.02" height="4.54"/><rect class="acfbb5b8-8a68-4c80-b209-6c735bcbebda" x="335.47" y="193.14" width="27.02" height="4.54"/><path id="b1a488a9-1c51-4a70-b887-d2926b34240d" data-name="Path" class="f585cfb5-8908-4a60-bdd4-70d8b7a4dbe3" d="M241.62,56.25h-39A4.83,4.83,0,0,0,197.81,61V98.45a4.83,4.83,0,0,0,4.79,4.79h39a4.82,4.82,0,0,0,4.78-4.79V61A4.82,4.82,0,0,0,241.62,56.25Z"/><g id="a22d29bb-c6c9-44f8-aca3-ee27093fb06c" data-name="Group"><path id="e48dc30d-5915-4c4f-b99e-cb92d1592f18" data-name="Path" class="f585cfb5-8908-4a60-bdd4-70d8b7a4dbe3" d="M305,56.25H266A4.82,4.82,0,0,0,261.2,61V98.45a4.82,4.82,0,0,0,4.79,4.79h39a4.83,4.83,0,0,0,4.79-4.79V61A4.65,4.65,0,0,0,305,56.25Z"/></g><g id="a612ecac-5869-4065-b521-e4cdddc1b5b8" data-name="Group-Copy-2"><path id="bab73fae-0161-40db-93b0-da84921c6721" data-name="Path" class="f585cfb5-8908-4a60-bdd4-70d8b7a4dbe3" d="M368.82,56.25h-39A4.83,4.83,0,0,0,325,61V98.45a4.83,4.83,0,0,0,4.79,4.79h39a4.83,4.83,0,0,0,4.79-4.79V61A4.64,4.64,0,0,0,368.82,56.25Z"/></g><path class="e2273e55-ddce-4066-84d7-fb3295a88dda" d="M224.21,94.3H220a1.14,1.14,0,0,1-.65-1c-.05-.69-.17-1.37-.24-2.06a.31.31,0,0,0-.24-.29c-.8-.32-1.59-.65-2.38-1a.32.32,0,0,0-.38,0c-.59.48-1.19.94-1.79,1.41a.86.86,0,0,1-1.26-.08c-.84-.83-1.67-1.66-2.49-2.5a.86.86,0,0,1-.08-1.28l1.38-1.77a.29.29,0,0,0,.05-.37c-.34-.8-.67-1.6-1-2.41a.3.3,0,0,0-.28-.22c-.74-.08-1.48-.18-2.22-.27a.89.89,0,0,1-.89-1V78a.9.9,0,0,1,.9-1l2.23-.26c.16,0,.21-.09.26-.23.32-.8.64-1.59,1-2.38a.33.33,0,0,0-.06-.4q-.7-.88-1.38-1.77a.85.85,0,0,1,.07-1.26c.84-.84,1.67-1.68,2.51-2.51a.87.87,0,0,1,1.27-.07c.6.47,1.2.93,1.79,1.41a.29.29,0,0,0,.35,0l2.41-1c.14,0,.21-.1.22-.26.08-.75.18-1.49.27-2.23a.88.88,0,0,1,1-.89h3.53a.89.89,0,0,1,1,.89c.08.73.18,1.46.26,2.19a.32.32,0,0,0,.25.31c.79.32,1.58.64,2.36,1a.33.33,0,0,0,.4,0c.59-.48,1.19-.94,1.78-1.41a.87.87,0,0,1,1.25.08l2.51,2.51a.87.87,0,0,1,.08,1.27c-.46.6-.93,1.19-1.4,1.79a.27.27,0,0,0-.05.35c.35.8.67,1.62,1,2.43a.4.4,0,0,0,.24.2c.69.1,1.39.2,2.08.25a1.15,1.15,0,0,1,1,.65v4.21a1.12,1.12,0,0,1-1,.64c-.68.05-1.37.17-2.05.25-.17,0-.23.08-.3.23-.31.8-.64,1.59-1,2.38a.33.33,0,0,0,.05.4c.47.58.93,1.17,1.39,1.76a.87.87,0,0,1-.07,1.27l-2.51,2.51a.87.87,0,0,1-1.27.07c-.59-.46-1.18-.92-1.76-1.39a.33.33,0,0,0-.4,0c-.78.34-1.57.66-2.36,1-.15.06-.24.12-.26.3-.07.69-.19,1.37-.24,2.06A1.15,1.15,0,0,1,224.21,94.3Zm5.17-14.56A7.28,7.28,0,1,0,222.09,87,7.28,7.28,0,0,0,229.38,79.74Z"/><path class="e2273e55-ddce-4066-84d7-fb3295a88dda" d="M305.94,93.39,295.09,83a.93.93,0,0,1-.31-1.18,12.73,12.73,0,0,0-9.86-17.23,33.07,33.07,0,0,0-3.32-.19,3,3,0,0,0,.52,1.07c1.83,2.54,3.67,5.1,5.48,7.65a3.39,3.39,0,0,1-.81,5.09c-1.38,1-2.77,2-4.18,3a3.4,3.4,0,0,1-5.13-.86l-5.61-7.83-.56-.76c-.16.4-.27.64-.37.9-1.7,4.89-1,9.36,2.54,13.17s7.84,4.94,12.82,3.69a1,1,0,0,1,1.14.29c2.53,2.64,5,5.28,7.58,7.92"/><line class="f433a5af-60bf-4c0e-aa8a-6ca1acd06c0b" x1="332.53" y1="66.39" x2="350.53" y2="66.39"/><line class="f433a5af-60bf-4c0e-aa8a-6ca1acd06c0b" x1="332.53" y1="72.47" x2="358.99" y2="72.47"/><line class="f433a5af-60bf-4c0e-aa8a-6ca1acd06c0b" x1="332.53" y1="78.54" x2="352.58" y2="78.54"/><line class="f433a5af-60bf-4c0e-aa8a-6ca1acd06c0b" x1="332.53" y1="84.62" x2="362.16" y2="84.62"/><line class="f433a5af-60bf-4c0e-aa8a-6ca1acd06c0b" x1="332.53" y1="90.69" x2="352.02" y2="90.69"/><circle class="e1e217ba-0a00-40b0-b0cc-01548e53de2f" cx="284.54" cy="165.33" r="4.28"/><circle class="e1e217ba-0a00-40b0-b0cc-01548e53de2f" cx="307.4" cy="135.39" r="15.91"/><circle class="e1e217ba-0a00-40b0-b0cc-01548e53de2f" cx="350.85" cy="135.39" r="8.08"/><g class="f83028e2-d843-4f24-8a49-34faa565cf04"><polyline class="b0dd1968-f32f-494d-aec8-f441d771c9d9" points="254.39 344.13 254.39 359.91 344.35 359.91 344.35 394.64"/><line class="b0dd1968-f32f-494d-aec8-f441d771c9d9" x1="344.35" y1="375.13" x2="294.25" y2="375.13"/><polyline class="b0dd1968-f32f-494d-aec8-f441d771c9d9" points="294.25 359.91 294.25 350.83 349.75 350.83"/></g><g class="a50fe224-f0fa-43b2-95d2-3160299b6134"><path class="f585cfb5-8908-4a60-bdd4-70d8b7a4dbe3" d="M434.52,437.65l2-15.25h-6.38v-4.59h7.08l1.48-11.28H432v-4.59h7.39l2-14.86H446L444,401.94h8.1l2-14.86h4.59l-2,14.86h6.38v4.59h-7.08l-1.4,11.28h6.69v4.59H454l-2,15.25h-4.67l2-15.25h-8.09l-2,15.25ZM450,417.81l1.48-11.28h-8.09l-1.48,11.28Z"/></g><g class="a7744c38-be34-4594-b762-24bef78cfecf"><g class="f2683a98-6005-4f68-8e17-2ac5da385551"><path class="f585cfb5-8908-4a60-bdd4-70d8b7a4dbe3" d="M72.26,93.68a.66.66,0,0,1,.14,0h64.44c10.13,0,13.27-.25,23.39,0,.11-4.76-1.63-9.24-4.62-11.64a13.29,13.29,0,0,0-10.12-2.36c-4.36.88-7.32,3.11-10.15,4.76-1-6.55-4.55-12.52-8.37-13.83-6.58-2.24-13.45,1.32-16.53,4.77A18.54,18.54,0,0,0,106,85c-4.13-3.48-13.36-6.13-16.68-.62-1.31,2.17-1.2,4.65-1.07,7A24.18,24.18,0,0,0,72.26,93.68Z"/></g></g><g class="aecb66ae-4d8c-46bf-bae8-1e43f89391d1"><g class="a7744c38-be34-4594-b762-24bef78cfecf"><g class="f2683a98-6005-4f68-8e17-2ac5da385551"><path class="f585cfb5-8908-4a60-bdd4-70d8b7a4dbe3" d="M59.29,70.46H87.91c4.49,0,5.88-.11,10.36,0a6.48,6.48,0,0,0-2-5.16,5.9,5.9,0,0,0-4.49-1,13.74,13.74,0,0,0-4.5,2.11c-.44-2.91-2-5.55-3.71-6.13a7.29,7.29,0,0,0-7.32,2.11,8.24,8.24,0,0,0-2,4.28c-1.83-1.54-5.92-2.72-7.39-.28a5.24,5.24,0,0,0-.47,3.12A10.73,10.73,0,0,0,59.29,70.46Z"/></g></g></g><polygon class="f2b7892b-5101-4f74-b200-936494b922ec" points="453.96 244.07 391.42 228.25 421.15 168.43 457.48 177.62 453.96 244.07"/><rect class="a4910f26-d849-449f-b2fe-7ba680f8bbee" x="439.8" y="98.08" width="52.74" height="1.89"/><rect class="f585cfb5-8908-4a60-bdd4-70d8b7a4dbe3" x="439.23" y="133.7" width="16.89" height="7.48" transform="translate(47.4 -105.63) rotate(14.2)"/><rect class="f585cfb5-8908-4a60-bdd4-70d8b7a4dbe3" x="437.04" y="152.79" width="4.43" height="35.87" transform="translate(165.99 554.67) rotate(-75.8)"/><polygon class="a240d643-5848-4829-981f-eea779b22102" points="457.18 172.97 422.41 164.17 438.57 139 454.94 143.14 457.18 172.97"/><rect class="a4910f26-d849-449f-b2fe-7ba680f8bbee" x="427.44" y="136.01" width="41.88" height="1.93" transform="translate(47.3 -105.81) rotate(14.2)"/><path class="f585cfb5-8908-4a60-bdd4-70d8b7a4dbe3" d="M466.76,135.12l-2.71,10.71-3.85-1,2.71-10.71a13.39,13.39,0,0,0-26-6.57l-2.71,10.71-3.84-1,2.71-10.71a17.36,17.36,0,1,1,33.66,8.52Z"/><path class="a4910f26-d849-449f-b2fe-7ba680f8bbee" d="M452.7,98.77h3.78a0,0,0,0,1,0,0v23.94a1.89,1.89,0,0,1-1.89,1.89h0a1.89,1.89,0,0,1-1.89-1.89V98.77A0,0,0,0,1,452.7,98.77Z" transform="translate(41.29 -108.11) rotate(14.2)"/><circle class="f585cfb5-8908-4a60-bdd4-70d8b7a4dbe3" cx="457.96" cy="99.1" r="5.65"/></svg>