<svg id="b94a5d21-0e82-44e5-8be4-288a929b4d93" data-name="Layer 1" xmlns="http://www.w3.org/2000/svg" viewBox="0 0 250 250"><defs><style>.afeec279-8e45-4c5e-a6bc-b5e35eff5efe{fill:#d2dae1;}.bc435d4e-4289-44ff-ba13-83d3743949e7{fill:#f2f2f2;}.a03e04db-c7ef-4045-a984-bd7a739aba1a{fill:#f13624;}.b25609d9-b026-455e-af56-061b03bc1577{fill:#bec7ce;}.a53793c3-c411-471e-a044-be4021418173{fill:none;stroke:#fff;stroke-width:2.37px;}.a53793c3-c411-471e-a044-be4021418173,.eaaf7c33-1e37-47a3-87a8-62e99d65fcf1{stroke-miterlimit:10;}.eaaf7c33-1e37-47a3-87a8-62e99d65fcf1{fill:#fff;stroke:#e6e6e6;stroke-width:4.97px;}</style></defs><title>What_We_Do_Icons</title><circle class="afeec279-8e45-4c5e-a6bc-b5e35eff5efe" cx="131.97" cy="45.1" r="12.32"/><circle class="afeec279-8e45-4c5e-a6bc-b5e35eff5efe" cx="38.92" cy="154.21" r="22.36"/><circle class="bc435d4e-4289-44ff-ba13-83d3743949e7" cx="137.81" cy="176.92" r="54.47"/><path class="a03e04db-c7ef-4045-a984-bd7a739aba1a" d="M46.9,92.09h-9a2.43,2.43,0,0,1-1.39-2.24c-.11-1.48-.36-2.95-.52-4.43,0-.36-.19-.49-.52-.63-1.72-.67-3.43-1.38-5.12-2.11a.68.68,0,0,0-.82.08c-1.27,1-2.55,2-3.84,3a1.86,1.86,0,0,1-2.73-.17q-2.68-2.67-5.36-5.36a1.88,1.88,0,0,1-.17-2.78c1-1.27,2-2.54,3-3.79a.66.66,0,0,0,.1-.81q-1.11-2.58-2.14-5.18a.63.63,0,0,0-.59-.48c-1.6-.17-3.19-.39-4.79-.57a1.9,1.9,0,0,1-1.9-2.09q0-3.77,0-7.53A1.92,1.92,0,0,1,13,54.89c1.6-.18,3.19-.4,4.79-.57.36,0,.46-.2.58-.5.68-1.71,1.38-3.43,2.12-5.12a.72.72,0,0,0-.12-.87c-1-1.25-2-2.52-3-3.79a1.87,1.87,0,0,1,.17-2.73c1.8-1.8,3.6-3.61,5.41-5.4a1.85,1.85,0,0,1,2.72-.14c1.29,1,2.58,2,3.85,3a.62.62,0,0,0,.76.08c1.71-.74,3.44-1.45,5.18-2.15.3-.12.45-.23.49-.57.17-1.6.39-3.2.57-4.8a1.9,1.9,0,0,1,2.08-1.91q3.78,0,7.58,0a1.9,1.9,0,0,1,2.09,1.9c.18,1.58.39,3.16.56,4.74a.69.69,0,0,0,.55.66c1.7.67,3.39,1.38,5.07,2.1a.71.71,0,0,0,.86-.08c1.27-1,2.55-2,3.84-3a1.84,1.84,0,0,1,2.68.17c1.81,1.79,3.61,3.6,5.41,5.4A1.86,1.86,0,0,1,67.39,44c-1,1.29-2,2.57-3,3.84a.65.65,0,0,0-.11.76c.75,1.74,1.45,3.49,2.19,5.23a.84.84,0,0,0,.53.43c1.49.22,3,.44,4.48.55a2.43,2.43,0,0,1,2.24,1.4v9.05a2.45,2.45,0,0,1-2.24,1.4c-1.48.1-2.95.35-4.42.51a.66.66,0,0,0-.63.51c-.68,1.72-1.38,3.43-2.12,5.12a.74.74,0,0,0,.11.87c1,1.25,2,2.52,3,3.79a1.85,1.85,0,0,1-.15,2.72c-1.8,1.81-3.61,3.61-5.41,5.4a1.88,1.88,0,0,1-2.73.16c-1.27-1-2.54-2-3.79-3a.72.72,0,0,0-.87-.1c-1.67.73-3.36,1.42-5.06,2.1-.33.13-.52.25-.56.65-.16,1.48-.41,2.95-.52,4.43A2.44,2.44,0,0,1,46.9,92.09ZM58,60.76a15.67,15.67,0,1,0-15.7,15.66A15.71,15.71,0,0,0,58,60.76Z"/><polygon class="b25609d9-b026-455e-af56-061b03bc1577" points="179.27 203.08 185.55 175.72 170.84 153.28 146.5 144.75 120.74 139.07 112.86 112.83 132.93 84.83 174.75 77.03 210.15 81.09 234.31 103.01 238.96 126.5 234.96 151.1 219.26 167.95 201.14 174.76 191.91 203.45 179.27 203.08"/><polyline class="a53793c3-c411-471e-a044-be4021418173" points="142.08 88.94 181.72 100.54 174.47 81.47 181.72 100.54 205.82 85.37 206.75 111.45 226.88 105.2 206.75 111.45 208.92 126.11 229.7 125.7 208.92 126.11 209.27 145.46 227.92 148.93 209.27 145.46 216.31 164 209.27 145.46 188.37 123.54 208.92 126.11 206.75 111.45 188.37 123.54 206.75 111.45 181.72 100.54 188.37 123.54 159.72 120.66 161.07 94.49 159.72 120.66 125.92 115.09 159.72 120.66 131.5 136.6 159.72 120.66 188.37 123.54 176.05 152.81 164.87 131.72 150.6 140.48 164.87 131.72 176.05 152.81 209.27 145.46 190.96 172.82"/><line class="a53793c3-c411-471e-a044-be4021418173" x1="164.87" y1="131.72" x2="159.72" y2="120.66"/><polygon class="a03e04db-c7ef-4045-a984-bd7a739aba1a" points="139.99 149.04 122.57 188.23 135.63 188.23 135.63 214.36 153.05 179.52 139.99 179.52 139.99 149.04"/><line class="eaaf7c33-1e37-47a3-87a8-62e99d65fcf1" x1="154.19" y1="77.03" x2="143.25" y2="57.42"/><line class="eaaf7c33-1e37-47a3-87a8-62e99d65fcf1" x1="115.05" y1="47.69" x2="76.65" y2="51.09"/><line class="eaaf7c33-1e37-47a3-87a8-62e99d65fcf1" x1="38.92" y1="95.82" x2="37.75" y2="128.64"/><line class="eaaf7c33-1e37-47a3-87a8-62e99d65fcf1" x1="64.98" y1="162.42" x2="81.27" y2="165.58"/><line class="eaaf7c33-1e37-47a3-87a8-62e99d65fcf1" x1="95.85" y1="133.15" x2="66.68" y2="90.72"/></svg>