<svg id="e2f90023-ca27-4efb-99da-d6028d402e78" data-name="Layer 1" xmlns="http://www.w3.org/2000/svg" xmlns:xlink="http://www.w3.org/1999/xlink" viewBox="0 0 700 500"><defs><style>.a34eb784-d1ea-41be-8929-2207b9e5e61b{fill:#8b71d3;}.a4ddc2c8-40d3-427a-8163-b3bc27dcd681,.a7373b7b-e210-45d9-acf1-3252910fd259,.a8a156d3-4d61-4428-a7ff-5f6f3198582d,.b09f3e9a-19cf-454d-a69f-eec9eefbd628,.b10d3a83-f100-4de2-bb73-2a9b1dc76ff2,.b6b3f51d-44e7-439b-84fd-c4ac1d38a492,.b83f0b09-741c-43e9-a2d2-53e8ac9176b5,.b8e0f784-14e4-4b0a-a649-cddfe04474d3,.bbdf19e6-21a9-4b6f-a5fb-98df8a81591e,.bcdd7f21-65a4-49fd-a708-e8d5a765349c,.eaeedeb6-f3e1-4cce-a9e9-23de1fcf90e9,.fda73c92-5ef0-4324-a0b5-f3e01ae7f276{fill:none;}.b83f0b09-741c-43e9-a2d2-53e8ac9176b5,.fda73c92-5ef0-4324-a0b5-f3e01ae7f276{stroke:#fafafa;stroke-linecap:round;}.a4ddc2c8-40d3-427a-8163-b3bc27dcd681,.a8a156d3-4d61-4428-a7ff-5f6f3198582d,.b83f0b09-741c-43e9-a2d2-53e8ac9176b5,.b8e0f784-14e4-4b0a-a649-cddfe04474d3,.bbdf19e6-21a9-4b6f-a5fb-98df8a81591e,.fda73c92-5ef0-4324-a0b5-f3e01ae7f276{stroke-miterlimit:10;}.b83f0b09-741c-43e9-a2d2-53e8ac9176b5{stroke-width:1.52px;opacity:0.44;}.ab42eb9f-33c7-4261-b10c-74a42d5358b8{opacity:0.88;}.f39fc7d2-51f0-47f6-a56f-ab56ccba35d4{opacity:0.45;}.b5159b86-a502-44e9-bdcc-0fd0e4caf04b{fill:#fff;}.e378761f-a6c9-4ac3-a30f-a75caebe9925{opacity:0.11;}.fda73c92-5ef0-4324-a0b5-f3e01ae7f276{stroke-width:2.97px;opacity:0.4;}.f4d4d13f-d484-4cdc-a00e-a2c08cec7547{fill:#57a3a3;}.b36f8a0b-364e-44bd-86b9-14ce214446d0{fill:url(#a61f4cb4-8086-447f-bdaa-62787d7de8e8);}.ffc07c41-2a76-4e18-8bea-49a3b26bd786{opacity:0.16;}.b26b4d46-d052-4499-b4ed-1ddd0e9ce0d7{fill:#e57373;}.aca6814b-9275-4ddf-a9b8-f9006b1926c4{fill:#fd7011;}.a7373b7b-e210-45d9-acf1-3252910fd259,.b09f3e9a-19cf-454d-a69f-eec9eefbd628{stroke:#1a3987;}.a7373b7b-e210-45d9-acf1-3252910fd259,.b09f3e9a-19cf-454d-a69f-eec9eefbd628,.b10d3a83-f100-4de2-bb73-2a9b1dc76ff2,.b6b3f51d-44e7-439b-84fd-c4ac1d38a492,.bcdd7f21-65a4-49fd-a708-e8d5a765349c,.eaeedeb6-f3e1-4cce-a9e9-23de1fcf90e9{stroke-linejoin:round;}.a7373b7b-e210-45d9-acf1-3252910fd259{stroke-width:0.63px;}.a8a156d3-4d61-4428-a7ff-5f6f3198582d{stroke:#4c3f89;stroke-width:0.82px;}.b09f3e9a-19cf-454d-a69f-eec9eefbd628{stroke-width:0.61px;}.b769a75b-fbd9-4a77-bf62-fe5d7596c614{fill:#ffe1ad;}.b8e0f784-14e4-4b0a-a649-cddfe04474d3{stroke:#d19b4b;stroke-width:0.7px;}.a6d5606d-70c6-446f-ab64-082a98c3918c{fill:#383a45;}.fec086c3-f159-4638-9fdd-9faaea935735{fill:#f09171;}.acf234e9-cdda-4b1f-adcd-b76246084541{fill:#3dba85;}.b6b3f51d-44e7-439b-84fd-c4ac1d38a492,.bbdf19e6-21a9-4b6f-a5fb-98df8a81591e,.bcdd7f21-65a4-49fd-a708-e8d5a765349c{stroke:#266646;}.b6b3f51d-44e7-439b-84fd-c4ac1d38a492{stroke-width:0.69px;}.a4ddc2c8-40d3-427a-8163-b3bc27dcd681,.bbdf19e6-21a9-4b6f-a5fb-98df8a81591e{stroke-width:0.57px;}.bcdd7f21-65a4-49fd-a708-e8d5a765349c{stroke-width:0.74px;}.a4515cc7-bbb0-42e4-aab8-906832bcf721{fill:#383838;}.a4ddc2c8-40d3-427a-8163-b3bc27dcd681{stroke:#4b4e54;}.a23b518b-1306-4e22-9f6f-ef22cae588c2{fill:#70cacd;}.b10d3a83-f100-4de2-bb73-2a9b1dc76ff2,.eaeedeb6-f3e1-4cce-a9e9-23de1fcf90e9{stroke:#3d7f7d;}.b10d3a83-f100-4de2-bb73-2a9b1dc76ff2{stroke-width:0.63px;}.eaeedeb6-f3e1-4cce-a9e9-23de1fcf90e9{stroke-width:0.69px;}.a2638721-2010-4e87-92c2-91e6a46f977f{fill:#d6826b;}</style><linearGradient id="a61f4cb4-8086-447f-bdaa-62787d7de8e8" x1="222.15" y1="239.29" x2="507.2" y2="239.29" gradientUnits="userSpaceOnUse"><stop offset="0" stop-color="#4279e8"/><stop offset="1" stop-color="#5fb7b7"/></linearGradient></defs><title>How_we_do_illustration</title><path class="a34eb784-d1ea-41be-8929-2207b9e5e61b" d="M498.25,189.53c5.38-10.34,9.58-39.37,2.64-52.8s-17.21-12.36-18.8-8c-1.47,4,2.06,11.22,6.53,19.73s8.25,26.86,4,35.39Z"/><path class="b83f0b09-741c-43e9-a2d2-53e8ac9176b5" d="M488.88,129.42c4.4,3.55,17,25.18,8.2,54.88"/><g class="ab42eb9f-33c7-4261-b10c-74a42d5358b8"><g class="f39fc7d2-51f0-47f6-a56f-ab56ccba35d4"><path class="b5159b86-a502-44e9-bdcc-0fd0e4caf04b" d="M7.15,107.22s.16,0,.18,0H86.78c12.49,0,16.36-.4,28.83,0,.14-7.69-2-15-5.68-18.83-3-3.19-8.23-4.94-12.48-3.82-5.38,1.43-9,5-12.52,7.7C83.7,81.63,79.32,72,74.61,69.86,66.5,66.23,58,72,54.23,77.57a34.88,34.88,0,0,0-5.49,15.62c-5.09-5.63-16.47-9.92-20.56-1-1.61,3.5-1.48,7.52-1.32,11.38A23.64,23.64,0,0,0,7.15,107.22Z"/></g><g class="f39fc7d2-51f0-47f6-a56f-ab56ccba35d4"><path class="b5159b86-a502-44e9-bdcc-0fd0e4caf04b" d="M592.21,38.51c-1.53-6.23-16-15.31-23.72-9.83-2.38-11.84-4.6-19.24-12.35-25.07S535.45,5.4,533.38,21.38c-2.07-6.58-12.64-15.42-21.13-8-7.85,6.91-8.63,18.49-7.82,25.09Z"/></g><g class="f39fc7d2-51f0-47f6-a56f-ab56ccba35d4"><path class="b5159b86-a502-44e9-bdcc-0fd0e4caf04b" d="M692.85,121.3c-2.39-5.89-6.91-9-12.26-9.65-6.73-.74-13.57,3.13-13.57,3.13s2.53-9.73-.9-17.39C663.77,92.16,660,87.25,654.85,86c-5.37-1.33-11.07,1.29-15.07,5.43S633.2,101,630.9,106.5c-1.18-3.89-2.76-8.24-6.27-9.68s-7.83,1.08-9.73,4.77-2,8.16-1.74,12.39c-4.21-2.53-9.58-3.27-13.79-.75a11.27,11.27,0,0,0-5,8.07Z"/></g></g><ellipse class="e378761f-a6c9-4ac3-a30f-a75caebe9925" cx="189.99" cy="492.33" rx="93.31" ry="6.01"/><ellipse class="e378761f-a6c9-4ac3-a30f-a75caebe9925" cx="526.51" cy="492.33" rx="93.31" ry="6.01"/><path class="a34eb784-d1ea-41be-8929-2207b9e5e61b" d="M266.31,182.61s-8.26-39.63-32-72.11C211.8,79.8,183.42,68.88,168,67.91c-29-1.83-22,27.16,3.59,40.41,18.78,9.72,68.81,35.57,91.11,83.87Z"/><path class="fda73c92-5ef0-4324-a0b5-f3e01ae7f276" d="M163.73,78c18.88,5.27,70.37,21.72,99.44,105.28"/><path class="a34eb784-d1ea-41be-8929-2207b9e5e61b" d="M263.88,212.29c-20.58-35.88-41.43-44.52-75.38-49.87-14.53-2.29-31.4-4.59-39.31-10.95s-8.9-18.1,9.14-23.75c32.85-10.29,83.06,16.92,102.18,58.48Z"/><path class="fda73c92-5ef0-4324-a0b5-f3e01ae7f276" d="M158.33,137c25.8-4.74,74.22,11.24,103.35,58.22"/><path class="a34eb784-d1ea-41be-8929-2207b9e5e61b" d="M496.55,200.49c-3.24-6.47-10.34-17.23-5.52-24.59s9.92-.85,13.8-5.67-.56-12.56,2.79-16.84c6.49-8.25,11.15,1.34,16.29.08,3.67-.91,7.77-9.07,18.36-8.07s10.05,9.39,5.34,13.33-10.3,7.87-6.68,13.78c3.23,5.25,4.89,14.94-6.12,18.7-10.52,3.6-5.31,8.16-6.95,13.31s-11.61,10-22.17,6Z"/><path class="b83f0b09-741c-43e9-a2d2-53e8ac9176b5" d="M543.72,150.2c-11.46,3.08-38.93,25.4-41.25,53.42"/><path class="b83f0b09-741c-43e9-a2d2-53e8ac9176b5" d="M535.42,179.63c-5.68-1.3-20.06-1.48-25.45,1.14"/><path class="b83f0b09-741c-43e9-a2d2-53e8ac9176b5" d="M513.22,155.92s4.23,8.13,3.59,15"/><path class="f4d4d13f-d484-4cdc-a00e-a2c08cec7547" d="M532.42,291.28l-14.57-.14a4,4,0,0,1-2.21-3.63c-.15-2.39-.53-4.76-.76-7.14a1.07,1.07,0,0,0-.83-1c-2.75-1.11-5.49-2.28-8.21-3.48a1.1,1.1,0,0,0-1.32.11c-2,1.63-4.14,3.22-6.23,4.82a3,3,0,0,1-4.39-.32q-4.29-4.35-8.55-8.72a3,3,0,0,1-.23-4.46c1.61-2,3.22-4.06,4.86-6.07a1.09,1.09,0,0,0,.19-1.3c-1.17-2.77-2.29-5.56-3.38-8.37a1,1,0,0,0-.94-.78c-2.57-.3-5.13-.67-7.71-1a3.07,3.07,0,0,1-3-3.4q0-6,.11-12.11a3.11,3.11,0,0,1,3.13-3.41c2.58-.26,5.15-.59,7.73-.84.56-.05.73-.32.92-.79,1.13-2.76,2.28-5.5,3.5-8.22a1.16,1.16,0,0,0-.17-1.39c-1.61-2-3.19-4.09-4.76-6.15a3,3,0,0,1,.31-4.39q4.38-4.32,8.78-8.62a3,3,0,0,1,4.4-.19c2.05,1.64,4.11,3.27,6.14,4.93a1,1,0,0,0,1.22.13c2.77-1.16,5.57-2.28,8.37-3.37.48-.19.73-.37.8-.92.3-2.58.67-5.14,1-7.71a3.06,3.06,0,0,1,3.37-3.05l12.21.11a3.08,3.08,0,0,1,3.34,3.1c.26,2.55.58,5.08.83,7.63a1.13,1.13,0,0,0,.87,1.08q4.1,1.66,8.13,3.45a1.13,1.13,0,0,0,1.39-.12c2-1.63,4.14-3.23,6.23-4.82a3,3,0,0,1,4.31.32q4.32,4.38,8.63,8.78a3,3,0,0,1,.23,4.39c-1.63,2.06-3.26,4.11-4.92,6.14a1,1,0,0,0-.18,1.22c1.17,2.81,2.27,5.64,3.44,8.45a1.3,1.3,0,0,0,.84.7c2.4.37,4.8.76,7.21,1a3.93,3.93,0,0,1,3.59,2.28L576,248.54a3.92,3.92,0,0,1-3.62,2.2c-2.39.15-4.76.53-7.14.77a1.06,1.06,0,0,0-1,.81q-1.66,4.14-3.48,8.21a1.16,1.16,0,0,0,.16,1.4c1.61,2,3.18,4.09,4.76,6.14a3,3,0,0,1-.29,4.39q-4.38,4.32-8.79,8.6a3,3,0,0,1-4.4.22c-2-1.61-4.06-3.22-6.06-4.87a1.16,1.16,0,0,0-1.39-.18c-2.7,1.15-5.43,2.24-8.18,3.31-.53.21-.84.39-.91,1-.27,2.38-.7,4.74-.91,7.12A3.93,3.93,0,0,1,532.42,291.28ZM550.82,241a25.22,25.22,0,1,0-25.5,25A25.27,25.27,0,0,0,550.82,241Z"/><path class="f4d4d13f-d484-4cdc-a00e-a2c08cec7547" d="M198.48,288.16,183.9,288a4,4,0,0,1-2.2-3.63c-.15-2.38-.53-4.76-.77-7.14a1.06,1.06,0,0,0-.82-1c-2.76-1.12-5.5-2.29-8.22-3.49a1.07,1.07,0,0,0-1.31.12c-2.06,1.62-4.15,3.22-6.23,4.81a3,3,0,0,1-4.39-.32q-4.29-4.35-8.56-8.71a3,3,0,0,1-.23-4.47c1.62-2,3.23-4.06,4.87-6.07a1.07,1.07,0,0,0,.18-1.3q-1.75-4.16-3.37-8.37a1,1,0,0,0-.94-.77c-2.57-.31-5.14-.68-7.71-1a3.07,3.07,0,0,1-3-3.39q0-6.06.11-12.12a3.11,3.11,0,0,1,3.13-3.41c2.58-.26,5.15-.59,7.73-.84.57,0,.73-.32.93-.79,1.13-2.75,2.28-5.5,3.49-8.21a1.16,1.16,0,0,0-.17-1.4c-1.61-2-3.18-4.09-4.76-6.15a3,3,0,0,1,.31-4.39q4.38-4.32,8.79-8.62a3,3,0,0,1,4.39-.19c2.06,1.64,4.11,3.27,6.14,4.94a1,1,0,0,0,1.22.13q4.17-1.74,8.37-3.38c.49-.19.74-.36.8-.92.3-2.57.68-5.14,1-7.71a3.08,3.08,0,0,1,3.38-3.05l12.21.11a3.07,3.07,0,0,1,3.33,3.1c.26,2.55.59,5.09.84,7.63a1.12,1.12,0,0,0,.87,1.08q4.08,1.66,8.12,3.46a1.15,1.15,0,0,0,1.39-.13c2.06-1.63,4.14-3.23,6.23-4.82a3,3,0,0,1,4.31.32q4.34,4.38,8.63,8.78a3,3,0,0,1,.24,4.39q-2.44,3.09-4.93,6.15a1,1,0,0,0-.18,1.22c1.18,2.8,2.28,5.64,3.45,8.44a1.32,1.32,0,0,0,.83.71c2.4.37,4.8.75,7.22.95a3.93,3.93,0,0,1,3.58,2.28L242,245.42a4,4,0,0,1-3.63,2.21c-2.38.15-4.75.53-7.13.76a1.08,1.08,0,0,0-1,.81q-1.67,4.14-3.48,8.22a1.14,1.14,0,0,0,.17,1.39c1.6,2,3.18,4.09,4.75,6.15a3,3,0,0,1-.28,4.38q-4.4,4.32-8.8,8.61a3,3,0,0,1-4.39.21c-2-1.61-4.06-3.22-6.06-4.86a1.13,1.13,0,0,0-1.39-.18c-2.71,1.14-5.44,2.23-8.18,3.3-.54.21-.85.39-.92,1-.26,2.38-.7,4.74-.9,7.12A3.93,3.93,0,0,1,198.48,288.16Zm18.39-50.28a25.21,25.21,0,1,0-25.49,25A25.26,25.26,0,0,0,216.87,237.88Z"/><path class="b36f8a0b-364e-44bd-86b9-14ce214446d0" d="M383.9,381.81l-41.14-.38c-4.17-2.15-5.93-5.54-6.22-10.25-.42-6.73-1.49-13.43-2.17-20.15-.16-1.62-.81-2.26-2.32-2.87q-11.67-4.73-23.19-9.83c-1.47-.65-2.4-.71-3.7.32-5.82,4.59-11.71,9.09-17.6,13.58-4.34,3.31-8.53,3-12.38-.89q-12.1-12.27-24.15-24.6c-3.95-4-4.15-8.19-.65-12.6,4.55-5.73,9.1-11.47,13.74-17.13a3,3,0,0,0,.51-3.67q-4.94-11.74-9.52-23.63a2.81,2.81,0,0,0-2.65-2.19c-7.26-.86-14.5-1.91-21.76-2.8-5.64-.69-8.59-3.9-8.55-9.59q.15-17.08.32-34.18c.06-5.89,3-9,8.84-9.63,7.27-.74,14.53-1.67,21.81-2.37,1.6-.16,2.06-.9,2.61-2.24,3.19-7.77,6.44-15.52,9.86-23.19a3.25,3.25,0,0,0-.48-3.93c-4.53-5.74-9-11.55-13.42-17.36-3.31-4.34-3-8.57.86-12.39q12.38-12.19,24.8-24.33c3.89-3.79,8.11-4,12.4-.53,5.8,4.61,11.6,9.23,17.33,13.92a2.85,2.85,0,0,0,3.45.37q11.76-4.92,23.63-9.52c1.37-.54,2.06-1,2.25-2.61.85-7.26,1.91-14.5,2.79-21.76.7-5.68,3.88-8.66,9.53-8.61q17.24.14,34.47.32c5.67.06,8.82,3.08,9.4,8.75.74,7.18,1.66,14.35,2.36,21.54.17,1.74.88,2.41,2.46,3.05q11.54,4.68,22.93,9.75c1.56.69,2.55.74,3.93-.36,5.8-4.61,11.68-9.11,17.58-13.6,4.19-3.19,8.44-2.88,12.17.9q12.21,12.34,24.35,24.77c3.83,3.91,4.05,8.15.67,12.41q-6.9,8.7-13.9,17.34a2.86,2.86,0,0,0-.51,3.44c3.32,7.91,6.42,15.92,9.72,23.84a3.73,3.73,0,0,0,2.36,2c6.77,1,13.55,2.13,20.37,2.7,4.69.39,8.08,2.16,10.11,6.42l-.39,41.15c-2.12,4.19-5.51,5.94-10.22,6.23-6.74.42-13.43,1.49-20.14,2.17a3,3,0,0,0-2.89,2.29q-4.71,11.67-9.82,23.18a3.22,3.22,0,0,0,.46,3.92c4.54,5.74,9,11.55,13.42,17.35,3.34,4.37,3.08,8.55-.81,12.38Q464.44,340.88,452,353c-3.87,3.78-8.15,4-12.4.6-5.73-4.54-11.46-9.08-17.11-13.72a3.24,3.24,0,0,0-3.92-.52c-7.64,3.24-15.35,6.32-23.08,9.33-1.52.59-2.39,1.11-2.59,2.94-.75,6.71-2,13.37-2.55,20.09C390,376.4,388.16,379.79,383.9,381.81Zm51.92-141.89a71.17,71.17,0,1,0-72,70.51C403,310.94,435.47,279.13,435.82,239.92Z"/><path class="ffc07c41-2a76-4e18-8bea-49a3b26bd786" d="M458.83,144.63a63.81,63.81,0,0,1-26.72,17.58c-11.1,3.8-22.93,3.9-34.51,3.21-10.93-.63-21.9-1.89-32.84-.83A69.09,69.09,0,0,0,338.41,173c-1.27.68-2.54,1.4-3.76,2.16A201.24,201.24,0,0,0,314,189.3a315.11,315.11,0,0,0-26.42,23.22,309.51,309.51,0,0,0-44.13,53.83h0c-1.89-.26-3.84-.54-5.76-.77,3.67-5.81,7.57-11.49,11.65-17a319.39,319.39,0,0,1,39.24-44.23c14.35-13.38,30.12-26.56,47.43-35.93a74.6,74.6,0,0,1,29.46-9.11c10.94-1,21.89.31,32.81.94s21.71.52,32-2.91a58.81,58.81,0,0,0,24.89-16.42C457.41,138.37,461.09,142.15,458.83,144.63Z"/><path class="ffc07c41-2a76-4e18-8bea-49a3b26bd786" d="M264.62,172.5c8.06-5.69,16.19-11.41,25-15.85a71.36,71.36,0,0,1,30.2-7.71c20-.62,39.75,4.53,59.69,1.34,9.61-1.54,18.7-5.13,26.16-11.47,2.59-2.2-1.11-5.95-3.69-3.76-14.21,12.06-34.22,11.87-51.77,10.4-10.49-.88-21-2.19-31.57-1.73a75.64,75.64,0,0,0-28.07,6.65c-10.23,4.61-19.46,11.11-28.6,17.56-2.74,1.93-.16,6.53,2.62,4.57Z"/><path class="ffc07c41-2a76-4e18-8bea-49a3b26bd786" d="M466.34,211.5c-1.61,6.52-1.12,13.08-1,19.75.14,13.36-4.82,25.35-9.76,37.55-5.2,12.94-10.43,25.83-15.66,38.79-2.57,6.35-5.23,12.65-7.74,19.08-2.24,5.67-4.14,11.44-4.25,17.58h0c-1.64-1.33-3.32-2.69-5-4.05v0c1.17-9.94,5.95-19.41,9.69-28.59q6.53-16.06,13-32.1c4.16-10.15,8.78-20.25,11.94-30.76A58.08,58.08,0,0,0,460,232.46c.05-5.45-.51-10.85.15-16.27a48.37,48.37,0,0,1,8.26-21.79c.8,2,1.6,4,2.42,5.95A42.61,42.61,0,0,0,466.34,211.5Z"/><path class="ffc07c41-2a76-4e18-8bea-49a3b26bd786" d="M361.61,350l10.75-10.59,5.23-5.17c1.69-1.66,3.36-3.82,5.34-5.14,1.58-1.06,3.78-.73,5.57-1.22a16,16,0,0,0,5-2.4c3.33-2.35,5.86-5.52,8.31-8.74,2.05-2.7-2.49-5.37-4.53-2.7-2.21,2.9-4.62,6-7.85,7.8a13.14,13.14,0,0,1-5.18,1.39,9.65,9.65,0,0,0-5.51,2.53c-3.52,3.09-6.73,6.6-10.06,9.89l-10.75,10.59c-2.42,2.39,1.27,6.15,3.69,3.76Z"/><path class="b26b4d46-d052-4499-b4ed-1ddd0e9ce0d7" d="M147.65,460.75,123.75,459l-7.83.81.15,29.71a1.37,1.37,0,0,0,1.37,1.35h0a1.35,1.35,0,0,0,1.26-.88l6.1-13.25,24.9,3"/><path class="aca6814b-9275-4ddf-a9b8-f9006b1926c4" d="M116.4,492.18a4.14,4.14,0,0,0,2.34-1.47l6.06-14c-3.14-7.75-.74-17.78-.74-17.78l-10.59-.76a.63.63,0,0,0-.63.63L113,492C113,492.64,116.37,492.19,116.4,492.18Z"/><path class="a7373b7b-e210-45d9-acf1-3252910fd259" d="M124.19,479.7a16.73,16.73,0,0,0-3.33-2"/><path class="a7373b7b-e210-45d9-acf1-3252910fd259" d="M123.13,481.47a14.46,14.46,0,0,0-2.83-1.63"/><path class="a7373b7b-e210-45d9-acf1-3252910fd259" d="M122.36,483a20.32,20.32,0,0,0-2.6-1.52"/><line class="a7373b7b-e210-45d9-acf1-3252910fd259" x1="115.13" y1="458.3" x2="115.31" y2="492.33"/><path class="a7373b7b-e210-45d9-acf1-3252910fd259" d="M120.19,458.6s0,7.88-5,8.59"/><path class="a7373b7b-e210-45d9-acf1-3252910fd259" d="M120,487.83a26.6,26.6,0,0,0-4.71-2.72"/><path class="a34eb784-d1ea-41be-8929-2207b9e5e61b" d="M204.67,395.75c.07.15-6.1,3.26-6.18,3.7,1.73,8.32,6.7,40.73,10.19,64.79,2.58,17.84,4.34,28.82-21.63,26.69-35.76-2.93-55.82-9.8-55.82-9.8l3.69-23.77,51.31,10-11.45-37.56a18.73,18.73,0,0,0-2.32-4.46c-2.89-4.13-8.92-15.33-2-29.6"/><line class="a8a156d3-4d61-4428-a7ff-5f6f3198582d" x1="139.3" y1="459.7" x2="136.76" y2="479.49"/><path class="a8a156d3-4d61-4428-a7ff-5f6f3198582d" d="M196.66,426.35,203.23,470c2.54,14-10.35,14.07-11.73,14l-60.23-9.35"/><path class="b26b4d46-d052-4499-b4ed-1ddd0e9ce0d7" d="M234.28,457.28l-4.86,23-.21,7.56,29.64-.15a1.31,1.31,0,0,0,1.3-1.32h0a1.31,1.31,0,0,0-.84-1.22l-12.78-5.88,6-24"/><path class="aca6814b-9275-4ddf-a9b8-f9006b1926c4" d="M261.45,487.41a4,4,0,0,0-1.42-2.26l-13.55-5.84c-7.47,3-17.14.72-17.14.72l-1.73,10.2a.62.62,0,0,0,.62.61l33-.17C261.89,490.67,261.46,487.44,261.45,487.41Z"/><path class="b09f3e9a-19cf-454d-a69f-eec9eefbd628" d="M249.41,479.9a16,16,0,0,0-1.91,3.21"/><path class="b09f3e9a-19cf-454d-a69f-eec9eefbd628" d="M251.12,480.92a13.92,13.92,0,0,0-1.57,2.73"/><path class="b09f3e9a-19cf-454d-a69f-eec9eefbd628" d="M252.56,481.66a19.62,19.62,0,0,0-1.47,2.51"/><line class="b09f3e9a-19cf-454d-a69f-eec9eefbd628" x1="227.79" y1="488.64" x2="261.59" y2="488.46"/><path class="b09f3e9a-19cf-454d-a69f-eec9eefbd628" d="M228.73,483.65s7.94.16,8.62,4.94"/><path class="b09f3e9a-19cf-454d-a69f-eec9eefbd628" d="M257.25,484a25.86,25.86,0,0,0-2.62,4.55"/><path class="a34eb784-d1ea-41be-8929-2207b9e5e61b" d="M204.67,395.75l2.27,8.93a2.89,2.89,0,0,0,2.79,2.17h30.83c7.55,0,15.51.2,19.82,6.74,3.53,5.36,2.28,14.29-.66,24.54-2.53,8.81-9.85,34.94-9.85,34.94H229.05L240,431h-36.6s-23.69.2-20.41-23.55"/><line class="a8a156d3-4d61-4428-a7ff-5f6f3198582d" x1="230.1" y1="468.11" x2="250.77" y2="468.11"/><path class="a8a156d3-4d61-4428-a7ff-5f6f3198582d" d="M181.78,400.34s.58,26.57,22.92,26.57h35.36a3.3,3.3,0,0,1,3.23,4l-10.12,42.2"/><path class="a8a156d3-4d61-4428-a7ff-5f6f3198582d" d="M192.91,414.42c.18.48,9.39-2.11,9.22-11"/><path class="a8a156d3-4d61-4428-a7ff-5f6f3198582d" d="M190.49,411.56a37.92,37.92,0,0,0,9.23-1.28"/><path class="a8a156d3-4d61-4428-a7ff-5f6f3198582d" d="M167.27,411.56s4.46.12,7.84,0"/><path class="b26b4d46-d052-4499-b4ed-1ddd0e9ce0d7" d="M190.64,315s9.34-29,26.74-52.31l-11.89-7.25c-18.81,20.41-31.2,54.54-31.2,54.54"/><path class="b769a75b-fbd9-4a77-bf62-fe5d7596c614" d="M167,364.25s-3.89-35.75,10.84-65.74l17.39,5.68-4.59,22.92"/><line class="b8e0f784-14e4-4b0a-a649-cddfe04474d3" x1="176.53" y1="301.89" x2="193.67" y2="307.81"/><path class="b26b4d46-d052-4499-b4ed-1ddd0e9ce0d7" d="M214.88,266.07c2.81-4.28,13-15.37,12.48-16.3s-4.12,2.93-4.38,2.09,4.92-7.14,4.18-7.93c-1-1.08-6,5.66-6,5.66s5.06-7.65,3.92-8.33c-.8-.49-4.94,5.18-6.79,7.15,1.74-2.39,4.09-6.59,3.24-7.08s-3.74,3.32-6.11,6.11c1.32-1.88,3.53-5.43,2.77-5.91s-10.41,9.76-18,20.17"/><path class="b26b4d46-d052-4499-b4ed-1ddd0e9ce0d7" d="M202.15,355.17S219.94,362,233,362.84c17.1,1.11,37-5.27,37-5.27s2.62-14.05-4.22-13.38c-8.44,1.53-23,2.61-34,1.28-6.85-.83-21.42-8.63-21.42-8.63"/><path class="b26b4d46-d052-4499-b4ed-1ddd0e9ce0d7" d="M261.89,344.94c5.08-.68,19.47-5,20.09-4.2s-4.42,2.45-3.78,3.05,8.57-1.35,9-.34c.54,1.37-7.68,2.93-7.68,2.93s9.09-1.26,9.21.06c.09.94-6.81,2.22-9.38,3,2.9-.53,7.71-.83,7.78.14s-4.61,1.94-8.15,2.87c2.26-.38,6.42-.84,6.53.06s-11.1,4-21.77,6.59"/><path class="b26b4d46-d052-4499-b4ed-1ddd0e9ce0d7" d="M182.35,313.43s-.16-4.78-2.39-4.33-3.83,5.15-2.64,6.88S182.39,317.42,182.35,313.43Z"/><path class="b26b4d46-d052-4499-b4ed-1ddd0e9ce0d7" d="M197.16,307.9s4.6,13.21-3.36,15.44-6.52-6.21-6.2-4.61S194,334.65,194,334.65s-8.06,3.94-15.67-.51c0,0,3.24-21.2,4.16-31.6C182.88,298,194.29,302.54,197.16,307.9Z"/><path class="a6d5606d-70c6-446f-ab64-082a98c3918c" d="M183.25,298.46s1.79-6.19,5.61-4.74,3.29,3.55,6.06,2.37,5.6,3.16,4.13,5.92c-1.92,3.63-1.89,4.74-7.16,3.56s-8-3-9.22-.92.93,7.5-.65,8.16-1.45-3.56-2.64-2-3,5.62.13,5.12.83,3.71-.37,3.58-6.7-4.64-6.08-10.67c.4-3.82,4.41-1.84,3.29-4.61S177.76,295.56,183.25,298.46Z"/><path class="a6d5606d-70c6-446f-ab64-082a98c3918c" d="M199.05,318.57a4.48,4.48,0,0,0-5.41,0c-2.93,2.05-11-.7-10.72-6.52l-2.39-1.37s2,14.75,10.18,15.8S200.31,319.23,199.05,318.57Z"/><path class="b769a75b-fbd9-4a77-bf62-fe5d7596c614" d="M178.11,330.08s-8.28,4.5-10.84,21.27c-1.13,7.46,1,47.58,1,47.55,17.93,4.48,37.2-2.95,37.2-2.95s-2.21-26.16-3.22-36c-2.33-22.73-5-28.56-5-28.56Z"/><path class="b769a75b-fbd9-4a77-bf62-fe5d7596c614" d="M197.27,331.38a43.56,43.56,0,0,1,10.91,3.49c5.68,2.71,18.45,8.93,18.45,8.93L220.07,362l-23.18-7.33"/><line class="b8e0f784-14e4-4b0a-a649-cddfe04474d3" x1="212.06" y1="359.13" x2="199.04" y2="355.31"/><line class="b8e0f784-14e4-4b0a-a649-cddfe04474d3" x1="222.66" y1="341.86" x2="216.43" y2="360.53"/><path class="b8e0f784-14e4-4b0a-a649-cddfe04474d3" d="M168.49,396.06s11.94,3.84,36.33-3.11"/><path class="fec086c3-f159-4638-9fdd-9faaea935735" d="M542.26,366.65s.84,43.34,3.1,58.21c2.53,16.66,18,37.67,18,37.67l-4.9,5.69-7.26,4s-11-10-21.46-35.95c-9-22.51-7.12-68.33-7.12-68.33"/><path class="acf234e9-cdda-4b1f-adcd-b76246084541" d="M541.87,486.16a5,5,0,0,1,0-2.84l7.54-13c7.21-1.56,13.5-9.18,13.5-9.18l6.31,8.19a.72.72,0,0,1-.17.9L543.64,489C543.13,489.35,541.88,486.2,541.87,486.16Z"/><path class="b6b3f51d-44e7-439b-84fd-c4ac1d38a492" d="M547.44,472.51a14,14,0,0,1,3,1.79"/><path class="b6b3f51d-44e7-439b-84fd-c4ac1d38a492" d="M546.63,474.4a12.26,12.26,0,0,1,2.53,1.56"/><path class="b6b3f51d-44e7-439b-84fd-c4ac1d38a492" d="M545.88,475.9a17.3,17.3,0,0,1,2.36,1.41"/><line class="b6b3f51d-44e7-439b-84fd-c4ac1d38a492" x1="568.3" y1="467.98" x2="542.28" y2="487.19"/><path class="bbdf19e6-21a9-4b6f-a5fb-98df8a81591e" d="M565.14,464s-6,4.7-4.2,9.4"/><path class="b6b3f51d-44e7-439b-84fd-c4ac1d38a492" d="M543.4,480.65a22.79,22.79,0,0,1,4.24,2.59"/><path class="fec086c3-f159-4638-9fdd-9faaea935735" d="M522.66,386.66s-5.67,23.43-6,42.82-3.48,52-3.48,52l-8.72,1.24-6.59-1.38a413.8,413.8,0,0,0,2.25-50.82c-.7-26.16,4.19-61.33,4.19-61.33"/><path class="acf234e9-cdda-4b1f-adcd-b76246084541" d="M481,488.65a4.24,4.24,0,0,1,1.45-2.44l14.28-6.62c8.06,3,18.3.27,18.3.27l2.13,10.84a.64.64,0,0,1-.64.66l-35.19.77C480.64,492.14,481,488.68,481,488.65Z"/><path class="bcdd7f21-65a4-49fd-a708-e8d5a765349c" d="M493.64,480.3a17.11,17.11,0,0,1,2.13,3.37"/><path class="bcdd7f21-65a4-49fd-a708-e8d5a765349c" d="M491.85,481.44a15.1,15.1,0,0,1,1.75,2.86"/><path class="bcdd7f21-65a4-49fd-a708-e8d5a765349c" d="M490.33,482.27A22.31,22.31,0,0,1,492,484.9"/><line class="bcdd7f21-65a4-49fd-a708-e8d5a765349c" x1="516.95" y1="489" x2="480.9" y2="489.78"/><path class="bcdd7f21-65a4-49fd-a708-e8d5a765349c" d="M515.81,483.71s-8.47.4-9.06,5.52"/><path class="bcdd7f21-65a4-49fd-a708-e8d5a765349c" d="M485.39,484.85a27.52,27.52,0,0,1,2.93,4.77"/><path class="fec086c3-f159-4638-9fdd-9faaea935735" d="M498.22,267.55c-7.24-2-15.8.47-15.8.47l-6.4,1.59a2.6,2.6,0,0,0-2.15,1.67l-1.12,3s13.59,4.1,19.36,5.15"/><path class="a4515cc7-bbb0-42e4-aab8-906832bcf721" d="M535,323.08A56.58,56.58,0,0,1,545.09,349c1.61,14.92,1.64,39.23,1.64,39.23s-24.42,5.42-46.62-.58c.84-12.42,0-47.16,7.75-64.54"/><path class="a4ddc2c8-40d3-427a-8163-b3bc27dcd681" d="M544.7,387.17s1.14-33.59-3-44.86c-2.18-6-2.66-8.15-9.43-17.59"/><path class="a23b518b-1306-4e22-9f6f-ef22cae588c2" d="M490.36,264.65l-2,14.65a83.32,83.32,0,0,0,16.43,4.5c4.39.38,13.23-13.69,10.35-16.53C507.61,264.81,490.36,264.65,490.36,264.65Z"/><path class="a23b518b-1306-4e22-9f6f-ef22cae588c2" d="M535.8,286.44s.39,23.22-.61,36.64a95.58,95.58,0,0,1-28.75,3.64L506.05,302c-7.06-10-.87-23.05-.87-23.05l8.75-12.28,8.74-.67,4.22,1.18A12.52,12.52,0,0,1,536,279.58Z"/><path class="b10d3a83-f100-4de2-bb73-2a9b1dc76ff2" d="M498.52,282.52c.48-2.28,2.19-5.77,1.88-8"/><line class="b10d3a83-f100-4de2-bb73-2a9b1dc76ff2" x1="493.44" y1="265.04" x2="491" y2="280.25"/><path class="a23b518b-1306-4e22-9f6f-ef22cae588c2" d="M517.14,269.43l-2,14.65s12.61,2,20.82,3.22c0-5.58,1.44-16.94-5.25-18.28A19.86,19.86,0,0,0,517.14,269.43Z"/><path class="fec086c3-f159-4638-9fdd-9faaea935735" d="M469.8,284.22c-2.81-1.17-12.7-3.51-12.77-4.13s3,.06,2.85-.44-4.81-1.86-4.71-2.5c.13-.86,4.82.79,4.82.79s-5-2.06-4.71-2.78c.23-.51,4.16.89,5.72,1.24-1.65-.59-4.21-1.87-3.95-2.39s2.94.38,5,.95c-1.28-.48-3.55-1.48-3.34-2s8.38,1.31,15.59,3.87"/><path class="fec086c3-f159-4638-9fdd-9faaea935735" d="M521.58,274.17c-7.69,2.6-16.92,9.44-29.6,7.12s-17.86-4.8-17.86-4.8l-4.65,7.56s17.68,9.48,27.88,9.76c13.4.38,20.19-2.78,26-5.36"/><path class="eaeedeb6-f3e1-4cce-a9e9-23de1fcf90e9" d="M523.61,288.64c2.36-.85,6.54-1.28,8.45-2.86"/><path class="a6d5606d-70c6-446f-ab64-082a98c3918c" d="M507.59,259.5c1.13-.48,4.11,1.54,5.3,2.08a71.89,71.89,0,0,1,8.24,4.45,28.16,28.16,0,0,1,8.3,8.15c1.4,2,6.36,12.76,7.34,15-1.24-2,0-13-1.35-15,3,2,5,2.79,8.27,2.49,3.85-.35,2.61,7.25,6.4,7.35-1.64-1.53-1.87-8.26-2.24-12-.24-2.39.61-5.71.24-7.8-.92-5.15-5.5-10.48-10-12.75-3.52-1.77-4.83-4.84-5.92-8.34a13.88,13.88,0,0,0-2.33-4.31c-3.63-4.55-9.07-5.77-14.8-4.73-3.54.64-3.61.22-6.87,1.73-1.28.6-1.78,2.39-2.81,3.4a11.42,11.42,0,0,0-2.18,3.59"/><path class="fec086c3-f159-4638-9fdd-9faaea935735" d="M518,274l-.51,0c-2.42.14-4.5-1.16-4.88-3.06h0l-2.5-12.23,11.28,1.56.73,4.81.66,4.26C523.13,271.63,520.9,273.78,518,274Z"/><path class="a2638721-2010-4e87-92c2-91e6a46f977f" d="M518.79,265.52c-1,3-2.91,5.11-5.31,5.43a2.82,2.82,0,0,1-.87,0l-2.5-12.23,8,2Z"/><path class="fec086c3-f159-4638-9fdd-9faaea935735" d="M504.63,245.92a23.78,23.78,0,0,0-.18,4.79,2.68,2.68,0,0,1-.59,2l-2.3,2.7a.8.8,0,0,0,0,1,3.05,3.05,0,0,0,1.62,1.12,16,16,0,0,0,2.92,6.89,4.71,4.71,0,0,0,3,1.67c12.5,1.88,17.78-4,17.9-16.36a10.73,10.73,0,0,0-2.83-7.32c-2.89-3.14-8.59-7.82-14.65-4.23A10.33,10.33,0,0,0,504.63,245.92Z"/><path class="a6d5606d-70c6-446f-ab64-082a98c3918c" d="M524.55,238c-3.62-3.82-8.9-4.47-13.81-3.31-2.07.49-5.77,2.32-7.05,4.28-4.34,6.7,2,7.72,3.29,7.87a10.93,10.93,0,0,1,1.12-2.81c1.19,1.82,2.79,3.33,3.71,5.31a19.12,19.12,0,0,1,1.14,5c1.39-1.11,1.72-2.94,3.92-2.82a4.11,4.11,0,0,1,3.61,2.63c1,3-1.7,7.78-5.22,6.22-.28,1.22.27,4.67,1.33,5.34,1.43.91,5.15-.47,6.43-1.37a17.08,17.08,0,0,0,4.76-6C531.28,250.92,528.23,241.9,524.55,238Z"/><path class="a6d5606d-70c6-446f-ab64-082a98c3918c" d="M534.47,274.17s-1,4.06,2.62,5.67,6.47,2.78,6.95,4.38c0,0-.47-3.9-2.14-5s-4.92-3.58-4.6-6.55-1.76-3.72-1.76-3.72Z"/><path class="a4ddc2c8-40d3-427a-8163-b3bc27dcd681" d="M523.13,332.23s3.43,9.7,15.12,6.06"/></svg>