<svg id="b0bdc16c-21a5-40ed-b4c9-e4a1def010b0" data-name="Layer 1" xmlns="http://www.w3.org/2000/svg" viewBox="0 0 250 250"><defs><style>.bc487f04-cec4-4b28-88f7-c5fb705e679c{fill:#ffb62d;}.eae8930d-3717-441c-a40a-109c0cdf6855{fill:#ccd2d6;}.f2b028cf-7f42-48b1-a4fd-9ab595500363{fill:#f1f2f2;}.bbbb751c-e695-4565-9124-8c31ba03b8e9{fill:#0562e8;}.ea01f916-204f-464e-8e37-f404e3e24be5{fill:#ed9a15;}.e8175045-b34b-43eb-9814-1cdd6f2453ea{fill:#a7a9ac;}.ad620f68-2b58-4935-8042-9b88f34ad6fc{fill:#3dba85;}.e38ca479-6800-46ab-9c0e-de2e6c30c7a7{fill:#fff;}</style></defs><title>What_We_Do_Icons</title><rect class="bc487f04-cec4-4b28-88f7-c5fb705e679c" x="11.39" y="40.5" width="227.26" height="47.39"/><rect class="bc487f04-cec4-4b28-88f7-c5fb705e679c" x="11.39" y="98.76" width="227.26" height="47.39"/><rect class="eae8930d-3717-441c-a40a-109c0cdf6855" x="11.39" y="157.01" width="227.26" height="47.39"/><circle class="f2b028cf-7f42-48b1-a4fd-9ab595500363" cx="34.01" cy="64.19" r="14.3"/><circle class="f2b028cf-7f42-48b1-a4fd-9ab595500363" cx="73.74" cy="64.19" r="14.3"/><circle class="f2b028cf-7f42-48b1-a4fd-9ab595500363" cx="34.01" cy="123.33" r="14.3"/><circle class="f2b028cf-7f42-48b1-a4fd-9ab595500363" cx="73.74" cy="123.33" r="14.3"/><circle class="f2b028cf-7f42-48b1-a4fd-9ab595500363" cx="34.01" cy="182.47" r="14.3"/><circle class="f2b028cf-7f42-48b1-a4fd-9ab595500363" cx="73.74" cy="182.47" r="14.3"/><circle class="bbbb751c-e695-4565-9124-8c31ba03b8e9" cx="34.01" cy="64.19" r="7.68"/><circle class="ea01f916-204f-464e-8e37-f404e3e24be5" cx="73.74" cy="64.19" r="7.68"/><circle class="e8175045-b34b-43eb-9814-1cdd6f2453ea" cx="34.01" cy="123.33" r="7.68"/><circle class="ad620f68-2b58-4935-8042-9b88f34ad6fc" cx="34.01" cy="182.47" r="7.68"/><circle class="bbbb751c-e695-4565-9124-8c31ba03b8e9" cx="73.74" cy="123.33" r="7.68"/><circle class="ad620f68-2b58-4935-8042-9b88f34ad6fc" cx="73.74" cy="182.47" r="7.68"/><path class="e38ca479-6800-46ab-9c0e-de2e6c30c7a7" d="M122.79,59.83h51.52a4.23,4.23,0,0,1,4.23,4.24h0a4.23,4.23,0,0,1-4.23,4.23H122.79a4.23,4.23,0,0,1-4.23-4.23h0A4.23,4.23,0,0,1,122.79,59.83Z"/><path class="e38ca479-6800-46ab-9c0e-de2e6c30c7a7" d="M122.79,119.1h51.52a4.23,4.23,0,0,1,4.23,4.23h0a4.23,4.23,0,0,1-4.23,4.23H122.79a4.23,4.23,0,0,1-4.23-4.23h0A4.23,4.23,0,0,1,122.79,119.1Z"/><path class="e38ca479-6800-46ab-9c0e-de2e6c30c7a7" d="M191.8,119.1H221a4.23,4.23,0,0,1,4.23,4.23h0a4.23,4.23,0,0,1-4.23,4.23H191.8a4.23,4.23,0,0,1-4.23-4.23h0A4.23,4.23,0,0,1,191.8,119.1Z"/><path class="e38ca479-6800-46ab-9c0e-de2e6c30c7a7" d="M191.8,59.83H221a4.23,4.23,0,0,1,4.23,4.24h0A4.23,4.23,0,0,1,221,68.3H191.8a4.24,4.24,0,0,1-4.23-4.23h0A4.24,4.24,0,0,1,191.8,59.83Z"/><path class="e38ca479-6800-46ab-9c0e-de2e6c30c7a7" d="M191.8,178.36H221a4.23,4.23,0,0,1,4.23,4.23h0a4.23,4.23,0,0,1-4.23,4.24H191.8a4.24,4.24,0,0,1-4.23-4.24h0A4.23,4.23,0,0,1,191.8,178.36Z"/><path class="e38ca479-6800-46ab-9c0e-de2e6c30c7a7" d="M122.79,178.36h51.52a4.23,4.23,0,0,1,4.23,4.23h0a4.23,4.23,0,0,1-4.23,4.24H122.79a4.23,4.23,0,0,1-4.23-4.24h0A4.23,4.23,0,0,1,122.79,178.36Z"/></svg>