<svg id="bdd6bd4f-2483-4917-b879-a3af7612e33f" data-name="Layer 1" xmlns="http://www.w3.org/2000/svg" xmlns:xlink="http://www.w3.org/1999/xlink" viewBox="0 0 700 500"><defs><style>.a41bba16-8201-4598-a689-3653847953b9,.ae6fd9ae-26b8-4e99-be3c-8f695059684c,.b0ef8dad-b8c5-48eb-b61e-c467677ab2e2,.b2e9103b-4451-4512-ac62-d565c20b597b,.b2fd2422-9d2e-4aee-8488-2a88e4f9730c,.b360136c-c767-4a58-99d7-fb93bb981c46,.b8e4e07d-d6a9-4d56-90c8-5d5c6e66b182,.bd3ea687-2b92-4be6-8dfc-2b4eb15977f2,.bd8c7902-98b7-4171-a344-d0d90937c49f,.bee8c97f-3b02-4e57-8720-2e6e9963c6d4,.fa523ee3-35fc-49c5-8102-29976182274c{fill:none;}.aba1c0b2-c000-4786-b4c7-f6d5b0bcee4b{opacity:0.5;}.b7487f80-8739-4762-ac5b-a36df4ba438e{fill:#f2f2f2;}.a6756b3c-295a-4f4a-9f68-a424b4e770fd,.ad1b6a31-c841-4dee-b278-280889964d77,.b32b8895-396a-4d4f-9026-653104d51bea,.eb760538-9fe9-413d-befc-8de4dad5ce00,.fd6be489-b6f8-4afd-9db8-6f1c24b03335{fill:#fff;}.e80bc930-04ab-474c-8476-d8fc73460601{fill:#a0b2bc;}.a3b869dd-e17f-4de4-8800-ef812fcebe75,.ad0db21f-361b-479c-bd8c-94894eb1834b,.b1267366-5ff9-4567-8d94-86dce91d11e3,.e5223bcd-1c8a-477a-a2de-fc85c990c2da,.e80bc930-04ab-474c-8476-d8fc73460601,.fd82b335-114f-4c10-a31a-0738092b53ae{opacity:0.43;}.b6ab59f2-33c5-48ef-be62-8eda64432176{clip-path:url(#f8ff4fe2-7cc4-4795-8efd-c667c1d3e7ea);}.b2fd2422-9d2e-4aee-8488-2a88e4f9730c,.b8e4e07d-d6a9-4d56-90c8-5d5c6e66b182,.bd3ea687-2b92-4be6-8dfc-2b4eb15977f2,.fa523ee3-35fc-49c5-8102-29976182274c{stroke:#fff;}.b2fd2422-9d2e-4aee-8488-2a88e4f9730c,.bd3ea687-2b92-4be6-8dfc-2b4eb15977f2,.fa523ee3-35fc-49c5-8102-29976182274c{stroke-linecap:round;}.b0ef8dad-b8c5-48eb-b61e-c467677ab2e2,.b2fd2422-9d2e-4aee-8488-2a88e4f9730c,.b8e4e07d-d6a9-4d56-90c8-5d5c6e66b182,.bd3ea687-2b92-4be6-8dfc-2b4eb15977f2,.bee8c97f-3b02-4e57-8720-2e6e9963c6d4,.fa523ee3-35fc-49c5-8102-29976182274c{stroke-miterlimit:10;}.bd3ea687-2b92-4be6-8dfc-2b4eb15977f2{stroke-width:0.61px;}.a6f52dde-84c1-47cf-b505-3a8e72a3f26b,.bfe64a42-ccbd-4682-bc7b-11ad1f45e6fc{fill:#ccc;}.a6756b3c-295a-4f4a-9f68-a424b4e770fd,.bfe64a42-ccbd-4682-bc7b-11ad1f45e6fc{opacity:0.25;}.a1311f19-f7de-4cee-b19d-e0ca158bd1b3{fill:url(#a35796a6-c94f-4360-925a-7182a47a7033);}.a50d75ce-285b-4796-9479-1245136f56f5{fill:url(#f5ed5765-035b-4069-b6f4-6d6579984c59);}.a85eb89a-eed2-43fd-b4c8-37e38db26061{fill:url(#b9e9cd4a-3b35-4b79-9ed9-4abcb4843154);}.b1267366-5ff9-4567-8d94-86dce91d11e3,.e379d77a-cc4c-4dc9-b43b-ae51150298db{fill:#bad1e2;}.af9c818d-648b-4413-ac17-02d737eb938e{clip-path:url(#b54d7605-8a61-4c28-ae5b-05f6d8b60963);}.ad1b6a31-c841-4dee-b278-280889964d77,.b2e9103b-4451-4512-ac62-d565c20b597b,.b360136c-c767-4a58-99d7-fb93bb981c46{stroke:#b7cbf9;}.ad1b6a31-c841-4dee-b278-280889964d77,.ae6fd9ae-26b8-4e99-be3c-8f695059684c,.b2e9103b-4451-4512-ac62-d565c20b597b,.b360136c-c767-4a58-99d7-fb93bb981c46,.bd8c7902-98b7-4171-a344-d0d90937c49f{stroke-linejoin:round;}.b2e9103b-4451-4512-ac62-d565c20b597b{stroke-width:1.07px;stroke-dasharray:3.74;opacity:0.54;}.a0d01ebe-85e2-47e1-9eea-98c068944204{opacity:0.39;}.bf1925aa-3314-414e-acb8-c6300d6c8f99{opacity:0.88;}.a7aadc29-451c-41e6-a50a-af901f0be63d{opacity:0.45;}.b15e6828-4fdd-47fc-bf8f-0056874c74a4{fill:#f4ad9a;}.eb3ebea1-1e0d-4caa-9755-dbc26b3cc25d{fill:#ce8d80;}.b7ce3964-be1a-4c12-ba65-271e630062a0{fill:#ffd9d7;}.acfca5ac-0a51-4d12-ba73-f91c798c4edb{fill:#031423;}.fe219f35-98d5-46b3-8aff-fa7b3eae55f8{fill:#4376cf;}.b1ebf8c0-1b30-41bf-86ba-0e841332b119{fill:#039;}.e4fcd4f1-3bb9-406e-a8b6-6036cb0e6903{fill:#011e3b;}.e4538340-e009-4b01-a2aa-5ef8824c3b7c{fill:#ffb62d;}.ec1326c3-dbdf-42f0-a825-7abe9c549cf4{fill:#70cacd;}.a73d73ee-e133-483f-88be-d9382b57ff7c{fill:#383838;}.bee8c97f-3b02-4e57-8720-2e6e9963c6d4{stroke:#4b4e54;stroke-width:0.83px;}.b0ef8dad-b8c5-48eb-b61e-c467677ab2e2{stroke:#19417c;stroke-width:0.92px;}.ae6fd9ae-26b8-4e99-be3c-8f695059684c{stroke:#3d7f7d;stroke-width:0.7px;}.b180380a-02c4-4997-a361-9b69af29139f{fill:#efb5a5;}.a6f97eae-49f1-4996-b45d-ff13562190db{fill:#383a45;}.bd8c7902-98b7-4171-a344-d0d90937c49f{stroke:#ce7d67;stroke-width:1.04px;}.b34e34f0-bf56-48f0-8450-1fbed22292ef{fill:#ffa4a4;}.a1e10726-debe-42b4-a499-8e5834d49ea6{fill:#7e96a8;}.f611c421-e3db-4b3d-82d4-c175da734a9f{fill:#2a4f84;}.bd2f8cc8-8eaa-47f7-8570-6f1c2e468ae5{fill:url(#e1f2e19c-a5de-4fc9-b7d8-d773ddd03192);}.fdc8cfd8-af0a-4067-8a2e-2b2b76b9d41b{fill:url(#ac173baa-b700-4f9a-8f98-151faa8ff38f);}.f6e277bd-99bf-4618-8224-622448120783{fill:#e4f2f4;}.b8e4e07d-d6a9-4d56-90c8-5d5c6e66b182{stroke-width:2.14px;stroke-dasharray:3.74 16.03;}.b1c487d8-c6f7-4213-b3b8-1712e5305620,.b8e4e07d-d6a9-4d56-90c8-5d5c6e66b182{opacity:0.15;}.f7b49b9c-c63f-479e-a949-5d42e41aab2a{fill:url(#ab362492-42fa-41fa-a33f-95944d4967b8);}.a9868e7b-c520-4257-83a6-2734445e67a0{fill:url(#b0a937e4-2cd6-4a43-974a-00f819f5ed5a);}.b4784925-f282-4c8c-95eb-86958b466b94{fill:url(#bba5f7ac-7e09-4abc-8a1d-fb835acaa9e1);}.ac2b4370-3108-4b3b-bf9c-733d73eb3cf0{fill:url(#a0e7bec0-ad2f-4679-a6cd-36dbd4548085);}.a0452320-1033-4582-bc26-b56cbc4f9baa{fill:url(#eacf7014-0828-41db-aba9-83a7277845f9);}.b0be48ec-2bbb-4cd2-8eb0-043741a808b0{fill:url(#b1322caf-7698-483b-a740-a359a11f4671);}.b5533dac-d296-4c5b-840e-19bc6c666d73{fill:url(#bdd05055-83c7-4b0f-8ecf-f01ba205d106);}.ef9df390-daf9-4f32-aab4-383252500716{fill:url(#a26173b7-7905-4e5d-a9b4-b6503376b626);}.eb760538-9fe9-413d-befc-8de4dad5ce00{opacity:0.75;}.bc688369-6b77-4462-8151-4a30349fb1c1{fill:url(#b11daf9b-bf60-4cd0-86de-b3b3311b716b);}.f010c8bf-f512-41dd-b468-76b3d096eb58{fill:url(#a515a65a-a145-476c-bcc9-19852dbfb09b);}.efa19458-2ae8-4de2-8bd3-e080dfc0a37b{fill:#d35400;}.a3364bcf-a47f-4426-8b21-a6de290cac25{fill:url(#bbbdcd27-258d-4d8d-a55e-9f5ee27b5e2f);}.e5f13ad9-9cab-45b9-8b99-6b5da6655de0{fill:url(#b9054744-cf72-4026-b927-e0bb3c4676fa);}.f90f622d-cecb-43d3-b3b5-5607bfd165a2{fill:url(#a7d1faf4-691e-4597-a4bb-b15172cab2b2);}.ae85326b-433d-47ec-b8b6-f0e91a589421{fill:#3db884;}.a41791ec-a3d5-4fbb-844a-f8f6b8f2e9d4{fill:#e29b74;}.a14b4eae-bd19-4395-9d12-a90d04fa1ca8{fill:#cfdae2;}.bb06045f-19c8-47ad-921a-bcab26d9070d{fill:#a9bcc9;}.bf77f1d4-e541-43b8-93cf-0f094919ca57{fill:#e7edf2;}.b722ecd2-9a40-419d-9dee-df2938367271{clip-path:url(#bd918752-ad9d-4e0e-9b2d-cd31e660ffda);}.b2fd2422-9d2e-4aee-8488-2a88e4f9730c{stroke-width:0.45px;}.e4a9f4fa-22bf-4f57-9c2a-3b06d182390f{fill:#dd9828;}.bd924807-c6fb-4cc5-97d3-ac93446e9e47{fill:url(#e0781e98-9765-4291-9b36-0f448958c6e8);}.ad0db21f-361b-479c-bd8c-94894eb1834b,.b1c487d8-c6f7-4213-b3b8-1712e5305620,.b32b8895-396a-4d4f-9026-653104d51bea,.b4cd6e2e-1bac-4508-93c6-aacda1188c9c,.bdc93721-a6c6-45c2-b508-122cdbdd85bf,.e5223bcd-1c8a-477a-a2de-fc85c990c2da,.fd82b335-114f-4c10-a31a-0738092b53ae{fill-rule:evenodd;}.b4cd6e2e-1bac-4508-93c6-aacda1188c9c{fill:#e1e8f6;}.fd82b335-114f-4c10-a31a-0738092b53ae{fill:url(#ecf33d49-5f4b-4e75-9703-fbcb269f674b);}.e5223bcd-1c8a-477a-a2de-fc85c990c2da{fill:url(#f7e04ff7-6e0a-4ca7-89df-f516416ae461);}.ad0db21f-361b-479c-bd8c-94894eb1834b{fill:url(#b2f87e30-5b6a-4505-9f10-900f14252027);}.bdc93721-a6c6-45c2-b508-122cdbdd85bf{fill:url(#ec28b277-c313-4500-9c4f-ecbd6e671af9);}.b0c43e83-a7ee-4346-b459-6dadb915636f{fill:url(#e0f089f8-564b-4ac7-8a63-01f1f055251c);}.bdc4054b-6886-4fa2-90fc-1a3378e5af08{fill:url(#f12b537b-5be0-4bae-9cf8-939d91da4d86);}.b17b28a2-16d2-47e1-bf49-929939909884{fill:url(#aa95c947-1fbf-46bb-991d-e946bbc819cd);}.a2e503cb-3182-4e25-a76a-9e577edacb4d{fill:url(#a226491b-367f-483f-8053-62559c9507ac);}.ac4ca87f-c10e-48b1-96d3-59855446c716{fill:url(#b79152dc-cd6b-4445-aa33-e835c936257c);}.e1fb87e8-74a2-45a3-9e11-21d456e34ca2{fill:url(#b8429034-0880-40af-a020-a82b43f235e9);}.b21386f1-0c0d-402f-8053-979b1c6c42a6{fill:url(#b705783f-60d9-42db-9397-541f23e4c353);}.f657eac9-4d65-453b-a5a6-564c60ee1a41{fill:#e4e9f4;}.ad1b6a31-c841-4dee-b278-280889964d77,.b360136c-c767-4a58-99d7-fb93bb981c46{stroke-width:1.38px;}</style><clipPath id="f8ff4fe2-7cc4-4795-8efd-c667c1d3e7ea"><path class="a41bba16-8201-4598-a689-3653847953b9" d="M620.52,435.06c26.88,3.22,48.26,30.08,49,47.83H571.55C571.55,457.64,590.79,431.5,620.52,435.06Z"/></clipPath><linearGradient id="a35796a6-c94f-4360-925a-7182a47a7033" x1="88.92" y1="369.55" x2="119.17" y2="369.55" gradientUnits="userSpaceOnUse"><stop offset="0" stop-color="#4279e8"/><stop offset="1" stop-color="#5fb7b7"/></linearGradient><linearGradient id="f5ed5765-035b-4069-b6f4-6d6579984c59" x1="35.16" y1="376.95" x2="109.28" y2="376.95" xlink:href="#a35796a6-c94f-4360-925a-7182a47a7033"/><linearGradient id="b9e9cd4a-3b35-4b79-9ed9-4abcb4843154" x1="32.61" y1="397.69" x2="88.45" y2="397.69" xlink:href="#a35796a6-c94f-4360-925a-7182a47a7033"/><clipPath id="b54d7605-8a61-4c28-ae5b-05f6d8b60963"><path class="a41bba16-8201-4598-a689-3653847953b9" d="M101.54,397c-43.8,5.24-78.64,49-79.8,77.93H181.35C181.35,433.8,150,391.2,101.54,397Z"/></clipPath><linearGradient id="e1f2e19c-a5de-4fc9-b7d8-d773ddd03192" x1="279.78" y1="447.63" x2="554.5" y2="61.27" xlink:href="#a35796a6-c94f-4360-925a-7182a47a7033"/><linearGradient id="ac173baa-b700-4f9a-8f98-151faa8ff38f" x1="291.21" y1="456.77" x2="565.93" y2="70.41" xlink:href="#a35796a6-c94f-4360-925a-7182a47a7033"/><linearGradient id="ab362492-42fa-41fa-a33f-95944d4967b8" x1="529.42" y1="222.59" x2="607.13" y2="80.31" gradientUnits="userSpaceOnUse"><stop offset="0" stop-color="#4279e8" stop-opacity="0"/><stop offset="1" stop-color="#5fb7b7"/></linearGradient><linearGradient id="b0a937e4-2cd6-4a43-974a-00f819f5ed5a" x1="285.1" y1="453.34" x2="356.4" y2="322.78" xlink:href="#ab362492-42fa-41fa-a33f-95944d4967b8"/><linearGradient id="bba5f7ac-7e09-4abc-8a1d-fb835acaa9e1" x1="531.31" y1="142.55" x2="565.46" y2="80.02" xlink:href="#ab362492-42fa-41fa-a33f-95944d4967b8"/><linearGradient id="a0e7bec0-ad2f-4679-a6cd-36dbd4548085" x1="550.62" y1="223.6" x2="575.5" y2="178.03" xlink:href="#ab362492-42fa-41fa-a33f-95944d4967b8"/><linearGradient id="eacf7014-0828-41db-aba9-83a7277845f9" x1="320.18" y1="377.51" x2="347.3" y2="327.85" xlink:href="#ab362492-42fa-41fa-a33f-95944d4967b8"/><linearGradient id="b1322caf-7698-483b-a740-a359a11f4671" x1="574.88" y1="227.75" x2="609.03" y2="165.23" xlink:href="#ab362492-42fa-41fa-a33f-95944d4967b8"/><linearGradient id="bdd05055-83c7-4b0f-8ecf-f01ba205d106" x1="280.69" y1="383.72" x2="321.52" y2="308.96" xlink:href="#ab362492-42fa-41fa-a33f-95944d4967b8"/><linearGradient id="a26173b7-7905-4e5d-a9b4-b6503376b626" x1="250.21" y1="315.3" x2="261.62" y2="315.3" xlink:href="#a35796a6-c94f-4360-925a-7182a47a7033"/><linearGradient id="b11daf9b-bf60-4cd0-86de-b3b3311b716b" x1="297.91" y1="245.61" x2="310.1" y2="245.61" xlink:href="#a35796a6-c94f-4360-925a-7182a47a7033"/><linearGradient id="a515a65a-a145-476c-bcc9-19852dbfb09b" x1="483.85" y1="159.5" x2="496.03" y2="159.5" xlink:href="#a35796a6-c94f-4360-925a-7182a47a7033"/><linearGradient id="bbbdcd27-258d-4d8d-a55e-9f5ee27b5e2f" x1="420.83" y1="411.86" x2="433.02" y2="411.86" gradientUnits="userSpaceOnUse"><stop offset="0" stop-color="#d35400"/><stop offset="1" stop-color="#ffb62d"/></linearGradient><linearGradient id="b9054744-cf72-4026-b927-e0bb3c4676fa" x1="304.85" y1="336.35" x2="341.9" y2="284.24" gradientUnits="userSpaceOnUse"><stop offset="0" stop-opacity="0"/><stop offset="1" stop-opacity="0.15"/></linearGradient><linearGradient id="a7d1faf4-691e-4597-a4bb-b15172cab2b2" x1="386.74" y1="377.64" x2="411.89" y2="342.26" xlink:href="#b9054744-cf72-4026-b927-e0bb3c4676fa"/><clipPath id="bd918752-ad9d-4e0e-9b2d-cd31e660ffda"><path class="a41bba16-8201-4598-a689-3653847953b9" d="M589.88,451.78c19.65,2.35,35.28,22,35.8,35h-71.6C554.08,468.28,568.15,449.18,589.88,451.78Z"/></clipPath><linearGradient id="e0781e98-9765-4291-9b36-0f448958c6e8" x1="268.31" y1="197.74" x2="336.43" y2="197.74" xlink:href="#a35796a6-c94f-4360-925a-7182a47a7033"/><linearGradient id="ecf33d49-5f4b-4e75-9703-fbcb269f674b" x1="645.53" y1="438.98" x2="675.56" y2="438.98" xlink:href="#a35796a6-c94f-4360-925a-7182a47a7033"/><linearGradient id="f7e04ff7-6e0a-4ca7-89df-f516416ae461" x1="626.48" y1="408.43" x2="654.19" y2="408.43" xlink:href="#a35796a6-c94f-4360-925a-7182a47a7033"/><linearGradient id="b2f87e30-5b6a-4505-9f10-900f14252027" x1="607.68" y1="429.97" x2="644.5" y2="429.97" xlink:href="#a35796a6-c94f-4360-925a-7182a47a7033"/><linearGradient id="ec28b277-c313-4500-9c4f-ecbd6e671af9" x1="628.51" y1="473.64" x2="661.36" y2="473.64" xlink:href="#bbbdcd27-258d-4d8d-a55e-9f5ee27b5e2f"/><linearGradient id="e0f089f8-564b-4ac7-8a63-01f1f055251c" x1="626.72" y1="461.47" x2="663.15" y2="461.47" xlink:href="#bbbdcd27-258d-4d8d-a55e-9f5ee27b5e2f"/><linearGradient id="f12b537b-5be0-4bae-9cf8-939d91da4d86" x1="384.13" y1="41.68" x2="412.46" y2="41.68" gradientTransform="translate(3.64 3.73)" xlink:href="#bbbdcd27-258d-4d8d-a55e-9f5ee27b5e2f"/><linearGradient id="aa95c947-1fbf-46bb-991d-e946bbc819cd" x1="374.65" y1="41.68" x2="478.54" y2="41.68" gradientTransform="translate(2.14 -3.37)" xlink:href="#bbbdcd27-258d-4d8d-a55e-9f5ee27b5e2f"/><linearGradient id="a226491b-367f-483f-8053-62559c9507ac" x1="345.05" y1="60.14" x2="362.5" y2="60.14" gradientTransform="translate(13.31 13.4)" xlink:href="#bbbdcd27-258d-4d8d-a55e-9f5ee27b5e2f"/><linearGradient id="b79152dc-cd6b-4445-aa33-e835c936257c" x1="339.22" y1="60.14" x2="403.2" y2="60.14" gradientTransform="translate(10.75 6.41)" xlink:href="#bbbdcd27-258d-4d8d-a55e-9f5ee27b5e2f"/><linearGradient id="b8429034-0880-40af-a020-a82b43f235e9" x1="316.34" y1="67.26" x2="324.75" y2="67.26" gradientTransform="translate(26.75 32.33)" xlink:href="#bbbdcd27-258d-4d8d-a55e-9f5ee27b5e2f"/><linearGradient id="b705783f-60d9-42db-9397-541f23e4c353" x1="313.53" y1="67.26" x2="344.36" y2="67.26" gradientTransform="translate(24.79 28.24)" xlink:href="#bbbdcd27-258d-4d8d-a55e-9f5ee27b5e2f"/></defs><title>How_we_do_illustration</title><g class="aba1c0b2-c000-4786-b4c7-f6d5b0bcee4b"><rect class="b7487f80-8739-4762-ac5b-a36df4ba438e" x="409.06" y="336.1" width="28.54" height="9.15"/><rect class="b7487f80-8739-4762-ac5b-a36df4ba438e" x="409.06" y="350.67" width="42.81" height="9.15"/><rect class="b7487f80-8739-4762-ac5b-a36df4ba438e" x="430.46" y="365.27" width="32.23" height="9.15"/><rect class="b7487f80-8739-4762-ac5b-a36df4ba438e" x="475.89" y="379.87" width="43.11" height="9.15"/><rect class="b7487f80-8739-4762-ac5b-a36df4ba438e" x="525.42" y="379.87" width="35.92" height="9.15"/><rect class="b7487f80-8739-4762-ac5b-a36df4ba438e" x="430.46" y="379.87" width="15.21" height="9.15"/><rect class="b7487f80-8739-4762-ac5b-a36df4ba438e" x="408.37" y="394.47" width="15.87" height="9.15"/><rect class="b7487f80-8739-4762-ac5b-a36df4ba438e" x="431.4" y="394.47" width="43.63" height="9.15"/><rect class="b7487f80-8739-4762-ac5b-a36df4ba438e" x="408.37" y="409.07" width="19.56" height="9.15"/><rect class="b7487f80-8739-4762-ac5b-a36df4ba438e" x="436.61" y="409.07" width="16.61" height="9.15"/><rect class="b7487f80-8739-4762-ac5b-a36df4ba438e" x="462.69" y="409.07" width="27.73" height="9.15"/><rect class="b7487f80-8739-4762-ac5b-a36df4ba438e" x="499.34" y="409.07" width="27.73" height="9.15"/><rect class="b7487f80-8739-4762-ac5b-a36df4ba438e" x="408.37" y="423.67" width="15.87" height="9.15"/><rect class="b7487f80-8739-4762-ac5b-a36df4ba438e" x="433.16" y="423.67" width="41.87" height="9.15"/><rect class="b7487f80-8739-4762-ac5b-a36df4ba438e" x="408.37" y="438.27" width="15.87" height="9.15"/><rect class="b7487f80-8739-4762-ac5b-a36df4ba438e" x="430.24" y="438.27" width="15.87" height="9.15"/><rect class="b7487f80-8739-4762-ac5b-a36df4ba438e" x="451.18" y="438.27" width="15.87" height="9.15"/><rect class="b7487f80-8739-4762-ac5b-a36df4ba438e" x="473.27" y="438.27" width="34.3" height="9.15"/><rect class="b7487f80-8739-4762-ac5b-a36df4ba438e" x="512.22" y="438.27" width="22.92" height="9.15"/><rect class="b7487f80-8739-4762-ac5b-a36df4ba438e" x="445.67" y="336.1" width="36.36" height="9.15"/><rect class="b7487f80-8739-4762-ac5b-a36df4ba438e" x="488.61" y="336.1" width="41.87" height="9.15"/><rect class="b7487f80-8739-4762-ac5b-a36df4ba438e" x="537.15" y="336.1" width="48.34" height="9.15"/><rect class="b7487f80-8739-4762-ac5b-a36df4ba438e" x="593.07" y="336.1" width="22.86" height="9.15"/><rect class="b7487f80-8739-4762-ac5b-a36df4ba438e" x="506.8" y="320.26" width="17.11" height="9.15"/><rect class="b7487f80-8739-4762-ac5b-a36df4ba438e" x="451.78" y="379.87" width="17.11" height="9.15"/><rect class="b7487f80-8739-4762-ac5b-a36df4ba438e" x="458.23" y="350.67" width="17.11" height="9.15"/><rect class="b7487f80-8739-4762-ac5b-a36df4ba438e" x="468.59" y="365.27" width="17.11" height="9.15"/><rect class="b7487f80-8739-4762-ac5b-a36df4ba438e" x="530.49" y="320.26" width="8.54" height="9.15"/><rect class="b7487f80-8739-4762-ac5b-a36df4ba438e" x="544.51" y="320.26" width="22.18" height="9.15"/><rect class="b7487f80-8739-4762-ac5b-a36df4ba438e" x="573.29" y="320.26" width="24.46" height="9.15"/><rect class="b7487f80-8739-4762-ac5b-a36df4ba438e" x="494.43" y="350.07" width="12.57" height="12.57"/><rect class="b7487f80-8739-4762-ac5b-a36df4ba438e" x="516.71" y="350.07" width="12.57" height="12.57"/></g><ellipse class="b7487f80-8739-4762-ac5b-a36df4ba438e" cx="611.61" cy="483.39" rx="77.09" ry="4.19"/><path class="fd6be489-b6f8-4afd-9db8-6f1c24b03335" d="M620.52,435.06c26.88,3.22,48.26,30.08,49,47.83H571.55C571.55,457.64,590.79,431.5,620.52,435.06Z"/><path class="e80bc930-04ab-474c-8476-d8fc73460601" d="M620.52,435.06c26.88,3.22,48.26,30.08,49,47.83H571.55C571.55,457.64,590.79,431.5,620.52,435.06Z"/><g class="b6ab59f2-33c5-48ef-be62-8eda64432176"><line class="bd3ea687-2b92-4be6-8dfc-2b4eb15977f2" x1="614.52" y1="431.25" x2="618.1" y2="487.34"/><line class="bd3ea687-2b92-4be6-8dfc-2b4eb15977f2" x1="616.31" y1="458.81" x2="634.52" y2="436.78"/><line class="bd3ea687-2b92-4be6-8dfc-2b4eb15977f2" x1="605.09" y1="486.04" x2="581.67" y2="445.74"/><line class="bd3ea687-2b92-4be6-8dfc-2b4eb15977f2" x1="599.46" y1="435.49" x2="596.26" y2="470.85"/><line class="bd3ea687-2b92-4be6-8dfc-2b4eb15977f2" x1="597.39" y1="488.79" x2="572.84" y2="468.29"/><line class="bd3ea687-2b92-4be6-8dfc-2b4eb15977f2" x1="581.96" y1="475.91" x2="571.35" y2="474.54"/><line class="bd3ea687-2b92-4be6-8dfc-2b4eb15977f2" x1="615.8" y1="451.27" x2="603.87" y2="431.25"/><line class="bd3ea687-2b92-4be6-8dfc-2b4eb15977f2" x1="647.62" y1="439.76" x2="619.83" y2="484.81"/><line class="bd3ea687-2b92-4be6-8dfc-2b4eb15977f2" x1="658.52" y1="451.36" x2="629.16" y2="469.69"/><line class="bd3ea687-2b92-4be6-8dfc-2b4eb15977f2" x1="664.37" y1="461.27" x2="636.39" y2="486.04"/><line class="bd3ea687-2b92-4be6-8dfc-2b4eb15977f2" x1="669.49" y1="472.1" x2="648.61" y2="475.22"/></g><g class="aba1c0b2-c000-4786-b4c7-f6d5b0bcee4b"><circle class="bfe64a42-ccbd-4682-bc7b-11ad1f45e6fc" cx="82.64" cy="254.57" r="22.08"/><circle class="bfe64a42-ccbd-4682-bc7b-11ad1f45e6fc" cx="60.3" cy="255.91" r="9.74"/></g><g class="a3b869dd-e17f-4de4-8800-ef812fcebe75"><path class="a1311f19-f7de-4cee-b19d-e0ca158bd1b3" d="M115.91,414.28c2-12.53,3.63-25.19,3.19-37.87s-3.24-27.88-9.83-39c-3.8-6.43-17.32-21.62-20-5.15-1.34,8.15,2,15.75,4.38,23.36,2.28,7.28,5.59,14.35,7.53,21.73,3.1,11.79,5.07,23.85,8.57,35.53"/></g><g class="a3b869dd-e17f-4de4-8800-ef812fcebe75"><path class="a50d75ce-285b-4796-9479-1245136f56f5" d="M109.28,420.76C106,405,102.2,389.42,95.66,375.24c-5.46-11.82-13.16-23.61-23.44-32.11-6.92-5.72-27.44-19.73-35-8.47-6.08,9.11,2.47,20.18,8.43,26.83,8.54,9.52,18.47,17.68,26.8,27.45,9.62,11.28,17.87,23.67,28,34.56"/></g><g class="a3b869dd-e17f-4de4-8800-ef812fcebe75"><path class="a85eb89a-eed2-43fd-b4c8-37e38db26061" d="M84.48,412.27a146.88,146.88,0,0,0-29.31-27.41c-3.71-2.61-22.61-15.43-22.56-2.94,0,8.57,10.28,13.5,16.6,16.82,13,6.84,27.12,11.77,39.24,20.11"/></g><path class="fa523ee3-35fc-49c5-8102-29976182274c" d="M38.62,384.17s26.1,11.6,53.42,38.92"/><path class="fa523ee3-35fc-49c5-8102-29976182274c" d="M50.42,343.67s30.35,16.44,57.89,83.85"/><path class="fa523ee3-35fc-49c5-8102-29976182274c" d="M96.39,336s17.53,24.73,17.53,87.58"/><ellipse class="b7487f80-8739-4762-ac5b-a36df4ba438e" cx="163.24" cy="474.94" rx="150.72" ry="5.35"/><path class="fd6be489-b6f8-4afd-9db8-6f1c24b03335" d="M101.54,397c-43.8,5.24-78.64,49-79.8,77.93H181.35C181.35,433.8,150,391.2,101.54,397Z"/><path class="b1267366-5ff9-4567-8d94-86dce91d11e3" d="M101.54,397c-43.8,5.24-78.64,49-79.8,77.93H181.35C181.35,433.8,150,391.2,101.54,397Z"/><g class="af9c818d-648b-4413-ac17-02d737eb938e"><line class="fa523ee3-35fc-49c5-8102-29976182274c" x1="111.32" y1="390.79" x2="105.5" y2="482.19"/><line class="fa523ee3-35fc-49c5-8102-29976182274c" x1="108.41" y1="435.71" x2="78.74" y2="399.81"/><line class="fa523ee3-35fc-49c5-8102-29976182274c" x1="126.69" y1="480.08" x2="164.86" y2="414.41"/><line class="fa523ee3-35fc-49c5-8102-29976182274c" x1="135.87" y1="397.71" x2="141.08" y2="455.32"/><line class="fa523ee3-35fc-49c5-8102-29976182274c" x1="139.25" y1="484.57" x2="179.26" y2="451.16"/><line class="fa523ee3-35fc-49c5-8102-29976182274c" x1="164.39" y1="463.57" x2="181.68" y2="461.34"/><line class="fa523ee3-35fc-49c5-8102-29976182274c" x1="109.24" y1="423.42" x2="128.69" y2="390.79"/><line class="fa523ee3-35fc-49c5-8102-29976182274c" x1="57.39" y1="404.66" x2="102.67" y2="478.08"/><line class="fa523ee3-35fc-49c5-8102-29976182274c" x1="39.62" y1="423.56" x2="87.47" y2="453.44"/><line class="fa523ee3-35fc-49c5-8102-29976182274c" x1="30.09" y1="439.72" x2="75.69" y2="480.08"/><line class="fa523ee3-35fc-49c5-8102-29976182274c" x1="21.74" y1="457.36" x2="55.78" y2="462.46"/></g><path class="b2e9103b-4451-4512-ac62-d565c20b597b" d="M280,357H254.79a27.45,27.45,0,0,0-27.45,27.46h0a27.45,27.45,0,0,0,27.45,27.45H575.41a27.45,27.45,0,0,0,27.45-27.45h0A27.45,27.45,0,0,0,575.41,357H455.31a20.76,20.76,0,0,1-20.76-20.77h0a20.76,20.76,0,0,1,20.76-20.77H653.45A27.54,27.54,0,0,0,681,287.87h0a27.54,27.54,0,0,0-27.55-27.55H476.52a21.73,21.73,0,0,1-21.73-21.73h0a21.73,21.73,0,0,1,21.73-21.72h65.91a28.62,28.62,0,0,0,10.38-1.94"/><path class="b2e9103b-4451-4512-ac62-d565c20b597b" d="M526.64,159.5h-245c-3.26,0-11.28,7.16-11.72,16.48a17.31,17.31,0,0,0,17.29,18.15h72.61a25.57,25.57,0,0,1,25.57,25.57h0a25.57,25.57,0,0,1-25.57,25.58H220.83a35.07,35.07,0,0,0-35.07,35.07h0a35.07,35.07,0,0,0,35.07,35.07H357.45a20.76,20.76,0,0,1,20.76,20.77h0A20.75,20.75,0,0,1,357.45,357h-9.52"/><g class="a0d01ebe-85e2-47e1-9eea-98c068944204"><g class="bf1925aa-3314-414e-acb8-c6300d6c8f99"><g class="a7aadc29-451c-41e6-a50a-af901f0be63d"><path class="a6f52dde-84c1-47cf-b505-3a8e72a3f26b" d="M37.48,65.8h36c5.66,0,7.41-.18,13.06,0,.06-3.49-.91-6.77-2.58-8.53a6.11,6.11,0,0,0-5.65-1.72c-2.43.64-4.08,2.27-5.66,3.48-.56-4.8-2.54-9.17-4.67-10.13-3.67-1.64-7.51,1-9.23,3.49a15.91,15.91,0,0,0-2.48,7.07C54,56.91,48.85,55,47,59a11.05,11.05,0,0,0-.59,5.15A10.72,10.72,0,0,0,37.48,65.8Z"/></g></g><g class="bf1925aa-3314-414e-acb8-c6300d6c8f99"><g class="a7aadc29-451c-41e6-a50a-af901f0be63d"><path class="a6f52dde-84c1-47cf-b505-3a8e72a3f26b" d="M43.18,93.82s.18,0,.21,0H140.1c15.21,0,19.91-.37,35.1,0,.17-7.14-2.44-13.86-6.92-17.47a19.93,19.93,0,0,0-15.19-3.53c-6.55,1.32-11,4.66-15.24,7.14-1.5-9.84-6.84-18.8-12.57-20.75-9.86-3.37-20.17,2-24.8,7.15A27.73,27.73,0,0,0,93.8,80.8c-6.2-5.21-20-9.19-25-.92-2,3.25-1.79,7-1.6,10.55A36.19,36.19,0,0,0,43.18,93.82Z"/></g></g></g><path class="b15e6828-4fdd-47fc-bf8f-0056874c74a4" d="M254,200.2c2.46-2.52,9.88-6.07,12.6-7.13,1.61-.63,4.5-1.56,5-.93,1.17,1.63-3.93,2.37-3.33,3.2.36.5,3.77-1,5.53-1.71,1.57-.67,3.78-1.35,4.46-.5.88,1.1-7.94,4.76-7.94,4.76s9.45-3.46,10.14-2.51c1,1.38-8.5,4.88-8.5,4.88s8.11-2.8,8.85-1.78-5.55,2.68-7.85,3.86c1.84-.45,7.27-1.68,7.31-.77s-3.47,2.07-4.3,2.46a45.58,45.58,0,0,1-14.78,4.15"/><path class="eb3ebea1-1e0d-4caa-9755-dbc26b3cc25d" d="M266.77,196.64a9.42,9.42,0,0,1-1.23,2.16,12.69,12.69,0,0,1-1.69,1.83,9.89,9.89,0,0,1-2.08,1.41,5.61,5.61,0,0,1-2.43.62,20.45,20.45,0,0,0,3.85-2.78C264.39,198.84,265.51,197.72,266.77,196.64Z"/><path class="b7ce3964-be1a-4c12-ba65-271e630062a0" d="M149.51,429.64l2,31.17-.11,10.92,37.45,2.68c1,0,1.39-3.34.67-3.62l-23.22-9.87,3-28.91"/><path class="acfca5ac-0a51-4d12-ba73-f91c798c4edb" d="M150.23,462.51s-.29-2.53.9-2.53,1.28,1.13,2.52,1.46c2.34.61,7.52.06,12.1-1.54.57-.19.46-2.36,2.14-2.36s1.34,2.6,3.11,3.43,15.64,7.79,19.4,9.41c3.19,1.37,5.35,5.58-.24,5.58H149.39a.88.88,0,0,1-.88-.88V472.6A75.41,75.41,0,0,1,150.23,462.51Z"/><path class="fe219f35-98d5-46b3-8aff-fa7b3eae55f8" d="M149.36,473.63h44.25a0,0,0,0,1,0,0V476a0,0,0,0,1,0,0h-45.1a0,0,0,0,1,0,0v-1.48A.85.85,0,0,1,149.36,473.63Z" transform="translate(342.13 949.59) rotate(-180)"/><path class="b1ebf8c0-1b30-41bf-86ba-0e841332b119" d="M176.34,463.56a6.82,6.82,0,0,0-1.46,1.1,5.88,5.88,0,0,0-.58.64,2.36,2.36,0,0,0-.28.42,2,2,0,0,0-.1.21.69.69,0,0,0,0,.4.36.36,0,0,0,.43.25.93.93,0,0,0,.42-.31,2.92,2.92,0,0,0,.32-.38h0l.07-.09.12-.15.29-.32c.19-.19.39-.39.59-.57s.21-.19.33-.28.08-.06,0,0l.05,0,.19-.14a.42.42,0,0,0,.14-.56.41.41,0,0,0-.55-.14Z"/><path class="b1ebf8c0-1b30-41bf-86ba-0e841332b119" d="M174.43,461.9a8.87,8.87,0,0,0-1.88,1.57,12.23,12.23,0,0,0-.79,1,2.26,2.26,0,0,0-.51,1.19.33.33,0,0,0,.5.29,1.22,1.22,0,0,0,.25-.2l.2-.28.32-.48c.2-.32.41-.63.64-.93a15.52,15.52,0,0,1,1.57-1.77.25.25,0,0,0-.3-.38Z"/><path class="b7ce3964-be1a-4c12-ba65-271e630062a0" d="M116.73,429.64,115,460.81l-.12,10.92,37.45,2.68c1,0,1.4-3.34.67-3.62l-23.21-9.87L136.56,432"/><path class="e4fcd4f1-3bb9-406e-a8b6-6036cb0e6903" d="M113.74,462.51s-.3-2.53.9-2.53,1.28,1.13,2.51,1.46c2.35.61,7.52.06,12.11-1.54.56-.19.45-2.36,2.14-2.36s1.33,2.6,3.1,3.43,15.64,7.79,19.4,9.41c3.19,1.37,5.35,5.58-.23,5.58H112.89a.87.87,0,0,1-.87-.88V472.6A73.56,73.56,0,0,1,113.74,462.51Z"/><path class="fe219f35-98d5-46b3-8aff-fa7b3eae55f8" d="M112.87,473.63h44.25a0,0,0,0,1,0,0V476a0,0,0,0,1,0,0H112a0,0,0,0,1,0,0v-1.48A.85.85,0,0,1,112.87,473.63Z" transform="translate(269.13 949.59) rotate(-180)"/><path class="b1ebf8c0-1b30-41bf-86ba-0e841332b119" d="M139.84,463.56a6.81,6.81,0,0,0-2,1.74,2,2,0,0,0-.29.42,2,2,0,0,1-.1.21.69.69,0,0,0,0,.4.35.35,0,0,0,.42.25,1,1,0,0,0,.43-.31,3.93,3.93,0,0,0,.31-.38h0l.07-.09.13-.15c.09-.11.19-.21.29-.32s.38-.39.58-.57l.33-.28,0,0,.05,0,.19-.14a.43.43,0,0,0,.15-.56.42.42,0,0,0-.56-.14Z"/><path class="b1ebf8c0-1b30-41bf-86ba-0e841332b119" d="M137.94,461.9a8.92,8.92,0,0,0-1.89,1.57c-.28.32-.54.65-.79,1a2.26,2.26,0,0,0-.51,1.19.33.33,0,0,0,.5.29,1.22,1.22,0,0,0,.25-.2,2.43,2.43,0,0,0,.2-.28L136,465a9.6,9.6,0,0,1,.64-.93,15.43,15.43,0,0,1,1.56-1.77.24.24,0,0,0-.29-.38Z"/><path class="e4538340-e009-4b01-a2aa-5ef8824c3b7c" d="M244.93,202.44c.64-.24,9.84-4.31,9.84-4.31l8.56,11.33-15.52,6.39"/><path class="ec1326c3-dbdf-42f0-a825-7abe9c549cf4" d="M156.82,224.17s1.11-23.88,5.76-26c14.39-6.55,36.33,15.19,46.9,12.34C226.11,206,250.55,199,250.55,199l10,16.26s-47.85,18.37-52.68,18.37c-12.39,0-25.87-9-25.87-9"/><path class="a73d73ee-e133-483f-88be-d9382b57ff7c" d="M158.31,273.92s-1.34,25-3.78,48.74c-6.37,55.69-17.09,131.51-17.09,131.51H111.05s4-83.78,6-126.57c.59-12.93,1-29,14.43-47.8"/><path class="a73d73ee-e133-483f-88be-d9382b57ff7c" d="M182.09,279.8c8.48,77.52-9.32,174.37-9.32,174.37H146.41l5.52-121.78s-9.76-39.06-3.55-57"/><path class="bee8c97f-3b02-4e57-8720-2e6e9963c6d4" d="M144.3,389.48s12.52-69,12.52-96.07"/><path class="b0ef8dad-b8c5-48eb-b61e-c467677ab2e2" d="M161.13,293.41s-1.8,23.74-5.25,23.74"/><path class="bee8c97f-3b02-4e57-8720-2e6e9963c6d4" d="M115.14,454.17l8-126.57s3.45-25.83,14.43-47.8"/><line class="bee8c97f-3b02-4e57-8720-2e6e9963c6d4" x1="150.07" y1="454.26" x2="153.62" y2="363.06"/><path class="e4538340-e009-4b01-a2aa-5ef8824c3b7c" d="M130.72,213.53c2.56-15.74,4.63-13.9,14.47-17.29a53.91,53.91,0,0,1,10.79-.38,51.6,51.6,0,0,1,5.5,1c4.09,5.27,16.08,20.84,17.55,44.54C180.17,260,181.89,295,181.89,295s-35,4.3-56.88-2.65C125,273.68,127,236.45,130.72,213.53Z"/><path class="ec1326c3-dbdf-42f0-a825-7abe9c549cf4" d="M145.19,196.24c3.85,20.86,3.52,50,1,113.91-8.78-1.33-25.95-4-25.95-4s.78-75.32,3.27-83.22C128,208.84,145.19,196.24,145.19,196.24Z"/><path class="ec1326c3-dbdf-42f0-a825-7abe9c549cf4" d="M161.48,196.86s7.64-1.53,5.16,115.43c6.81,0,15.13-1.8,19.6-4.54a614.53,614.53,0,0,0-5.21-93Z"/><path class="ae6fd9ae-26b8-4e99-be3c-8f695059684c" d="M186.24,307.75s-3.6-69.22-4.21-81.13"/><path class="b15e6828-4fdd-47fc-bf8f-0056874c74a4" d="M161,188.42l1.54,10.27s0,4.28-8.07,3.89c-6.42-.32-7-.48-8.22-1.61a1.59,1.59,0,0,1-.47-1.32L145,178.76"/><path class="b180380a-02c4-4997-a361-9b69af29139f" d="M166.22,175.25c0-.59.75-.93,1.34-.86a2.66,2.66,0,0,1,2,1.46,5.76,5.76,0,0,1,.57,2.46,4.8,4.8,0,0,1-.33,2.32,2.88,2.88,0,0,1-3.58,1.33"/><path class="b15e6828-4fdd-47fc-bf8f-0056874c74a4" d="M165.23,164.1s5.35,18.61,2.75,22.51c-3.91,5.85-13.51,6.51-17.62,4-3.45-2.15-6.52-14-6.59-17.11C143.57,165.06,160.7,159.78,165.23,164.1Z"/><path class="a6f97eae-49f1-4996-b45d-ff13562190db" d="M135.87,163.68a15.69,15.69,0,0,1,7.56-9.69,7.9,7.9,0,0,1,5.07-1.19c1.44.25,2.76,1.1,4.22,1.11a9.62,9.62,0,0,0,3.57-1.07,16.07,16.07,0,0,1,9.5-.75A5.91,5.91,0,0,1,169,153.7c2.89,3.28-.33,8.21-3.09,10.4-3.89,3.08-9.36,3.1-14.06,3.77a7.12,7.12,0,0,0-2.85.82c-2.21,1.39-2.22,4.54-2,7.14a10.19,10.19,0,0,1-1.47,6.48c-.68,1.23,0,4-.17,6.2a28.3,28.3,0,0,1-8-9.75A20.94,20.94,0,0,1,135.87,163.68Z"/><path class="bd8c7902-98b7-4171-a344-d0d90937c49f" d="M160.26,191.48s-5.12.77-8.85-1c-3.58-1.73-4.91-6.12-4.91-6.12"/><path class="b15e6828-4fdd-47fc-bf8f-0056874c74a4" d="M148.54,178.17a3.57,3.57,0,0,0-2.55-1.45,3.18,3.18,0,0,0-1.93,1.17c-2.39,2.82.41,8,4.16,7.36,1.38-.24,1-2.06,1-2.06"/><path class="fd6be489-b6f8-4afd-9db8-6f1c24b03335" d="M165.12,182.47l-8.66,1.43s1.44,4.42,5.62,3.73C165.8,187,165.12,182.47,165.12,182.47Z"/><path class="b34e34f0-bf56-48f0-8450-1fbed22292ef" d="M143,328.65a6,6,0,0,1,1,.88,3,3,0,0,1,.74,1.25.76.76,0,0,1,0,.27.65.65,0,0,1-.1.33.59.59,0,0,1-.15.21l-.13.14a2.09,2.09,0,0,1-.63.49,2.22,2.22,0,0,1-1.64.1,5.21,5.21,0,0,1-2.21-1.72,13.24,13.24,0,0,1-1.43-2.21,18.49,18.49,0,0,1,2,1.62,6.68,6.68,0,0,0,1.95,1.28,1.24,1.24,0,0,0,.87,0,1.26,1.26,0,0,0,.41-.25l.1-.09s.1-.08.06,0,0,0,0,0,0,0,0-.05a3.3,3.3,0,0,0-.35-1.07Z"/><rect class="a1e10726-debe-42b4-a499-8e5834d49ea6" x="116.42" y="276.47" width="42.92" height="61.46" transform="translate(-68.96 572.91) rotate(-117.93)"/><path class="f611c421-e3db-4b3d-82d4-c175da734a9f" d="M153.22,289.89h24.11a0,0,0,0,1,0,0v2.52a1.66,1.66,0,0,1-1.66,1.66H154.88a1.66,1.66,0,0,1-1.66-1.66v-2.52A0,0,0,0,1,153.22,289.89Z" transform="translate(-15.28 574.75) rotate(-117.93)"/><path class="f611c421-e3db-4b3d-82d4-c175da734a9f" d="M167.19,286.84a3.65,3.65,0,1,0,4.68,1.64A3.51,3.51,0,0,0,167.19,286.84Zm.9,1.69a1.73,1.73,0,1,1-.61,2.27A1.66,1.66,0,0,1,168.09,288.53Z"/><path class="b15e6828-4fdd-47fc-bf8f-0056874c74a4" d="M129.89,311.87,134,319.5s4.52,1.64,6.4,4.67a33.78,33.78,0,0,0,2.06,2.93l3.12-1.49s.4,4.43-.58,5.41a3.79,3.79,0,0,1-2.49.52,1.74,1.74,0,0,1-2.3,2c.93,1.67-1.16,3.19-2.93,1.42.16,1.85-1.77,2.48-3.58,2-2-.57-5.11-2.3-6.37-4.43s-2.82-5.28-2.82-5.28l-4-7.54"/><polyline class="e4538340-e009-4b01-a2aa-5ef8824c3b7c" points="131.37 304.99 133.02 310.41 117.56 323.18 114.06 311.3"/><path class="ec1326c3-dbdf-42f0-a825-7abe9c549cf4" d="M136.37,230.6c-3.21,10.8-10.25,33.81-10.25,33.81l6.29,43-20.13,14.08s-5.94-47.52-5.94-60.13,8-39.38,14.56-55.83c2.63-6.61,18-7.8,24.29-9.25"/><polyline class="ae6fd9ae-26b8-4e99-be3c-8f695059684c" points="128.5 280.63 126.5 264.41 135.59 234.59"/><path class="bd2f8cc8-8eaa-47f7-8570-6f1c2e468ae5" d="M417.9,345.62a84.23,84.23,0,0,0-26.4-41.81l-.15-.11c-1-.9-2.12-1.78-3.21-2.62l-.08-.05a83.69,83.69,0,0,0-46.39-17.39c-1.66-.11-3.35-.16-5-.16a84.15,84.15,0,1,0,81.27,62.14Zm-81.27,82.62A60.57,60.57,0,1,1,374,320c.48.4,1,.8,1.46,1.19a60.56,60.56,0,0,1-38.82,107Z"/><path class="fdc8cfd8-af0a-4067-8a2e-2b2b76b9d41b" d="M474,42.41A157.24,157.24,0,0,0,374,321c.48.4,1,.8,1.46,1.19A157.26,157.26,0,1,0,474,42.41Zm0,290.92a133,133,0,0,1-82.51-28.51l-.15-.11c-1-.9-2.12-1.78-3.21-2.62l-.08,0A133.68,133.68,0,1,1,474,333.33Z"/><path class="f6e277bd-99bf-4618-8224-622448120783" d="M391.35,303.7c-1.08-.85-2.16-1.72-3.21-2.62C389.23,301.92,390.31,302.8,391.35,303.7Z"/><circle class="b8e4e07d-d6a9-4d56-90c8-5d5c6e66b182" cx="336.63" cy="367.68" r="72.92"/><path class="b8e4e07d-d6a9-4d56-90c8-5d5c6e66b182" d="M410.36,330.71a145.59,145.59,0,1,0-53.68-44.81"/><path class="f7b49b9c-c63f-479e-a949-5d42e41aab2a" d="M570.1,187.73H561a2.48,2.48,0,0,1-1.39-2.24c-.1-1.49-.35-3-.51-4.43a.67.67,0,0,0-.52-.63q-2.58-1-5.13-2.12a.66.66,0,0,0-.81.08c-1.27,1-2.56,2-3.85,3a1.85,1.85,0,0,1-2.72-.18c-1.8-1.78-3.58-3.57-5.37-5.36a1.87,1.87,0,0,1-.17-2.77c1-1.27,2-2.54,3-3.8a.68.68,0,0,0,.11-.81q-1.11-2.56-2.15-5.18a.62.62,0,0,0-.58-.48c-1.6-.17-3.2-.39-4.8-.57a1.91,1.91,0,0,1-1.9-2.09v-7.53a1.92,1.92,0,0,1,1.92-2.13c1.6-.18,3.2-.4,4.8-.57.35,0,.45-.2.57-.5.69-1.71,1.38-3.43,2.12-5.12a.72.72,0,0,0-.11-.87c-1-1.25-2-2.52-3-3.79a1.87,1.87,0,0,1,.16-2.73q2.7-2.72,5.41-5.4a1.86,1.86,0,0,1,2.73-.15c1.29,1,2.57,2,3.84,3a.62.62,0,0,0,.76.08q2.58-1.11,5.18-2.15c.3-.12.46-.23.49-.58.18-1.6.39-3.19.57-4.79a1.92,1.92,0,0,1,2.08-1.92h7.59a1.91,1.91,0,0,1,2.09,1.91c.18,1.58.39,3.15.56,4.73a.7.7,0,0,0,.55.67q2.55,1,5.07,2.1a.7.7,0,0,0,.86-.09q1.9-1.53,3.84-3a1.85,1.85,0,0,1,2.68.18q2.72,2.68,5.41,5.4a1.87,1.87,0,0,1,.18,2.73c-1,1.29-2,2.57-3,3.84a.63.63,0,0,0-.1.76c.74,1.74,1.44,3.49,2.19,5.23a.8.8,0,0,0,.52.43c1.49.22,3,.44,4.49.55a2.45,2.45,0,0,1,2.24,1.4v9a2.47,2.47,0,0,1-2.24,1.4c-1.48.1-2.95.35-4.43.52a.66.66,0,0,0-.63.51c-.68,1.71-1.38,3.42-2.12,5.12a.72.72,0,0,0,.11.86c1,1.25,2,2.52,3,3.79a1.85,1.85,0,0,1-.15,2.73l-5.41,5.4a1.88,1.88,0,0,1-2.73.15c-1.27-1-2.54-2-3.79-3a.72.72,0,0,0-.87-.11q-2.5,1.09-5.06,2.1c-.33.14-.52.25-.56.65-.16,1.48-.41,2.95-.52,4.43A2.45,2.45,0,0,1,570.1,187.73Zm11.14-31.34a15.67,15.67,0,1,0-15.7,15.67A15.71,15.71,0,0,0,581.24,156.39Z"/><path class="a9868e7b-c520-4257-83a6-2734445e67a0" d="M322.42,421.35h-8.31a2.27,2.27,0,0,1-1.28-2.06c-.09-1.36-.32-2.71-.47-4.07a.62.62,0,0,0-.47-.57q-2.37-.93-4.71-1.94a.6.6,0,0,0-.74.07c-1.17.94-2.35,1.86-3.53,2.78a1.72,1.72,0,0,1-2.51-.16l-4.92-4.92a1.73,1.73,0,0,1-.15-2.55c.91-1.16,1.81-2.33,2.74-3.48a.62.62,0,0,0,.09-.75c-.68-1.57-1.33-3.16-2-4.75a.59.59,0,0,0-.54-.44c-1.47-.16-2.93-.36-4.4-.52a1.76,1.76,0,0,1-1.75-1.92v-6.91a1.77,1.77,0,0,1,1.77-2c1.47-.16,2.93-.36,4.4-.52.32,0,.42-.18.52-.46q.94-2.36,1.95-4.7a.65.65,0,0,0-.1-.79c-.93-1.15-1.84-2.32-2.75-3.48a1.72,1.72,0,0,1,.15-2.5c1.65-1.66,3.31-3.32,5-5a1.7,1.7,0,0,1,2.5-.14l3.53,2.78a.57.57,0,0,0,.7.07c1.57-.67,3.16-1.33,4.75-2,.27-.11.41-.21.45-.53.16-1.47.36-2.93.52-4.4a1.75,1.75,0,0,1,1.91-1.75q3.48,0,7,0a1.75,1.75,0,0,1,1.92,1.75c.16,1.44.36,2.89.51,4.34a.65.65,0,0,0,.51.61q2.34.93,4.65,1.93a.66.66,0,0,0,.79-.08c1.16-.94,2.34-1.86,3.52-2.78a1.7,1.7,0,0,1,2.46.16c1.66,1.64,3.32,3.3,5,5a1.72,1.72,0,0,1,.16,2.51c-.92,1.18-1.84,2.36-2.78,3.53a.57.57,0,0,0-.09.69c.68,1.59,1.32,3.21,2,4.8a.79.79,0,0,0,.48.4c1.37.19,2.74.4,4.12.5a2.24,2.24,0,0,1,2.06,1.28v8.31A2.26,2.26,0,0,1,345,398c-1.36.1-2.71.33-4.06.48a.6.6,0,0,0-.58.46c-.62,1.58-1.26,3.15-1.94,4.7a.66.66,0,0,0,.1.8q1.39,1.72,2.74,3.47a1.71,1.71,0,0,1-.14,2.51l-5,4.95a1.72,1.72,0,0,1-2.51.14c-1.16-.9-2.33-1.81-3.48-2.74a.66.66,0,0,0-.79-.09c-1.54.67-3.09,1.3-4.64,1.92-.31.13-.48.23-.52.6-.14,1.36-.38,2.71-.48,4.07A2.24,2.24,0,0,1,322.42,421.35Zm10.22-28.76A14.38,14.38,0,1,0,318.24,407,14.41,14.41,0,0,0,332.64,392.59Z"/><path class="b4784925-f282-4c8c-95eb-86958b466b94" d="M549.19,127.23h-4a1.09,1.09,0,0,1-.61-1c-.05-.65-.16-1.3-.23-1.95a.29.29,0,0,0-.23-.27q-1.12-.45-2.25-.93a.3.3,0,0,0-.36,0c-.55.45-1.12.89-1.69,1.33a.81.81,0,0,1-1.19-.07L536.29,122a.83.83,0,0,1-.08-1.22c.44-.56.87-1.12,1.32-1.67a.3.3,0,0,0,0-.36c-.32-.75-.64-1.51-.94-2.27a.26.26,0,0,0-.26-.21l-2.11-.25a.84.84,0,0,1-.83-.92v-3.31a.85.85,0,0,1,.85-.94l2.1-.25c.16,0,.2-.09.25-.22.31-.75.61-1.5.94-2.25a.32.32,0,0,0-.05-.38c-.45-.55-.88-1.11-1.32-1.67a.83.83,0,0,1,.07-1.2l2.38-2.37a.82.82,0,0,1,1.2-.06l1.69,1.33a.27.27,0,0,0,.33,0c.76-.32,1.52-.64,2.28-.94.13-.06.2-.1.22-.26.07-.7.17-1.4.25-2.1a.85.85,0,0,1,.91-.85h3.33a.84.84,0,0,1,.92.84c.08.7.18,1.39.25,2.08a.32.32,0,0,0,.24.3c.75.29,1.49.6,2.23.92a.32.32,0,0,0,.38,0c.55-.45,1.12-.89,1.69-1.33a.81.81,0,0,1,1.17.07l2.38,2.38a.83.83,0,0,1,.08,1.2c-.44.56-.88,1.13-1.33,1.69a.27.27,0,0,0,0,.33c.33.76.64,1.54,1,2.3a.39.39,0,0,0,.23.19c.66.09,1.32.19,2,.24a1.08,1.08,0,0,1,1,.61v4a1.09,1.09,0,0,1-1,.62c-.65,0-1.3.15-2,.23a.29.29,0,0,0-.28.22c-.29.75-.6,1.51-.93,2.25a.33.33,0,0,0,0,.38c.45.55.88,1.11,1.32,1.67a.81.81,0,0,1-.07,1.19c-.79.8-1.58,1.59-2.38,2.38a.83.83,0,0,1-1.2.07c-.56-.44-1.12-.87-1.67-1.32a.31.31,0,0,0-.38,0c-.73.32-1.47.62-2.22.92-.15.06-.23.11-.25.29-.06.65-.18,1.29-.23,1.94A1.07,1.07,0,0,1,549.19,127.23Zm4.89-13.78a6.88,6.88,0,1,0-6.89,6.89A6.9,6.9,0,0,0,554.08,113.45Z"/><path class="ac2b4370-3108-4b3b-bf9c-733d73eb3cf0" d="M563.64,212.43h-2.9a.77.77,0,0,1-.44-.71c0-.48-.12-.95-.17-1.42a.2.2,0,0,0-.16-.2l-1.65-.68a.21.21,0,0,0-.26,0c-.4.33-.81.65-1.23,1a.59.59,0,0,1-.87,0l-1.72-1.72a.6.6,0,0,1,0-.89c.31-.41.63-.81.95-1.21a.23.23,0,0,0,0-.26c-.24-.55-.47-1.11-.69-1.66a.21.21,0,0,0-.19-.16l-1.53-.18a.61.61,0,0,1-.61-.67V201.2a.61.61,0,0,1,.61-.68l1.54-.18a.2.2,0,0,0,.18-.16c.22-.55.45-1.1.68-1.64a.24.24,0,0,0,0-.28c-.33-.4-.64-.81-1-1.22a.59.59,0,0,1,.05-.87c.58-.58,1.15-1.16,1.73-1.73a.61.61,0,0,1,.88-.05l1.23,1a.2.2,0,0,0,.24,0c.55-.24,1.1-.47,1.66-.69.1,0,.15-.07.16-.19,0-.51.12-1,.18-1.53a.61.61,0,0,1,.67-.61h2.43a.6.6,0,0,1,.66.61c.06.5.13,1,.18,1.51a.25.25,0,0,0,.18.22c.54.21,1.09.44,1.62.67a.23.23,0,0,0,.28,0l1.23-1a.59.59,0,0,1,.86.06c.58.57,1.15,1.15,1.73,1.73a.6.6,0,0,1,.06.87l-1,1.23a.2.2,0,0,0,0,.24l.71,1.68a.25.25,0,0,0,.16.14c.48.07,1,.14,1.44.17a.8.8,0,0,1,.72.45v2.9a.8.8,0,0,1-.72.45c-.47,0-.94.11-1.42.16a.21.21,0,0,0-.2.17c-.22.55-.44,1.09-.68,1.64a.21.21,0,0,0,0,.27l1,1.22a.6.6,0,0,1-.05.87l-1.74,1.73a.6.6,0,0,1-.87,0l-1.22-1a.23.23,0,0,0-.27,0l-1.62.67c-.11,0-.17.08-.18.21,0,.47-.13.94-.17,1.42A.76.76,0,0,1,563.64,212.43Zm3.57-10a5,5,0,1,0-5,5A5,5,0,0,0,567.21,202.4Z"/><path class="a0452320-1033-4582-bc26-b56cbc4f9baa" d="M334.38,365.34h-3.16a.85.85,0,0,1-.49-.78c0-.52-.12-1-.18-1.55,0-.12-.06-.17-.18-.21l-1.79-.74a.23.23,0,0,0-.28,0L327,363.14a.65.65,0,0,1-1-.06l-1.87-1.87a.66.66,0,0,1-.06-1c.35-.44.69-.89,1-1.32a.24.24,0,0,0,0-.29c-.26-.6-.51-1.2-.75-1.81a.21.21,0,0,0-.2-.16l-1.68-.2a.67.67,0,0,1-.66-.73V353.1a.67.67,0,0,1,.67-.74l1.68-.2c.12,0,.15-.07.2-.18.24-.6.48-1.19.74-1.78a.27.27,0,0,0,0-.31c-.36-.43-.7-.88-1.05-1.32a.65.65,0,0,1,.06-.95l1.89-1.89a.65.65,0,0,1,.95-.05c.45.35.9.7,1.34,1.06a.22.22,0,0,0,.27,0l1.81-.74a.25.25,0,0,0,.17-.21c.06-.56.13-1.11.2-1.67a.66.66,0,0,1,.72-.67h2.65a.67.67,0,0,1,.73.67c.06.55.14,1.1.19,1.65a.25.25,0,0,0,.2.23l1.76.73a.24.24,0,0,0,.31,0l1.34-1.05a.64.64,0,0,1,.93.06l1.89,1.88a.66.66,0,0,1,.06,1l-1,1.34a.2.2,0,0,0,0,.26c.26.61.5,1.22.76,1.83a.32.32,0,0,0,.19.15c.52.07,1,.15,1.56.19a.85.85,0,0,1,.78.49V356a.84.84,0,0,1-.78.48c-.51,0-1,.13-1.54.19a.22.22,0,0,0-.22.17c-.24.6-.49,1.2-.74,1.79a.23.23,0,0,0,0,.3l1,1.33a.65.65,0,0,1,0,.95l-1.89,1.88a.66.66,0,0,1-.95.06c-.45-.35-.89-.69-1.33-1.05a.24.24,0,0,0-.3,0c-.58.25-1.18.49-1.77.73-.11,0-.18.09-.19.23-.06.51-.15,1-.19,1.54A.84.84,0,0,1,334.38,365.34Zm3.88-10.93a5.47,5.47,0,1,0-5.47,5.46A5.47,5.47,0,0,0,338.26,354.41Z"/><path class="b0be48ec-2bbb-4cd2-8eb0-043741a808b0" d="M592.75,212.43h-4a1.1,1.1,0,0,1-.61-1c0-.65-.15-1.3-.23-1.95a.27.27,0,0,0-.22-.27q-1.14-.45-2.25-.93a.29.29,0,0,0-.36,0l-1.69,1.33a.82.82,0,0,1-1.2-.08l-2.36-2.35a.83.83,0,0,1-.07-1.22c.43-.56.87-1.12,1.31-1.67a.3.3,0,0,0,0-.36c-.33-.75-.64-1.51-.95-2.27-.05-.14-.11-.2-.25-.21l-2.11-.25a.85.85,0,0,1-.84-.92V197a.85.85,0,0,1,.85-.94l2.11-.25c.15,0,.2-.09.25-.22q.45-1.12.93-2.25a.32.32,0,0,0,0-.38c-.44-.55-.88-1.11-1.31-1.67a.82.82,0,0,1,.07-1.2l2.38-2.37a.81.81,0,0,1,1.19-.06L585.1,189a.29.29,0,0,0,.34,0c.75-.33,1.51-.64,2.27-.94.14-.06.2-.11.22-.26.07-.7.17-1.4.25-2.11a.84.84,0,0,1,.91-.84h3.34a.85.85,0,0,1,.92.84c.07.7.17,1.39.24,2.08a.33.33,0,0,0,.24.3c.75.29,1.49.6,2.23.92a.32.32,0,0,0,.38,0l1.69-1.33a.82.82,0,0,1,1.18.07l2.38,2.38a.83.83,0,0,1,.07,1.2c-.44.56-.88,1.13-1.33,1.69a.27.27,0,0,0,0,.33c.32.76.63,1.53,1,2.3a.34.34,0,0,0,.23.19c.65.09,1.31.19,2,.24a1.06,1.06,0,0,1,1,.61v4a1.08,1.08,0,0,1-1,.62c-.65,0-1.3.15-1.95.22a.3.3,0,0,0-.27.23q-.45,1.13-.93,2.25a.3.3,0,0,0,.05.38l1.31,1.66a.81.81,0,0,1-.07,1.2c-.79.8-1.58,1.59-2.38,2.37a.81.81,0,0,1-1.19.07c-.56-.43-1.12-.86-1.67-1.31a.32.32,0,0,0-.38,0c-.74.32-1.48.62-2.23.92-.14.06-.23.11-.24.29-.07.65-.18,1.29-.23,1.94A1.08,1.08,0,0,1,592.75,212.43Zm4.9-13.77a6.89,6.89,0,1,0-6.9,6.89A6.9,6.9,0,0,0,597.65,198.66Z"/><path class="b5533dac-d296-4c5b-840e-19bc6c666d73" d="M302.06,365.4H297.3a1.29,1.29,0,0,1-.73-1.18c-.05-.77-.19-1.55-.27-2.32a.35.35,0,0,0-.27-.33c-.91-.36-1.8-.73-2.7-1.11a.33.33,0,0,0-.42,0l-2,1.59a1,1,0,0,1-1.44-.09l-2.82-2.82a1,1,0,0,1-.08-1.46c.52-.67,1-1.34,1.57-2a.36.36,0,0,0,.05-.43c-.39-.9-.76-1.81-1.13-2.72a.31.31,0,0,0-.3-.25c-.84-.09-1.68-.21-2.52-.3a1,1,0,0,1-1-1.1v-4a1,1,0,0,1,1-1.12c.84-.09,1.68-.21,2.52-.3.18,0,.24-.1.3-.26.36-.9.73-1.8,1.11-2.69a.35.35,0,0,0-.06-.45c-.53-.66-1.05-1.33-1.57-2a1,1,0,0,1,.09-1.43c.94-1,1.89-1.9,2.84-2.84a1,1,0,0,1,1.43-.08c.68.53,1.36,1.06,2,1.59a.32.32,0,0,0,.4,0c.91-.38,1.81-.76,2.72-1.12.16-.07.24-.12.26-.31.09-.84.21-1.68.3-2.52a1,1,0,0,1,1.1-1h4a1,1,0,0,1,1.1,1c.09.83.21,1.66.29,2.49a.39.39,0,0,0,.29.35c.89.35,1.78.72,2.66,1.1a.38.38,0,0,0,.46-.05c.66-.54,1.34-1.06,2-1.59a1,1,0,0,1,1.4.09l2.85,2.84a1,1,0,0,1,.09,1.44l-1.59,2a.32.32,0,0,0-.06.39c.4.92.76,1.84,1.15,2.75a.49.49,0,0,0,.28.23c.78.11,1.57.23,2.36.29a1.27,1.27,0,0,1,1.17.73v4.76a1.27,1.27,0,0,1-1.17.73c-.78.06-1.55.19-2.33.27a.35.35,0,0,0-.33.27c-.35.9-.73,1.8-1.11,2.69a.38.38,0,0,0,.06.46c.53.65,1.05,1.32,1.57,2a1,1,0,0,1-.08,1.43L309.9,362a1,1,0,0,1-1.43.08c-.67-.52-1.34-1-2-1.57a.38.38,0,0,0-.46-.05c-.88.38-1.77.74-2.66,1.1-.17.07-.27.13-.29.34-.08.78-.22,1.55-.28,2.33A1.27,1.27,0,0,1,302.06,365.4Zm5.85-16.46a8.23,8.23,0,1,0-8.25,8.23A8.25,8.25,0,0,0,307.91,348.94Z"/><circle class="ef9df390-daf9-4f32-aab4-383252500716" cx="255.91" cy="315.3" r="5.7"/><circle class="eb760538-9fe9-413d-befc-8de4dad5ce00" cx="255.91" cy="315.3" r="5.7"/><circle class="bc688369-6b77-4462-8151-4a30349fb1c1" cx="304.01" cy="245.61" r="6.09"/><circle class="eb760538-9fe9-413d-befc-8de4dad5ce00" cx="304.01" cy="245.61" r="6.09"/><circle class="f010c8bf-f512-41dd-b468-76b3d096eb58" cx="489.94" cy="159.5" r="6.09"/><circle class="eb760538-9fe9-413d-befc-8de4dad5ce00" cx="489.94" cy="159.5" r="6.09"/><circle class="efa19458-2ae8-4de2-8bd3-e080dfc0a37b" cx="502.13" cy="260.06" r="6.09"/><circle class="eb760538-9fe9-413d-befc-8de4dad5ce00" cx="502.13" cy="260.06" r="6.09"/><circle class="a3364bcf-a47f-4426-8b21-a6de290cac25" cx="426.92" cy="411.86" r="6.09"/><circle class="eb760538-9fe9-413d-befc-8de4dad5ce00" cx="426.92" cy="411.86" r="6.09"/><path class="e5f13ad9-9cab-45b9-8b99-6b5da6655de0" d="M368.21,316a60.54,60.54,0,0,0-74.84,9.3l-21-12a84,84,0,0,1,64.24-29.79q2.2,0,4.38.12c.22.35.44.71.67,1A157.19,157.19,0,0,0,368.21,316Z"/><path class="f90f622d-cecb-43d3-b3b5-5607bfd165a2" d="M420.83,367.68a83.81,83.81,0,0,1-4.75,27.92l-21-12A60.65,60.65,0,0,0,381,326.47a157.15,157.15,0,0,0,36.9,20.16l.28.1A83.64,83.64,0,0,1,420.83,367.68Z"/><path class="ec1326c3-dbdf-42f0-a825-7abe9c549cf4" d="M426.92,418h0a16.78,16.78,0,0,1,16.78,16.78v16.78a0,0,0,0,1,0,0H426.92a16.78,16.78,0,0,1-16.78-16.78v0A16.78,16.78,0,0,1,426.92,418Z" transform="translate(853.84 869.47) rotate(180)"/><path class="ae85326b-433d-47ec-b8b6-f0e91a589421" d="M407.42,238.07h0a25.21,25.21,0,0,1,25.21,25.21v25.21a0,0,0,0,1,0,0H407.42a25.21,25.21,0,0,1-25.21-25.21v0A25.21,25.21,0,0,1,407.42,238.07Z" transform="translate(670.69 -144.15) rotate(90)"/><circle class="fd6be489-b6f8-4afd-9db8-6f1c24b03335" cx="407.42" cy="263.27" r="18"/><circle class="fd6be489-b6f8-4afd-9db8-6f1c24b03335" cx="426.92" cy="434.74" r="10.62"/><rect class="e4538340-e009-4b01-a2aa-5ef8824c3b7c" x="301.56" y="112.31" width="21.75" height="21.75" rx="1.77"/><rect class="e4538340-e009-4b01-a2aa-5ef8824c3b7c" x="227.34" y="112.31" width="70.9" height="4.18" rx="1.05"/><rect class="b7487f80-8739-4762-ac5b-a36df4ba438e" x="271.03" y="118.69" width="27.21" height="4.18" rx="1.05"/><rect class="b7487f80-8739-4762-ac5b-a36df4ba438e" x="240.58" y="124.65" width="57.66" height="4.18" rx="1.05"/><path class="b7487f80-8739-4762-ac5b-a36df4ba438e" d="M298.24,132.16h0a1,1,0,0,1-1.05,1H264.55a1,1,0,0,1-1.05-1h0a1,1,0,0,1,1.05-1h32.64A1,1,0,0,1,298.24,132.16Z"/><path class="b7487f80-8739-4762-ac5b-a36df4ba438e" d="M298.24,136.17h0a1,1,0,0,1-1.05,1.05H283.74a1,1,0,0,1-1.05-1.05h0a1,1,0,0,1,1.05-1h13.45A1,1,0,0,1,298.24,136.17Z"/><path class="b7487f80-8739-4762-ac5b-a36df4ba438e" d="M298.24,140.19h0a1,1,0,0,1-1.05,1h-29a1,1,0,0,1-1.05-1h0a1,1,0,0,1,1.05-1.05h29A1,1,0,0,1,298.24,140.19Z"/><path class="b7487f80-8739-4762-ac5b-a36df4ba438e" d="M298.24,144.21h0a1,1,0,0,1-1.05,1H273.76a1,1,0,0,1-1-1h0a1,1,0,0,1,1-1h23.43A1,1,0,0,1,298.24,144.21Z"/><circle class="a6756b3c-295a-4f4a-9f68-a424b4e770fd" cx="312.43" cy="123.18" r="7.07"/><path class="b7487f80-8739-4762-ac5b-a36df4ba438e" d="M593,66a28.8,28.8,0,1,1,15.28,25.41L601.6,94.8l1.85-6.63A28.71,28.71,0,0,1,593,66Z"/><circle class="a41791ec-a3d5-4fbb-844a-f8f6b8f2e9d4" cx="621.82" cy="66.02" r="14.28" transform="translate(457.73 669.42) rotate(-80.85)"/><path class="efa19458-2ae8-4de2-8bd3-e080dfc0a37b" d="M612.44,76.77a14.27,14.27,0,1,0,9.38-25V66Z"/><circle class="b7487f80-8739-4762-ac5b-a36df4ba438e" cx="554.19" cy="46.57" r="3.86" transform="translate(1.13 105.01) rotate(-10.83)"/><path class="b7487f80-8739-4762-ac5b-a36df4ba438e" d="M538.34,41.67a3.86,3.86,0,1,1,0,5.46A3.87,3.87,0,0,1,538.34,41.67Z"/><path class="b7487f80-8739-4762-ac5b-a36df4ba438e" d="M549.9,30.08a3.87,3.87,0,1,1-.23,5.7A4,4,0,0,1,549.9,30.08Z"/><path class="b7487f80-8739-4762-ac5b-a36df4ba438e" d="M553.09,34c.29-.05,1.08,2.79,1.76,6.36s1,6.51.7,6.56-1.07-2.79-1.75-6.36S552.8,34,553.09,34Z"/><path class="b7487f80-8739-4762-ac5b-a36df4ba438e" d="M541.46,45.16c0-.29,2.73-.19,6,.23s5.94,1,5.9,1.29-2.74.18-6-.23S541.42,45.45,541.46,45.16Z"/><polygon class="a14b4eae-bd19-4395-9d12-a90d04fa1ca8" points="407.42 275.72 396.76 269.36 396.76 257.23 407.42 263.59 407.42 275.72"/><polygon class="bb06045f-19c8-47ad-921a-bcab26d9070d" points="418.08 269.36 407.42 275.72 407.42 263.59 418.08 257.23 418.08 269.36"/><polygon class="bf77f1d4-e541-43b8-93cf-0f094919ca57" points="418.08 257.2 407.42 263.59 396.76 257.2 407.42 250.83 418.08 257.2"/><path class="fd6be489-b6f8-4afd-9db8-6f1c24b03335" d="M589.88,451.78c19.65,2.35,35.28,22,35.8,35h-71.6C554.08,468.28,568.15,449.18,589.88,451.78Z"/><path class="b1267366-5ff9-4567-8d94-86dce91d11e3" d="M589.88,451.78c19.65,2.35,35.28,22,35.8,35h-71.6C554.08,468.28,568.15,449.18,589.88,451.78Z"/><g class="b722ecd2-9a40-419d-9dee-df2938367271"><line class="b2fd2422-9d2e-4aee-8488-2a88e4f9730c" x1="585.5" y1="448.99" x2="588.11" y2="489.99"/><line class="b2fd2422-9d2e-4aee-8488-2a88e4f9730c" x1="586.8" y1="469.14" x2="600.11" y2="453.03"/><line class="b2fd2422-9d2e-4aee-8488-2a88e4f9730c" x1="578.6" y1="489.04" x2="561.48" y2="459.58"/><line class="b2fd2422-9d2e-4aee-8488-2a88e4f9730c" x1="574.49" y1="452.09" x2="572.15" y2="477.94"/><line class="b2fd2422-9d2e-4aee-8488-2a88e4f9730c" x1="572.97" y1="491.05" x2="555.02" y2="476.07"/><line class="b2fd2422-9d2e-4aee-8488-2a88e4f9730c" x1="561.69" y1="481.64" x2="553.94" y2="480.64"/><line class="b2fd2422-9d2e-4aee-8488-2a88e4f9730c" x1="586.43" y1="463.63" x2="577.71" y2="448.99"/><line class="b2fd2422-9d2e-4aee-8488-2a88e4f9730c" x1="609.69" y1="455.21" x2="589.38" y2="488.14"/><line class="b2fd2422-9d2e-4aee-8488-2a88e4f9730c" x1="617.66" y1="463.69" x2="596.19" y2="477.09"/><line class="b2fd2422-9d2e-4aee-8488-2a88e4f9730c" x1="621.93" y1="470.94" x2="601.48" y2="489.04"/><line class="b2fd2422-9d2e-4aee-8488-2a88e4f9730c" x1="625.68" y1="478.85" x2="610.41" y2="481.14"/></g><polygon class="fd6be489-b6f8-4afd-9db8-6f1c24b03335" points="613.45 243.01 609.37 242.45 606.85 245.69 608.4 249.5 612.48 250.06 615 246.82 613.45 243.01"/><path class="e4a9f4fa-22bf-4f57-9c2a-3b06d182390f" d="M568.34,241.52A5,5,0,0,1,571,241l27.35.63a.67.67,0,0,0,.69-.42,8.83,8.83,0,0,1,15.71.73c.08.17.14.35.25.62l-.63-.1-6.56-1.08a2.35,2.35,0,0,0-2.92,2.09c-.2,1.16-.39,2.33-.58,3.49a2.34,2.34,0,0,0,2.09,2.88l6.4,1.05a2.33,2.33,0,0,1,.78.27,20.54,20.54,0,0,1-1.72,1.52,8.76,8.76,0,0,1-13.2-3.58.64.64,0,0,0-.73-.43l-27.13.61a3.85,3.85,0,0,1-2.37-.5,2.89,2.89,0,0,1-1.39-2.29,17.9,17.9,0,0,1,0-2.74,6.67,6.67,0,0,1,.44-1.4Zm4.7,2.25a2,2,0,1,0,0,2.77A1.94,1.94,0,0,0,573,243.77Z"/><rect class="bd924807-c6fb-4cc5-97d3-ac93446e9e47" x="268.31" y="181.64" width="68.12" height="32.19" rx="4.05"/><rect class="e379d77a-cc4c-4dc9-b43b-ae51150298db" x="266.69" y="179.68" width="68.12" height="32.19" rx="4.05"/><path class="b32b8895-396a-4d4f-9026-653104d51bea" d="M275.11,197.58a6.08,6.08,0,1,1-4.27,1.78,6,6,0,0,1,4.27-1.78Zm3.53,2.53a5,5,0,1,0,1.46,3.52A4.94,4.94,0,0,0,278.64,200.11Z"/><path class="b32b8895-396a-4d4f-9026-653104d51bea" d="M275.11,200.11a3.53,3.53,0,0,1,2.5,6,3.53,3.53,0,0,1-5-5,3.55,3.55,0,0,1,2.49-1Zm1.75,1.78a2.47,2.47,0,1,0,.72,1.74A2.51,2.51,0,0,0,276.86,201.89Z"/><path class="b32b8895-396a-4d4f-9026-653104d51bea" d="M275.11,204.71a1.08,1.08,0,1,0-1.07-1.08A1.08,1.08,0,0,0,275.11,204.71Z"/><path class="b4cd6e2e-1bac-4508-93c6-aacda1188c9c" d="M272.26,183.05h57a.75.75,0,0,1,.75.75h0a.75.75,0,0,1-.75.75h-57a.76.76,0,0,1-.75-.75h0A.76.76,0,0,1,272.26,183.05Z"/><path class="b4cd6e2e-1bac-4508-93c6-aacda1188c9c" d="M272.26,187.63h57a.75.75,0,0,1,.75.75h0a.75.75,0,0,1-.75.75h-57a.76.76,0,0,1-.75-.75h0A.76.76,0,0,1,272.26,187.63Z"/><path class="b4cd6e2e-1bac-4508-93c6-aacda1188c9c" d="M272.26,192.22h57a.75.75,0,0,1,.75.75h0a.75.75,0,0,1-.75.75h-57a.76.76,0,0,1-.75-.75h0A.76.76,0,0,1,272.26,192.22Z"/><path class="b4cd6e2e-1bac-4508-93c6-aacda1188c9c" d="M285.17,196.8h44.07a.75.75,0,0,1,.75.75h0a.75.75,0,0,1-.75.75H285.17a.76.76,0,0,1-.75-.75h0A.76.76,0,0,1,285.17,196.8Z"/><path class="b4cd6e2e-1bac-4508-93c6-aacda1188c9c" d="M285.17,201.58h44.07a.74.74,0,0,1,.75.74h0a.74.74,0,0,1-.75.75H285.17a.75.75,0,0,1-.75-.75h0A.75.75,0,0,1,285.17,201.58Z"/><path class="b4cd6e2e-1bac-4508-93c6-aacda1188c9c" d="M285.17,206.35h44.07a.74.74,0,0,1,.75.75h0a.75.75,0,0,1-.75.75H285.17a.76.76,0,0,1-.75-.75h0A.75.75,0,0,1,285.17,206.35Z"/><path class="b15e6828-4fdd-47fc-bf8f-0056874c74a4" d="M254,200.2c2.46-2.52,9.88-6.07,12.6-7.13,1.61-.63,4.5-1.56,5-.93,1.17,1.63-3.8,3.63-4.77,4.5"/><path class="fd82b335-114f-4c10-a31a-0738092b53ae" d="M665.06,402.23c10.11-5.37,12.68,6.32,8.75,16s-24.11,42.25-25.16,55.17c-.41,5-1.34,4.46-2.14.94C642.52,456.84,651.14,409.63,665.06,402.23Z"/><path class="e5223bcd-1c8a-477a-a2de-fc85c990c2da" d="M643.65,357.87c-11.59-10.44-18.84,4.17-16.84,18.27s17.93,63.8,15.06,81.22c-1.11,6.76.31,6.34,2.52,2C655.43,437.49,659.61,372.24,643.65,357.87Z"/><path class="b32b8895-396a-4d4f-9026-653104d51bea" d="M641.63,462.2c.25.65.8.33,1.54-.75,12.08-40.25-6.74-100.39-6.8-100.59a.63.63,0,0,0-.79-.41.62.62,0,0,0-.41.78C635.23,361.43,654.31,422.39,641.63,462.2Z"/><path class="ad0db21f-361b-479c-bd8c-94894eb1834b" d="M618.33,391.31c-11.24-4.89-13,7.8-8,17.8s29.23,43.07,31.43,56.76c.86,5.31,1.81,4.64,2.37.83C646.92,447.69,633.79,398.05,618.33,391.31Z"/><path class="b32b8895-396a-4d4f-9026-653104d51bea" d="M642.79,469.53c.34.43.67.05,1-.94-1-33-30-73.1-30.1-73.23a.5.5,0,0,0-.69-.12.51.51,0,0,0-.12.69C612.94,396.06,642.32,436.72,642.79,469.53Z"/><polygon class="bdc93721-a6c6-45c2-b508-122cdbdd85bf" points="634.14 462.23 655.73 462.23 661.37 467.31 656.76 485.05 644.94 485.05 633.11 485.05 628.51 467.31 634.14 462.23"/><rect class="b0c43e83-a7ee-4346-b459-6dadb915636f" x="626.72" y="455.63" width="36.43" height="11.68" rx="1.79"/><polygon class="b1c487d8-c6f7-4213-b3b8-1712e5305620" points="661.37 467.31 660.42 470.96 629.46 470.96 628.51 467.31 661.37 467.31"/><rect class="bdc4054b-6886-4fa2-90fc-1a3378e5af08" x="387.77" y="31.25" width="28.33" height="28.33" transform="translate(15.81 165.93) rotate(-23.78)"/><rect class="b17b28a2-16d2-47e1-bf49-929939909884" x="414.61" y="24.15" width="6.88" height="28.33" transform="translate(20.05 171.83) rotate(-23.78)"/><polygon class="a6756b3c-295a-4f4a-9f68-a424b4e770fd" points="403.05 36.18 393.85 40.23 392.76 50.23 400.87 56.17 410.07 52.11 411.16 42.12 403.05 36.18"/><rect class="a2e503cb-3182-4e25-a76a-9e577edacb4d" x="358.36" y="64.82" width="17.45" height="17.45" transform="translate(39.15 254.16) rotate(-40.17)"/><rect class="ac4ca87f-c10e-48b1-96d3-59855446c716" x="373.26" y="57.83" width="4.24" height="17.45" transform="translate(45.62 257.85) rotate(-40.17)"/><polygon class="a6756b3c-295a-4f4a-9f68-a424b4e770fd" points="366.14 67.9 361.41 71.89 362.5 77.99 368.33 80.09 373.06 76.09 371.97 70 366.14 67.9"/><rect class="e1fb87e8-74a2-45a3-9e11-21d456e34ca2" x="343.09" y="95.38" width="8.41" height="8.41" transform="translate(52.73 308.78) rotate(-51.38)"/><rect class="b21386f1-0c0d-402f-8053-979b1c6c42a6" x="349.54" y="91.3" width="2.04" height="8.41" transform="translate(57.14 309.79) rotate(-51.38)"/><polygon class="a6756b3c-295a-4f4a-9f68-a424b4e770fd" points="346.32 97.01 344.46 99.34 345.55 102.12 348.5 102.56 350.36 100.23 349.27 97.45 346.32 97.01"/><rect class="b7487f80-8739-4762-ac5b-a36df4ba438e" x="422.2" y="430.01" width="9.45" height="9.45" rx="1.32"/><rect class="f657eac9-4d65-453b-a5a6-564c60ee1a41" x="458.63" y="295.84" width="12.65" height="12.65"/><rect class="f657eac9-4d65-453b-a5a6-564c60ee1a41" x="232.28" y="298.66" width="12.65" height="12.65"/><rect class="f657eac9-4d65-453b-a5a6-564c60ee1a41" x="478.81" y="288.47" width="20.02" height="20.02"/><rect class="f657eac9-4d65-453b-a5a6-564c60ee1a41" x="506.37" y="295.84" width="12.65" height="12.65"/><rect class="f657eac9-4d65-453b-a5a6-564c60ee1a41" x="528.8" y="295.84" width="12.65" height="12.65"/><path class="ad1b6a31-c841-4dee-b278-280889964d77" d="M410.25,155.32a14,14,0,1,1,25.25,8.22h0c-2,3-7.17,6.4-7.17,8.43v2.32a.85.85,0,0,1-.84.84h-6.55a.85.85,0,0,1-.84-.84V172c0-2-5.18-5.42-7.17-8.43h0A13.89,13.89,0,0,1,410.25,155.32Z"/><path class="b360136c-c767-4a58-99d7-fb93bb981c46" d="M425.8,174.9A90.06,90.06,0,0,1,426,164a15.63,15.63,0,0,1-3.53,0,90.06,90.06,0,0,1,.18,10.87l-.25,0a91,91,0,0,0-.19-10.88c-4.14-.58-6-2.92-6.33-5.14a3.11,3.11,0,0,1,1.05-3.06,2.11,2.11,0,0,1,1.7-.17,4.34,4.34,0,0,1,2.51,2.27,18,18,0,0,1,1.3,5.88,16.16,16.16,0,0,0,3.59,0,18,18,0,0,1,1.3-5.88,4.34,4.34,0,0,1,2.51-2.27,2.11,2.11,0,0,1,1.7.17,3.11,3.11,0,0,1,1.05,3.06c-.33,2.22-2.19,4.56-6.33,5.14a91,91,0,0,0-.19,10.88Zm4.71-19.13a2.06,2.06,0,0,0-.63.1,4.08,4.08,0,0,0-2.35,2.14,17.58,17.58,0,0,0-1.26,5.73c4-.57,5.74-2.8,6.06-4.91a2.92,2.92,0,0,0-.94-2.82A1.66,1.66,0,0,0,430.51,155.77Zm-12.59,0a1.66,1.66,0,0,0-.88.24,2.92,2.92,0,0,0-.94,2.82c.32,2.11,2.1,4.34,6.06,4.91A17.58,17.58,0,0,0,420.9,158a4.08,4.08,0,0,0-2.35-2.14A2.06,2.06,0,0,0,417.92,155.77Z"/><path class="ad1b6a31-c841-4dee-b278-280889964d77" d="M428.66,173h-8.89v4.23a3.67,3.67,0,0,0,.57,2h0a3.83,3.83,0,0,0,3.22,1.77h1.31a3.83,3.83,0,0,0,3.22-1.77h0a3.67,3.67,0,0,0,.57-2Z"/></svg>