<svg id="f652b22d-1732-49f7-a802-3b5c1b99fd81" data-name="Layer 1" xmlns="http://www.w3.org/2000/svg" viewBox="0 0 250 250"><defs><style>.fd2c01a9-a36f-403a-abd4-5e66dc120ec7{fill:#8b71d3;}.a58258c4-3a04-42b8-826a-11c9e787d0f0{fill:#e6e6e6;}.aa41db28-8c67-4c94-97bb-440915e4466f{fill:#a49dc1;}</style></defs><title>What_We_Do_Icons</title><path class="fd2c01a9-a36f-403a-abd4-5e66dc120ec7" d="M164,176.47H142.51a5.86,5.86,0,0,1-3.3-5.33c-.25-3.52-.84-7-1.23-10.53a1.56,1.56,0,0,0-1.23-1.48q-6.12-2.43-12.18-5a1.6,1.6,0,0,0-1.93.19c-3,2.43-6.08,4.81-9.14,7.19-2.25,1.75-4.45,1.62-6.48-.41q-6.39-6.36-12.75-12.74c-2.09-2.1-2.21-4.27-.4-6.59,2.35-3,4.7-6,7.1-9a1.6,1.6,0,0,0,.25-1.92q-2.64-6.12-5.1-12.31a1.47,1.47,0,0,0-1.39-1.14c-3.8-.41-7.6-.93-11.4-1.35-3-.34-4.51-2-4.52-5V93.12c0-3.08,1.55-4.74,4.58-5.08,3.8-.42,7.59-.94,11.39-1.35.84-.09,1.08-.48,1.36-1.18,1.63-4.08,3.29-8.15,5-12.18a1.67,1.67,0,0,0-.27-2c-2.4-3-4.75-6-7.1-9a4.44,4.44,0,0,1,.39-6.48q6.4-6.44,12.86-12.85c2-2,4.22-2.1,6.48-.34,3,2.39,6.11,4.77,9.13,7.2a1.51,1.51,0,0,0,1.81.18c4.08-1.76,8.18-3.45,12.31-5.1.71-.29,1.07-.55,1.16-1.37.41-3.81.93-7.6,1.36-11.4.33-3,2-4.55,4.94-4.55q9,0,18,0c3,0,4.63,1.57,5,4.53.42,3.75.94,7.5,1.34,11.25a1.68,1.68,0,0,0,1.3,1.59c4,1.59,8.05,3.26,12,5a1.69,1.69,0,0,0,2.06-.2c3-2.44,6.06-4.82,9.12-7.2a4.4,4.4,0,0,1,6.37.41q6.45,6.41,12.87,12.84c2,2,2.15,4.24.4,6.48-2.38,3.06-4.77,6.12-7.18,9.14a1.49,1.49,0,0,0-.25,1.8c1.77,4.13,3.43,8.3,5.2,12.43a2,2,0,0,0,1.24,1c3.55.51,7.1,1,10.67,1.31,2.45.18,4.24,1.09,5.32,3.31v21.52a5.79,5.79,0,0,1-5.32,3.31c-3.52.26-7,.85-10.52,1.24a1.55,1.55,0,0,0-1.5,1.21q-2.42,6.12-5,12.17a1.69,1.69,0,0,0,.26,2.05c2.4,3,4.76,6,7.11,9,1.77,2.27,1.65,4.46-.37,6.48q-6.41,6.44-12.86,12.83a4.46,4.46,0,0,1-6.48.37c-3-2.35-6-4.69-9-7.1a1.69,1.69,0,0,0-2-.24c-4,1.73-8,3.38-12,5-.79.31-1.24.59-1.34,1.55-.36,3.51-1,7-1.23,10.52C167.17,173.61,166.25,175.39,164,176.47ZM190.5,102a37.23,37.23,0,1,0-37.29,37.23A37.31,37.31,0,0,0,190.5,102Z"/><path class="a58258c4-3a04-42b8-826a-11c9e787d0f0" d="M114.66,224.33h-7.34a2,2,0,0,1-1.12-1.82c-.09-1.2-.29-2.39-.42-3.59a.54.54,0,0,0-.42-.51c-1.4-.55-2.78-1.12-4.16-1.71a.56.56,0,0,0-.66.06c-1,.83-2.07,1.64-3.11,2.45a1.51,1.51,0,0,1-2.21-.13l-4.35-4.35a1.53,1.53,0,0,1-.14-2.25c.81-1,1.61-2.06,2.42-3.08a.53.53,0,0,0,.09-.65q-.9-2.08-1.74-4.2a.5.5,0,0,0-.47-.39c-1.3-.14-2.59-.31-3.89-.46A1.55,1.55,0,0,1,85.6,202v-6.1a1.57,1.57,0,0,1,1.56-1.73c1.3-.14,2.59-.32,3.89-.46.28,0,.36-.16.46-.4.55-1.39,1.12-2.78,1.72-4.15a.58.58,0,0,0-.09-.7c-.82-1-1.63-2.05-2.43-3.08a1.51,1.51,0,0,1,.14-2.21l4.38-4.38a1.51,1.51,0,0,1,2.21-.12c1,.82,2.09,1.63,3.12,2.46a.51.51,0,0,0,.61.06q2.08-.9,4.2-1.74c.24-.1.37-.19.4-.47.14-1.29.31-2.59.46-3.88a1.55,1.55,0,0,1,1.68-1.56h6.15a1.56,1.56,0,0,1,1.69,1.55c.15,1.28.32,2.56.46,3.84a.57.57,0,0,0,.44.54c1.38.54,2.75,1.11,4.11,1.7a.57.57,0,0,0,.7-.07c1-.83,2.07-1.65,3.11-2.46a1.51,1.51,0,0,1,2.18.14l4.38,4.38a1.51,1.51,0,0,1,.14,2.21c-.81,1-1.62,2.09-2.45,3.12a.5.5,0,0,0-.08.61c.6,1.41,1.17,2.83,1.77,4.24a.69.69,0,0,0,.42.35c1.21.17,2.42.36,3.64.45a2,2,0,0,1,1.82,1.13v7.34a2,2,0,0,1-1.82,1.13c-1.2.08-2.39.28-3.59.42a.54.54,0,0,0-.51.41c-.54,1.39-1.12,2.78-1.71,4.15a.57.57,0,0,0,.09.7c.82,1,1.62,2,2.42,3.07a1.51,1.51,0,0,1-.12,2.21l-4.39,4.38a1.51,1.51,0,0,1-2.21.12c-1-.8-2.06-1.6-3.08-2.42a.57.57,0,0,0-.7-.08c-1.35.59-2.72,1.15-4.1,1.7-.27.11-.42.2-.46.53-.12,1.2-.33,2.39-.42,3.59A2,2,0,0,1,114.66,224.33Zm9-25.4A12.7,12.7,0,1,0,111,211.63,12.72,12.72,0,0,0,123.69,198.93Z"/><path class="aa41db28-8c67-4c94-97bb-440915e4466f" d="M55.71,180.35h-9a2.45,2.45,0,0,1-1.38-2.22c-.1-1.47-.35-2.94-.51-4.4a.66.66,0,0,0-.51-.63q-2.56-1-5.1-2.1a.65.65,0,0,0-.8.08c-1.27,1-2.54,2-3.82,3a1.84,1.84,0,0,1-2.71-.17q-2.67-2.66-5.33-5.32a1.87,1.87,0,0,1-.17-2.76q1.47-1.89,3-3.77a.66.66,0,0,0,.1-.81c-.73-1.7-1.44-3.42-2.13-5.14a.6.6,0,0,0-.58-.47c-1.59-.18-3.17-.39-4.76-.57A1.9,1.9,0,0,1,20.09,153v-7.48A1.91,1.91,0,0,1,22,143.39c1.59-.17,3.17-.39,4.76-.56.35,0,.45-.2.57-.5q1-2.55,2.11-5.09a.71.71,0,0,0-.11-.85c-1-1.25-2-2.51-3-3.77a1.85,1.85,0,0,1,.16-2.71q2.68-2.7,5.37-5.37a1.85,1.85,0,0,1,2.71-.14c1.28,1,2.56,2,3.82,3a.6.6,0,0,0,.75.08q2.56-1.1,5.15-2.13c.3-.12.45-.23.49-.58.17-1.59.38-3.17.56-4.76a1.9,1.9,0,0,1,2.07-1.9H55A1.9,1.9,0,0,1,57.05,120c.18,1.57.39,3.14.56,4.71a.69.69,0,0,0,.54.66c1.69.66,3.37,1.36,5,2.08a.71.71,0,0,0,.86-.08c1.26-1,2.54-2,3.82-3a1.83,1.83,0,0,1,2.66.17q2.7,2.67,5.38,5.37a1.86,1.86,0,0,1,.17,2.71c-1,1.27-2,2.55-3,3.82a.62.62,0,0,0-.1.75c.74,1.72,1.44,3.47,2.17,5.19a.82.82,0,0,0,.52.43c1.49.21,3,.44,4.46.55a2.45,2.45,0,0,1,2.23,1.38v9a2.43,2.43,0,0,1-2.23,1.38c-1.47.11-2.93.36-4.4.52a.65.65,0,0,0-.62.5q-1,2.56-2.1,5.09a.69.69,0,0,0,.11.86c1,1.24,2,2.5,3,3.77a1.84,1.84,0,0,1-.16,2.7c-1.78,1.8-3.58,3.58-5.37,5.36a1.86,1.86,0,0,1-2.71.16c-1.26-1-2.53-2-3.77-3a.71.71,0,0,0-.86-.11c-1.66.72-3.34,1.41-5,2.09-.33.13-.52.25-.56.64-.15,1.47-.4,2.93-.51,4.4A2.42,2.42,0,0,1,55.71,180.35Zm11.06-31.12a15.56,15.56,0,1,0-15.59,15.56A15.6,15.6,0,0,0,66.77,149.23Z"/></svg>