<svg id="bb344275-97d0-412c-9c17-87b3c43c1f53" data-name="Layer 1" xmlns="http://www.w3.org/2000/svg" xmlns:xlink="http://www.w3.org/1999/xlink" viewBox="0 0 500 580"><defs><style>.a954ab74-2e3d-45c8-92f8-0ddfc3f11884,.abce3314-6aad-470c-a5cf-eade148fc511{fill:#ffb62d;}.abce3314-6aad-470c-a5cf-eade148fc511{opacity:0.15;}.abce3314-6aad-470c-a5cf-eade148fc511,.b4eab390-a4fd-4697-8f67-7d9d70250eb8{isolation:isolate;}.a093a493-d637-4389-90a4-f124433b8d90,.a13523e8-83e5-4a24-84d5-457461e5444d,.a58b9bcf-a2f6-4740-9bc7-1c49ee7f3bb1,.ad7b0bb8-2216-4968-b2a2-fa57193b88f5,.b365bcd5-cddb-475b-9d4b-060afcfe0887,.b6d7542b-f8ef-47ef-bea9-8c017c3dfb6c,.b895107c-750b-46a7-abc1-3a3a0471cfb1,.e5f67139-5cc0-420f-92d7-30b453017f03,.fa343f01-da55-4733-b647-478c52ecb47e{fill:none;}.b6d7542b-f8ef-47ef-bea9-8c017c3dfb6c,.e5f67139-5cc0-420f-92d7-30b453017f03,.fa343f01-da55-4733-b647-478c52ecb47e{stroke:#d39531;}.a13523e8-83e5-4a24-84d5-457461e5444d,.b365bcd5-cddb-475b-9d4b-060afcfe0887,.e5f67139-5cc0-420f-92d7-30b453017f03{stroke-width:1.45px;}.a16dd64c-1ce0-482e-b1cc-e940f9a0c174,.bda8f1e2-44f6-4096-8cef-c645aed713c2{fill:#ead5b9;}.a16dd64c-1ce0-482e-b1cc-e940f9a0c174,.b9d7436e-50c7-4c39-9e05-cab16abfa126,.e8eead63-17c2-4a52-9e7b-8a38fe3d6985{fill-rule:evenodd;}.e8eead63-17c2-4a52-9e7b-8a38fe3d6985,.f9382f4e-c06d-43a0-8a23-49c9bf1c5d21{fill:#d39531;}.a093a493-d637-4389-90a4-f124433b8d90,.a58b9bcf-a2f6-4740-9bc7-1c49ee7f3bb1,.b365bcd5-cddb-475b-9d4b-060afcfe0887{stroke:#ead5b9;}.a093a493-d637-4389-90a4-f124433b8d90{stroke-width:1.43px;}.ae42fdfe-41d2-48d8-aba3-81b995852b46{fill:#efc184;}.aee2d147-1694-4e3c-9d94-bbe750884078{fill:#e5a53e;}.b4eab390-a4fd-4697-8f67-7d9d70250eb8,.f31995b9-3486-46f2-b4e9-4028e17d4c46{fill:#fff;}.b4eab390-a4fd-4697-8f67-7d9d70250eb8{opacity:0.49;}.b0355f37-c24e-457a-921b-8774aa34bc9a{fill:#fff4e0;}.e8bb5c0e-cad7-4531-8dea-6b627e3b826e{fill:#f5ecdf;}.b6d7542b-f8ef-47ef-bea9-8c017c3dfb6c{stroke-width:0.73px;}.a13523e8-83e5-4a24-84d5-457461e5444d{stroke:#fff;}.f2fa7d73-686b-43b6-acfe-707f2add331b{fill:#e57373;}.b9d7436e-50c7-4c39-9e05-cab16abfa126{fill:#f5e7d5;}.a5504032-f6c2-44f2-a1b0-03141177af62{fill:#f1a935;}.bba17ea2-99eb-4d13-b1d8-0991cdd76482{fill:#e09f35;}.a4b0c1d8-319c-4ad7-80c5-460ad4c9a6c8{fill:#ffcb69;}.b895107c-750b-46a7-abc1-3a3a0471cfb1{stroke:#5c6e87;stroke-width:1.33px;}.ad7b0bb8-2216-4968-b2a2-fa57193b88f5,.b895107c-750b-46a7-abc1-3a3a0471cfb1,.fa343f01-da55-4733-b647-478c52ecb47e{stroke-miterlimit:10;}.a58b9bcf-a2f6-4740-9bc7-1c49ee7f3bb1{stroke-width:1.88px;}.ade71ee9-a2bf-412b-91df-3e3db4763d3f{opacity:0.5;}.a117a07d-8a29-4195-85f6-04ce924b83bc{fill:url(#bbd93709-2759-490a-b172-52cbd430fd5a);}.ad7b0bb8-2216-4968-b2a2-fa57193b88f5{stroke:#ffb62d;}.ad7b0bb8-2216-4968-b2a2-fa57193b88f5,.fa343f01-da55-4733-b647-478c52ecb47e{stroke-width:0.56px;}.fa343f01-da55-4733-b647-478c52ecb47e{stroke-dasharray:2.23 2.23;}</style><linearGradient id="bbd93709-2759-490a-b172-52cbd430fd5a" x1="452.22" y1="234.11" x2="452.22" y2="163.14" gradientUnits="userSpaceOnUse"><stop offset="0" stop-color="#fff" stop-opacity="0"/><stop offset="1" stop-color="#fff"/></linearGradient></defs><title>Use-Case, Insight Cards</title><g id="a4ca995a-2abf-474c-87b2-a1241ad14ddb" data-name="Usecases"><path id="f6dcb2f7-97f5-44c5-a4e0-47590ebab824" data-name="Path" class="abce3314-6aad-470c-a5cf-eade148fc511" d="M480,575.68H20A12.48,12.48,0,0,1,7.48,563.2V16.8A12.48,12.48,0,0,1,20,4.32H480A12.48,12.48,0,0,1,492.52,16.8V563.2A12.39,12.39,0,0,1,480,575.68Z"/><g id="bf7fa54e-689c-4b44-945f-6bdcaef319de" data-name="Group-7"><circle id="ff26f3e3-3ed5-4cc4-a033-8e30f77d3220" data-name="Oval" class="e5f67139-5cc0-420f-92d7-30b453017f03" cx="278.1" cy="325.39" r="5.08"/><rect id="f75adf55-891a-4186-b0aa-1f90b2578004" data-name="Rectangle" class="bda8f1e2-44f6-4096-8cef-c645aed713c2" x="307.12" y="323.94" width="47.88" height="59.49"/><circle id="ba42d283-e7a1-4522-ae24-8825055cfc28" data-name="Oval" class="e5f67139-5cc0-420f-92d7-30b453017f03" cx="315.82" cy="337" r="2.18"/><circle id="e3153210-edb8-4aa4-b1ec-819f666947ae" data-name="Oval-Copy-12" class="e5f67139-5cc0-420f-92d7-30b453017f03" cx="315.82" cy="354.41" r="2.18"/><circle id="e77d396f-f6d4-4e45-9c45-09f4380c7426" data-name="Oval-Copy-13" class="e5f67139-5cc0-420f-92d7-30b453017f03" cx="315.82" cy="371.82" r="2.18"/><path id="abf876ed-c5ab-433e-9747-b8c09c554f7e" data-name="Path-5" class="e5f67139-5cc0-420f-92d7-30b453017f03" d="M307.12,334.1h-2.91a7.26,7.26,0,0,0-7.25,7.25v25.39a7.26,7.26,0,0,0,7.25,7.26h2.91"/><polyline id="abba84c7-650f-4ddd-b244-36cc2bf37ae9" data-name="Path-6" class="e5f67139-5cc0-420f-92d7-30b453017f03" points="296.96 354.41 278.1 354.41 278.1 329.75"/><path id="b5d51508-2482-4606-989f-72c139670334" data-name="Path-7" class="e5f67139-5cc0-420f-92d7-30b453017f03" d="M318,337h29.74"/><path id="fbf710a6-bf1e-4bed-8e3b-2122372a625a" data-name="Path-7-Copy" class="e5f67139-5cc0-420f-92d7-30b453017f03" d="M318,354.41h29.74"/><path id="a5f44838-f4dd-473b-9ad3-e2b09b43d2e4" data-name="Path-7-Copy-2" class="e5f67139-5cc0-420f-92d7-30b453017f03" d="M318,371.82h29.74"/></g><g id="f2e3b9d1-fbc1-45bf-89b0-577039f360e5" data-name="Group-9"><g id="e27891e0-26c4-43b0-a1db-b26446f66e15" data-name="Group-7-Copy"><circle id="a8e06995-276b-48a5-a5ff-3fd12d75b5d1" data-name="Oval" class="e5f67139-5cc0-420f-92d7-30b453017f03" cx="439.15" cy="325.39" r="5.08"/><rect id="fa00fd44-da23-47f9-8c2e-b1df5cc1c711" data-name="Rectangle" class="bda8f1e2-44f6-4096-8cef-c645aed713c2" x="362.25" y="323.94" width="47.88" height="59.49"/><circle id="e676785f-fb29-4977-a605-9112b6c53ae0" data-name="Oval" class="e5f67139-5cc0-420f-92d7-30b453017f03" cx="401.42" cy="337" r="2.18"/><circle id="b10de252-2792-4aab-89ca-1a95699bfb19" data-name="Oval-Copy-12" class="e5f67139-5cc0-420f-92d7-30b453017f03" cx="401.42" cy="354.41" r="2.18"/><circle id="b17069cf-9fea-4a6a-bdec-83b8c80372ae" data-name="Oval-Copy-13" class="e5f67139-5cc0-420f-92d7-30b453017f03" cx="401.42" cy="371.82" r="2.18"/><path id="a4e69e62-e066-4739-a8e1-2ef9efe4ed30" data-name="Path-5" class="e5f67139-5cc0-420f-92d7-30b453017f03" d="M410.13,334.1H413a7.26,7.26,0,0,1,7.26,7.25v25.39A7.26,7.26,0,0,1,413,374h-2.9"/><polyline id="fc44263a-b6a8-482e-a902-cf3116c55e75" data-name="Path-6-Copy-2" class="e5f67139-5cc0-420f-92d7-30b453017f03" points="420.29 354.41 439.15 354.41 439.15 329.75"/><path id="bde773f4-f0f5-43b9-9004-3270ae444f1d" data-name="Path-7" class="e5f67139-5cc0-420f-92d7-30b453017f03" d="M399.25,337H369.5"/><path id="b767f997-b7de-4adf-8e7b-184794c11d6d" data-name="Path-7-Copy" class="e5f67139-5cc0-420f-92d7-30b453017f03" d="M399.25,354.41H369.5"/><path id="addd8a1d-87ce-46ef-9a55-bb8a7969d729" data-name="Path-7-Copy-2" class="e5f67139-5cc0-420f-92d7-30b453017f03" d="M399.25,371.82H369.5"/></g><circle id="b47721ee-9ecf-4361-8fed-48cf7c67a24a" data-name="Oval-Copy-14" class="e5f67139-5cc0-420f-92d7-30b453017f03" cx="439.15" cy="383.43" r="5.08"/><polyline id="bd1f0b0a-dd2b-400b-b57a-8de1921876b7" data-name="Path-6-Copy-3" class="e5f67139-5cc0-420f-92d7-30b453017f03" points="420.29 354.41 439.15 354.41 439.15 378.35"/></g><circle id="b885281a-2f9c-4eef-9831-555ba6c5864e" data-name="Oval-Copy-11" class="e5f67139-5cc0-420f-92d7-30b453017f03" cx="278.1" cy="383.43" r="5.08"/><rect id="abfebde6-626d-4c4e-9841-23c98e983e27" data-name="Rectangle" class="bda8f1e2-44f6-4096-8cef-c645aed713c2" x="188.14" y="128.07" width="20.31" height="27.57"/><rect id="e2727a23-7449-4e95-9aa1-db937358eddc" data-name="Rectangle-Copy-42" class="bda8f1e2-44f6-4096-8cef-c645aed713c2" x="209.91" y="122.27" width="10.16" height="14.51"/><rect id="acf3e650-d4dc-43ac-beae-0dd28053140d" data-name="Rectangle-Copy-43" class="bda8f1e2-44f6-4096-8cef-c645aed713c2" x="198.3" y="112.11" width="7.25" height="8.71"/><rect id="e65bb773-e4d4-42bb-95e2-6679fde9c812" data-name="Rectangle" class="a954ab74-2e3d-45c8-92f8-0ddfc3f11884" x="72.07" y="133.87" width="127.68" height="72.54"/><polygon id="f79f1067-0c1e-4f9e-887c-c6bb5a269859" data-name="Rectangle-Copy-26" class="a16dd64c-1ce0-482e-b1cc-e940f9a0c174" points="74.97 136.78 196.85 136.78 196.85 203.52 74.97 203.52 74.97 136.78"/><rect id="e6eef0a8-f774-4fb9-bc78-40c0941f88bc" data-name="Rectangle" class="f9382f4e-c06d-43a0-8a23-49c9bf1c5d21" x="170.73" y="144.03" width="8.71" height="1.45"/><rect id="a8bf182a-be34-4f66-b5ea-4a2b6a4842cb" data-name="Rectangle-Copy-34" class="f9382f4e-c06d-43a0-8a23-49c9bf1c5d21" x="166.38" y="155.64" width="13.06" height="1.45"/><rect id="af5b4589-bb03-4820-a708-efcd82c268fc" data-name="Rectangle-Copy-33" class="f9382f4e-c06d-43a0-8a23-49c9bf1c5d21" x="166.38" y="146.93" width="13.06" height="1.45"/><rect id="a9f0d964-69f7-4b55-8e14-65115bbd8c3d" data-name="Rectangle-Copy-35" class="f9382f4e-c06d-43a0-8a23-49c9bf1c5d21" x="163.48" y="158.54" width="15.96" height="1.45"/><rect id="bd63363d-e9f1-4c3d-a614-0b8dbc927dad" data-name="Rectangle-Copy-37" class="f9382f4e-c06d-43a0-8a23-49c9bf1c5d21" x="172.18" y="167.24" width="7.25" height="1.45"/><rect id="a65983d4-48a4-4f10-b6a0-06368bb60442" data-name="Rectangle-Copy-36" class="f9382f4e-c06d-43a0-8a23-49c9bf1c5d21" x="160.58" y="170.15" width="18.86" height="1.45"/><rect id="bf4f28ea-01e3-4582-835d-49a8f0c835cd" data-name="Rectangle-Copy-39" class="f9382f4e-c06d-43a0-8a23-49c9bf1c5d21" x="167.83" y="178.85" width="11.61" height="1.45"/><rect id="bca17a5c-3005-421c-a49a-d4e6d96e8805" data-name="Rectangle-Copy-38" class="f9382f4e-c06d-43a0-8a23-49c9bf1c5d21" x="163.48" y="181.75" width="15.96" height="1.45"/><rect id="b0b5b2a6-f6a2-4743-9069-652c4b2cd792" data-name="Rectangle-Copy-41" class="f9382f4e-c06d-43a0-8a23-49c9bf1c5d21" x="162.03" y="190.46" width="17.41" height="1.45"/><rect id="bd7f3116-41a7-4cef-adb3-6c94c7464c60" data-name="Rectangle-Copy-40" class="f9382f4e-c06d-43a0-8a23-49c9bf1c5d21" x="170.73" y="193.36" width="8.71" height="1.45"/><g id="bc6949bb-32a6-4fc1-8058-a48dd08748ed" data-name="Group"><g id="bae34bbb-2f6c-4161-8172-f16b8cf8f17e" data-name="Path"><polygon class="a954ab74-2e3d-45c8-92f8-0ddfc3f11884" points="407.44 262.04 407.2 272.15 465.42 237.31 407.93 243.04 408.17 249.98 430.95 248.76 407.44 262.04"/><polygon class="f9382f4e-c06d-43a0-8a23-49c9bf1c5d21" points="408.17 249.98 418.52 255.71 430.95 248.76 408.17 249.98"/></g><polygon id="f75d321c-3740-46f1-87f8-231023598306" data-name="Path" class="f9382f4e-c06d-43a0-8a23-49c9bf1c5d21" points="424.62 261.68 428.76 263.5 465.42 237.31 424.62 261.68"/></g><polyline id="e173b0d4-a6ea-4d42-a690-92da25a4197a" data-name="Path" class="a093a493-d637-4389-90a4-f124433b8d90" points="363.7 412.45 363.7 420.28 378.64 420.28 322.79 420.28 337.15 420.28 337.15 438.56 382.56 438.56 301.31 438.56"/><path id="a8c8774a-0781-467c-ae2d-0a3436b81dcc" data-name="Shape" class="bda8f1e2-44f6-4096-8cef-c645aed713c2" d="M64.09,290.28a3.69,3.69,0,0,1,.87-2.47,3.11,3.11,0,0,1,2.61-1,3.15,3.15,0,0,1,2.62,1,3.94,3.94,0,0,1,0,4.94,3.64,3.64,0,0,1-2.62,1,3.11,3.11,0,0,1-2.61-1A3.42,3.42,0,0,1,64.09,290.28Zm6.1-10.3H64.82l-.44-34h6.39Z"/><rect id="a0ab14de-2bce-4a0d-a143-abc352d49f09" data-name="Rectangle-Copy-46" class="ae42fdfe-41d2-48d8-aba3-81b995852b46" x="220.04" y="475.04" width="13.1" height="15.08"/><rect id="ae8baee5-effc-41f5-a078-bdb55ec12ec3" data-name="Rectangle-Copy-46" class="bda8f1e2-44f6-4096-8cef-c645aed713c2" x="192.98" y="456.87" width="18.82" height="20.12"/><rect id="b3457566-d9d1-4a3b-8a58-9642a5b50b92" data-name="Rectangle-Copy-47" class="aee2d147-1694-4e3c-9d94-bbe750884078" x="240.44" y="492.39" width="7.25" height="8.71"/><circle id="a00307eb-5636-4762-a1b1-482c995e7deb" data-name="Oval" class="b4eab390-a4fd-4697-8f67-7d9d70250eb8" cx="453.66" cy="31.73" r="10.3"/><circle id="bf6de65a-0f41-472f-947e-bf7603e955a8" data-name="Oval" class="b4eab390-a4fd-4697-8f67-7d9d70250eb8" cx="415.79" cy="31.73" r="10.3"/><circle id="b3244048-4197-43f2-b298-64549306ac48" data-name="Oval" class="b4eab390-a4fd-4697-8f67-7d9d70250eb8" cx="378.07" cy="31.73" r="10.3"/><g id="e6283696-b0b8-48fa-b9fb-3c175e7beb32" data-name="Group-4"><rect id="eeb0e761-c8a7-4d5b-99ef-2f73efe686af" data-name="Rectangle" class="f9382f4e-c06d-43a0-8a23-49c9bf1c5d21" x="86.58" y="267.36" width="5.8" height="18.86"/><rect id="bd669ff2-6899-41d7-9e06-dc76ace9b975" data-name="Rectangle-Copy-10" class="f9382f4e-c06d-43a0-8a23-49c9bf1c5d21" x="86.58" y="289.12" width="5.8" height="4.35"/><rect id="af7ebb2a-b28f-48c0-91b8-baa1e9b76a41" data-name="Rectangle-Copy-11" class="f9382f4e-c06d-43a0-8a23-49c9bf1c5d21" x="101.09" y="289.12" width="5.8" height="4.35"/><rect id="a5952d6d-4b02-47c5-80ce-8bcae29a7933" data-name="Rectangle-Copy-12" class="f9382f4e-c06d-43a0-8a23-49c9bf1c5d21" x="117.05" y="289.12" width="5.8" height="4.35"/><rect id="b451ae3f-bf8e-4030-834c-0fbb512bd9b6" data-name="Rectangle-Copy-13" class="f9382f4e-c06d-43a0-8a23-49c9bf1c5d21" x="131.56" y="289.12" width="5.8" height="4.35"/><rect id="e6c97904-076c-4dc1-aea2-8a54b44f3867" data-name="Rectangle-Copy-14" class="f9382f4e-c06d-43a0-8a23-49c9bf1c5d21" x="146.07" y="289.12" width="5.8" height="4.35"/><rect id="a4f9ea89-90b0-401d-95f9-20ee38180561" data-name="Rectangle-Copy-15" class="f9382f4e-c06d-43a0-8a23-49c9bf1c5d21" x="160.58" y="289.12" width="5.8" height="4.35"/><rect id="e83d841e-b323-408a-b5c9-9764478e9064" data-name="Rectangle-Copy-16" class="f9382f4e-c06d-43a0-8a23-49c9bf1c5d21" x="175.08" y="289.12" width="5.8" height="4.35"/><rect id="bb2af113-0802-4557-996e-955868323607" data-name="Rectangle-Copy-17" class="f9382f4e-c06d-43a0-8a23-49c9bf1c5d21" x="189.59" y="289.12" width="5.8" height="4.35"/><rect id="b77bf920-4626-4d1f-8b34-4e8c843d4e9f" data-name="Rectangle-Copy-18" class="f9382f4e-c06d-43a0-8a23-49c9bf1c5d21" x="205.55" y="289.12" width="5.8" height="4.35"/><rect id="b4609aaf-1c0d-4cfe-a63d-6a1a4045dd46" data-name="Rectangle-Copy-19" class="f9382f4e-c06d-43a0-8a23-49c9bf1c5d21" x="220.06" y="289.12" width="5.8" height="4.35"/><rect id="baa7e5bd-73de-4a2b-9a2d-0399145eca44" data-name="Rectangle-Copy-5" class="f9382f4e-c06d-43a0-8a23-49c9bf1c5d21" x="160.58" y="267.36" width="5.8" height="18.86"/><rect id="b312adbc-a5f2-4b46-84e7-93409134f96f" data-name="Rectangle-Copy" class="a954ab74-2e3d-45c8-92f8-0ddfc3f11884" x="101.09" y="252.85" width="5.8" height="33.37"/><rect id="ba92168c-3560-4095-bb6c-0b12822ef588" data-name="Rectangle-Copy-2" class="bda8f1e2-44f6-4096-8cef-c645aed713c2" x="117.05" y="232.54" width="5.8" height="53.68"/><rect id="ba034e05-63a1-4743-8184-cd960b8aad85" data-name="Rectangle-Copy-6" class="bda8f1e2-44f6-4096-8cef-c645aed713c2" x="175.08" y="232.54" width="5.8" height="53.68"/><rect id="a8d19a74-2eed-4f78-b091-7bcf69f98800" data-name="Rectangle-Copy-7" class="f9382f4e-c06d-43a0-8a23-49c9bf1c5d21" x="189.59" y="247.04" width="5.8" height="39.17"/><rect id="be0076fc-75e2-49d1-9f6e-a53e3a93994d" data-name="Rectangle-Copy-8" class="f9382f4e-c06d-43a0-8a23-49c9bf1c5d21" x="205.55" y="261.55" width="5.8" height="24.67"/><rect id="bc041fc2-ae9f-477f-93b1-c173b9bf3e96" data-name="Rectangle-Copy-9" class="bda8f1e2-44f6-4096-8cef-c645aed713c2" x="220.06" y="252.85" width="5.8" height="33.37"/><rect id="ea766b2f-5065-48ee-bfb9-d82a9eb80721" data-name="Rectangle-Copy-3" class="a954ab74-2e3d-45c8-92f8-0ddfc3f11884" x="131.56" y="252.85" width="5.8" height="33.37"/><rect id="a2b26ab2-460c-47ee-b377-3a1013d0421a" data-name="Rectangle-Copy-4" class="f9382f4e-c06d-43a0-8a23-49c9bf1c5d21" x="146.07" y="267.36" width="5.8" height="18.86"/></g><g id="fc9566cd-98b4-47d7-b695-10187429fc23" data-name="Group-5"><polygon id="af587fcb-2625-4ed9-ace8-b44563b8c113" data-name="Path" class="a954ab74-2e3d-45c8-92f8-0ddfc3f11884" points="348.32 235.44 312.92 235.44 312.92 206.42 328.15 206.42 332.22 211.79 348.32 211.79 348.32 235.44"/><polygon id="a723fcf5-2202-406c-8350-09fd5fc90a09" data-name="Path" class="bda8f1e2-44f6-4096-8cef-c645aed713c2" points="317.85 292.46 282.45 292.46 282.45 263.44 297.83 263.44 301.75 268.81 317.85 268.81 317.85 292.46"/><polygon id="b9b5f2e9-23f1-44b4-b866-9696287d40b8" data-name="Path-Copy-2" class="bda8f1e2-44f6-4096-8cef-c645aed713c2" points="339.04 292.46 374.44 292.46 374.44 263.44 359.06 263.44 355.14 268.81 339.04 268.81 339.04 292.46"/><polyline id="ae4b953e-b320-467b-b1ec-e345e2390ee2" data-name="Path-3" class="e5f67139-5cc0-420f-92d7-30b453017f03" points="329.61 235.15 329.61 251.83 291.88 251.83 291.88 263.44"/><polyline id="e34b3b29-cfc3-4f90-862b-580f2c144139" data-name="Path-3-Copy" class="e5f67139-5cc0-420f-92d7-30b453017f03" points="330.33 235.15 330.33 251.83 368.05 251.83 368.05 263.44"/><circle id="a170c27e-6d8f-4fe9-b6ec-7ad661a212e3" data-name="Oval" class="f9382f4e-c06d-43a0-8a23-49c9bf1c5d21" cx="330.33" cy="250.38" r="4.35"/><circle id="af2141b3-a1c3-44a2-9df1-afae78840d0b" data-name="Oval-Copy-3" class="f9382f4e-c06d-43a0-8a23-49c9bf1c5d21" cx="368.05" cy="250.38" r="4.35"/><circle id="ed94db2c-348c-4e75-b3cd-cda588e5955d" data-name="Oval-Copy-4" class="f9382f4e-c06d-43a0-8a23-49c9bf1c5d21" cx="292.61" cy="250.38" r="4.35"/><circle id="e0051022-d2b4-4ff6-af5e-6ac92e1ada6c" data-name="Oval-Copy-8" class="b0355f37-c24e-457a-921b-8774aa34bc9a" cx="292.61" cy="250.38" r="2.9"/><circle id="bbb1f8bf-9b7b-4c3f-a593-699f4165d82e" data-name="Oval-Copy-9" class="b0355f37-c24e-457a-921b-8774aa34bc9a" cx="330.33" cy="250.38" r="2.9"/><circle id="b41a75b0-dc48-46f8-8f12-9e346686a50c" data-name="Oval-Copy-10" class="b0355f37-c24e-457a-921b-8774aa34bc9a" cx="368.05" cy="250.38" r="2.9"/></g><rect id="a1776e20-bb1c-4c59-80f4-f62ab3eba3c7" data-name="Rectangle" class="f9382f4e-c06d-43a0-8a23-49c9bf1c5d21" x="96.74" y="157.09" width="7.25" height="40.63"/><rect id="b3e9e925-0e36-4302-8444-5f9ba94e91fb" data-name="Rectangle-Copy-27" class="e8bb5c0e-cad7-4531-8dea-6b627e3b826e" x="109.79" y="167.24" width="7.25" height="30.47"/><rect id="b2ae8035-4d60-4a4f-abd3-fcca66d47229" data-name="Rectangle-Copy-28" class="f9382f4e-c06d-43a0-8a23-49c9bf1c5d21" x="122.85" y="175.95" width="7.25" height="21.76"/><rect id="a6db0290-a2c2-44bd-a673-42007e1b1e5f" data-name="Rectangle" class="e8bb5c0e-cad7-4531-8dea-6b627e3b826e" x="183.79" y="142.58" width="7.25" height="7.25"/><rect id="bc33b062-c02c-41c1-ae4c-2a2afbee3efc" data-name="Rectangle-Copy-29" class="e8bb5c0e-cad7-4531-8dea-6b627e3b826e" x="183.79" y="154.19" width="7.25" height="7.25"/><rect id="aa861554-9b02-4675-8498-0800ad0c62b2" data-name="Rectangle-Copy-30" class="e8bb5c0e-cad7-4531-8dea-6b627e3b826e" x="183.79" y="165.79" width="7.25" height="7.25"/><rect id="e8ee3cf7-b9ad-4a03-8b28-38044dde67ae" data-name="Rectangle-Copy-31" class="e8bb5c0e-cad7-4531-8dea-6b627e3b826e" x="183.79" y="177.4" width="7.25" height="7.25"/><rect id="ac4dbdb6-c878-476b-b4e9-b4585f360c71" data-name="Rectangle-Copy-32" class="e8bb5c0e-cad7-4531-8dea-6b627e3b826e" x="183.79" y="189.01" width="7.25" height="7.25"/><polyline id="edd95e1e-7a95-4244-9b2f-1ce3dd7f49ed" data-name="Path-4" class="b6d7542b-f8ef-47ef-bea9-8c017c3dfb6c" points="129.38 173.05 117.05 157.81 111.25 162.89 96.74 147.66"/><circle id="e3264ebf-b3ec-40db-aa13-138ba431343b" data-name="Oval" class="a954ab74-2e3d-45c8-92f8-0ddfc3f11884" cx="117.77" cy="159.26" r="2.18"/><circle id="a43af471-c089-44eb-ab6b-bc5cdc31aaa1" data-name="Oval-Copy-5" class="a954ab74-2e3d-45c8-92f8-0ddfc3f11884" cx="110.52" cy="162.17" r="2.18"/><circle id="a6e68acd-2fd4-43e7-ac33-b8c5b9f1e5fc" data-name="Oval-Copy-6" class="a954ab74-2e3d-45c8-92f8-0ddfc3f11884" cx="97.46" cy="147.66" r="2.18"/><circle id="b9e3a473-2262-4a2e-bb61-4a36a8a81848" data-name="Oval-Copy-7" class="a954ab74-2e3d-45c8-92f8-0ddfc3f11884" cx="127.93" cy="172.32" r="2.18"/><path id="bb6249a5-10c1-4d9f-bbe6-847364737294" data-name="Path" class="a954ab74-2e3d-45c8-92f8-0ddfc3f11884" d="M251.11,56.69h-39a4.83,4.83,0,0,0-4.79,4.78V98.91a4.84,4.84,0,0,0,4.79,4.79h39a4.84,4.84,0,0,0,4.79-4.79V61.47A4.83,4.83,0,0,0,251.11,56.69Z"/><g id="f5d801f5-c558-43ce-86a5-9f9fea73b469" data-name="Group"><path id="ba19f539-6294-45c6-8b26-729ac4f04051" data-name="Path" class="a954ab74-2e3d-45c8-92f8-0ddfc3f11884" d="M314.52,56.69h-39a4.83,4.83,0,0,0-4.79,4.78V98.91a4.84,4.84,0,0,0,4.79,4.79h39a4.83,4.83,0,0,0,4.78-4.79V61.47A4.64,4.64,0,0,0,314.52,56.69Z"/></g><g id="ae3787f2-fb96-44a1-98dd-503189f6dec7" data-name="Group-Copy-2"><path id="a5c1225e-f172-4d71-ac5b-76e187592bed" data-name="Path" class="a954ab74-2e3d-45c8-92f8-0ddfc3f11884" d="M378.36,56.69h-39a4.82,4.82,0,0,0-4.79,4.78V98.91a4.83,4.83,0,0,0,4.79,4.79h39a4.83,4.83,0,0,0,4.78-4.79V61.47A4.64,4.64,0,0,0,378.36,56.69Z"/></g><g id="f33c0a3a-0ca9-4025-8774-68028a8dbbca" data-name="Group-3"><path id="eb1dd60c-592b-4b39-a0ac-58497c27649e" data-name="Combined-Shape" class="a13523e8-83e5-4a24-84d5-457461e5444d" d="M246.89,82.37H230.94v-16a15.24,15.24,0,1,0,15.95,16Z"/><path id="a7eb354a-9bee-4b10-96cf-9d5070c4e743" data-name="Rectangle-Copy-20" class="a13523e8-83e5-4a24-84d5-457461e5444d" d="M236.75,65V76.56h11.58A12.33,12.33,0,0,0,236.75,65Z"/></g><g id="affe3608-ddca-4ba3-abfe-7e896c09e11e" data-name="idea-(1)"><path id="bf2067ec-349d-42e0-a1d8-8e91f866ffcb" data-name="Path" class="a13523e8-83e5-4a24-84d5-457461e5444d" d="M299.7,90.35a9.43,9.43,0,0,1,3-4.35,11.13,11.13,0,0,0,4.38-8.77c0-6.52-5.81-11.87-13-11.53-6.34.25-11.53,5.26-11.71,11.19A11.17,11.17,0,0,0,286.83,86,9,9,0,0,1,290,90.35Z"/><path id="af16dd82-d563-4a68-b881-0543a7c44675" data-name="Path" class="e8bb5c0e-cad7-4531-8dea-6b627e3b826e" d="M294.4,90.35h.72l-3.21-11.72h.24a1.62,1.62,0,0,0,1.13-.48.8.8,0,0,1,1.12,0,1.39,1.39,0,0,0,2.09,0,.75.75,0,0,1,.56-.23.9.9,0,0,1,.56.23,1.47,1.47,0,0,0,1.13.48H299l-3.13,11.72h.72l3.29-12.27c0-.16,0-.32-.16-.4a.35.35,0,0,0-.4.08.69.69,0,0,1-.48.24,1.06,1.06,0,0,1-.64-.24,1.47,1.47,0,0,0-1.05-.47,1.43,1.43,0,0,0-1,.47.79.79,0,0,1-1.13,0,1.31,1.31,0,0,0-1-.47h0a1.35,1.35,0,0,0-1.05.47.91.91,0,0,1-.64.24.57.57,0,0,1-.48-.24.35.35,0,0,0-.4-.08.29.29,0,0,0-.16.4Z"/><g id="a287af59-fbe0-4d87-9944-66a38ca0e9a4" data-name="Group"><path id="af34f1e6-6a7d-4ae1-a438-baf5d23ac07d" data-name="Path" class="f31995b9-3486-46f2-b4e9-4028e17d4c46" d="M299.81,94.74h-9.17a.86.86,0,0,1-.93-.74h0a.86.86,0,0,1,.93-.75h9.17a.86.86,0,0,1,.93.75h0A.86.86,0,0,1,299.81,94.74Z"/><path id="bd4b7194-aa8d-4560-8262-eda3ceef01e6" data-name="Path" class="f31995b9-3486-46f2-b4e9-4028e17d4c46" d="M299.81,98.57h-9.17a.86.86,0,0,1-.93-.74h0a.86.86,0,0,1,.93-.75h9.17a.86.86,0,0,1,.93.75h0A.86.86,0,0,1,299.81,98.57Z"/></g><g id="b9d5113e-db59-4fa5-aa8c-bef8d0ba3d1e" data-name="Group"><path id="ac98aae1-4707-428b-a1d7-c65cdbc1c4c4" data-name="Path" class="f31995b9-3486-46f2-b4e9-4028e17d4c46" d="M294.78,59.88a.85.85,0,0,0-.86.83v2.81a.84.84,0,0,0,.86.83.8.8,0,0,0,.87-.83V60.71A.85.85,0,0,0,294.78,59.88Z"/><path id="bbe792c3-38b9-4a2d-9b45-8748daa92c6f" data-name="Path" class="f31995b9-3486-46f2-b4e9-4028e17d4c46" d="M283.16,64.93a.88.88,0,0,0-1.22,0,.79.79,0,0,0,0,1.16l2.09,2a.86.86,0,0,0,1.21,0,.77.77,0,0,0,0-1.16Z"/><path id="f4f1015d-9be0-45d8-bf5e-dd4637276824" data-name="Path" class="f31995b9-3486-46f2-b4e9-4028e17d4c46" d="M280.47,76.37h-3a.86.86,0,0,0-.87.83h0a.86.86,0,0,0,.87.83h3a.86.86,0,0,0,.87-.83h0A.91.91,0,0,0,280.47,76.37Z"/><path id="f8003ef1-e861-4f30-8dc5-b1271aff198e" data-name="Path" class="f31995b9-3486-46f2-b4e9-4028e17d4c46" d="M284,86.31l-2.09,2a.79.79,0,0,0,0,1.16.88.88,0,0,0,1.22,0l2.08-2a.77.77,0,0,0,0-1.16A.86.86,0,0,0,284,86.31Z"/><path id="fdeb9915-7732-4a56-aa67-c1651631282a" data-name="Path" class="f31995b9-3486-46f2-b4e9-4028e17d4c46" d="M305.54,86.31a.86.86,0,0,0-1.21,0,.77.77,0,0,0,0,1.16l2.08,2a.86.86,0,0,0,1.21,0,.77.77,0,0,0,0-1.16Z"/><path id="a15f87b9-1a80-4802-8a81-91e0300b5f16" data-name="Path" class="f31995b9-3486-46f2-b4e9-4028e17d4c46" d="M312.05,76.37H309.1a.85.85,0,0,0-.87.83h0a.86.86,0,0,0,.87.83h2.95a.85.85,0,0,0,.86-.83h0A.84.84,0,0,0,312.05,76.37Z"/><path id="a1feceeb-6b45-44dc-b779-6b7d7487b304" data-name="Path" class="f31995b9-3486-46f2-b4e9-4028e17d4c46" d="M306.41,64.93l-2.08,2a.77.77,0,0,0,0,1.16.86.86,0,0,0,1.21,0l2.08-2a.77.77,0,0,0,0-1.16A.86.86,0,0,0,306.41,64.93Z"/></g></g><rect id="a69c63dd-17e3-4ecd-b43d-b75b3ded0784" data-name="Rectangle" class="a13523e8-83e5-4a24-84d5-457461e5444d" x="344.11" y="66.41" width="7.25" height="33.37"/><rect id="a6ccef03-0179-423f-87ee-501a36d94688" data-name="Rectangle-Copy-44" class="a13523e8-83e5-4a24-84d5-457461e5444d" x="355.72" y="80.92" width="7.25" height="18.86"/><rect id="aedc8fc5-a85d-4722-bfdf-d4999fb4bad2" data-name="Rectangle-Copy-45" class="a13523e8-83e5-4a24-84d5-457461e5444d" x="367.33" y="75.11" width="7.25" height="24.67"/><g id="e5dbe281-0e2b-4c6e-9630-920ffe79c265" data-name="Group"><path id="efd123f6-e150-4649-a9cf-8c521ceac1f6" data-name="Path" class="a954ab74-2e3d-45c8-92f8-0ddfc3f11884" d="M309.58,156.07v.29H241.1a5.53,5.53,0,0,1,5.51-6h57.6A5.72,5.72,0,0,1,309.58,156.07Z"/><polygon id="f1f49979-0e01-4386-a88d-d2473fcd0f17" data-name="Path" class="f9382f4e-c06d-43a0-8a23-49c9bf1c5d21" points="295.65 159.7 296.24 165.5 241.83 165.5 241.25 159.7 295.65 159.7"/><polygon id="a19c6c35-34bf-410a-82e7-567110dd6981" data-name="Path" class="bda8f1e2-44f6-4096-8cef-c645aed713c2" points="305.23 169.71 305.81 175.66 242.7 175.66 242.12 169.71 305.23 169.71"/><path id="e3045fd8-92aa-4551-b946-957333c52e6c" data-name="Path" class="bda8f1e2-44f6-4096-8cef-c645aed713c2" d="M273.75,179.14v.58a5.49,5.49,0,0,1-5.52,5.37H248.36a5.53,5.53,0,0,1-5.52-5.08v-.87Z"/></g><g id="a76c65fb-5776-43bc-b8bb-6c6f24e2245e" data-name="Group-6"><path id="e9c1ceda-f6e2-441a-aa95-7604a6315c06" data-name="Path" class="bda8f1e2-44f6-4096-8cef-c645aed713c2" d="M397.38,155.49v.29H328.9a5.53,5.53,0,0,1,5.52-5.95H392A5.51,5.51,0,0,1,397.38,155.49Z"/><polygon id="fd0d8a94-ec66-4c4c-ac44-25b432e8d2a3" data-name="Path" class="bda8f1e2-44f6-4096-8cef-c645aed713c2" points="383.6 159.12 384.18 164.92 329.63 164.92 329.19 159.12 383.6 159.12"/><polygon id="f627b90a-dbf9-4ca5-8978-0050f204aec8" data-name="Path" class="a954ab74-2e3d-45c8-92f8-0ddfc3f11884" points="393.18 169.13 393.61 175.08 330.5 175.08 330.06 169.13 393.18 169.13"/><path id="a8c9641e-a10b-4f09-a0d6-173b56e52fdd" data-name="Path" class="bda8f1e2-44f6-4096-8cef-c645aed713c2" d="M361.69,178.56v.58a5.48,5.48,0,0,1-5.51,5.37H336.3a5.53,5.53,0,0,1-5.51-5.08v-.87Z"/></g><polyline id="ef7a1a66-b4ea-4cd8-9936-612871615415" data-name="Path-6-Copy" class="e5f67139-5cc0-420f-92d7-30b453017f03" points="296.96 354.41 278.1 354.41 278.1 378.35"/><g id="f23f6ff1-e04e-4120-b129-7cead391c8a0" data-name="Group"><g id="e40c60d6-9b07-444b-82de-e5dde85793c9" data-name="Path"><path class="f2fa7d73-686b-43b6-acfe-707f2add331b" d="M68.16,425.92s5.84,9.85,1.65,13.26"/><path class="f9382f4e-c06d-43a0-8a23-49c9bf1c5d21" d="M61.63,467.76c-.19,0-.87,1.36-1,1.56-.68,1.07-1.27,2.14-1.95,3.21-1.56,2.64-2,6.15-2.53,9.07-.29,1.86-.59,3.61-.88,5.46-.1.69-.19,1.37-.29,2-.19,1-.29,2-.49,2.92-.09.59-.09.68.3,1.07a5.58,5.58,0,0,0,.77.88,3,3,0,0,0,3.7.68,36.07,36.07,0,0,0,5.85-3.6,34.53,34.53,0,0,0,5-4.2s4.48,2.44,2.73,20.68c-2.14,22.91-4.29,36.18-4.29,36.18h7.11s10.13-24.29,11.78-41.74C89.38,481.6,86,471.27,86,471.27Z"/><path class="f9382f4e-c06d-43a0-8a23-49c9bf1c5d21" d="M54.91,489.8s-.48,3.7-6.23,21.45c-7.3,22.43-16.84,33.35-16.84,33.35l6.81,2.54s18.31-19.8,26.1-36c9-18.82,9.34-30,9.34-30"/><path class="f9382f4e-c06d-43a0-8a23-49c9bf1c5d21" d="M70.1,542.65l.49,5.36c.88,0,10.22-.19,10.42-.78s-7.21-1.75-7.21-1.75a22.79,22.79,0,0,0,0-2.63C73.71,542.55,70.1,542.65,70.1,542.65Z"/><path class="f9382f4e-c06d-43a0-8a23-49c9bf1c5d21" d="M33.59,544.5l-1.75,4.29c.68.39,7.88,3.81,8.18,3.42s-4.68-4.1-4.68-4.1a12.17,12.17,0,0,0,1-2C36.31,545.87,33.59,544.5,33.59,544.5Z"/><path class="a954ab74-2e3d-45c8-92f8-0ddfc3f11884" d="M58,473.7s9.25-23.89,9.44-42.61c.1-13.75,27.85-11,28.83-4.88,2.14,13.66-7.89,58.42-7.89,58.42Z"/><path class="a954ab74-2e3d-45c8-92f8-0ddfc3f11884" d="M86.75,421.53l4.29-.39c11.1-.49,12,2.83,16.16,6.73l3.6,7s-10.8,1.76-16.35,2.25S84,421.92,86.75,421.53Z"/><path class="a954ab74-2e3d-45c8-92f8-0ddfc3f11884" d="M50.82,432.45s1,12,2,12.68,17.72-3.22,19.09-4.68,3.21-17.75,2.33-17.36S52.19,431.77,50.82,432.45Z"/><path class="bda8f1e2-44f6-4096-8cef-c645aed713c2" d="M81.79,409s-.1-3.31-1.66-2.92-2.63,3.51-1.75,4.68S81.79,411.68,81.79,409Z"/><path class="bda8f1e2-44f6-4096-8cef-c645aed713c2" d="M91.82,405.15s3.11,9.07-2.34,10.53-4.48-4.29-4.19-3.12,1.56,10,1.56,10-2.73,3.52-8,.49c-.78-.49,2.24-14.53,2.82-21.65C82.08,398.42,89.87,401.54,91.82,405.15Z"/><path class="f9382f4e-c06d-43a0-8a23-49c9bf1c5d21" d="M82.37,398.71s1.27-4.19,3.8-3.22,2.24,2.44,4.09,1.66,3.8,2.15,2.82,4.1c-1.26,2.44-1.26,3.22-4.87,2.44s-5.45-2.05-6.33-.59.59,5.17-.48,5.56-1-2.44-1.75-1.37-2.05,3.81.09,3.51.59,2.54-.29,2.44-4.58-3.12-4.19-7.31c.3-2.63,3-1.27,2.24-3.12C76.92,400.76,78.57,396.76,82.37,398.71Z"/></g><path id="e5ad8c37-71c6-4bb1-9f98-0c33981698b3" data-name="Shape" class="bda8f1e2-44f6-4096-8cef-c645aed713c2" d="M104.86,412.56A20.55,20.55,0,1,1,84.32,392h0A20.57,20.57,0,0,1,104.86,412.56ZM250.14,375H49.75v76.55H250.14V375Z"/><path id="f63d62cf-821b-4372-8a56-6983b12b95bd" data-name="Path" class="bda8f1e2-44f6-4096-8cef-c645aed713c2" d="M66.27,451.44l.74,1a1.24,1.24,0,0,0,.84.43l1.9.17a1.3,1.3,0,0,0,.84-.26l1.48-1.37H70.49a.8.8,0,0,0,0-.68s-.21-.26-.32-.17-.42.43-.42.43.21-.6,0-.77-.21,0-.42,0-.42.68-.42.68v-.68a.38.38,0,0,0-.43,0,12,12,0,0,0-1.16,1Z"/><path id="b8a55741-1fbb-4260-a7b4-3508a9140ff6" data-name="Path" class="bda8f1e2-44f6-4096-8cef-c645aed713c2" d="M96.74,451.75l.87,1a1.11,1.11,0,0,0,.88.35h2a1.48,1.48,0,0,0,.88-.26l1.2-1.15H101v-.88s-.22-.27-.44-.18a1,1,0,0,0-.44.44s.22-.62,0-.79-.22,0-.44,0-.33.7-.33.7v-.7a.38.38,0,0,0-.43,0,6.56,6.56,0,0,0-1.21,1.14Z"/></g><path id="ff95a918-4faa-4500-8e12-ad64b593774f" data-name="Combined-Shape-Copy" class="b9d7436e-50c7-4c39-9e05-cab16abfa126" d="M95.52,326.84h21.76V366H86.81V335.55Z"/><path id="b94a4906-de29-4c15-9c37-26ed92947093" data-name="Combined-Shape" class="a16dd64c-1ce0-482e-b1cc-e940f9a0c174" d="M88.26,319.59h20.32v39.17h-29V328.29Z"/><g id="fc6dac93-e8c0-4213-9750-d90b9789687b" data-name="Group-8"><path id="f1e968d4-2637-46dd-bba1-95997bd60ab1" data-name="Combined-Shape" class="e8eead63-17c2-4a52-9e7b-8a38fe3d6985" d="M77.79,313.79H98.42V353h-29V322.27Z"/><polygon id="ba368b0b-1c67-482e-9c54-b6ffd51a850f" data-name="Path-8-Copy" class="a16dd64c-1ce0-482e-b1cc-e940f9a0c174" points="77.69 313.79 69.4 322.49 77.69 322.49 77.69 313.79"/></g><g id="aae54f0a-7490-4197-9478-71af3ba22041" data-name="Group-2"><rect id="b61df243-0e5f-4f03-962a-1861d643ef06" data-name="Rectangle" class="bda8f1e2-44f6-4096-8cef-c645aed713c2" x="195.4" y="338.45" width="36.27" height="26.12"/><rect id="acf48580-a2dc-4764-b750-ae62e26c6dd6" data-name="Rectangle-Copy-21" class="f9382f4e-c06d-43a0-8a23-49c9bf1c5d21" x="198.3" y="334.1" width="29.02" height="4.35"/><rect id="f14e2e48-b585-42ce-b9df-0b13db351d5b" data-name="Rectangle-Copy-23" class="f9382f4e-c06d-43a0-8a23-49c9bf1c5d21" x="192.5" y="312.33" width="40.63" height="4.35"/><rect id="e9c2754b-edbe-4f18-a6ea-9d573c80cc43" data-name="Rectangle-Copy-22" class="a954ab74-2e3d-45c8-92f8-0ddfc3f11884" x="204.1" y="329.75" width="18.86" height="4.35"/><rect id="a62f4ea2-a5b2-45ac-b878-d76e1dba385d" data-name="Rectangle-Copy-24" class="e5f67139-5cc0-420f-92d7-30b453017f03" x="207.73" y="344.98" width="11.61" height="2.9"/></g><g id="a29ef4c5-583b-464a-832b-22461874d7e0" data-name="Group"><path id="f7296f48-168c-4c8e-8bc9-704482cb2176" data-name="Path" class="a5504032-f6c2-44f2-a1b0-03141177af62" d="M412.47,562.82c.22-1,1.14-71.73,0-84.92C412.05,473.15,410.7,571.26,412.47,562.82Z"/><path id="bd8703bf-2c94-45f8-8788-633b39eb0d56" data-name="Path" class="a954ab74-2e3d-45c8-92f8-0ddfc3f11884" d="M411,562.82c.22-1,1.14-71.73,0-84.92C410.6,473.15,409.25,571.26,411,562.82Z"/><path id="a3b59dc3-4ea0-4727-92e9-812b33ac42b2" data-name="Path" class="bba17ea2-99eb-4d13-b1d8-0991cdd76482" d="M431.93,467.61c10.52-6.81,5.54-23.37-4.7-29.22s-5.17-8.08-4.7-21.43c.75-22.59-12.4-23.37-12.4-23.37s-12.4-.78-12.4,23.37c0,13.35,5.45,15.59-4.7,21.43s-15.22,22.41-4.7,29.22c12.69,8.19-14.19,12.28-9.58,35.17,3.1,15.58,19.45,15.29,31.38,15.58,11.93-.29,28.28,0,31.38-15.58C446.12,479.79,419.24,475.7,431.93,467.61Z"/><path id="ec9e6d9a-89a2-4d07-a393-8b0ef450f372" data-name="Path" class="a4b0c1d8-319c-4ad7-80c5-460ad4c9a6c8" d="M411,513.51c.22-1,1.14-71.75,0-84.94C410.6,423.82,409.25,521.84,411,513.51Z"/><path id="e670dca1-26e4-4f38-bde1-a5eec511580a" data-name="Path" class="a4b0c1d8-319c-4ad7-80c5-460ad4c9a6c8" d="M397.11,444.74s12,17.49,14,17,14.74-16.56,13.48-17.4c-.48-.28-13.67,15.62-13.67,15.62S396.24,441.56,397.11,444.74Z"/><path id="ab987114-2fad-4d87-a120-8234206ef1cf" data-name="Path" class="a4b0c1d8-319c-4ad7-80c5-460ad4c9a6c8" d="M397.11,463.61s12,17.49,14,17,14.74-16.56,13.48-17.4c-.48-.28-13.67,15.62-13.67,15.62S396.24,460.52,397.11,463.61Z"/><path id="e2fbecaa-d91c-4849-b249-2533b950479d" data-name="Path" class="a4b0c1d8-319c-4ad7-80c5-460ad4c9a6c8" d="M397.11,482.47s12,17.49,14,17,14.74-16.56,13.48-17.4c-.48-.28-13.67,15.62-13.67,15.62S396.24,479.29,397.11,482.47Z"/></g><g id="a1be300a-a658-44c6-ac00-8262fe3b7b80" data-name="Group"><path id="ae2b734a-28a8-48fe-8392-6ee6e9b7812a" data-name="Path" class="a5504032-f6c2-44f2-a1b0-03141177af62" d="M457.45,562.82c.22-1,1.14-71.73,0-84.92C457,473.15,455.67,571.26,457.45,562.82Z"/><path id="fab618e8-8ed2-449a-be49-0a79f1f47a82" data-name="Path" class="a954ab74-2e3d-45c8-92f8-0ddfc3f11884" d="M456,562.82c.22-1,1.14-71.73,0-84.92C455.57,473.15,454.22,571.26,456,562.82Z"/><path id="b2ee4167-d432-4b93-b8a3-3968025d6f4b" data-name="Path" class="a5504032-f6c2-44f2-a1b0-03141177af62" d="M479.35,467.61c11-6.81,5.79-23.37-4.91-29.22S469,430.31,469.52,417c.79-22.59-13-23.37-13-23.37s-13-.78-13,23.37c0,13.35,5.7,15.59-4.91,21.43s-15.91,22.41-4.91,29.22c13.26,8.19-14.83,12.28-10,35.17,3.24,15.58,20.33,15.29,32.81,15.58,12.47-.29,29.57,0,32.81-15.58C494.18,479.79,466.09,475.7,479.35,467.61Z"/><path id="b995a119-0e17-43ec-9adc-25f1e15e3a2f" data-name="Path" class="a4b0c1d8-319c-4ad7-80c5-460ad4c9a6c8" d="M456,513.51c.22-1,1.14-71.75,0-84.94C455.57,423.82,454.22,521.84,456,513.51Z"/><path id="b7b8f66e-9276-4b22-a7ac-64eab410eb62" data-name="Path" class="a4b0c1d8-319c-4ad7-80c5-460ad4c9a6c8" d="M442.09,444.74s12,17.49,14,17,14.74-16.56,13.48-17.4C469,444.09,455.86,460,455.86,460S441.21,441.56,442.09,444.74Z"/><path id="fcccfe9c-b88a-4c25-98e6-0d2e4fc4226d" data-name="Path" class="a4b0c1d8-319c-4ad7-80c5-460ad4c9a6c8" d="M440.64,463.61s12,17.49,14,17,14.74-16.56,13.48-17.4c-.49-.28-13.67,15.62-13.67,15.62S439.76,460.52,440.64,463.61Z"/><path id="f77eb92c-4965-454e-a97a-c12a55eaa60c" data-name="Path" class="a4b0c1d8-319c-4ad7-80c5-460ad4c9a6c8" d="M442.09,482.47s12,17.49,14,17,14.74-16.56,13.48-17.4c-.49-.28-13.67,15.62-13.67,15.62S441.21,479.29,442.09,482.47Z"/></g><g id="a945b31c-8222-41f2-927b-de45846a1a7e" data-name="Group-10"><ellipse id="bf2899cc-3d33-4d34-9dea-f44059b297b3" data-name="Oval" class="b365bcd5-cddb-475b-9d4b-060afcfe0887" cx="140.26" cy="504.58" rx="29.74" ry="10.16"/><ellipse id="bef11b8d-6b4f-4110-8cbd-f99387a307d3" data-name="Oval-Copy" class="b365bcd5-cddb-475b-9d4b-060afcfe0887" cx="140.26" cy="519.09" rx="29.74" ry="10.16"/><ellipse id="a16cb87b-08b5-481c-b897-04314be7f6d2" data-name="Oval-Copy-2" class="b365bcd5-cddb-475b-9d4b-060afcfe0887" cx="140.26" cy="532.14" rx="29.74" ry="10.16"/><circle id="a8fe2f55-344d-4af9-92b6-d915d0de4079" data-name="Oval" class="f9382f4e-c06d-43a0-8a23-49c9bf1c5d21" cx="119.23" cy="511.83" r="2.18"/><circle id="ecf44d01-da8a-46f1-b0fb-18b5b9092c48" data-name="Oval-Copy-15" class="f9382f4e-c06d-43a0-8a23-49c9bf1c5d21" cx="159.85" cy="511.83" r="2.18"/><circle id="f11c281c-3001-4764-8c01-c80ba58dc1e6" data-name="Oval-Copy-17" class="f9382f4e-c06d-43a0-8a23-49c9bf1c5d21" cx="140.99" cy="529.24" r="2.18"/><circle id="b98318a8-330c-4c55-bf10-4567cf9a3523" data-name="Oval-Copy-18" class="f9382f4e-c06d-43a0-8a23-49c9bf1c5d21" cx="116.32" cy="537.95" r="2.18"/><circle id="be9e9554-e8f2-4e25-b718-8d85b8d6492a" data-name="Oval-Copy-19" class="f9382f4e-c06d-43a0-8a23-49c9bf1c5d21" cx="162.75" cy="537.95" r="2.18"/><circle id="ae1db0f3-8d06-4eba-b806-f95efec7b1a9" data-name="Oval-Copy-16" class="f9382f4e-c06d-43a0-8a23-49c9bf1c5d21" cx="170.01" cy="503.13" r="2.18"/></g><rect class="f9382f4e-c06d-43a0-8a23-49c9bf1c5d21" x="64.38" y="206.42" width="143.35" height="3.77" rx="1.89"/></g><polygon class="a5504032-f6c2-44f2-a1b0-03141177af62" points="159.26 361.55 159.26 364.57 135.2 364.57 135.2 395.61 132.18 395.61 132.18 361.55 159.26 361.55"/><polygon class="a5504032-f6c2-44f2-a1b0-03141177af62" points="164.11 366.07 164.11 369.09 140.05 369.09 140.05 400.14 137 400.14 137 366.07 164.11 366.07"/><rect class="a954ab74-2e3d-45c8-92f8-0ddfc3f11884" x="142.01" y="370.68" width="27.08" height="34.07"/><rect class="a954ab74-2e3d-45c8-92f8-0ddfc3f11884" x="144.77" y="419.93" width="18.97" height="18.97"/><rect class="f9382f4e-c06d-43a0-8a23-49c9bf1c5d21" x="163.74" y="419.93" width="5.35" height="18.97"/><rect class="a954ab74-2e3d-45c8-92f8-0ddfc3f11884" x="187.87" y="419.93" width="18.97" height="18.97"/><rect class="f9382f4e-c06d-43a0-8a23-49c9bf1c5d21" x="206.84" y="419.93" width="5.35" height="18.97"/><rect class="a954ab74-2e3d-45c8-92f8-0ddfc3f11884" x="187.87" y="385.78" width="18.97" height="18.97"/><rect class="f9382f4e-c06d-43a0-8a23-49c9bf1c5d21" x="206.84" y="385.78" width="5.35" height="18.97"/><line class="b895107c-750b-46a7-abc1-3a3a0471cfb1" x1="169.09" y1="395.26" x2="187.87" y2="395.26"/><polyline class="b895107c-750b-46a7-abc1-3a3a0471cfb1" points="178.48 395.26 178.48 429.42 169.09 429.42"/><line class="b895107c-750b-46a7-abc1-3a3a0471cfb1" x1="178.48" y1="429.42" x2="187.87" y2="429.42"/><path class="a954ab74-2e3d-45c8-92f8-0ddfc3f11884" d="M356.23,459.91A12.07,12.07,0,0,0,344.15,472v91.77H254.74V472a12.09,12.09,0,0,1,12.09-12.08Z"/><path class="bba17ea2-99eb-4d13-b1d8-0991cdd76482" d="M368.32,472v24.18H344.15V472a12.09,12.09,0,0,1,24.17,0Z"/><line class="a58b9bcf-a2f6-4740-9bc7-1c49ee7f3bb1" x1="244.14" y1="563.76" x2="383.15" y2="563.76"/><g class="ade71ee9-a2bf-412b-91df-3e3db4763d3f"><rect class="f31995b9-3486-46f2-b4e9-4028e17d4c46" x="261.7" y="483.33" width="11.1" height="4.37"/><rect class="f31995b9-3486-46f2-b4e9-4028e17d4c46" x="261.7" y="490.29" width="16.65" height="4.37"/><rect class="f31995b9-3486-46f2-b4e9-4028e17d4c46" x="270.03" y="497.26" width="12.54" height="4.37"/><rect class="f31995b9-3486-46f2-b4e9-4028e17d4c46" x="287.7" y="504.23" width="16.77" height="4.37"/><rect class="f31995b9-3486-46f2-b4e9-4028e17d4c46" x="306.97" y="504.23" width="13.97" height="4.37"/><rect class="f31995b9-3486-46f2-b4e9-4028e17d4c46" x="270.03" y="504.23" width="5.92" height="4.37"/><rect class="f31995b9-3486-46f2-b4e9-4028e17d4c46" x="261.43" y="511.2" width="6.17" height="4.37"/><rect class="f31995b9-3486-46f2-b4e9-4028e17d4c46" x="270.39" y="511.2" width="16.98" height="4.37"/><rect class="f31995b9-3486-46f2-b4e9-4028e17d4c46" x="261.43" y="518.18" width="7.61" height="4.37"/><rect class="f31995b9-3486-46f2-b4e9-4028e17d4c46" x="272.42" y="518.18" width="6.46" height="4.37"/><rect class="f31995b9-3486-46f2-b4e9-4028e17d4c46" x="282.57" y="518.18" width="10.79" height="4.37"/><rect class="f31995b9-3486-46f2-b4e9-4028e17d4c46" x="296.82" y="518.18" width="10.79" height="4.37"/><rect class="f31995b9-3486-46f2-b4e9-4028e17d4c46" x="261.43" y="525.15" width="6.17" height="4.37"/><rect class="f31995b9-3486-46f2-b4e9-4028e17d4c46" x="271.08" y="525.15" width="16.29" height="4.37"/><rect class="f31995b9-3486-46f2-b4e9-4028e17d4c46" x="261.43" y="532.12" width="6.17" height="4.37"/><rect class="f31995b9-3486-46f2-b4e9-4028e17d4c46" x="269.94" y="532.12" width="6.17" height="4.37"/><rect class="f31995b9-3486-46f2-b4e9-4028e17d4c46" x="278.09" y="532.12" width="6.17" height="4.37"/><rect class="f31995b9-3486-46f2-b4e9-4028e17d4c46" x="286.68" y="532.12" width="13.34" height="4.37"/><rect class="f31995b9-3486-46f2-b4e9-4028e17d4c46" x="301.84" y="532.12" width="8.92" height="4.37"/><rect class="f31995b9-3486-46f2-b4e9-4028e17d4c46" x="275.94" y="483.33" width="14.15" height="4.37"/><rect class="f31995b9-3486-46f2-b4e9-4028e17d4c46" x="292.65" y="483.33" width="16.29" height="4.37"/><rect class="f31995b9-3486-46f2-b4e9-4028e17d4c46" x="311.54" y="483.33" width="18.81" height="4.37"/><rect class="f31995b9-3486-46f2-b4e9-4028e17d4c46" x="333.29" y="483.33" width="8.9" height="4.37"/><rect class="f31995b9-3486-46f2-b4e9-4028e17d4c46" x="299.73" y="475.77" width="6.66" height="4.37"/><rect class="f31995b9-3486-46f2-b4e9-4028e17d4c46" x="278.32" y="504.23" width="6.66" height="4.37"/><rect class="f31995b9-3486-46f2-b4e9-4028e17d4c46" x="280.83" y="490.29" width="6.66" height="4.37"/><rect class="f31995b9-3486-46f2-b4e9-4028e17d4c46" x="284.86" y="497.26" width="6.66" height="4.37"/><rect class="f31995b9-3486-46f2-b4e9-4028e17d4c46" x="308.94" y="475.77" width="3.32" height="4.37"/><rect class="f31995b9-3486-46f2-b4e9-4028e17d4c46" x="314.4" y="475.77" width="8.63" height="4.37"/><rect class="f31995b9-3486-46f2-b4e9-4028e17d4c46" x="325.6" y="475.77" width="9.52" height="4.37"/><rect class="f31995b9-3486-46f2-b4e9-4028e17d4c46" x="294.91" y="490" width="4.89" height="6"/><rect class="f31995b9-3486-46f2-b4e9-4028e17d4c46" x="303.58" y="490" width="4.89" height="6"/></g><polygon class="a954ab74-2e3d-45c8-92f8-0ddfc3f11884" points="471.59 170.06 434.11 170.06 437.51 142.9 468.18 142.9 471.59 170.06"/><path class="f9382f4e-c06d-43a0-8a23-49c9bf1c5d21" d="M464.1,142.5c0,.14,0,.27,0,.4H441.6c0-.13,0-.26,0-.4a11.26,11.26,0,0,1,22.51,0Z"/><polygon class="f9382f4e-c06d-43a0-8a23-49c9bf1c5d21" points="475.73 166.95 429.67 166.95 430.22 164.44 475.18 164.44 475.73 166.95"/><rect class="a954ab74-2e3d-45c8-92f8-0ddfc3f11884" x="451.73" y="69.07" width="2.24" height="62.23"/><polygon class="a117a07d-8a29-4195-85f6-04ce924b83bc" points="484.49 235.37 419.95 235.37 434.11 170.06 471.59 170.06 484.49 235.37"/><path class="ad7b0bb8-2216-4968-b2a2-fa57193b88f5" d="M58,105.84c4.2-8.46,10-16.08,17.51-21.12s16.62-7.35,25.17-5.3c10.72,2.56,19.15,11.3,28.12,18.25a22.54,22.54,0,0,0,7.21,4.18c5,1.51,10.53-.47,14.75-3.86s7.44-8.06,10.6-12.65,6.4-9.25,10.67-12.58"/><path class="ad7b0bb8-2216-4968-b2a2-fa57193b88f5" d="M58,79.16c6.71-1.54,13.6,1.27,19.73,4.4,11.47,5.86,22.43,13.14,34.91,16.32A32.87,32.87,0,0,0,124.66,101c8.65-1.08,15.85-6.89,23.65-10.78,3.08-1.53,6.6-2.8,9.91-1.87,2.9.81,5.3,3.23,8.3,3.39"/><rect class="f9382f4e-c06d-43a0-8a23-49c9bf1c5d21" x="53.92" y="105.84" width="120.71" height="0.73"/><line class="fa343f01-da55-4733-b647-478c52ecb47e" x1="56.11" y1="105.84" x2="56.11" y2="58.94"/><line class="fa343f01-da55-4733-b647-478c52ecb47e" x1="77.38" y1="105.84" x2="77.38" y2="68.13"/><line class="fa343f01-da55-4733-b647-478c52ecb47e" x1="98.65" y1="105.84" x2="98.65" y2="56.54"/><line class="fa343f01-da55-4733-b647-478c52ecb47e" x1="119.92" y1="105.84" x2="119.92" y2="74.02"/><line class="fa343f01-da55-4733-b647-478c52ecb47e" x1="141.19" y1="105.84" x2="141.19" y2="57.8"/><line class="fa343f01-da55-4733-b647-478c52ecb47e" x1="162.45" y1="105.84" x2="162.45" y2="52.29"/><circle class="f9382f4e-c06d-43a0-8a23-49c9bf1c5d21" cx="56.11" cy="48.61" r="1.84"/><circle class="f9382f4e-c06d-43a0-8a23-49c9bf1c5d21" cx="77.38" cy="57.8" r="1.84"/><circle class="f9382f4e-c06d-43a0-8a23-49c9bf1c5d21" cx="98.65" cy="46.21" r="1.84"/><circle class="f9382f4e-c06d-43a0-8a23-49c9bf1c5d21" cx="119.92" cy="63.69" r="1.84"/><circle class="f9382f4e-c06d-43a0-8a23-49c9bf1c5d21" cx="141.19" cy="47.48" r="1.84"/><circle class="f9382f4e-c06d-43a0-8a23-49c9bf1c5d21" cx="162.45" cy="41.97" r="1.84"/><rect class="f9382f4e-c06d-43a0-8a23-49c9bf1c5d21" x="434.11" y="69.07" width="58.41" height="1.6"/></svg>