<svg id="Layer_1" data-name="Layer 1" xmlns="http://www.w3.org/2000/svg" viewBox="0 0 2254.22 613.35"><defs><style>.cls-1{fill:#50b748;}.cls-1,.cls-10,.cls-4,.cls-7{opacity:0.8;}.cls-2{fill:#2db24a;}.cls-3{fill:#7dc257;}.cls-12,.cls-3,.cls-6,.cls-9{opacity:0.55;}.cls-4{fill:#ffcb04;}.cls-5{fill:#fdbc11;}.cls-6{fill:#ffd451;}.cls-7,.cls-8,.cls-9{fill:#4c9aff;}.cls-10,.cls-11,.cls-12{fill:#ee4526;}</style></defs><title>Xenonlogo (color change)_002</title><path d="M659.21,154l46.69,66.36L752.59,154h29.15l-61.62,85.32,59.72,83H750.69l-44.79-64-44.79,64H631.72l60-83L629.82,154Z"/><path d="M916.12,298.77v23.47H800.7V154H914v23.46H827.24V225.3h75.13v22H827.24v51.42Z"/><path d="M970.15,203.74v118.5H943.61V154h20.85l96.22,121.34V154.2h26.79v168h-22Z"/><path d="M1195.3,323.42a73.65,73.65,0,0,1-32.82-7.23A81.56,81.56,0,0,1,1137,297a86.63,86.63,0,0,1-16.47-27.38,88.47,88.47,0,0,1-5.81-31.52,86,86,0,0,1,6.16-32.23,89.49,89.49,0,0,1,16.95-27.25,81.15,81.15,0,0,1,25.59-18.85,75,75,0,0,1,32.35-7,71.88,71.88,0,0,1,32.83,7.47A82.52,82.52,0,0,1,1254,179.8a89.75,89.75,0,0,1,16.35,27.37,87.7,87.7,0,0,1-.24,63.4,85.08,85.08,0,0,1-16.94,27.14,83.22,83.22,0,0,1-25.72,18.72A74.27,74.27,0,0,1,1195.3,323.42Zm-53.56-85.32a70.78,70.78,0,0,0,3.79,23,62.51,62.51,0,0,0,10.78,19.67,52.69,52.69,0,0,0,17,13.63,48.15,48.15,0,0,0,22.28,5.1,46.68,46.68,0,0,0,22.63-5.34,53.08,53.08,0,0,0,16.71-14.1,63.5,63.5,0,0,0,10.43-19.67,71.37,71.37,0,0,0,3.55-22.28,70.38,70.38,0,0,0-3.79-23.1,61.35,61.35,0,0,0-10.78-19.44,54.07,54.07,0,0,0-16.83-13.51,50.48,50.48,0,0,0-44.67.24A54.06,54.06,0,0,0,1156,196.15a62.11,62.11,0,0,0-10.55,19.56A70.31,70.31,0,0,0,1141.74,238.1Z"/><path d="M1330.15,203.74v118.5h-26.54V154h20.86l96.22,121.34V154.2h26.78v168h-22Z"/><path d="M1584.93,193.55a36.16,36.16,0,0,0-6.87-5.57,68.87,68.87,0,0,0-10.55-5.57,77.33,77.33,0,0,0-13.27-4.27,66.47,66.47,0,0,0-14.82-1.66q-16.83,0-24.76,6.16t-7.94,17.07a18.46,18.46,0,0,0,2.49,10.07,21.24,21.24,0,0,0,7.7,6.87,60,60,0,0,0,13,5.22q7.83,2.25,18.25,4.86a206.76,206.76,0,0,1,23.11,6.87,66,66,0,0,1,17.42,9.24,37.73,37.73,0,0,1,11,13.39q3.91,7.95,3.91,19.32,0,12.79-4.86,22a41.38,41.38,0,0,1-13.27,15.05,58.5,58.5,0,0,1-19.55,8.53A100.41,100.41,0,0,1,1542,323.9a119.44,119.44,0,0,1-37.09-5.81,106.24,106.24,0,0,1-32.35-16.95l12.09-22.75a55.68,55.68,0,0,0,8.89,6.88,83.6,83.6,0,0,0,13.5,7,119,119,0,0,0,16.71,5.45A76.9,76.9,0,0,0,1542.5,300q15.64,0,24.18-5.45t8.53-16.12a17.22,17.22,0,0,0-3.2-10.66,27.41,27.41,0,0,0-9.12-7.47,79.92,79.92,0,0,0-14.46-5.8q-8.54-2.61-19.43-5.46a200.35,200.35,0,0,1-21.93-7,54.57,54.57,0,0,1-15.52-8.89,34.76,34.76,0,0,1-9.36-12.2q-3.2-7-3.2-16.95a48.89,48.89,0,0,1,4.74-21.92,46.68,46.68,0,0,1,12.92-16.11A56.29,56.29,0,0,1,1516,156.1a84.43,84.43,0,0,1,24.18-3.32,88.67,88.67,0,0,1,31.51,5.45A104.58,104.58,0,0,1,1597,171.74Z"/><path d="M1752.49,177.43h-55.93V322.24h-26.79V177.43h-56.16V154h138.88Z"/><path d="M1808,154h23.22l66.36,168.27h-28l-17.78-45.74h-64.94l-17.53,45.74h-28.21Zm38.63,102.86-27-72.29-28,72.29Z"/><path d="M1901.56,236.92A88.34,88.34,0,0,1,1907,206.7a83.72,83.72,0,0,1,16-27,80.79,80.79,0,0,1,25.72-19.31q15.15-7.35,34.36-7.35,23,0,39.34,10.19a66.28,66.28,0,0,1,24.65,26.54l-20.86,14a47.56,47.56,0,0,0-8.53-12.8,41.88,41.88,0,0,0-10.9-8.3,47.1,47.1,0,0,0-12.32-4.38,61.73,61.73,0,0,0-12.33-1.3q-13.28,0-23.22,5.33a51.49,51.49,0,0,0-16.71,14.1A62.93,62.93,0,0,0,1932,216.06a71.94,71.94,0,0,0-3.44,21.81,68.38,68.38,0,0,0,4,23.46A63.41,63.41,0,0,0,1943.87,281a55.24,55.24,0,0,0,17.18,13.63,47.07,47.07,0,0,0,21.8,5.09,54.9,54.9,0,0,0,12.68-1.54,46.94,46.94,0,0,0,12.56-5,50.28,50.28,0,0,0,11.14-8.66,43.21,43.21,0,0,0,8.42-12.56l22,12.56a51.3,51.3,0,0,1-11.38,16.71,72.71,72.71,0,0,1-16.59,12.21,84.59,84.59,0,0,1-19.55,7.58,82.37,82.37,0,0,1-20.27,2.61,69.78,69.78,0,0,1-32.46-7.58,85.4,85.4,0,0,1-25.36-19.79,91,91,0,0,1-16.59-27.73A88.09,88.09,0,0,1,1901.56,236.92Z"/><path d="M2074.33,322.24v-168h26.55v86.51L2180,154h29.39l-66.36,74.42,70.15,93.85h-29.62l-56.88-77.5-25.83,26.78v50.72Z"/><path d="M788.2,436.61l-10.62,32.17H763.92L798.67,366.5h15.94l34.9,102.28H835.4l-10.93-32.17Zm33.54-10.32-10-29.44c-2.27-6.68-3.79-12.75-5.31-18.66h-.3c-1.52,6.07-3.19,12.29-5.16,18.51l-10,29.59Z"/><path d="M917.64,452.7a46.81,46.81,0,0,0,23.67,6.67c13.51,0,21.4-7.13,21.4-17.45,0-9.56-5.46-15-19.27-20.33-16.69-5.92-27-14.57-27-29,0-15.93,13.2-27.77,33.08-27.77,10.47,0,18.06,2.43,22.61,5l-3.64,10.77a40.78,40.78,0,0,0-19.43-4.85c-14,0-19.27,8.34-19.27,15.33,0,9.56,6.22,14.26,20.34,19.72,17.3,6.68,26.1,15,26.1,30.05,0,15.78-11.69,29.44-35.82,29.44-9.86,0-20.64-2.88-26.1-6.52Z"/><path d="M1020.83,374.24v21.09H1040V405.5h-19.12v39.61c0,9.11,2.58,14.26,10,14.26a29.52,29.52,0,0,0,7.74-.91l.6,10a32.7,32.7,0,0,1-11.83,1.82c-6.23,0-11.23-2-14.42-5.61-3.79-3.95-5.16-10.47-5.16-19.12V405.5H996.4V395.33h11.38v-17.6Z"/><path d="M1107,468.78l-1.06-9.25h-.45c-4.1,5.76-12,10.92-22.46,10.92-14.87,0-22.46-10.47-22.46-21.09,0-17.76,15.78-27.47,44.16-27.32v-1.51c0-6.07-1.67-17-16.69-17a36.61,36.61,0,0,0-19.13,5.46l-3-8.8c6.07-3.94,14.87-6.53,24.13-6.53,22.46,0,27.92,15.33,27.92,30v27.47a102.34,102.34,0,0,0,1.22,17.6Zm-2-37.48c-14.57-.3-31.11,2.28-31.11,16.54,0,8.65,5.77,12.75,12.6,12.75a18.26,18.26,0,0,0,17.75-12.29,13.86,13.86,0,0,0,.76-4.25Z"/><path d="M1203.23,466.05c-3.49,1.82-11.23,4.25-21.09,4.25-22.16,0-36.57-15-36.57-37.48,0-22.61,15.48-39,39.45-39,7.89,0,14.88,2,18.52,3.79l-3,10.32c-3.18-1.82-8.19-3.49-15.48-3.49-16.84,0-26,12.44-26,27.77,0,17,10.93,27.47,25.5,27.47A38,38,0,0,0,1201,456Z"/><path d="M1243.44,429h.31c1.82-2.58,4.4-5.76,6.52-8.34l21.55-25.35h16.09l-28.38,30.2,32.33,43.25h-16.24l-25.35-35.2-6.83,7.58v27.62h-13.2V361h13.2Z"/><path d="M1370,366.5V468.78h-13.2V366.5Z"/><path d="M1405.51,415.21c0-7.58-.15-13.8-.61-19.88h11.84l.76,12.15h.3c3.64-7,12.14-13.82,24.28-13.82,10.17,0,26,6.08,26,31.27v43.85h-13.35V426.44c0-11.83-4.4-21.7-17-21.7-8.8,0-15.63,6.23-17.91,13.66a19.41,19.41,0,0,0-.91,6.22v44.16h-13.35Z"/><path d="M1501.11,415.21c0-7.58-.15-13.8-.61-19.88h11.84l.76,12.15h.3c3.65-7,12.14-13.82,24.28-13.82,10.17,0,26,6.08,26,31.27v43.85h-13.35V426.44c0-11.83-4.4-21.7-17-21.7-8.8,0-15.63,6.23-17.9,13.66a19.14,19.14,0,0,0-.91,6.22v44.16h-13.36Z"/><path d="M1663.18,431.45c0,27.17-18.82,39-36.57,39-19.88,0-35.21-14.56-35.21-37.78,0-24.59,16.09-39,36.42-39C1648.92,393.66,1663.18,409,1663.18,431.45Zm-58.27.76c0,16.09,9.25,28.23,22.3,28.23,12.75,0,22.31-12,22.31-28.53,0-12.45-6.22-28.23-22-28.23S1604.91,418.25,1604.91,432.21Z"/><path d="M1695.5,395.33l14.42,41.28a189.33,189.33,0,0,1,5.92,18.82h.45c1.67-6.07,3.8-12.14,6.22-18.82l14.27-41.28h14l-28.83,73.45h-12.75l-27.92-73.45Z"/><path d="M1814.78,468.78l-1.06-9.25h-.46c-4.1,5.76-12,10.92-22.46,10.92-14.87,0-22.46-10.47-22.46-21.09,0-17.76,15.78-27.47,44.16-27.32v-1.51c0-6.07-1.67-17-16.69-17a36.57,36.57,0,0,0-19.12,5.46l-3-8.8c6.07-3.94,14.87-6.53,24.13-6.53,22.46,0,27.92,15.33,27.92,30v27.47a103.36,103.36,0,0,0,1.22,17.6Zm-2-37.48c-14.57-.3-31.11,2.28-31.11,16.54,0,8.65,5.76,12.75,12.59,12.75a18.29,18.29,0,0,0,17.76-12.29,14.16,14.16,0,0,0,.76-4.25Z"/><path d="M1874.11,374.24v21.09h19.12V405.5h-19.12v39.61c0,9.11,2.58,14.26,10,14.26a29.52,29.52,0,0,0,7.74-.91l.6,10a32.7,32.7,0,0,1-11.83,1.82c-6.23,0-11.23-2-14.42-5.61-3.79-3.95-5.16-10.47-5.16-19.12V405.5h-11.38V395.33h11.38v-17.6Z"/><path d="M1985.19,431.45c0,27.17-18.81,39-36.57,39-19.88,0-35.21-14.56-35.21-37.78,0-24.59,16.09-39,36.42-39C1970.93,393.66,1985.19,409,1985.19,431.45Zm-58.27.76c0,16.09,9.26,28.23,22.31,28.23,12.75,0,22.31-12,22.31-28.53,0-12.45-6.23-28.23-22-28.23S1926.92,418.25,1926.92,432.21Z"/><path d="M2013.42,418.25c0-8.65-.16-16.09-.61-22.92h11.68l.46,14.42h.61c3.34-9.86,11.38-16.09,20.33-16.09a14.65,14.65,0,0,1,3.8.46v12.6a19.78,19.78,0,0,0-4.56-.46c-9.41,0-16.08,7.13-17.9,17.15a36.92,36.92,0,0,0-.61,6.22v39.15h-13.2Z"/><polygon class="cls-1" points="42.8 446.56 309.5 344.94 573.68 446.56 309.5 542.12 42.8 446.56"/><polygon class="cls-2" points="112.02 471.34 309.5 393.47 519.07 466.28 573.68 446.56 309.5 344.94 42.8 446.56 112.02 471.34"/><polygon class="cls-3" points="42.8 446.56 42.8 501.5 309.5 595.36 573.68 497.24 573.68 446.56 309.5 542.12 42.8 446.56"/><polygon class="cls-4" points="42.8 337.58 309.5 235.95 573.68 337.58 309.5 433.14 42.8 337.58"/><polygon class="cls-5" points="112.02 362.36 309.5 284.49 519.07 357.3 573.68 337.58 309.5 235.95 42.8 337.58 112.02 362.36"/><polygon class="cls-6" points="42.8 337.58 42.8 392.51 309.5 486.38 573.68 388.26 573.68 337.58 309.5 433.14 42.8 337.58"/><polygon class="cls-7" points="42.8 228.6 309.5 126.97 573.68 228.6 309.5 324.16 42.8 228.6"/><polygon class="cls-8" points="112.02 253.38 309.5 175.51 519.07 248.32 573.68 228.6 309.5 126.97 42.8 228.6 112.02 253.38"/><polygon class="cls-9" points="42.8 228.6 42.8 283.53 309.5 377.39 573.68 279.28 573.68 228.6 309.5 324.16 42.8 228.6"/><polygon class="cls-10" points="42.8 119.61 309.5 17.99 573.68 119.61 309.5 215.17 42.8 119.61"/><polygon class="cls-11" points="112.02 144.39 309.5 66.53 519.07 139.33 573.68 119.61 309.5 17.99 42.8 119.61 112.02 144.39"/><polygon class="cls-12" points="42.8 119.61 42.8 174.55 309.5 268.41 573.68 170.29 573.68 119.61 309.5 215.17 42.8 119.61"/></svg>