<svg id="a8ca6753-ccdd-41cc-a44b-f4d2a75d4536" data-name="Layer 1" xmlns="http://www.w3.org/2000/svg" xmlns:xlink="http://www.w3.org/1999/xlink" viewBox="0 0 997.5 325"><defs><style>.a150649b-653a-4d63-9a8b-b1840ab3e073,.aeb2f05a-e783-4e81-968b-a846dc0f4b87{opacity:0.35;}.a150649b-653a-4d63-9a8b-b1840ab3e073{fill:url(#b472d8f9-a558-41bd-b329-ed3a6ccceace);}.aeb2f05a-e783-4e81-968b-a846dc0f4b87{fill:url(#a465645d-b780-4e7c-99ea-dc16655abee6);}.a935c007-9fc9-40b2-99f7-8abad5e12f58{opacity:0.45;fill:url(#f42296f3-7149-45d3-af8e-203c356cdbbc);}.fa513ba6-e9bc-4959-bb99-ae26146e909e{fill:#ffcd9f;}.e93f348b-75af-4a92-b596-d151c98a780b{fill:#fbe4d3;}.bf995956-6416-4bde-bc4b-20833e26d510{fill:#f1f2f2;}.ec47eeaa-2835-41d8-a80d-7f9ef439ec43{fill:#4279e8;}.bc625704-aa80-4632-a6ec-80435c58eebe{fill:#d35400;}.fcd16d68-7eab-40b3-8fb5-bb3722a4e05a{fill:#3dba85;}.a620f2b0-8b16-4bb5-a91a-504e54a341c7,.a97756f9-6af6-4ade-bfa1-87139b23d41a,.ad52b608-81cb-4025-a45b-5be657d8b337,.b6b44734-c4da-4558-aad0-d9368d479f3e,.f209d5e2-9343-4a7f-bc04-b500af37643e,.f3a81888-6ce3-46e0-87da-bb502ba9c5d5,.fafbc28d-ee4d-4d22-b23b-ce500ede8734,.ff589904-9b6f-4574-b6a9-0a4d0981e7db{fill:none;}.ad52b608-81cb-4025-a45b-5be657d8b337,.f3a81888-6ce3-46e0-87da-bb502ba9c5d5{stroke:#3dba85;}.a620f2b0-8b16-4bb5-a91a-504e54a341c7,.a94a73ed-1c40-4ccd-a280-3cf2a59bbad5,.a97756f9-6af6-4ade-bfa1-87139b23d41a,.ad52b608-81cb-4025-a45b-5be657d8b337,.b6b44734-c4da-4558-aad0-d9368d479f3e,.f209d5e2-9343-4a7f-bc04-b500af37643e,.f3a81888-6ce3-46e0-87da-bb502ba9c5d5,.fafbc28d-ee4d-4d22-b23b-ce500ede8734,.ff589904-9b6f-4574-b6a9-0a4d0981e7db{stroke-miterlimit:10;}.ad52b608-81cb-4025-a45b-5be657d8b337{stroke-width:0.81px;}.e247e8bc-f4e4-43a2-acc6-606aa8888738{opacity:0.15;}.b46ebc0d-33ca-41d2-86f5-d0650355b625{fill:#383a45;}.b55c8d23-4df4-4a22-ae8f-04b2a2bd4043{fill:#fbe5b8;}.b4a35c81-6d4b-4761-8320-2f2688313c7b{fill:#5f0c39;}.f9586208-a993-4a15-9b5a-1ff35d6f81b7{fill:#5aa3a3;}.a41cb8e6-a61c-4acf-8bf5-7ef348377852{fill:#70cacd;}.eefbb27c-3d7b-4aad-8a2b-96fb4071f474{fill:#42526e;}.f92856bf-750d-4196-b5ad-33201c76b0d7{fill:#d6beae;}.a94a73ed-1c40-4ccd-a280-3cf2a59bbad5,.e166f03c-4500-403a-a3d1-1425cec52ff3{fill:#fff;}.ac5450c3-ceaf-4166-881f-59abce4b2808{fill:#e57373;}.aa13e35b-a33d-4fc9-881b-feefce3ab5d5{fill:#fab217;}.b6d41f3e-4556-4705-acb4-3d41204f0975{fill:url(#ebb7ca34-e0be-40f6-ba57-b158b245f487);}.fb199031-7914-4fb6-90e8-0ccdcb7f9391{fill:#ccc;}.e0b51869-35fc-44fa-aa19-c2ca1879d970{fill:#dbdbdb;}.a94a73ed-1c40-4ccd-a280-3cf2a59bbad5{stroke:#e1e1e1;stroke-width:0.76px;}.f209d5e2-9343-4a7f-bc04-b500af37643e{stroke:#5c6e87;}.a620f2b0-8b16-4bb5-a91a-504e54a341c7,.b6b44734-c4da-4558-aad0-d9368d479f3e,.f209d5e2-9343-4a7f-bc04-b500af37643e{stroke-width:0.71px;}.ef175963-696b-468f-8ee7-101a44441e13{fill:#3e83ff;}.a7ef3c99-4873-44df-8471-1efdc53c4899{fill:#c5cbd3;}.b22711d8-3906-4994-875f-df90c0358166{fill:#f99316;}.b49b8040-ea11-42b2-8926-ab0f0474c482{fill:#bac6ce;}.b6ec4c11-4794-46c9-879b-8910ffc3038e{fill:#989fa8;}.f3a81888-6ce3-46e0-87da-bb502ba9c5d5{stroke-width:0.57px;stroke-dasharray:6.15 6.15;}.a620f2b0-8b16-4bb5-a91a-504e54a341c7,.b6b44734-c4da-4558-aad0-d9368d479f3e{stroke:#879daa;}.a620f2b0-8b16-4bb5-a91a-504e54a341c7,.a97756f9-6af6-4ade-bfa1-87139b23d41a,.fafbc28d-ee4d-4d22-b23b-ce500ede8734,.ff589904-9b6f-4574-b6a9-0a4d0981e7db{stroke-linecap:round;}.a97756f9-6af6-4ade-bfa1-87139b23d41a,.fafbc28d-ee4d-4d22-b23b-ce500ede8734,.ff589904-9b6f-4574-b6a9-0a4d0981e7db{stroke:#fff;}.a97756f9-6af6-4ade-bfa1-87139b23d41a{stroke-width:1.27px;}.fafbc28d-ee4d-4d22-b23b-ce500ede8734{stroke-width:0.88px;}.ff589904-9b6f-4574-b6a9-0a4d0981e7db{stroke-width:0.66px;}.ee15eb1f-afa8-406e-8e38-14b4abf2c9a1{opacity:0.25;fill:url(#ae7e7856-6e76-4ee6-8f7a-f29c677c18ba);}</style><linearGradient id="b472d8f9-a558-41bd-b329-ed3a6ccceace" x1="10.1" y1="281.68" x2="252.72" y2="281.68" gradientUnits="userSpaceOnUse"><stop offset="0.26" stop-color="#e9eaed"/><stop offset="1" stop-color="#fff"/></linearGradient><linearGradient id="a465645d-b780-4e7c-99ea-dc16655abee6" x1="744.78" y1="252.57" x2="987.4" y2="252.57" xlink:href="#b472d8f9-a558-41bd-b329-ed3a6ccceace"/><linearGradient id="f42296f3-7149-45d3-af8e-203c356cdbbc" x1="147.52" y1="111.26" x2="801.93" y2="111.26" xlink:href="#b472d8f9-a558-41bd-b329-ed3a6ccceace"/><linearGradient id="ebb7ca34-e0be-40f6-ba57-b158b245f487" x1="226.97" y1="520.46" x2="366.23" y2="659.72" gradientTransform="matrix(1, 0, 0, -1, 0, 770.58)" gradientUnits="userSpaceOnUse"><stop offset="0.26" stop-color="#e9eaed"/><stop offset="1" stop-color="#f9f9f8"/></linearGradient><linearGradient id="ae7e7856-6e76-4ee6-8f7a-f29c677c18ba" x1="555.16" y1="160.67" x2="565.32" y2="160.67" xlink:href="#b472d8f9-a558-41bd-b329-ed3a6ccceace"/></defs><title>Homa_Page_Banner_30-12-2019</title><path class="a150649b-653a-4d63-9a8b-b1840ab3e073" d="M10.1,321.71s9.53-18.61,29.4-18.61c9.82,0,11,3.93,11,3.93s6.25-23.81,32.51-14.61c0,0,4.58-50.77,49.9-50.77S180.24,296,180.24,296s18.82-1.3,29.29,10c0,0,31.08-8.67,43.19,15.06Z"/><path class="aeb2f05a-e783-4e81-968b-a846dc0f4b87" d="M744.78,292.6S754.31,274,774.19,274c9.81,0,11,3.92,11,3.92s6.26-23.8,32.52-14.6c0,0,4.58-50.77,49.9-50.77s47.28,54.37,47.28,54.37,18.81-1.31,29.28,10c0,0,31.09-8.67,43.19,15.05Z"/><path class="a935c007-9fc9-40b2-99f7-8abad5e12f58" d="M147.52,219.23S173.23,169,226.84,169c26.48,0,29.79,10.59,29.79,10.59s16.88-64.2,87.7-39.38c0,0,12.36-137,134.59-137S606.45,150,606.45,150s50.74-3.53,79,26.92c0,0,83.84-23.39,116.49,40.59Z"/><path class="fa513ba6-e9bc-4959-bb99-ae26146e909e" d="M730.75,137.16c.51,0,1.08-.62,1.32-1.18a2.38,2.38,0,0,0,0-1.85c-.33-.77-.86-.67-1.56-1.61s-.75-1.71-1-1.71-.38.6-.38,1.16c0,1,.62,1.17.82,2.23s-.22,1,0,1.88C730.1,136.39,730.32,137,730.75,137.16Z"/><path class="fa513ba6-e9bc-4959-bb99-ae26146e909e" d="M731.59,133.79s-3.08-1.1-3.51-1.85-.36-1.37-.72-1.37-.24,1.27-.44,1.42-.4,0-.45.38a3.16,3.16,0,0,0,0,1.3,8.12,8.12,0,0,0,2,2.63,6.2,6.2,0,0,0,2.86,1.13c.82,0,.48-3,.48-3Z"/><path class="e93f348b-75af-4a92-b596-d151c98a780b" d="M784.43,156a45.1,45.1,0,0,1,1-5,4.09,4.09,0,0,0-2.26-4.87l-1.19-.51c-3.87-1.54-8.53-2.58-23.74-1.12l-9.35.9c-3.34-2-6.85-4.19-10.43-6.72-2-1.44-4-2.9-5.81-4.34l-2.44,3.34a66.41,66.41,0,0,0,7.3,7.13,68.92,68.92,0,0,0,10,7c2.44.61,5,1.19,7.72,1.73s5.85,1,8.52,1.36"/><rect class="bf995956-6416-4bde-bc4b-20833e26d510" x="429.34" y="132.16" width="41.4" height="13.27"/><rect class="bf995956-6416-4bde-bc4b-20833e26d510" x="429.34" y="153.3" width="62.1" height="13.27"/><rect class="bf995956-6416-4bde-bc4b-20833e26d510" x="460.39" y="174.48" width="46.76" height="13.27"/><rect class="bf995956-6416-4bde-bc4b-20833e26d510" x="526.29" y="195.66" width="62.54" height="13.27"/><rect class="bf995956-6416-4bde-bc4b-20833e26d510" x="598.14" y="195.66" width="52.11" height="13.27"/><rect class="bf995956-6416-4bde-bc4b-20833e26d510" x="460.39" y="195.66" width="22.06" height="13.27"/><rect class="bf995956-6416-4bde-bc4b-20833e26d510" x="428.34" y="216.84" width="23.02" height="13.27"/><rect class="bf995956-6416-4bde-bc4b-20833e26d510" x="461.75" y="216.84" width="63.3" height="13.27"/><rect class="ec47eeaa-2835-41d8-a80d-7f9ef439ec43" x="428.34" y="238.02" width="28.37" height="13.27"/><rect class="bc625704-aa80-4632-a6ec-80435c58eebe" x="469.31" y="238.02" width="24.1" height="13.27"/><rect class="bf995956-6416-4bde-bc4b-20833e26d510" x="507.15" y="238.02" width="40.22" height="13.27"/><rect class="fcd16d68-7eab-40b3-8fb5-bb3722a4e05a" x="560.31" y="238.02" width="40.22" height="13.27"/><rect class="bf995956-6416-4bde-bc4b-20833e26d510" x="428.34" y="259.2" width="23.02" height="13.27"/><rect class="bf995956-6416-4bde-bc4b-20833e26d510" x="464.31" y="259.2" width="60.74" height="13.27"/><rect class="fcd16d68-7eab-40b3-8fb5-bb3722a4e05a" x="428.34" y="280.38" width="23.02" height="13.27"/><rect class="bf995956-6416-4bde-bc4b-20833e26d510" x="460.07" y="280.38" width="23.02" height="13.27"/><rect class="bf995956-6416-4bde-bc4b-20833e26d510" x="490.45" y="280.38" width="23.02" height="13.27"/><rect class="ec47eeaa-2835-41d8-a80d-7f9ef439ec43" x="522.49" y="280.38" width="49.75" height="13.27"/><rect class="bf995956-6416-4bde-bc4b-20833e26d510" x="579" y="280.38" width="33.25" height="13.27"/><rect class="bf995956-6416-4bde-bc4b-20833e26d510" x="482.45" y="132.16" width="52.75" height="13.27"/><rect class="bf995956-6416-4bde-bc4b-20833e26d510" x="544.75" y="132.16" width="60.74" height="13.27"/><rect class="bf995956-6416-4bde-bc4b-20833e26d510" x="615.17" y="132.16" width="70.13" height="13.27"/><rect class="bf995956-6416-4bde-bc4b-20833e26d510" x="696.29" y="132.16" width="33.17" height="13.27"/><rect class="bf995956-6416-4bde-bc4b-20833e26d510" x="571.13" y="109.18" width="24.82" height="13.27"/><rect class="bf995956-6416-4bde-bc4b-20833e26d510" x="491.32" y="195.66" width="24.82" height="13.27"/><rect class="ec47eeaa-2835-41d8-a80d-7f9ef439ec43" x="500.68" y="153.3" width="24.82" height="13.27"/><rect class="bf995956-6416-4bde-bc4b-20833e26d510" x="515.7" y="174.48" width="24.82" height="13.27"/><rect class="fcd16d68-7eab-40b3-8fb5-bb3722a4e05a" x="605.5" y="109.18" width="12.39" height="13.27"/><rect class="bf995956-6416-4bde-bc4b-20833e26d510" x="625.84" y="109.18" width="32.17" height="13.27"/><rect class="bf995956-6416-4bde-bc4b-20833e26d510" x="667.6" y="109.18" width="35.49" height="13.27"/><rect class="fcd16d68-7eab-40b3-8fb5-bb3722a4e05a" x="553.19" y="152.42" width="18.24" height="18.24"/><rect class="ad52b608-81cb-4025-a45b-5be657d8b337" x="550.03" y="149.35" width="24.55" height="24.55"/><rect class="bc625704-aa80-4632-a6ec-80435c58eebe" x="585.51" y="152.42" width="18.24" height="18.24"/><ellipse class="e247e8bc-f4e4-43a2-acc6-606aa8888738" cx="760.96" cy="290.87" rx="12.74" ry="0.98"/><ellipse class="e247e8bc-f4e4-43a2-acc6-606aa8888738" cx="222.25" cy="315.84" rx="8.23" ry="0.98"/><ellipse class="e247e8bc-f4e4-43a2-acc6-606aa8888738" cx="180.8" cy="320.11" rx="6.63" ry="1.2"/><ellipse class="e247e8bc-f4e4-43a2-acc6-606aa8888738" cx="786.35" cy="289.89" rx="6.83" ry="0.98"/><path class="b46ebc0d-33ca-41d2-86f5-d0650355b625" d="M771,124.64c-.06.84-2.23,2-2.94,2.55a47.77,47.77,0,0,1-5.3,3.58,19.37,19.37,0,0,1-7.56,2.44c-1.65.21-3.47.85-5.14.73,1.59-.12,3.13,1.42,4.77,1.22-2.19,1.2-3.08,4.48-3.94,6.58a66.51,66.51,0,0,1-3.34,7c1.44-.51,2.66-1.4,4-2s2.37.54,3.75,1c3.41,1.08,8.09,0,10.9-2,2.18-1.57,4.46-1.39,6.92-.94a9.43,9.43,0,0,0,3.35-.05,10.68,10.68,0,0,0,8.15-7.41,25,25,0,0,0,1-6.73,9.54,9.54,0,0,0-.09-3.11,6.07,6.07,0,0,0-1.37-2.11"/><path class="b55c8d23-4df4-4a22-ae8f-04b2a2bd4043" d="M771.88,150.7l-2,1.7-13,10.81-1.3,1.08L754.35,157c2.8-2.53,5.64-5.11,8.27-7.4a79.62,79.62,0,0,1,7.07-5.68,16.7,16.7,0,0,1,1.75-1.06Z"/><polygon class="b55c8d23-4df4-4a22-ae8f-04b2a2bd4043" points="778.94 144.93 773.42 144.41 773.3 142.1 772.85 133.6 778.82 135.69 778.86 139.01 778.94 144.93"/><path class="b55c8d23-4df4-4a22-ae8f-04b2a2bd4043" d="M777,139c-.77,2-1.94,3.19-3.26,3.19a2.57,2.57,0,0,1-.61-.09l-.31-8.51,4.15,2.09Z"/><path class="b55c8d23-4df4-4a22-ae8f-04b2a2bd4043" d="M770.69,142.84h0Z"/><path class="e93f348b-75af-4a92-b596-d151c98a780b" d="M785.84,154.78c-.78,2.29-1.35,4.67-2.86,6.61-.52.64-1,1.3-1.55,1.94s-1.21,1.57-1.79,2.37c-.45.63-.88,1.25-1.3,1.91-1.33,2.06-2.74,4.56-2.76,7.08a7.12,7.12,0,0,0,.31,2.1l-16.52,1.57v0c.32-5.69.54-11.38.77-17,0-.09,0-.19,0-.27a10.09,10.09,0,0,0,.05-1.14,5.6,5.6,0,0,1-2.25-4.47c.12-3.05,2.57-4.48,4.76-6.21l0,0,1.61-1.27q3-2.38,6.09-4.7a3.18,3.18,0,0,1,2.64-.5c.22,0,.46,0,.69.08a44.67,44.67,0,0,1,6.2,1l1,.28a8.27,8.27,0,0,1,1.35.46,4.21,4.21,0,0,1,1,.58C786.34,147.41,787,151.24,785.84,154.78Z"/><path class="b46ebc0d-33ca-41d2-86f5-d0650355b625" d="M770.66,200.69a.79.79,0,0,0,0,.89c1.44,2.58,1.64,9,1,15.5a68.6,68.6,0,0,1-1.53,9.45c-.76,3.18-1.72,5.79-2.8,7.19a.6.6,0,0,0,0,.8c2.21,2.18,2.72,6,3.1,8.91a86.53,86.53,0,0,1,.5,13.37q-.11,3.92-.38,7.8a44,44,0,0,1-.91,8.11,2.49,2.49,0,0,1-1.06,1.71.71.71,0,0,1-.65,0,.85.85,0,0,1-.25-.28,12.28,12.28,0,0,0-1.44-2c-.92-.89-.74-1.51-.92-2.61-.14-.8-.29-1.59-.43-2.39l-1.55-8.64-2.75-15.38,0-.23a91.76,91.76,0,0,1-1.45-14.42c0-.32,0-.64,0-1l-.21-18.94a168.66,168.66,0,0,1-.13-20.36c0-.55.06-1.08.1-1.63l.26-4.09c.09-1.36.17-2.74.24-4.11v0l16.52-1.57a9.71,9.71,0,0,0,1.17,2.51,4,4,0,0,0,.37.57c1,1.41,2.37,3.54,3.3,5,.6.92,1,1.57,1,1.57s-9.65,2-11,14.83C770.69,200.89,770.66,200.69,770.66,200.69Z"/><path class="b46ebc0d-33ca-41d2-86f5-d0650355b625" d="M781.19,216.27a70.64,70.64,0,0,1,.76,9.54c0,3.26-.28,6-1,7.65a.62.62,0,0,0,.23.77c2.67,1.58,4.08,5.17,5.14,7.91A85.77,85.77,0,0,1,790,255c.56,2.55,1.06,5.1,1.5,7.67a43.43,43.43,0,0,1,1.06,8.08,2.53,2.53,0,0,1-.62,1.92.67.67,0,0,1-.62.19.91.91,0,0,1-.32-.2,11.35,11.35,0,0,0-1.89-1.64c-1.1-.64-1.07-1.3-1.51-2.32l-1-2.21-3.57-8-6.35-14.27-.09-.21a92,92,0,0,1-4.85-13.66c-.08-.31-.17-.62-.25-.93l-4.73-18.34"/><path class="fa513ba6-e9bc-4959-bb99-ae26146e909e" d="M769.54,124.44a15.68,15.68,0,0,0-.56,3.22,1.81,1.81,0,0,1-.58,1.3l-1.81,1.63a.52.52,0,0,0-.1.67,2,2,0,0,0,1,.91,11,11,0,0,0,1.34,4.93,3.26,3.26,0,0,0,1.88,1.41c8.29,2.42,12.4-1.07,13.62-9.43a7.34,7.34,0,0,0-1.24-5.21c-1.67-2.4-5.1-6.09-9.53-4.22A7.08,7.08,0,0,0,769.54,124.44Z"/><path class="b4a35c81-6d4b-4761-8320-2f2688313c7b" d="M772.19,128.32a.19.19,0,0,1-.15-.09,1.29,1.29,0,0,0-1.77-.53.21.21,0,0,1-.2-.37,1.7,1.7,0,0,1,2.32.68.2.2,0,0,1-.07.28A.15.15,0,0,1,772.19,128.32Z"/><path class="b46ebc0d-33ca-41d2-86f5-d0650355b625" d="M783.75,120.92c-2.1-2.91-5.62-3.84-9-3.51-1.44.14-4.11,1-5.16,2.26-3.56,4.13.67,5.41,1.51,5.63a7.16,7.16,0,0,1,1-1.81,32.62,32.62,0,0,1,2,3.94,13,13,0,0,1,.31,3.46c1.05-.62,1.44-1.83,2.91-1.55a2.83,2.83,0,0,1,2.21,2.11c.4,2.1-1.87,5.11-4.11,3.74-.3.8-.25,3.18.41,3.73.89.75,3.53.16,4.48-.33a11.74,11.74,0,0,0,3.77-3.62C787.12,130.27,785.89,123.89,783.75,120.92Z"/><path class="e93f348b-75af-4a92-b596-d151c98a780b" d="M783.48,224.17l-9.5,1.68-3.88.68-11,1.94c0-.32,0-.64,0-1l-.21-18.94a168.66,168.66,0,0,1-.13-20.36c0-.55.06-1.08.1-1.63l.26-4.09c.09-1.36.17-2.74.24-4.11l0-.58,16.42-1.3a12.14,12.14,0,0,0,1.23,2.78l0,0a4,4,0,0,0,.37.57c1,1.41,2.37,3.54,3.29,5h0C786.1,190.74,784.69,207.61,783.48,224.17Z"/><path class="b4a35c81-6d4b-4761-8320-2f2688313c7b" d="M776.86,144.72a9.38,9.38,0,0,1-4.18.24c-.26,0-.38.36-.11.4a10,10,0,0,0,4.41-.23A.21.21,0,0,0,776.86,144.72Z"/><path class="f9586208-a993-4a15-9b5a-1ff35d6f81b7" d="M770.12,145a2.86,2.86,0,0,1-.94-2.58c.21-1.48,1.43-1.37,2.67-1.4,2.65-.07,4.88-1.6,7.44-1.73,2.05-.11,1.12,1.21,1.88,2.36s3.57,1.24,1.56,2.81-5.33,1.28-7.77,1.28c-1.62,0-3.6.61-5.18.32a1.67,1.67,0,0,1-1.42-1.45c-.07-.9.57-1.13,1-1.81"/><path class="f9586208-a993-4a15-9b5a-1ff35d6f81b7" d="M777.66,145.18c-15.45,9.71-27.25,10.24-27.25,10.24l-.08,5.2s10.44,1.15,25.69-10.15c1.41-1.05,5.14-4,5-6Z"/><path class="a41cb8e6-a61c-4acf-8bf5-7ef348377852" d="M776.2,144.78c-17.41,5.46-29,3-29,3l-1.4,5s9.8,3.77,27.43-3.28c1.63-.65,6.66-3.87,7.05-5.78Z"/><path class="eefbb27c-3d7b-4aad-8a2b-96fb4071f474" d="M768,270c1.34-.13,2.67-.32,4-.58-.11,3.07-.31,5.85-.48,7.65a63.24,63.24,0,0,0-.26,10.39,12.27,12.27,0,0,1,.09,2.62l-3.92.37-.94-1.23-.77,1.42-6.23.14a51,51,0,0,1-6.31-.14,10.44,10.44,0,0,0-.45-1.61l5.59-.89a15.93,15.93,0,0,0,2.58-3.31,19.2,19.2,0,0,0,2.24-8.88,28.33,28.33,0,0,0-.17-5.75A33.94,33.94,0,0,0,768,270Z"/><path class="eefbb27c-3d7b-4aad-8a2b-96fb4071f474" d="M790,265.27a39,39,0,0,0,3.73-1.54c.64,3,1.12,5.76,1.39,7.54a63.79,63.79,0,0,0,2.27,10.14,12.21,12.21,0,0,1,.72,2.53l-3.71,1.31-1.21-1-.47,1.82-5.76,2a50.9,50.9,0,0,1-5.84,1.8,10.19,10.19,0,0,0-.84-1.46l4.72-3.24a15.51,15.51,0,0,0,1.7-3.84,19.05,19.05,0,0,0,0-9.16,27.32,27.32,0,0,0-1.56-5.54A34.06,34.06,0,0,0,790,265.27Z"/><path class="fa513ba6-e9bc-4959-bb99-ae26146e909e" d="M730.61,149.46c.69.2,1.48-.79,1.81-1.5a3.15,3.15,0,0,0,0-2.55c-.43-1-1.12-.92-2-2.2s-.92-2.29-1.25-2.29-.54.79-.54,1.48c0,1.32.79,1.6,1,3s-.3,1.38,0,2.55C729.8,148.49,730,149.46,730.61,149.46Z"/><path class="fa513ba6-e9bc-4959-bb99-ae26146e909e" d="M731.86,145.1s-4-1.61-4.59-2.55-.43-1.84-.92-1.86-.35,1.68-.61,1.86-.56,0-.61.51a4.2,4.2,0,0,0,0,1.73,10.45,10.45,0,0,0,2.55,3.55,8.65,8.65,0,0,0,3.77,1.66c1.08-.13.77-4,.77-4Z"/><path class="e93f348b-75af-4a92-b596-d151c98a780b" d="M785.2,156.18a47.85,47.85,0,0,1,1-5,4.09,4.09,0,0,0-2.27-4.87l-1.19-.51c-3.87-1.54-9.3,9.06-24.51,10.52l-9.35.9c-3.34-2-6.85-4.19-10.43-6.72-2-1.44-4-2.9-5.81-4.33l-2.44,3.33a67.42,67.42,0,0,0,7.3,7.14,69.65,69.65,0,0,0,10,7c2.44.61,5,1.19,7.72,1.73s5.85,1,8.52,1.36"/><path class="f92856bf-750d-4196-b5ad-33201c76b0d7" d="M776.9,162.49a32,32,0,0,1-16.37,3.73c-.23,0-.21.56,0,.57A32,32,0,0,0,777,163C777.23,162.92,777.11,162.38,776.9,162.49Z"/><path class="e166f03c-4500-403a-a3d1-1425cec52ff3" d="M768.7,134.67l3,.26S769.8,138.54,768.7,134.67Z"/><path class="ac5450c3-ceaf-4166-881f-59abce4b2808" d="M214.35,193.11s5.89,9.9,1.65,13.34"/><path class="b46ebc0d-33ca-41d2-86f5-d0650355b625" d="M207.72,235.15c-.18,0-.9,1.41-1,1.55-.65,1.06-1.29,2.13-1.92,3.19-1.59,2.67-2,6.13-2.52,9.16-.33,1.83-.63,3.67-.93,5.51l-.32,2-.48,3a1,1,0,0,0,.29,1.07c.25.29.5.58.77.85a3.05,3.05,0,0,0,3.73.66,38.46,38.46,0,0,0,5.84-3.59,33.78,33.78,0,0,0,5-4.24s4.48,2.41,2.76,20.77c-2.16,23.05-4.31,36.35-4.31,36.35h7.11S232,287,233.66,269.49c2-20.37-1.47-30.78-1.47-30.78Z"/><path class="b46ebc0d-33ca-41d2-86f5-d0650355b625" d="M201,257.29s-.49,3.75-6.3,21.57c-7.36,22.57-16.95,33.48-16.95,33.48l6.85,2.51s18.41-19.93,26.21-36.18c9.08-18.92,9.42-30.16,9.42-30.16"/><path class="b46ebc0d-33ca-41d2-86f5-d0650355b625" d="M216.3,310.41l.46,5.42c.88,0,10.33-.22,10.45-.81s-7.21-1.78-7.21-1.78a18.84,18.84,0,0,0,0-2.6C219.88,310.35,216.3,310.41,216.3,310.41Z"/><path class="b46ebc0d-33ca-41d2-86f5-d0650355b625" d="M179.54,312.34l-1.77,4.27c.66.37,7.89,3.87,8.21,3.47s-4.75-4.16-4.75-4.16a15.36,15.36,0,0,0,1-2C182.27,313.69,179.54,312.34,179.54,312.34Z"/><path class="aa13e35b-a33d-4fc9-881b-feefce3ab5d5" d="M204.16,241.14s9.33-24,9.5-42.84c.12-13.79,28-11.07,29-4.94C244.78,207,234.69,252,234.69,252Z"/><path class="aa13e35b-a33d-4fc9-881b-feefce3ab5d5" d="M233.05,188.71l4.33-.38c11.17-.46,12.09,2.85,16.29,6.78l3.64,7s-10.88,1.73-16.46,2.22S230.27,189.12,233.05,188.71Z"/><path class="aa13e35b-a33d-4fc9-881b-feefce3ab5d5" d="M196.9,199.68s1,12.06,1.92,12.69,17.86-3.22,19.23-4.73,3.25-17.85,2.35-17.42S198.28,199,196.9,199.68Z"/><path class="fa513ba6-e9bc-4959-bb99-ae26146e909e" d="M228,176.1s-.12-3.28-1.65-3-2.63,3.54-1.81,4.73S228,178.85,228,176.1Z"/><path class="fa513ba6-e9bc-4959-bb99-ae26146e909e" d="M238.18,172.31s3.16,9.08-2.31,10.61-4.47-4.27-4.25-3.17,1.61,10.11,1.61,10.11-2.77,3.53-8,.47c-.83-.48,2.23-14.56,2.86-21.71C228.37,165.5,236.21,168.63,238.18,172.31Z"/><path class="b46ebc0d-33ca-41d2-86f5-d0650355b625" d="M228.62,165.82s1.24-4.25,3.86-3.26,2.26,2.45,4.16,1.63,3.85,2.17,2.84,4.07c-1.32,2.49-1.3,3.26-4.92,2.45s-5.52-2.09-6.33-.64.63,5.16-.45,5.61-1-2.44-1.81-1.36-2.08,3.86.09,3.52.56,2.55-.26,2.46-4.6-3.19-4.17-7.33c.27-2.63,3-1.27,2.26-3.17S224.86,163.83,228.62,165.82Z"/><path class="b6d41f3e-4556-4705-acb4-3d41204f0975" d="M251.22,179.69a20.65,20.65,0,1,1-20.64-20.64h0A20.64,20.64,0,0,1,251.22,179.69Zm146.21-37.63H195.77v76.86H397.43Z"/><path class="fb199031-7914-4fb6-90e8-0ccdcb7f9391" d="M251.32,179.69a20.56,20.56,0,0,1-6.92,15.42A20.64,20.64,0,0,0,215.23,166a20.64,20.64,0,0,1,36.09,13.69Z"/><polygon class="e0b51869-35fc-44fa-aa19-c2ca1879d970" points="193.17 220.49 195.77 218.92 195.77 142.06 193.17 143.63 193.17 220.49"/><polygon class="fb199031-7914-4fb6-90e8-0ccdcb7f9391" points="193.17 220.49 394.82 220.49 397.43 218.92 195.77 218.92 193.17 220.49"/><path class="fa513ba6-e9bc-4959-bb99-ae26146e909e" d="M212.35,218.85,213,220a.94.94,0,0,0,.73.47l1.8.15a.89.89,0,0,0,.77-.27l1.42-1.59h-1.48a.81.81,0,0,0,0-.74s-.21-.29-.32-.2a4.84,4.84,0,0,0-.42.44s.21-.68,0-.88-.23,0-.35,0-.35.73-.35.73a3.48,3.48,0,0,0,0-.79.33.33,0,0,0-.42,0,6.29,6.29,0,0,0-1.09,1.21Z"/><path class="fa513ba6-e9bc-4959-bb99-ae26146e909e" d="M242.17,219l.73,1.12a1,1,0,0,0,.77.41h1.8a1.06,1.06,0,0,0,.77-.32l1.12-1.3H246a4.18,4.18,0,0,0,0-1s-.2-.3-.35-.21a2.5,2.5,0,0,0-.39.47s.18-.68,0-.88-.23,0-.38,0-.29.76-.29.76a3.48,3.48,0,0,0,0-.79.33.33,0,0,0-.42,0,6.36,6.36,0,0,0-1,1.27Z"/><rect class="a94a73ed-1c40-4ccd-a280-3cf2a59bbad5" x="302.55" y="157.84" width="76.02" height="15.42" rx="7.71"/><polyline class="f209d5e2-9343-4a7f-bc04-b500af37643e" points="353.74 201.52 335.6 186.67 324.28 165.63 351.38 165.63 335.4 186.81 318.97 195.75 308.07 176.47 289.12 192.28 275 173.02"/><line class="f209d5e2-9343-4a7f-bc04-b500af37643e" x1="289.12" y1="192.28" x2="318.97" y2="195.75"/><line class="f209d5e2-9343-4a7f-bc04-b500af37643e" x1="324.28" y1="165.62" x2="318.97" y2="195.75"/><line class="f209d5e2-9343-4a7f-bc04-b500af37643e" x1="318.97" y1="195.75" x2="289.12" y2="192.28"/><circle class="ef175963-696b-468f-8ee7-101a44441e13" cx="353.74" cy="201.52" r="4"/><circle class="a7ef3c99-4873-44df-8471-1efdc53c4899" cx="335.6" cy="186.67" r="4"/><circle class="b22711d8-3906-4994-875f-df90c0358166" cx="351.38" cy="165.62" r="4"/><circle class="b49b8040-ea11-42b2-8926-ab0f0474c482" cx="324.28" cy="165.62" r="4"/><circle class="b49b8040-ea11-42b2-8926-ab0f0474c482" cx="318.97" cy="195.75" r="4"/><circle class="b22711d8-3906-4994-875f-df90c0358166" cx="308.07" cy="176.46" r="4"/><circle class="b6ec4c11-4794-46c9-879b-8910ffc3038e" cx="289.12" cy="192.28" r="4"/><circle class="b49b8040-ea11-42b2-8926-ab0f0474c482" cx="275" cy="173.02" r="4"/><circle class="fcd16d68-7eab-40b3-8fb5-bb3722a4e05a" cx="368.75" cy="165.62" r="3.81"/><path class="f3a81888-6ce3-46e0-87da-bb502ba9c5d5" d="M373.74,168.73a5.88,5.88,0,1,0-8.09,1.89A5.88,5.88,0,0,0,373.74,168.73Z"/><path class="e166f03c-4500-403a-a3d1-1425cec52ff3" d="M234.36,179.46l2.73-.47S236.75,182.14,234.36,179.46Z"/><rect class="bf995956-6416-4bde-bc4b-20833e26d510" x="340.8" y="128.42" width="56.62" height="7.38"/><polygon class="fb199031-7914-4fb6-90e8-0ccdcb7f9391" points="394.71 137.53 338.09 137.53 340.8 135.8 397.43 135.8 394.71 137.53"/><polygon class="e0b51869-35fc-44fa-aa19-c2ca1879d970" points="338.09 137.53 340.8 135.8 340.8 128.42 338.09 130.44 338.09 137.53"/><line class="a620f2b0-8b16-4bb5-a91a-504e54a341c7" x1="345.12" y1="132.11" x2="380.43" y2="132.11"/><circle class="b6b44734-c4da-4558-aad0-d9368d479f3e" cx="390.74" cy="132.11" r="2.4"/><rect class="bf995956-6416-4bde-bc4b-20833e26d510" x="340.8" y="114.81" width="56.62" height="7.38"/><polygon class="fb199031-7914-4fb6-90e8-0ccdcb7f9391" points="394.71 123.93 338.09 123.93 340.8 122.19 397.43 122.19 394.71 123.93"/><polygon class="e0b51869-35fc-44fa-aa19-c2ca1879d970" points="338.09 123.93 340.8 122.19 340.8 114.81 338.09 116.83 338.09 123.93"/><line class="a620f2b0-8b16-4bb5-a91a-504e54a341c7" x1="345.12" y1="118.5" x2="380.43" y2="118.5"/><circle class="b6b44734-c4da-4558-aad0-d9368d479f3e" cx="390.74" cy="118.5" r="2.4"/><rect class="bf995956-6416-4bde-bc4b-20833e26d510" x="429.94" y="83.66" width="34.32" height="34.32"/><circle class="fcd16d68-7eab-40b3-8fb5-bb3722a4e05a" cx="464.26" cy="87.94" r="16.29"/><polyline class="a97756f9-6af6-4ade-bfa1-87139b23d41a" points="454.96 90.69 460.11 95.32 474.5 82.27"/><rect class="bf995956-6416-4bde-bc4b-20833e26d510" x="486.05" y="93.99" width="23.98" height="23.98"/><circle class="fcd16d68-7eab-40b3-8fb5-bb3722a4e05a" cx="510.03" cy="96.98" r="11.38"/><polyline class="fafbc28d-ee4d-4d22-b23b-ce500ede8734" points="503.54 98.91 507.13 102.14 517.19 93.02"/><rect class="bf995956-6416-4bde-bc4b-20833e26d510" x="531.33" y="100.21" width="17.77" height="17.77"/><circle class="fcd16d68-7eab-40b3-8fb5-bb3722a4e05a" cx="549.1" cy="102.42" r="8.43"/><polyline class="ff589904-9b6f-4574-b6a9-0a4d0981e7db" points="544.29 103.85 546.95 106.25 554.4 99.49"/><circle class="ee15eb1f-afa8-406e-8e38-14b4abf2c9a1" cx="560.24" cy="160.67" r="5.08"/><path class="bf995956-6416-4bde-bc4b-20833e26d510" d="M562.88,183.76c-.5-.08-1-.13-1.49-.24a6.41,6.41,0,0,1-4.19-2.62,7.2,7.2,0,0,1-.78-1.63c-.69-2-1.35-4.05-2-6.08a1.46,1.46,0,0,1,.72-1.76,1.53,1.53,0,0,1,1.92.4,2.16,2.16,0,0,1,.27.55c.42,1.11.82,2.22,1.23,3.33a.32.32,0,0,0,.14.2v-.32q0-7.26,0-14.54a1.46,1.46,0,1,1,2.91,0c0,1,0,2,0,3v3.67a1.47,1.47,0,0,1,1.82-1c1.11.3,1.15,1.18,1.13,2.11a2,2,0,0,1,.1-.21,1.45,1.45,0,0,1,1.71-.77,1.43,1.43,0,0,1,1.07,1.4v.91c.05-.1.08-.14.1-.19a1.45,1.45,0,0,1,1.69-.84,1.36,1.36,0,0,1,1,1.38c.07,1.35.18,2.7.18,4.06a13.18,13.18,0,0,1-1,5.3,5.9,5.9,0,0,1-4.94,3.8.29.29,0,0,0-.13,0Z"/><path class="bf995956-6416-4bde-bc4b-20833e26d510" d="M450.59,184.79h.32V174.5l-2.76,0c-.24,0-.3.1-.35.31-.32,1.34-.65,2.68-1,4a.45.45,0,0,1-.34.37,13,13,0,0,0-3.82,2.18.53.53,0,0,1-.55.1l-4.21-1.3-3.33,5.71,3.17,3a.53.53,0,0,1,.2.55,12,12,0,0,0,0,4.27.73.73,0,0,1-.26.73c-1,.88-1.95,1.8-2.93,2.7-.17.15-.2.26-.08.45q1.51,2.64,3,5.29c.08.16.17.2.37.14,1.33-.41,2.66-.8,4-1.18a.58.58,0,0,1,.45.07,13.9,13.9,0,0,0,3.83,2.24.5.5,0,0,1,.37.41c.2.9.41,1.8.62,2.7.11.53.24,1.07.37,1.61l3.24,0V198.62a6.92,6.92,0,0,1-.32-13.83Z"/></svg>